<?plantuml 1.2026.2?><svg xmlns="http://www.w3.org/2000/svg" xmlns:xlink="http://www.w3.org/1999/xlink" contentStyleType="text/css" data-diagram-type="STATE" height="713.5417px" preserveAspectRatio="none" style="width:344px;height:713px;" version="1.1" viewBox="0 0 344 713" width="344.7917px" zoomAndPan="magnify"><title>&#29366;&#24577;&#22270;</title><defs><linearGradient id="g1bvfjcoauiin40" x1="50%" x2="50%" y1="0%" y2="100%"><stop offset="0%" stop-color="#FFFFFF"/><stop offset="100%" stop-color="#FFFFFF"/></linearGradient><filter height="300%" id="f1bvfjcoauiin4" width="300%" x="-1" y="-1"><feGaussianBlur result="blurOut" stdDeviation="2.0833"/><feColorMatrix in="blurOut" result="blurOut2" type="matrix" values="0 0 0 0 0 0 0 0 0 0 0 0 0 0 0 0 0 0 .4 0"/><feOffset dx="4.1667" dy="4.1667" in="blurOut2" result="blurOut3"/><feBlend in="SourceGraphic" in2="blurOut3" mode="normal"/></filter><linearGradient id="g1bvfjcoauiin41" x1="50%" x2="50%" y1="0%" y2="100%"><stop offset="0%" stop-color="#4DABF5"/><stop offset="100%" stop-color="#2196F3"/></linearGradient></defs><g><g class="title" data-source-line="2"><rect fill="url(#g1bvfjcoauiin40)" height="58.6528" rx="4.1667" ry="4.1667" style="stroke:#CCCCCC;stroke-width:1.0417;" width="95.8333" x="120.1042" y="20.8333"/><text fill="#2196F3" font-family="'Verdana'" font-size="20.8333" font-weight="bold" lengthAdjust="spacing" textLength="62.5" x="136.7708" y="58.4452">&#29366;&#24577;&#22270;</text></g><g class="start_entity" data-qualified-name=".start." data-source-line="3" id="ent0002"><ellipse cx="162.6042" cy="107.6111" fill="#9C27B0" filter="url(#f1bvfjcoauiin4)" rx="10.4167" ry="10.4167" style="stroke:#1A78C2;stroke-width:1.0417;"/></g><g class="entity" data-qualified-name="..." id="ent0003"><rect fill="url(#g1bvfjcoauiin41)" filter="url(#f1bvfjcoauiin4)" height="76.4257" rx="4.1667" ry="4.1667" style="stroke:#1A78C2;stroke-width:1.0417;" width="76.0417" x="124.5833" y="181.5694"/><line style="stroke:#1A78C2;stroke-width:1.0417;" x1="124.5833" x2="200.625" y1="226.7451" y2="226.7451"/><text fill="#222222" font-family="'Verdana'" font-size="11.4583" lengthAdjust="spacing" textLength="34.375" x="145.4167" y="208.7143">&#24453;&#24320;&#22987;</text></g><g class="entity" data-qualified-name="..." id="ent0005"><rect fill="url(#g1bvfjcoauiin41)" filter="url(#f1bvfjcoauiin4)" height="76.4257" rx="4.1667" ry="4.1667" style="stroke:#1A78C2;stroke-width:1.0417;" width="76.0417" x="124.5833" y="357.6111"/><line style="stroke:#1A78C2;stroke-width:1.0417;" x1="124.5833" x2="200.625" y1="402.7868" y2="402.7868"/><text fill="#222222" font-family="'Verdana'" font-size="11.4583" lengthAdjust="spacing" textLength="34.375" x="145.4167" y="384.756">&#22788;&#29702;&#20013;</text></g><g class="entity" data-qualified-name="..." id="ent0007"><rect fill="url(#g1bvfjcoauiin41)" filter="url(#f1bvfjcoauiin4)" height="76.4257" rx="4.1667" ry="4.1667" style="stroke:#1A78C2;stroke-width:1.0417;" width="76.0417" x="61.0417" y="533.6528"/><line style="stroke:#1A78C2;stroke-width:1.0417;" x1="61.0417" x2="137.0833" y1="578.8284" y2="578.8284"/><text fill="#222222" font-family="'Verdana'" font-size="11.4583" lengthAdjust="spacing" textLength="34.375" x="81.875" y="560.7976">&#31561;&#24453;&#20013;</text></g><g class="entity" data-qualified-name="..." id="ent0010"><rect fill="url(#g1bvfjcoauiin41)" filter="url(#f1bvfjcoauiin4)" height="76.4257" rx="4.1667" ry="4.1667" style="stroke:#1A78C2;stroke-width:1.0417;" width="76.0417" x="251.6667" y="533.6528"/><line style="stroke:#1A78C2;stroke-width:1.0417;" x1="251.6667" x2="327.7083" y1="578.8284" y2="578.8284"/><text fill="#222222" font-family="'Verdana'" font-size="11.4583" lengthAdjust="spacing" textLength="34.375" x="272.5" y="560.7976">&#24050;&#23436;&#25104;</text></g><g class="end_entity" data-qualified-name=".end." data-source-line="8" id="ent0012"><ellipse cx="289.6875" cy="684.6944" fill="none" filter="url(#f1bvfjcoauiin4)" rx="11.4583" ry="11.4583" style="stroke:#9C27B0;stroke-width:1.0417;"/><ellipse cx="289.6875" cy="684.6944" fill="none" rx="6.25" ry="6.25" style="stroke:#9C27B0;stroke-width:1.0417;"/></g><!--link *start* to ???--><g class="link" data-entity-1="ent0002" data-entity-2="ent0003" data-link-type="dependency" data-source-line="3" id="lnk4"><path d="M162.6042,118.4028 C162.6042,132.3819 162.6042,152.6111 162.6042,174.8403" fill="none" id="*start*-to-&#24453;&#24320;&#22987;" style="stroke:#2196F3;stroke-width:3.125;"/><polygon fill="#2196F3" points="162.6042,181.0903,166.7708,171.7153,162.6042,175.8819,158.4375,171.7153,162.6042,181.0903" style="stroke:#2196F3;stroke-width:3.125;"/></g><!--link ??? to ???--><g class="link" data-entity-1="ent0003" data-entity-2="ent0005" data-link-type="dependency" data-source-line="4" id="lnk6"><path d="M162.6042,257.9548 C162.6042,287.2986 162.6042,321.7465 162.6042,351.0798" fill="none" id="&#24453;&#24320;&#22987;-to-&#22788;&#29702;&#20013;" style="stroke:#2196F3;stroke-width:3.125;"/><polygon fill="#2196F3" points="162.6042,357.3298,166.7708,347.9548,162.6042,352.1215,158.4375,347.9548,162.6042,357.3298" style="stroke:#2196F3;stroke-width:3.125;"/><text fill="#222222" font-family="'Verdana'" font-size="12.5" lengthAdjust="spacing" textLength="25" x="174.0625" y="312.8866">&#21551;&#21160;</text></g><!--link ??? to ???--><g class="link" data-entity-1="ent0005" data-entity-2="ent0007" data-link-type="dependency" data-source-line="5" id="lnk8"><path d="M124.3125,405.2361 C93.5104,414.3507 52.2083,432.1528 32.3958,464.9028 C16.6667,490.8923 33.513,515.8166 56.1485,536.9312" fill="none" id="&#22788;&#29702;&#20013;-to-&#31561;&#24453;&#20013;" style="stroke:#2196F3;stroke-width:3.125;"/><polygon fill="#2196F3" points="60.7188,541.1944,56.7055,531.7527,56.9102,537.6417,51.0212,537.8465,60.7188,541.1944" style="stroke:#2196F3;stroke-width:3.125;"/><text fill="#222222" font-family="'Verdana'" font-size="12.5" lengthAdjust="spacing" textLength="62.5" x="43.8542" y="488.9282">&#26242;&#20572;&#25110;&#31561;&#24453;</text></g><!--link ??? to ???--><g class="link" data-entity-1="ent0007" data-entity-2="ent0005" data-link-type="dependency" data-source-line="6" id="lnk9"><path d="M112.6667,533.3715 C123.3854,504.0382 136.1056,469.2109 146.8243,439.8671" fill="none" id="&#31561;&#24453;&#20013;-to-&#22788;&#29702;&#20013;" style="stroke:#2196F3;stroke-width:3.125;"/><polygon fill="#2196F3" points="148.9688,433.9965,141.8384,441.3728,147.1817,438.8887,149.6658,444.232,148.9688,433.9965" style="stroke:#2196F3;stroke-width:3.125;"/><text fill="#222222" font-family="'Verdana'" font-size="12.5" lengthAdjust="spacing" textLength="62.5" x="148.0208" y="488.9282">&#24674;&#22797;&#25110;&#37325;&#35797;</text></g><!--link ??? to ???--><g class="link" data-entity-1="ent0005" data-entity-2="ent0010" data-link-type="dependency" data-source-line="7" id="lnk11"><path d="M200.7292,431.4653 C210.9375,441.7257 221.5625,453.3194 230.3125,464.9028 C246.4167,486.2465 258.3028,506.8734 269.0632,527.8422" fill="none" id="&#22788;&#29702;&#20013;-to-&#24050;&#23436;&#25104;" style="stroke:#2196F3;stroke-width:3.125;"/><polygon fill="#2196F3" points="271.9167,533.4028,271.3435,523.1595,269.5388,528.7689,263.9294,526.9642,271.9167,533.4028" style="stroke:#2196F3;stroke-width:3.125;"/><text fill="#222222" font-family="'Verdana'" font-size="12.5" lengthAdjust="spacing" textLength="25" x="264.6875" y="488.9282">&#23436;&#25104;</text></g><!--link ??? to *end*--><g class="link" data-entity-1="ent0010" data-entity-2="ent0012" data-link-type="dependency" data-source-line="8" id="lnk13"><path d="M289.6875,609.9653 C289.6875,632.1215 289.6875,652.3923 289.6875,666.7986" fill="none" id="&#24050;&#23436;&#25104;-to-*end*" style="stroke:#2196F3;stroke-width:3.125;"/><polygon fill="#2196F3" points="289.6875,673.0486,293.8542,663.6736,289.6875,667.8403,285.5208,663.6736,289.6875,673.0486" style="stroke:#2196F3;stroke-width:3.125;"/></g><?plantuml-src Kop9ICrDLSXDB4ajoapaAiaioKbLUDwrxLb3uzFP-xYYjM8LT7Nj59xkQtswf-7fycukE0iYlgJb-OIs9plMAbWfF9sm_cdN2Yw444Z1yxMTG1qG1SzcDJrjdFEiOnf4a0iXXsxKiyP5JvVq0bM-REzziNugcfbFjszwkgxdMSS4aALW1XT22AG0w6e0?></g></svg>