<?plantuml 1.2026.2?><svg xmlns="http://www.w3.org/2000/svg" xmlns:xlink="http://www.w3.org/1999/xlink" contentStyleType="text/css" data-diagram-type="ACTIVITY" height="425px" preserveAspectRatio="none" style="width:558px;height:425px;" version="1.1" viewBox="0 0 558 425" width="558.3333px" zoomAndPan="magnify"><title>&#20998;&#25903;&#21028;&#23450;&#22270;</title><defs><linearGradient id="g1veq49exo9mmg0" x1="50%" x2="50%" y1="0%" y2="100%"><stop offset="0%" stop-color="#FFFFFF"/><stop offset="100%" stop-color="#FFFFFF"/></linearGradient><filter height="300%" id="f1veq49exo9mmg" width="300%" x="-1" y="-1"><feGaussianBlur result="blurOut" stdDeviation="2.0833"/><feColorMatrix in="blurOut" result="blurOut2" type="matrix" values="0 0 0 0 0 0 0 0 0 0 0 0 0 0 0 0 0 0 .4 0"/><feOffset dx="4.1667" dy="4.1667" in="blurOut2" result="blurOut3"/><feBlend in="SourceGraphic" in2="blurOut3" mode="normal"/></filter><linearGradient id="g1veq49exo9mmg1" x1="50%" x2="50%" y1="0%" y2="100%"><stop offset="0%" stop-color="#4DABF5"/><stop offset="100%" stop-color="#2196F3"/></linearGradient></defs><g><g class="title" data-source-line="2"><rect fill="url(#g1veq49exo9mmg0)" height="58.6528" rx="4.1667" ry="4.1667" style="stroke:#CCCCCC;stroke-width:1.0417;" width="137.5" x="208.901" y="20.8333"/><text fill="#2196F3" font-family="'Verdana'" font-size="20.8333" font-weight="bold" lengthAdjust="spacing" textLength="104.1667" x="225.5676" y="58.4452">&#20998;&#25903;&#21028;&#23450;&#22270;</text></g><ellipse cx="285.9843" cy="101.3611" fill="#9C27B0" filter="url(#f1veq49exo9mmg)" rx="10.4167" ry="10.4167" style="stroke:#1A78C2;stroke-width:1.0417;"/><rect fill="url(#g1veq49exo9mmg1)" filter="url(#f1veq49exo9mmg)" height="48.525" rx="4.1667" ry="4.1667" style="stroke:#2196F3;stroke-width:1.0417;" width="108.3333" x="231.8176" y="132.6111"/><text fill="#FFFFFF" font-family="'Verdana'" font-size="12.5" lengthAdjust="spacing" textLength="75" x="248.4843" y="161.8449">&#36827;&#20837;&#21028;&#23450;&#20837;&#21475;</text><polygon fill="url(#g1veq49exo9mmg0)" filter="url(#f1veq49exo9mmg)" points="33.3333,201.9694,173.4843,201.9694,185.9843,219.9819,173.4843,237.9944,33.3333,237.9944,20.8333,219.9819,33.3333,201.9694" style="stroke:#CCCCCC;stroke-width:1.0417;"/><text fill="#222222" font-family="'Verdana'" font-size="12.5" lengthAdjust="spacing" textLength="25" x="117.9921" y="260.9782">&#28385;&#36275;</text><text fill="#222222" font-family="'Verdana'" font-size="12.5" lengthAdjust="spacing" textLength="119.3176" x="43.75" y="224.9532">&#26159;&#21542;&#28385;&#36275;&#20027;&#23432;&#21355;&#26465;&#20214;?</text><rect fill="url(#g1veq49exo9mmg1)" filter="url(#f1veq49exo9mmg)" height="48.525" rx="4.1667" ry="4.1667" style="stroke:#2196F3;stroke-width:1.0417;" width="95.8333" x="55.4921" y="294.8527"/><text fill="#FFFFFF" font-family="'Verdana'" font-size="12.5" lengthAdjust="spacing" textLength="62.5" x="72.1588" y="324.0865">&#25191;&#34892;&#20027;&#20998;&#25903;</text><polygon fill="url(#g1veq49exo9mmg0)" filter="url(#f1veq49exo9mmg)" points="219.3176,201.9694,346.9686,201.9694,359.4686,219.9819,346.9686,237.9944,219.3176,237.9944,206.8176,219.9819,219.3176,201.9694" style="stroke:#CCCCCC;stroke-width:1.0417;"/><text fill="#222222" font-family="'Verdana'" font-size="12.5" lengthAdjust="spacing" textLength="106.8176" x="229.7343" y="224.9532">&#26159;&#21542;&#28385;&#36275;&#38477;&#32423;&#26465;&#20214;?</text><rect fill="url(#g1veq49exo9mmg1)" filter="url(#f1veq49exo9mmg)" height="48.525" rx="4.1667" ry="4.1667" style="stroke:#2196F3;stroke-width:1.0417;" width="108.3333" x="228.9764" y="279.6611"/><text fill="#FFFFFF" font-family="'Verdana'" font-size="12.5" lengthAdjust="spacing" textLength="75" x="245.6431" y="308.8949">&#25191;&#34892;&#38477;&#32423;&#20998;&#25903;</text><rect fill="url(#g1veq49exo9mmg1)" filter="url(#f1veq49exo9mmg)" height="48.525" rx="4.1667" ry="4.1667" style="stroke:#2196F3;stroke-width:1.0417;" width="170.8333" x="369.8853" y="274.4527"/><text fill="#FFFFFF" font-family="'Verdana'" font-size="12.5" lengthAdjust="spacing" textLength="137.5" x="386.5519" y="303.6865">&#25191;&#34892;&#40664;&#35748;&#36335;&#24452;&#25110;&#25552;&#21069;&#32467;&#26463;</text><ellipse cx="285.9843" cy="396.5027" fill="none" filter="url(#f1veq49exo9mmg)" rx="11.4583" ry="11.4583" style="stroke:#1A78C2;stroke-width:1.0417;"/><ellipse cx="285.9843" cy="396.5027" fill="none" rx="6.25" ry="6.25" style="stroke:#1A78C2;stroke-width:1.0417;"/><line style="stroke:#2196F3;stroke-width:3.125;" x1="285.9843" x2="285.9843" y1="111.7778" y2="132.6111"/><polygon fill="#2196F3" points="281.8176,122.1944,285.9843,132.6111,290.151,122.1944,285.9843,126.3611" style="stroke:#2196F3;stroke-width:1.0417;"/><line style="stroke:#2196F3;stroke-width:3.125;" x1="103.4088" x2="103.4088" y1="237.9944" y2="294.8527"/><polygon fill="#2196F3" points="99.2421,284.436,103.4088,294.8527,107.5755,284.436,103.4088,288.6027" style="stroke:#2196F3;stroke-width:1.0417;"/><line style="stroke:#2196F3;stroke-width:3.125;" x1="103.4088" x2="103.4088" y1="343.3777" y2="364.211"/><polygon fill="#2196F3" points="99.2421,353.7944,103.4088,364.211,107.5755,353.7944,103.4088,357.961" style="stroke:#2196F3;stroke-width:1.0417;"/><line style="stroke:#2196F3;stroke-width:3.125;" x1="283.1431" x2="283.1431" y1="237.9944" y2="279.6611"/><polygon fill="#2196F3" points="278.9764,269.2444,283.1431,279.6611,287.3098,269.2444,283.1431,273.4111" style="stroke:#2196F3;stroke-width:1.0417;"/><line style="stroke:#2196F3;stroke-width:3.125;" x1="283.1431" x2="283.1431" y1="328.186" y2="364.211"/><polygon fill="#2196F3" points="278.9764,353.7944,283.1431,364.211,287.3098,353.7944,283.1431,357.961" style="stroke:#2196F3;stroke-width:1.0417;"/><line style="stroke:#2196F3;stroke-width:3.125;" x1="185.9843" x2="206.8176" y1="219.9819" y2="219.9819"/><polygon fill="#2196F3" points="196.401,215.8152,206.8176,219.9819,196.401,224.1486,200.5676,219.9819" style="stroke:#2196F3;stroke-width:1.0417;"/><line style="stroke:#2196F3;stroke-width:3.125;" x1="285.9843" x2="285.9843" y1="181.1361" y2="186.3444"/><line style="stroke:#2196F3;stroke-width:3.125;" x1="285.9843" x2="103.4088" y1="186.3444" y2="186.3444"/><line style="stroke:#2196F3;stroke-width:3.125;" x1="103.4088" x2="103.4088" y1="186.3444" y2="201.9694"/><polygon fill="#2196F3" points="99.2421,191.5527,103.4088,201.9694,107.5755,191.5527,103.4088,195.7194" style="stroke:#2196F3;stroke-width:1.0417;"/><line style="stroke:#2196F3;stroke-width:3.125;" x1="359.4686" x2="455.3019" y1="219.9819" y2="219.9819"/><line style="stroke:#2196F3;stroke-width:3.125;" x1="455.3019" x2="455.3019" y1="219.9819" y2="274.4527"/><polygon fill="#2196F3" points="451.1353,264.0361,455.3019,274.4527,459.4686,264.0361,455.3019,268.2027" style="stroke:#2196F3;stroke-width:1.0417;"/><line style="stroke:#2196F3;stroke-width:3.125;" x1="455.3019" x2="455.3019" y1="322.9777" y2="364.211"/><polygon fill="#2196F3" points="451.1353,353.7944,455.3019,364.211,459.4686,353.7944,455.3019,357.961" style="stroke:#2196F3;stroke-width:1.0417;"/><line style="stroke:#2196F3;stroke-width:3.125;" x1="103.4088" x2="455.3019" y1="364.211" y2="364.211"/><line style="stroke:#2196F3;stroke-width:3.125;" x1="285.9843" x2="285.9843" y1="364.211" y2="385.0444"/><polygon fill="#2196F3" points="281.8176,374.6277,285.9843,385.0444,290.151,374.6277,285.9843,378.7944" style="stroke:#2196F3;stroke-width:1.0417;"/><?plantuml-src Kop9ICrDLSXDB4ajoapaAiaioKbLUDhHzcpA-gSTIvwkc_LqzZwkufB4eX8kgnVxPpzjNGeL1ZBw5rjpPQOfQ3oRiVxfX6NFTYzyiMtpansxdwxhUDgx-jdSXKzsRxFNL01Qa0TK0vRLv59Gi7hMkVp5mXwGGh0rrbofESMfwEQydDdxVDToc248RH1nP9r8Shjdl5YtvCNszK_tjJphcFQiVyBJpjxdkoS_cpiVg3Gl9JCDw9Fy0W00?></g></svg>