<?plantuml 1.2026.2?><svg xmlns="http://www.w3.org/2000/svg" xmlns:xlink="http://www.w3.org/1999/xlink" contentStyleType="text/css" data-diagram-type="DESCRIPTION" height="480.2083px" preserveAspectRatio="none" style="width:601px;height:480px;" version="1.1" viewBox="0 0 601 480" width="601.0417px" zoomAndPan="magnify"><title>&#20381;&#36182;&#32844;&#36131;&#22270;</title><defs><linearGradient id="g1l1s5tisnsd0k0" x1="50%" x2="50%" y1="0%" y2="100%"><stop offset="0%" stop-color="#FFFFFF"/><stop offset="100%" stop-color="#FFFFFF"/></linearGradient></defs><g><g class="title" data-source-line="2"><rect fill="url(#g1l1s5tisnsd0k0)" height="58.6528" rx="4.1667" ry="4.1667" style="stroke:#CCCCCC;stroke-width:1.0417;" width="137.5" x="227.0833" y="20.8333"/><text fill="#2196F3" font-family="'Verdana'" font-size="20.8333" font-weight="bold" lengthAdjust="spacing" textLength="104.1667" x="243.75" y="58.4452">&#20381;&#36182;&#32844;&#36131;&#22270;</text></g><!--entity entry--><g class="entity" data-qualified-name="entry" data-source-line="6" id="ent0002"><rect fill="url(#g1l1s5tisnsd0k0)" height="56.8583" rx="4.1667" ry="4.1667" style="stroke:#CCCCCC;stroke-width:2.0833;" width="79.1667" x="320.8333" y="98.2361"/><text fill="#2196F3" font-family="'Verdana'" font-size="12.5" lengthAdjust="spacing" textLength="37.5" x="341.6667" y="131.6366">&#20027;&#20837;&#21475;</text></g><!--entity validate--><g class="entity" data-qualified-name="validate" data-source-line="7" id="ent0003"><rect fill="url(#g1l1s5tisnsd0k0)" height="56.8583" rx="4.1667" ry="4.1667" style="stroke:#CCCCCC;stroke-width:2.0833;" width="116.6667" x="17.7083" y="255.5278"/><text fill="#2196F3" font-family="'Verdana'" font-size="12.5" lengthAdjust="spacing" textLength="75" x="38.5417" y="288.9282">&#36755;&#20837;&#26657;&#39564;&#20381;&#36182;</text></g><!--entity orchestrate--><g class="entity" data-qualified-name="orchestrate" data-source-line="8" id="ent0004"><rect fill="url(#g1l1s5tisnsd0k0)" height="56.8583" rx="4.1667" ry="4.1667" style="stroke:#CCCCCC;stroke-width:2.0833;" width="116.6667" x="170.8333" y="255.5278"/><text fill="#2196F3" font-family="'Verdana'" font-size="12.5" lengthAdjust="spacing" textLength="75" x="191.6667" y="288.9282">&#27969;&#31243;&#32534;&#25490;&#20381;&#36182;</text></g><!--entity state--><g class="entity" data-qualified-name="state" data-source-line="9" id="ent0005"><rect fill="url(#g1l1s5tisnsd0k0)" height="56.8583" rx="4.1667" ry="4.1667" style="stroke:#CCCCCC;stroke-width:2.0833;" width="116.6667" x="244.7917" y="412.8194"/><text fill="#2196F3" font-family="'Verdana'" font-size="12.5" lengthAdjust="spacing" textLength="75" x="265.625" y="446.2199">&#29366;&#24577;&#35760;&#24405;&#20381;&#36182;</text></g><!--entity output--><g class="entity" data-qualified-name="output" data-source-line="10" id="ent0006"><rect fill="url(#g1l1s5tisnsd0k0)" height="56.8583" rx="4.1667" ry="4.1667" style="stroke:#CCCCCC;stroke-width:2.0833;" width="116.6667" x="472.9167" y="255.5278"/><text fill="#2196F3" font-family="'Verdana'" font-size="12.5" lengthAdjust="spacing" textLength="75" x="493.75" y="288.9282">&#36755;&#20986;&#32452;&#35013;&#20381;&#36182;</text></g><!--link entry to validate--><g class="link" data-entity-1="ent0002" data-entity-2="ent0003" data-link-type="dependency" data-source-line="12" id="lnk7"><path d="M320.5104,131.7778 C276.1563,137.6632 203.9583,152.1215 152.0833,186.7778 C125.8542,204.2986 107.8074,228.4384 94.4845,250.178" fill="none" id="entry-to-validate" style="stroke:#2196F3;stroke-width:3.125;"/><polygon fill="#2196F3" points="91.2188,255.5069,99.67,249.6907,93.9402,251.0662,92.5648,245.3364,91.2188,255.5069" style="stroke:#2196F3;stroke-width:3.125;"/><text fill="#222222" font-family="'Verdana'" font-size="12.5" lengthAdjust="spacing" textLength="50" x="163.5417" y="210.8032">&#26657;&#39564;&#36755;&#20837;</text></g><!--link entry to orchestrate--><g class="link" data-entity-1="ent0002" data-entity-2="ent0004" data-link-type="dependency" data-source-line="13" id="lnk8"><path d="M320.6979,138.9444 C296.0104,147.8611 265.6979,162.9132 247.9167,186.7778 C233.25,206.4548 229.3914,228.2405 228.6101,248.9905" fill="none" id="entry-to-orchestrate" style="stroke:#2196F3;stroke-width:3.125;"/><polygon fill="#2196F3" points="228.375,255.2361,232.8914,246.0245,228.571,250.0314,224.564,245.711,228.375,255.2361" style="stroke:#2196F3;stroke-width:3.125;"/><text fill="#222222" font-family="'Verdana'" font-size="12.5" lengthAdjust="spacing" textLength="62.5" x="259.375" y="210.8032">&#35302;&#21457;&#20027;&#27969;&#31243;</text></g><!--link entry to state--><g class="link" data-entity-1="ent0002" data-entity-2="ent0005" data-link-type="dependency" data-source-line="14" id="lnk9"><path d="M361.7917,155.7257 C363.3021,203.2465 362.7396,302.6007 337.5,381.5694 C334.0729,392.2778 331.6956,397.7961 325.9873,407.2232" fill="none" id="entry-to-state" style="stroke:#2196F3;stroke-width:3.125;"/><polygon fill="#2196F3" points="322.75,412.5694,331.1701,406.7082,325.4477,408.1142,324.0418,402.3918,322.75,412.5694" style="stroke:#2196F3;stroke-width:3.125;"/><text fill="#222222" font-family="'Verdana'" font-size="12.5" lengthAdjust="spacing" textLength="50" x="370.8333" y="289.4491">&#35760;&#24405;&#29366;&#24577;</text></g><!--link entry to output--><g class="link" data-entity-1="ent0002" data-entity-2="ent0006" data-link-type="dependency" data-source-line="15" id="lnk10"><path d="M371.8125,155.6423 C381.5313,176.5694 397.1771,204.9132 417.7083,224.2778 C433.4583,239.1319 448.0589,248.4666 467.0589,257.727" fill="none" id="entry-to-output" style="stroke:#2196F3;stroke-width:3.125;"/><polygon fill="#2196F3" points="472.6771,260.4653,466.0753,252.6124,467.9952,258.1834,462.4242,260.1033,472.6771,260.4653" style="stroke:#2196F3;stroke-width:3.125;"/><text fill="#222222" font-family="'Verdana'" font-size="12.5" lengthAdjust="spacing" textLength="50" x="429.1667" y="210.8032">&#32452;&#35013;&#36755;&#20986;</text></g><!--link output to entry--><g class="link" data-entity-1="ent0006" data-entity-2="ent0002" data-link-type="dependency" data-source-line="17" id="lnk12"><path d="M526.7083,255.1007 C521.9792,233.9965 512.6563,205.5798 494.7917,186.7778 C469.4375,160.1007 435.9152,146.4702 406.2798,138.189" fill="none" id="output-to-entry" style="stroke:#2196F3;stroke-width:3.125;"/><polygon fill="#2196F3" points="400.2604,136.5069,408.1682,143.0429,405.2766,137.9086,410.4109,135.0171,400.2604,136.5069" style="stroke:#2196F3;stroke-width:3.125;"/><text fill="#222222" font-family="'Verdana'" font-size="12.5" lengthAdjust="spacing" textLength="50" x="527.0833" y="210.8032">&#36820;&#22238;&#32467;&#26524;</text></g><!--link orchestrate to state--><g class="link" data-entity-1="ent0004" data-entity-2="ent0005" data-link-type="dependency" data-source-line="16" id="lnk11"><path d="M235.7188,313.1215 C240.9479,332.8715 249.25,359.6215 260.4167,381.5694 C265.8542,392.2569 269.4058,398.1062 276.4163,407.5333" fill="none" id="orchestrate-to-state" style="stroke:#2196F3;stroke-width:3.125;"/><polygon fill="#2196F3" points="280.1458,412.5486,277.895,402.5393,277.0379,408.3692,271.208,407.5121,280.1458,412.5486" style="stroke:#2196F3;stroke-width:3.125;"/><text fill="#222222" font-family="'Verdana'" font-size="12.5" lengthAdjust="spacing" textLength="50" x="271.875" y="368.0949">&#21516;&#27493;&#36827;&#24230;</text></g><?plantuml-src NO_FIiCm7CVlUOgu-rx0Wo_X4uGkhiN-8ycKtImu12rEdUvI7KhP547nu8QishtCaiQtC6ra_DWjyFtaaqzsX4i3YWCYAFC84fxmALwN3te-racgFtEPbOWVUc5C60amTqadElR2BZuWFgTWSQ8WZa8QYdtHDmf67K72hayHsXnnQ_rLoC5K3lCM9XmRcFNXhCkHcTNZq-zhQXiQxeZuNiS4GbJDa-hbeleUgyiRW4RCSIaNR8kkpXVg9D7l7_Bd3j1SR75rmDcoAavrFe3MdeXx0g4c6BVRUvial8jjhaq712Wna7wUoU6r-Rxj1bpJK1DDd0s5ckPfizie6uYW74haLQhUfdgLoUKC_L-jT-ipZwnkPJQfYf6QtFy1?></g></svg>