<?plantuml 1.2026.2?><svg xmlns="http://www.w3.org/2000/svg" xmlns:xlink="http://www.w3.org/1999/xlink" contentStyleType="text/css" data-diagram-type="ACTIVITY" height="425px" preserveAspectRatio="none" style="width:565px;height:425px;" version="1.1" viewBox="0 0 565 425" width="565.625px" zoomAndPan="magnify"><title>&#20998;&#25903;&#21028;&#23450;&#22270;</title><defs><linearGradient id="gradm9hmlp3yh0" x1="50%" x2="50%" y1="0%" y2="100%"><stop offset="0%" stop-color="#FFFFFF"/><stop offset="100%" stop-color="#FFFFFF"/></linearGradient><filter height="300%" id="fradm9hmlp3yh" width="300%" x="-1" y="-1"><feGaussianBlur result="blurOut" stdDeviation="2.0833"/><feColorMatrix in="blurOut" result="blurOut2" type="matrix" values="0 0 0 0 0 0 0 0 0 0 0 0 0 0 0 0 0 0 .4 0"/><feOffset dx="4.1667" dy="4.1667" in="blurOut2" result="blurOut3"/><feBlend in="SourceGraphic" in2="blurOut3" mode="normal"/></filter><linearGradient id="gradm9hmlp3yh1" x1="50%" x2="50%" y1="0%" y2="100%"><stop offset="0%" stop-color="#4DABF5"/><stop offset="100%" stop-color="#2196F3"/></linearGradient></defs><g><g class="title" data-source-line="18"><rect fill="url(#gradm9hmlp3yh0)" height="58.6528" rx="4.1667" ry="4.1667" style="stroke:#CCCCCC;stroke-width:1.0417;" width="137.5" x="212.6119" y="20.8333"/><text fill="#FFFFFF" font-family="'Verdana'" font-size="20.8333" font-weight="bold" lengthAdjust="spacing" textLength="104.1667" x="229.2786" y="58.4452">&#20998;&#25903;&#21028;&#23450;&#22270;</text></g><ellipse cx="285.9843" cy="101.3611" fill="#FFFFFF" filter="url(#fradm9hmlp3yh)" rx="10.4167" ry="10.4167" style="stroke:#FFFFFF;stroke-width:1.0417;"/><rect fill="url(#gradm9hmlp3yh1)" filter="url(#fradm9hmlp3yh)" height="48.525" rx="4.1667" ry="4.1667" style="stroke:#FFFFFF;stroke-width:1.0417;" width="161.8123" x="205.0781" y="132.6111"/><text fill="#FFFFFF" font-family="'Verdana'" font-size="12.5" lengthAdjust="spacing" textLength="128.479" x="221.7448" y="161.8449">&#36827;&#20837;&#21028;&#23450;&#20837;&#21475; execute</text><polygon fill="url(#gradm9hmlp3yh0)" filter="url(#fradm9hmlp3yh)" points="33.3333,201.9694,173.4843,201.9694,185.9843,219.9819,173.4843,237.9944,33.3333,237.9944,20.8333,219.9819,33.3333,201.9694" style="stroke:#FFFFFF;stroke-width:1.0417;"/><text fill="#FFFFFF" font-family="'Verdana'" font-size="12.5" lengthAdjust="spacing" textLength="25" x="117.9921" y="260.9782">&#28385;&#36275;</text><text fill="#FFFFFF" font-family="'Verdana'" font-size="12.5" lengthAdjust="spacing" textLength="119.3176" x="43.75" y="224.9532">&#26159;&#21542;&#28385;&#36275;&#20027;&#23432;&#21355;&#26465;&#20214;?</text><rect fill="url(#gradm9hmlp3yh1)" filter="url(#fradm9hmlp3yh)" height="48.525" rx="4.1667" ry="4.1667" style="stroke:#FFFFFF;stroke-width:1.0417;" width="95.8333" x="55.4921" y="294.8527"/><text fill="#FFFFFF" font-family="'Verdana'" font-size="12.5" lengthAdjust="spacing" textLength="62.5" x="72.1588" y="324.0865">&#25191;&#34892;&#20027;&#20998;&#25903;</text><polygon fill="url(#gradm9hmlp3yh0)" filter="url(#fradm9hmlp3yh)" points="219.3176,201.9694,346.9686,201.9694,359.4686,219.9819,346.9686,237.9944,219.3176,237.9944,206.8176,219.9819,219.3176,201.9694" style="stroke:#FFFFFF;stroke-width:1.0417;"/><text fill="#FFFFFF" font-family="'Verdana'" font-size="12.5" lengthAdjust="spacing" textLength="106.8176" x="229.7343" y="224.9532">&#26159;&#21542;&#28385;&#36275;&#38477;&#32423;&#26465;&#20214;?</text><rect fill="url(#gradm9hmlp3yh1)" filter="url(#fradm9hmlp3yh)" height="48.525" rx="4.1667" ry="4.1667" style="stroke:#FFFFFF;stroke-width:1.0417;" width="108.3333" x="228.9764" y="279.6611"/><text fill="#FFFFFF" font-family="'Verdana'" font-size="12.5" lengthAdjust="spacing" textLength="75" x="245.6431" y="308.8949">&#25191;&#34892;&#38477;&#32423;&#20998;&#25903;</text><rect fill="url(#gradm9hmlp3yh1)" filter="url(#fradm9hmlp3yh)" height="48.525" rx="4.1667" ry="4.1667" style="stroke:#FFFFFF;stroke-width:1.0417;" width="170.8333" x="377.3071" y="274.4527"/><text fill="#FFFFFF" font-family="'Verdana'" font-size="12.5" lengthAdjust="spacing" textLength="137.5" x="393.9738" y="303.6865">&#25191;&#34892;&#40664;&#35748;&#36335;&#24452;&#25110;&#25552;&#21069;&#32467;&#26463;</text><ellipse cx="285.9843" cy="396.5027" fill="none" filter="url(#fradm9hmlp3yh)" rx="11.4583" ry="11.4583" style="stroke:#FFFFFF;stroke-width:1.0417;"/><ellipse cx="285.9843" cy="396.5027" fill="none" rx="6.25" ry="6.25" style="stroke:#FFFFFF;stroke-width:1.0417;"/><line style="stroke:#FFFFFF;stroke-width:3.125;" x1="285.9843" x2="285.9843" y1="111.7778" y2="132.6111"/><polygon fill="#FFFFFF" points="281.8176,122.1944,285.9843,132.6111,290.151,122.1944,285.9843,126.3611" style="stroke:#FFFFFF;stroke-width:1.0417;"/><line style="stroke:#FFFFFF;stroke-width:3.125;" x1="103.4088" x2="103.4088" y1="237.9944" y2="294.8527"/><polygon fill="#FFFFFF" points="99.2421,284.436,103.4088,294.8527,107.5755,284.436,103.4088,288.6027" style="stroke:#FFFFFF;stroke-width:1.0417;"/><line style="stroke:#FFFFFF;stroke-width:3.125;" x1="103.4088" x2="103.4088" y1="343.3777" y2="364.211"/><polygon fill="#FFFFFF" points="99.2421,353.7944,103.4088,364.211,107.5755,353.7944,103.4088,357.961" style="stroke:#FFFFFF;stroke-width:1.0417;"/><line style="stroke:#FFFFFF;stroke-width:3.125;" x1="283.1431" x2="283.1431" y1="237.9944" y2="279.6611"/><polygon fill="#FFFFFF" points="278.9764,269.2444,283.1431,279.6611,287.3098,269.2444,283.1431,273.4111" style="stroke:#FFFFFF;stroke-width:1.0417;"/><line style="stroke:#FFFFFF;stroke-width:3.125;" x1="283.1431" x2="283.1431" y1="328.186" y2="364.211"/><polygon fill="#FFFFFF" points="278.9764,353.7944,283.1431,364.211,287.3098,353.7944,283.1431,357.961" style="stroke:#FFFFFF;stroke-width:1.0417;"/><line style="stroke:#FFFFFF;stroke-width:3.125;" x1="185.9843" x2="206.8176" y1="219.9819" y2="219.9819"/><polygon fill="#FFFFFF" points="196.401,215.8152,206.8176,219.9819,196.401,224.1486,200.5676,219.9819" style="stroke:#FFFFFF;stroke-width:1.0417;"/><line style="stroke:#FFFFFF;stroke-width:3.125;" x1="285.9843" x2="285.9843" y1="181.1361" y2="186.3444"/><line style="stroke:#FFFFFF;stroke-width:3.125;" x1="285.9843" x2="103.4088" y1="186.3444" y2="186.3444"/><line style="stroke:#FFFFFF;stroke-width:3.125;" x1="103.4088" x2="103.4088" y1="186.3444" y2="201.9694"/><polygon fill="#FFFFFF" points="99.2421,191.5527,103.4088,201.9694,107.5755,191.5527,103.4088,195.7194" style="stroke:#FFFFFF;stroke-width:1.0417;"/><line style="stroke:#FFFFFF;stroke-width:3.125;" x1="359.4686" x2="462.7238" y1="219.9819" y2="219.9819"/><line style="stroke:#FFFFFF;stroke-width:3.125;" x1="462.7238" x2="462.7238" y1="219.9819" y2="274.4527"/><polygon fill="#FFFFFF" points="458.5571,264.0361,462.7238,274.4527,466.8905,264.0361,462.7238,268.2027" style="stroke:#FFFFFF;stroke-width:1.0417;"/><line style="stroke:#FFFFFF;stroke-width:3.125;" x1="462.7238" x2="462.7238" y1="322.9777" y2="364.211"/><polygon fill="#FFFFFF" points="458.5571,353.7944,462.7238,364.211,466.8905,353.7944,462.7238,357.961" style="stroke:#FFFFFF;stroke-width:1.0417;"/><line style="stroke:#FFFFFF;stroke-width:3.125;" x1="103.4088" x2="462.7238" y1="364.211" y2="364.211"/><line style="stroke:#FFFFFF;stroke-width:3.125;" x1="285.9843" x2="285.9843" y1="364.211" y2="385.0444"/><polygon fill="#FFFFFF" points="281.8176,374.6277,285.9843,385.0444,290.151,374.6277,285.9843,378.7944" style="stroke:#FFFFFF;stroke-width:1.0417;"/><?plantuml-src ZP9FIm915C3l-oackkHNq4EKuSc3v2SOTj_QuExCDexzkLUia2WKOOc4P7e8z11Oj61VnXctRz5eIalXkdCQvltURzvxl2rn12uW5mlW11kLCg4UvjX55jYuweWSeoBB7CRHTcvn8iWUv-nqNJ1FAAoB5R1PnYNOPzm2lWuw15DWMd8sO5dcUem25V5O4OwhG4s8hNa5vOaDy_gJAGkO2s8I3oUj8P8GErvJa1CYpkEbAog9wO1Wbr4hcN09ntcBGg_DXfxdo7-78C819FqhTJkIVayE7sHxObI4deoH3Z_Ryl9v-QmlZIS4Ps1M1MGCOgCTrHh9Pby5tN3yEdqFvD2NzHVLwKw3yMuAwOMccbb4KmP2QLKRXDthERZuBcE0Ku6_dg_x-knZi9ByflsyHpCZiQ0L3dlXsqXEBfH_fnfDMQlFWXlLUTGejOYjEsBUDm00?></g></svg>