<?plantuml 1.2026.2?><svg xmlns="http://www.w3.org/2000/svg" xmlns:xlink="http://www.w3.org/1999/xlink" contentStyleType="text/css" data-diagram-type="DESCRIPTION" height="710.4167px" preserveAspectRatio="none" style="width:327px;height:710px;" version="1.1" viewBox="0 0 327 710" width="327.0833px" zoomAndPan="magnify"><title>&#27169;&#22359;&#25286;&#35299;&#22270;</title><defs><linearGradient id="gbe0y2vgvyrbu0" x1="50%" x2="50%" y1="0%" y2="100%"><stop offset="0%" stop-color="#FFFFFF"/><stop offset="100%" stop-color="#FFFFFF"/></linearGradient><linearGradient id="gbe0y2vgvyrbu1" x1="50%" x2="50%" y1="0%" y2="100%"><stop offset="0%" stop-color="#4DABF5"/><stop offset="100%" stop-color="#2196F3"/></linearGradient></defs><g><g class="title" data-source-line="18"><rect fill="url(#gbe0y2vgvyrbu0)" height="58.6528" rx="4.1667" ry="4.1667" style="stroke:#CCCCCC;stroke-width:1.0417;" width="137.5" x="90.1042" y="20.8333"/><text fill="#FFFFFF" font-family="'Verdana'" font-size="20.8333" font-weight="bold" lengthAdjust="spacing" textLength="104.1667" x="106.7708" y="58.4452">&#27169;&#22359;&#25286;&#35299;&#22270;</text></g><!--cluster ????????--><g class="cluster" data-qualified-name="........" data-source-line="22" id="ent0002"><path d="M20.8333,97.1944 L139.5833,97.1944 A6.25,6.25 0 0 1 143.75,101.3611 L151.0417,139.4694 L310.4167,139.4694 A4.1667,4.1667 0 0 1 314.5833,143.6361 L314.5833,694.0694 A4.1667,4.1667 0 0 1 310.4167,698.2361 L20.8333,698.2361 A4.1667,4.1667 0 0 1 16.6667,694.0694 L16.6667,101.3611 A4.1667,4.1667 0 0 1 20.8333,97.1944" fill="url(#gbe0y2vgvyrbu0)" style="stroke:#FFFFFF;stroke-width:2.0833;"/><line style="stroke:#FFFFFF;stroke-width:2.0833;" x1="16.6667" x2="151.0417" y1="139.4694" y2="139.4694"/><text fill="#FFFFFF" font-family="'Verdana'" font-size="12.5" font-weight="bold" lengthAdjust="spacing" textLength="100" x="31.25" y="122.2616">&#28909;&#28857;&#25991;&#20214;&#20869;&#37096;&#27169;&#22359;</text></g><!--entity entry--><g class="entity" data-qualified-name=".........entry" data-source-line="23" id="ent0003"><rect fill="url(#gbe0y2vgvyrbu1)" height="56.8583" rx="4.1667" ry="4.1667" style="stroke:#FFFFFF;stroke-width:1.0417;" width="264.8112" x="33.3333" y="152.4028"/><text fill="#FFFFFF" font-family="'Verdana'" font-size="12.5" lengthAdjust="spacing" textLength="223.1445" x="54.1667" y="185.8032">&#20837;&#21475;&#21327;&#35843; enqueueStrategyExecution</text></g><!--entity rules--><g class="entity" data-qualified-name=".........rules" data-source-line="24" id="ent0004"><rect fill="url(#gbe0y2vgvyrbu1)" height="56.8583" rx="4.1667" ry="4.1667" style="stroke:#FFFFFF;stroke-width:1.0417;" width="104.1667" x="58.3333" y="309.6944"/><text fill="#FFFFFF" font-family="'Verdana'" font-size="12.5" lengthAdjust="spacing" textLength="62.5" x="79.1667" y="343.0949">&#35268;&#21017;&#21028;&#23450;&#23618;</text></g><!--entity orchestration--><g class="entity" data-qualified-name=".........orchestration" data-source-line="25" id="ent0005"><rect fill="url(#gbe0y2vgvyrbu1)" height="56.8583" rx="4.1667" ry="4.1667" style="stroke:#FFFFFF;stroke-width:1.0417;" width="104.1667" x="50" y="466.9861"/><text fill="#FFFFFF" font-family="'Verdana'" font-size="12.5" lengthAdjust="spacing" textLength="62.5" x="70.8333" y="500.3866">&#21327;&#20316;&#32534;&#25490;&#23618;</text></g><!--entity result--><g class="entity" data-qualified-name=".........result" data-source-line="26" id="ent0006"><rect fill="url(#gbe0y2vgvyrbu1)" height="56.8583" rx="4.1667" ry="4.1667" style="stroke:#FFFFFF;stroke-width:1.0417;" width="104.1667" x="112.5" y="624.2778"/><text fill="#FFFFFF" font-family="'Verdana'" font-size="12.5" lengthAdjust="spacing" textLength="62.5" x="133.3333" y="657.6782">&#32467;&#26524;&#25910;&#26463;&#23618;</text></g><!--link entry to rules--><g class="link" data-entity-1="ent0003" data-entity-2="ent0004" data-link-type="dependency" data-source-line="29" id="lnk7"><path d="M140.3229,209.9028 C133.2292,219.1632 126.25,229.9444 121.875,240.9444 C113.1563,262.8611 110.7229,283.3741 110.15,303.1241" fill="none" id="entry-to-rules" style="stroke:#FFFFFF;stroke-width:3.125;"/><polygon fill="#FFFFFF" points="109.9688,309.3715,114.4055,300.1213,110.1198,304.1654,106.0757,299.8796,109.9688,309.3715" style="stroke:#FFFFFF;stroke-width:3.125;"/><text fill="#FFFFFF" font-family="'Verdana'" font-size="12.5" lengthAdjust="spacing" textLength="50" x="133.3333" y="264.9699">&#35835;&#21462;&#36755;&#20837;</text></g><!--link rules to orchestration--><g class="link" data-entity-1="ent0004" data-entity-2="ent0005" data-link-type="dependency" data-source-line="30" id="lnk8"><path d="M96.5521,367.1319 C92.4479,376.7465 88.5104,387.7361 86.4583,398.2361 C81.9688,421.184 85.1487,441.3795 90.6175,460.6608" fill="none" id="rules-to-orchestration" style="stroke:#FFFFFF;stroke-width:3.125;"/><polygon fill="#FFFFFF" points="92.3229,466.6736,93.7733,456.5174,90.9017,461.6629,85.7562,458.7913,92.3229,466.6736" style="stroke:#FFFFFF;stroke-width:3.125;"/><text fill="#FFFFFF" font-family="'Verdana'" font-size="12.5" lengthAdjust="spacing" textLength="50" x="97.9167" y="422.2616">&#36873;&#25321;&#36335;&#24452;</text></g><!--link orchestration to result--><g class="link" data-entity-1="ent0005" data-entity-2="ent0006" data-link-type="dependency" data-source-line="31" id="lnk9"><path d="M104.6563,524.6215 C107.2188,544.3819 112.2292,571.1528 121.875,593.0278 C126.6667,603.8819 129.9473,609.6975 136.9265,619.0412" fill="none" id="orchestration-to-result" style="stroke:#FFFFFF;stroke-width:3.125;"/><polygon fill="#FFFFFF" points="140.6667,624.0486,138.3947,614.0441,137.5499,619.8758,131.7182,619.031,140.6667,624.0486" style="stroke:#FFFFFF;stroke-width:3.125;"/><text fill="#FFFFFF" font-family="'Verdana'" font-size="12.5" lengthAdjust="spacing" textLength="50" x="133.3333" y="579.5532">&#27719;&#24635;&#32467;&#26524;</text></g><!--link result to entry--><g class="link" data-entity-1="ent0006" data-entity-2="ent0003" data-link-type="dependency" data-source-line="32" id="lnk10"><path d="M184.7813,624.2048 C190.5313,614.7778 196.0208,603.8819 198.9583,593.0278 C239.8333,441.9757 238.8333,392.2569 198.9583,240.9444 C196.1146,230.1528 193.9722,224.6475 188.3993,215.2204" fill="none" id="result-to-entry" style="stroke:#FFFFFF;stroke-width:3.125;"/><polygon fill="#FFFFFF" points="185.2188,209.8403,186.4028,220.0309,187.8692,214.3237,193.5764,215.7902,185.2188,209.8403" style="stroke:#FFFFFF;stroke-width:3.125;"/><text fill="#FFFFFF" font-family="'Verdana'" font-size="12.5" lengthAdjust="spacing" textLength="50" x="240.625" y="422.2616">&#22238;&#20256;&#32467;&#35770;</text></g><?plantuml-src ZPD9JiCm68NtFeKfQox00ebnnGBH4rZftzOYiOlZ01L2GfHH22e1Ac860G8MJ1iG57gQsWstm4a8jA26Pkdt_Uyz3-cIUN00EqI2e0Iv4vGLY20Epa2MUBOSuKmESfiBt3qIVar8ln1ykfquIXcqqyQ8DK5oCC151aGxQ1miILZE_WSRv4w1Cs0o6Kl3f0VCWiJECJHAin3qxynoZ0X9BLeWdNPe6aWyNalIAIgBoQOnrOdJ42KEPvdE3B_W9D-qDC_cdpq7o5yFIQKDM5-VgQDTlRxiNvshWrhJc9id6JvDMGvdYUr2asB5zvsMHMCXubU2K25wLJZLADqs5bvqPQLUVLBBIn-bwoWeXMSH_Z70ARLqgShdQgFiFvGmC7Cx7gIbC8rpnU4Pi3n9EKjXuXfHYcBhi7-rg5RtrEg5kjjNZmiX9ZmRt5yP6-Nw-s7ZhQ8tjsAC2oiFRX1a_5lnHdLR7n_gdITzTFBj2gxv4z4SGc4DtDFJ5oNXNkpVLrMvujUspLvGj1Z8BGa6-vXVq-it_lEzgYsYLZ5q2nCCfnzNz7mrAe6-LWCW2kx5wk2u_dPgTF_kzHC0?></g></svg>