<?plantuml 1.2026.2?><svg xmlns="http://www.w3.org/2000/svg" xmlns:xlink="http://www.w3.org/1999/xlink" contentStyleType="text/css" data-diagram-type="DESCRIPTION" height="710.4167px" preserveAspectRatio="none" style="width:295px;height:710px;" version="1.1" viewBox="0 0 295 710" width="295.8333px" zoomAndPan="magnify"><title>&#27169;&#22359;&#25286;&#35299;&#22270;</title><defs><linearGradient id="gqqteed4q3aga0" x1="50%" x2="50%" y1="0%" y2="100%"><stop offset="0%" stop-color="#FFFFFF"/><stop offset="100%" stop-color="#FFFFFF"/></linearGradient><linearGradient id="gqqteed4q3aga1" x1="50%" x2="50%" y1="0%" y2="100%"><stop offset="0%" stop-color="#4DABF5"/><stop offset="100%" stop-color="#2196F3"/></linearGradient></defs><g><g class="title" data-source-line="18"><rect fill="url(#gqqteed4q3aga0)" height="58.6528" rx="4.1667" ry="4.1667" style="stroke:#CCCCCC;stroke-width:1.0417;" width="137.5" x="74.4792" y="20.8333"/><text fill="#FFFFFF" font-family="'Verdana'" font-size="20.8333" font-weight="bold" lengthAdjust="spacing" textLength="104.1667" x="91.1458" y="58.4452">&#27169;&#22359;&#25286;&#35299;&#22270;</text></g><!--cluster ????????--><g class="cluster" data-qualified-name="........" data-source-line="22" id="ent0002"><path d="M20.8333,97.1944 L139.5833,97.1944 A6.25,6.25 0 0 1 143.75,101.3611 L151.0417,139.4694 L269.7917,139.4694 A4.1667,4.1667 0 0 1 273.9583,143.6361 L273.9583,694.0694 A4.1667,4.1667 0 0 1 269.7917,698.2361 L20.8333,698.2361 A4.1667,4.1667 0 0 1 16.6667,694.0694 L16.6667,101.3611 A4.1667,4.1667 0 0 1 20.8333,97.1944" fill="url(#gqqteed4q3aga0)" style="stroke:#FFFFFF;stroke-width:2.0833;"/><line style="stroke:#FFFFFF;stroke-width:2.0833;" x1="16.6667" x2="151.0417" y1="139.4694" y2="139.4694"/><text fill="#FFFFFF" font-family="'Verdana'" font-size="12.5" font-weight="bold" lengthAdjust="spacing" textLength="100" x="31.25" y="122.2616">&#28909;&#28857;&#25991;&#20214;&#20869;&#37096;&#27169;&#22359;</text></g><!--entity entry--><g class="entity" data-qualified-name=".........entry" data-source-line="23" id="ent0003"><rect fill="url(#gqqteed4q3aga1)" height="56.8583" rx="4.1667" ry="4.1667" style="stroke:#FFFFFF;stroke-width:1.0417;" width="127.0671" x="77.0833" y="152.4028"/><text fill="#FFFFFF" font-family="'Verdana'" font-size="12.5" lengthAdjust="spacing" textLength="85.4004" x="97.9167" y="185.8032">&#20837;&#21475;&#21327;&#35843; main</text></g><!--entity rules--><g class="entity" data-qualified-name=".........rules" data-source-line="24" id="ent0004"><rect fill="url(#gqqteed4q3aga1)" height="56.8583" rx="4.1667" ry="4.1667" style="stroke:#FFFFFF;stroke-width:1.0417;" width="104.1667" x="38.5417" y="309.6944"/><text fill="#FFFFFF" font-family="'Verdana'" font-size="12.5" lengthAdjust="spacing" textLength="62.5" x="59.375" y="343.0949">&#35268;&#21017;&#21028;&#23450;&#23618;</text></g><!--entity orchestration--><g class="entity" data-qualified-name=".........orchestration" data-source-line="25" id="ent0005"><rect fill="url(#gqqteed4q3aga1)" height="56.8583" rx="4.1667" ry="4.1667" style="stroke:#FFFFFF;stroke-width:1.0417;" width="104.1667" x="38.5417" y="466.9861"/><text fill="#FFFFFF" font-family="'Verdana'" font-size="12.5" lengthAdjust="spacing" textLength="62.5" x="59.375" y="500.3866">&#21327;&#20316;&#32534;&#25490;&#23618;</text></g><!--entity result--><g class="entity" data-qualified-name=".........result" data-source-line="26" id="ent0006"><rect fill="url(#gqqteed4q3aga1)" height="56.8583" rx="4.1667" ry="4.1667" style="stroke:#FFFFFF;stroke-width:1.0417;" width="104.1667" x="92.7083" y="624.2778"/><text fill="#FFFFFF" font-family="'Verdana'" font-size="12.5" lengthAdjust="spacing" textLength="62.5" x="113.5417" y="657.6782">&#32467;&#26524;&#25910;&#26463;&#23618;</text></g><!--link entry to rules--><g class="link" data-entity-1="ent0003" data-entity-2="ent0004" data-link-type="dependency" data-source-line="29" id="lnk7"><path d="M118.7708,209.7048 C112.3854,219.1215 106.0521,230.0382 102.0833,240.9444 C94.0208,263.1111 91.5851,283.6053 90.8247,303.2824" fill="none" id="entry-to-rules" style="stroke:#FFFFFF;stroke-width:3.125;"/><polygon fill="#FFFFFF" points="90.5833,309.5278,95.1089,300.3206,90.7845,304.3233,86.7818,299.9988,90.5833,309.5278" style="stroke:#FFFFFF;stroke-width:3.125;"/><text fill="#FFFFFF" font-family="'Verdana'" font-size="12.5" lengthAdjust="spacing" textLength="50" x="113.5417" y="264.9699">&#35835;&#21462;&#36755;&#20837;</text></g><!--link rules to orchestration--><g class="link" data-entity-1="ent0004" data-entity-2="ent0005" data-link-type="dependency" data-source-line="30" id="lnk8"><path d="M76.7604,367.1319 C72.6563,376.7465 68.7188,387.7361 66.6667,398.2361 C63.4688,414.5903 63.4688,419.3819 66.6667,435.7361 C68.7188,446.2361 70.2025,451.4775 74.3067,461.0921" fill="none" id="rules-to-orchestration" style="stroke:#FFFFFF;stroke-width:3.125;"/><polygon fill="#FFFFFF" points="76.7604,466.8403,76.912,456.5821,74.7156,462.0501,69.2477,459.8538,76.7604,466.8403" style="stroke:#FFFFFF;stroke-width:3.125;"/><text fill="#FFFFFF" font-family="'Verdana'" font-size="12.5" lengthAdjust="spacing" textLength="50" x="78.125" y="422.2616">&#36873;&#25321;&#36335;&#24452;</text></g><!--link orchestration to result--><g class="link" data-entity-1="ent0005" data-entity-2="ent0006" data-link-type="dependency" data-source-line="31" id="lnk9"><path d="M90.2604,524.5694 C90.8646,544.309 93.4896,571.0694 102.0833,593.0278 C106.3646,603.9653 109.4221,609.7112 116.3596,618.982" fill="none" id="orchestration-to-result" style="stroke:#FFFFFF;stroke-width:3.125;"/><polygon fill="#FFFFFF" points="120.1042,623.9861,117.8233,613.9836,116.9837,619.816,111.1512,618.9764,120.1042,623.9861" style="stroke:#FFFFFF;stroke-width:3.125;"/><text fill="#FFFFFF" font-family="'Verdana'" font-size="12.5" lengthAdjust="spacing" textLength="50" x="113.5417" y="579.5532">&#27719;&#24635;&#32467;&#26524;</text></g><!--link result to entry--><g class="link" data-entity-1="ent0006" data-entity-2="ent0003" data-link-type="dependency" data-source-line="32" id="lnk10"><path d="M164.9896,624.2048 C170.7396,614.7778 176.2292,603.8819 179.1667,593.0278 C220.0417,441.9757 223.8958,390.8923 179.1667,240.9444 C175.8854,229.9444 173.331,224.2558 166.9664,214.912" fill="none" id="result-to-entry" style="stroke:#FFFFFF;stroke-width:3.125;"/><polygon fill="#FFFFFF" points="163.4479,209.7465,165.282,219.8404,166.38,214.0511,172.1694,215.1491,163.4479,209.7465" style="stroke:#FFFFFF;stroke-width:3.125;"/><text fill="#FFFFFF" font-family="'Verdana'" font-size="12.5" lengthAdjust="spacing" textLength="50" x="221.875" y="422.2616">&#22238;&#20256;&#32467;&#35770;</text></g><?plantuml-src ZPFBJW8n58RtVOgAQr_0XOcNk79Xv0cQuG2DCorsYeOO4o9UOvH43SQxHesu46M3KP2deMLy2ykCew1XP9RzltxddvbsIAR10UmG2O8IvCvJbY62E3W1IPArvJHdSfBRNE3XQV_fGiQ5u4lzmXdAe5ysIwnvae89BX8W-a5pO4d2KlO_s2HtCfm1az5O71Qom2o8x1n2CpG9dVw3AMU9aDIY6J9eXwuDaP_NadIHoboqDAG6CKrHud2M64pu1KTvuz8Sct_UkOFyTKWgRS2wVAtEZ_JEXdT_eqwRNTlSD4dm9SfIE4bi5xeIA_pVSPap2X6U4eGomQd2iNRXiRtwgakRhNfDRQn_5Ch1e1XUHlX7W6Dg_KuLRzHkqNikc2j0MGmJ5vj8v7f1xtvDRHshhLjLEL7LLHyJMHlSNxxTOklzhDqewRtz4EF2IeCh1P6KirwyNJ_G5sVwiARFBx-ju9fRXrOGyclWaP6nO18UnTvJNHLBNlF0z4R1OYVkcM2mZ_ostddmNfvKSmtrXhxDds0uNTtK-NfG0dsjTe1Wy2XMfnUjnfN9lShR9m00?></g></svg>