<?plantuml 1.2026.2?><svg xmlns="http://www.w3.org/2000/svg" xmlns:xlink="http://www.w3.org/1999/xlink" contentStyleType="text/css" data-diagram-type="DESCRIPTION" height="710.4167px" preserveAspectRatio="none" style="width:306px;height:710px;" version="1.1" viewBox="0 0 306 710" width="306.25px" zoomAndPan="magnify"><title>&#27169;&#22359;&#25286;&#35299;&#22270;</title><defs><linearGradient id="g1vctfhknm5ynd0" x1="50%" x2="50%" y1="0%" y2="100%"><stop offset="0%" stop-color="#FFFFFF"/><stop offset="100%" stop-color="#FFFFFF"/></linearGradient><linearGradient id="g1vctfhknm5ynd1" x1="50%" x2="50%" y1="0%" y2="100%"><stop offset="0%" stop-color="#4DABF5"/><stop offset="100%" stop-color="#2196F3"/></linearGradient></defs><g><g class="title" data-source-line="18"><rect fill="url(#g1vctfhknm5ynd0)" height="58.6528" rx="4.1667" ry="4.1667" style="stroke:#CCCCCC;stroke-width:1.0417;" width="137.5" x="79.6875" y="20.8333"/><text fill="#FFFFFF" font-family="'Verdana'" font-size="20.8333" font-weight="bold" lengthAdjust="spacing" textLength="104.1667" x="96.3542" y="58.4452">&#27169;&#22359;&#25286;&#35299;&#22270;</text></g><!--cluster ????????--><g class="cluster" data-qualified-name="........" data-source-line="22" id="ent0002"><path d="M20.8333,97.1944 L139.5833,97.1944 A6.25,6.25 0 0 1 143.75,101.3611 L151.0417,139.4694 L289.5833,139.4694 A4.1667,4.1667 0 0 1 293.75,143.6361 L293.75,694.0694 A4.1667,4.1667 0 0 1 289.5833,698.2361 L20.8333,698.2361 A4.1667,4.1667 0 0 1 16.6667,694.0694 L16.6667,101.3611 A4.1667,4.1667 0 0 1 20.8333,97.1944" fill="url(#g1vctfhknm5ynd0)" style="stroke:#FFFFFF;stroke-width:2.0833;"/><line style="stroke:#FFFFFF;stroke-width:2.0833;" x1="16.6667" x2="151.0417" y1="139.4694" y2="139.4694"/><text fill="#FFFFFF" font-family="'Verdana'" font-size="12.5" font-weight="bold" lengthAdjust="spacing" textLength="100" x="31.25" y="122.2616">&#28909;&#28857;&#25991;&#20214;&#20869;&#37096;&#27169;&#22359;</text></g><!--entity entry--><g class="entity" data-qualified-name=".........entry" data-source-line="23" id="ent0003"><rect fill="url(#g1vctfhknm5ynd1)" height="56.8583" rx="4.1667" ry="4.1667" style="stroke:#FFFFFF;stroke-width:1.0417;" width="243.101" x="33.8542" y="152.4028"/><text fill="#FFFFFF" font-family="'Verdana'" font-size="12.5" lengthAdjust="spacing" textLength="201.4343" x="54.6875" y="185.8032">&#20837;&#21475;&#21327;&#35843; inferRegistrableDomain</text></g><!--entity rules--><g class="entity" data-qualified-name=".........rules" data-source-line="24" id="ent0004"><rect fill="url(#g1vctfhknm5ynd1)" height="56.8583" rx="4.1667" ry="4.1667" style="stroke:#FFFFFF;stroke-width:1.0417;" width="104.1667" x="47.9167" y="309.6944"/><text fill="#FFFFFF" font-family="'Verdana'" font-size="12.5" lengthAdjust="spacing" textLength="62.5" x="68.75" y="343.0949">&#35268;&#21017;&#21028;&#23450;&#23618;</text></g><!--entity orchestration--><g class="entity" data-qualified-name=".........orchestration" data-source-line="25" id="ent0005"><rect fill="url(#g1vctfhknm5ynd1)" height="56.8583" rx="4.1667" ry="4.1667" style="stroke:#FFFFFF;stroke-width:1.0417;" width="104.1667" x="42.7083" y="466.9861"/><text fill="#FFFFFF" font-family="'Verdana'" font-size="12.5" lengthAdjust="spacing" textLength="62.5" x="63.5417" y="500.3866">&#21327;&#20316;&#32534;&#25490;&#23618;</text></g><!--entity result--><g class="entity" data-qualified-name=".........result" data-source-line="26" id="ent0006"><rect fill="url(#g1vctfhknm5ynd1)" height="56.8583" rx="4.1667" ry="4.1667" style="stroke:#FFFFFF;stroke-width:1.0417;" width="104.1667" x="101.0417" y="624.2778"/><text fill="#FFFFFF" font-family="'Verdana'" font-size="12.5" lengthAdjust="spacing" textLength="62.5" x="121.875" y="657.6782">&#32467;&#26524;&#25910;&#26463;&#23618;</text></g><!--link entry to rules--><g class="link" data-entity-1="ent0003" data-entity-2="ent0004" data-link-type="dependency" data-source-line="29" id="lnk7"><path d="M129.9063,209.9028 C122.8125,219.1632 115.8333,229.9444 111.4583,240.9444 C102.7396,262.8611 100.3062,283.3741 99.7333,303.1241" fill="none" id="entry-to-rules" style="stroke:#FFFFFF;stroke-width:3.125;"/><polygon fill="#FFFFFF" points="99.5521,309.3715,103.9888,300.1213,99.7031,304.1654,95.659,299.8796,99.5521,309.3715" style="stroke:#FFFFFF;stroke-width:3.125;"/><text fill="#FFFFFF" font-family="'Verdana'" font-size="12.5" lengthAdjust="spacing" textLength="50" x="122.9167" y="264.9699">&#35835;&#21462;&#36755;&#20837;</text></g><!--link rules to orchestration--><g class="link" data-entity-1="ent0004" data-entity-2="ent0005" data-link-type="dependency" data-source-line="30" id="lnk8"><path d="M86.1354,367.1319 C82.0313,376.7465 78.0938,387.7361 76.0417,398.2361 C71.5208,421.3194 75.3745,441.5788 81.687,460.8184" fill="none" id="rules-to-orchestration" style="stroke:#FFFFFF;stroke-width:3.125;"/><polygon fill="#FFFFFF" points="83.6354,466.7569,84.6718,456.5502,82.0117,461.8081,76.7538,459.1481,83.6354,466.7569" style="stroke:#FFFFFF;stroke-width:3.125;"/><text fill="#FFFFFF" font-family="'Verdana'" font-size="12.5" lengthAdjust="spacing" textLength="50" x="87.5" y="422.2616">&#36873;&#25321;&#36335;&#24452;</text></g><!--link orchestration to result--><g class="link" data-entity-1="ent0005" data-entity-2="ent0006" data-link-type="dependency" data-source-line="31" id="lnk9"><path d="M96.3438,524.5798 C98.2083,544.3194 102.3438,571.0798 111.4583,593.0278 C115.9688,603.8923 119.1096,609.665 125.9221,619.0088" fill="none" id="orchestration-to-result" style="stroke:#FFFFFF;stroke-width:3.125;"/><polygon fill="#FFFFFF" points="129.6042,624.059,127.4478,614.0289,126.5358,619.8505,120.7142,618.9384,129.6042,624.059" style="stroke:#FFFFFF;stroke-width:3.125;"/><text fill="#FFFFFF" font-family="'Verdana'" font-size="12.5" lengthAdjust="spacing" textLength="50" x="122.9167" y="579.5532">&#27719;&#24635;&#32467;&#26524;</text></g><!--link result to entry--><g class="link" data-entity-1="ent0006" data-entity-2="ent0003" data-link-type="dependency" data-source-line="32" id="lnk10"><path d="M174.125,623.9861 C179.9688,614.6319 185.5417,603.8298 188.5417,593.0278 C230.4063,442.2465 228.4167,392.2569 188.5417,240.9444 C185.6979,230.1528 183.5556,224.6475 177.9826,215.2204" fill="none" id="result-to-entry" style="stroke:#FFFFFF;stroke-width:3.125;"/><polygon fill="#FFFFFF" points="174.8021,209.8403,175.9861,220.0309,177.4525,214.3237,183.1597,215.7902,174.8021,209.8403" style="stroke:#FFFFFF;stroke-width:3.125;"/><text fill="#FFFFFF" font-family="'Verdana'" font-size="12.5" lengthAdjust="spacing" textLength="50" x="230.2083" y="422.2616">&#22238;&#20256;&#32467;&#35770;</text></g><?plantuml-src ZPFVBWD16CNlvob6NNi15n8ghbo8Fi7OVcqdTcTgTaeQaOYgFn6Q81MqHH1SQBaXb3vDPxhUmlwnjAIhUpddzvrpPlVR8Pa12x1590XAa3rFMPO8Ok4af4ZEb5ESoJWtkS33K_xJXOmBmPVwYTEKGJzjXXZp90qJN2H1z8DcmP24fSr_i3Ytifm1az5O0XPom0o8x1n2qpG5Nl_1B6U8aDIWMJ9eXww1oDThIBf8PJxQDAG6SPganE8iEPZX5npbcv3kslnpPm_vwo6fD07hsmjLFT8x6yxDfJfjTOtP6PBaIvIbSOgODdGfHlYz4pBlMeXmIn3A1bk5Ovt2VMVjHPStsyqdjL7yADm6GJ6yZF2F0OwfuhKgNQhTalDGm9IbGCn2cjfIa3aJ9hb5A8jXOcCN5ldUKUTcNMqTgwqhLJzHZsi-9d8csByITaljzqhdhQptzaEC2oC3NeYadFNYdUQ1hbNquPEkddsxWkt-XsW58Ry67XaP2vBmA7OQJLKgEwq3zoOeEFJadWGN-rZTrZjtpdD3jTPHh-Yx-GakfnytzMepA86-JZqW21x5whJMVZjtTQV--Wa0?></g></svg>