<?plantuml 1.2026.2?><svg xmlns="http://www.w3.org/2000/svg" xmlns:xlink="http://www.w3.org/1999/xlink" contentStyleType="text/css" data-diagram-type="ACTIVITY" height="1735.4167px" preserveAspectRatio="none" style="width:1161px;height:1735px;" version="1.1" viewBox="0 0 1161 1735" width="1161.4583px" zoomAndPan="magnify"><title>&#20844;&#21496;&#30740;&#31350; V4 &#20027;&#36335;&#24452;</title><defs><linearGradient id="g7pqvsrdba67f0" x1="50%" x2="50%" y1="0%" y2="100%"><stop offset="0%" stop-color="#FFFFFF"/><stop offset="100%" stop-color="#FFFFFF"/></linearGradient><filter height="300%" id="f7pqvsrdba67f" width="300%" x="-1" y="-1"><feGaussianBlur result="blurOut" stdDeviation="2.0833"/><feColorMatrix in="blurOut" result="blurOut2" type="matrix" values="0 0 0 0 0 0 0 0 0 0 0 0 0 0 0 0 0 0 .4 0"/><feOffset dx="4.1667" dy="4.1667" in="blurOut2" result="blurOut3"/><feBlend in="SourceGraphic" in2="blurOut3" mode="normal"/></filter><linearGradient id="g7pqvsrdba67f1" x1="50%" x2="50%" y1="0%" y2="100%"><stop offset="0%" stop-color="#4DABF5"/><stop offset="100%" stop-color="#2196F3"/></linearGradient></defs><g><g class="title" data-source-line="18"><rect fill="url(#g7pqvsrdba67f0)" height="58.6528" rx="4.1667" ry="4.1667" style="stroke:#CCCCCC;stroke-width:1.0417;" width="224.1292" x="467.1316" y="20.8333"/><text fill="#FFFFFF" font-family="'Verdana'" font-size="20.8333" font-weight="bold" lengthAdjust="spacing" textLength="190.7959" x="483.7982" y="58.4452">&#20844;&#21496;&#30740;&#31350; V4 &#20027;&#36335;&#24452;</text></g><ellipse cx="577.6337" cy="101.3611" fill="#9C27B0" filter="url(#f7pqvsrdba67f)" rx="10.4167" ry="10.4167" style="stroke:#1A78C2;stroke-width:1.0417;"/><rect fill="url(#g7pqvsrdba67f1)" filter="url(#f7pqvsrdba67f)" height="48.525" rx="4.1667" ry="4.1667" style="stroke:#FFFFFF;stroke-width:1.0417;" width="210.5489" x="472.3592" y="132.6111"/><text fill="#FFFFFF" font-family="'Verdana'" font-size="12.5" lengthAdjust="spacing" textLength="177.2156" x="489.0259" y="161.8449">execution-service &#27880;&#20876;&#22810;&#20195;&#22270;</text><rect fill="url(#g7pqvsrdba67f1)" filter="url(#f7pqvsrdba67f)" height="48.525" rx="4.1667" ry="4.1667" style="stroke:#FFFFFF;stroke-width:1.0417;" width="358.2296" x="398.5189" y="201.9694"/><text fill="#FFFFFF" font-family="'Verdana'" font-size="12.5" lengthAdjust="spacing" textLength="324.8962" x="415.1855" y="231.2032">&#20248;&#20808;&#20851;&#27880; CompanyResearchContractLangGraph (V4)</text><rect fill="url(#g7pqvsrdba67f1)" filter="url(#f7pqvsrdba67f)" height="48.525" rx="4.1667" ry="4.1667" style="stroke:#FFFFFF;stroke-width:1.0417;" width="166.6036" x="494.3319" y="271.3277"/><text fill="#FFFFFF" font-family="'Verdana'" font-size="12.5" lengthAdjust="spacing" textLength="133.2703" x="510.9985" y="300.5615">agent0_clarify_scope</text><rect fill="url(#g7pqvsrdba67f1)" filter="url(#f7pqvsrdba67f)" height="48.525" rx="4.1667" ry="4.1667" style="stroke:#FFFFFF;stroke-width:1.0417;" width="189.4552" x="482.9061" y="413.4735"/><text fill="#FFFFFF" font-family="'Verdana'" font-size="12.5" lengthAdjust="spacing" textLength="156.1218" x="499.5728" y="442.7073">&#25243;&#20986; WorkflowPauseError</text><ellipse cx="577.6337" cy="494.2902" fill="none" filter="url(#f7pqvsrdba67f)" rx="11.4583" ry="11.4583" style="stroke:#1A78C2;stroke-width:1.0417;"/><ellipse cx="577.6337" cy="494.2902" fill="none" rx="6.25" ry="6.25" style="stroke:#1A78C2;stroke-width:1.0417;"/><polygon fill="url(#g7pqvsrdba67f0)" filter="url(#f7pqvsrdba67f)" points="513.8082,340.686,641.4591,340.686,653.9591,358.6985,641.4591,376.711,513.8082,376.711,501.3082,358.6985,513.8082,340.686" style="stroke:#FFFFFF;stroke-width:1.0417;"/><text fill="#FFFFFF" font-family="'Verdana'" font-size="12.5" lengthAdjust="spacing" textLength="12.5" x="592.217" y="399.6948">&#26159;</text><text fill="#FFFFFF" font-family="'Verdana'" font-size="12.5" lengthAdjust="spacing" textLength="106.8176" x="524.2249" y="363.6698">&#38656;&#35201;&#34917;&#20805;&#30740;&#31350;&#33539;&#22260;?</text><text fill="#FFFFFF" font-family="'Verdana'" font-size="12.5" lengthAdjust="spacing" textLength="12.5" x="664.3758" y="345.6573">&#21542;</text><rect fill="url(#g7pqvsrdba67f1)" filter="url(#f7pqvsrdba67f)" height="63.7166" rx="4.1667" ry="4.1667" style="stroke:#FFFFFF;stroke-width:1.0417;" width="244.6981" x="455.2846" y="549.4985"/><text fill="#FFFFFF" font-family="'Verdana'" font-size="12.5" lengthAdjust="spacing" textLength="181.1279" x="471.9513" y="578.7323">agent1_write_research_brief</text><text fill="#FFFFFF" font-family="'Verdana'" font-size="12.5" lengthAdjust="spacing" textLength="211.3647" x="471.9513" y="593.924">&#29983;&#25104; taskContract + researchBrief</text><rect fill="url(#g7pqvsrdba67f1)" filter="url(#f7pqvsrdba67f)" height="63.7166" rx="4.1667" ry="4.1667" style="stroke:#FFFFFF;stroke-width:1.0417;" width="255.6661" x="449.8006" y="634.0485"/><text fill="#FFFFFF" font-family="'Verdana'" font-size="12.5" lengthAdjust="spacing" textLength="178.6926" x="466.4673" y="663.2823">agent2_plan_research_units</text><text fill="#FFFFFF" font-family="'Verdana'" font-size="12.5" lengthAdjust="spacing" textLength="222.3328" x="466.4673" y="678.4739">&#35268;&#21010; researchUnits / deepQuestions</text><rect fill="url(#g7pqvsrdba67f1)" filter="url(#f7pqvsrdba67f)" height="63.7166" rx="4.1667" ry="4.1667" style="stroke:#FFFFFF;stroke-width:1.0417;" width="197.4996" x="478.8839" y="718.5984"/><text fill="#FFFFFF" font-family="'Verdana'" font-size="12.5" lengthAdjust="spacing" textLength="164.1663" x="495.5505" y="747.8322">agent3_source_grounding</text><text fill="#FFFFFF" font-family="'Verdana'" font-size="12.5" lengthAdjust="spacing" textLength="138.7939" x="495.5505" y="763.0239">&#20934;&#22791; groundedSources</text><rect fill="#4CAF50" filter="url(#f7pqvsrdba67f)" height="6.25" rx="2.6042" ry="2.6042" style="stroke:#4CAF50;stroke-width:1.0417;" width="1132.3507" x="11.4583" y="803.1484"/><rect fill="url(#g7pqvsrdba67f1)" filter="url(#f7pqvsrdba67f)" height="48.525" rx="4.1667" ry="4.1667" style="stroke:#FFFFFF;stroke-width:1.0417;" width="190.4928" x="60.7229" y="830.2317"/><text fill="#FFFFFF" font-family="'Verdana'" font-size="12.5" lengthAdjust="spacing" textLength="157.1594" x="77.3895" y="859.4655">collector_official_sources</text><rect fill="url(#g7pqvsrdba67f1)" filter="url(#f7pqvsrdba67f)" height="48.525" rx="4.1667" ry="4.1667" style="stroke:#FFFFFF;stroke-width:1.0417;" width="264.0218" x="23.9583" y="899.59"/><text fill="#FFFFFF" font-family="'Verdana'" font-size="12.5" lengthAdjust="spacing" textLength="230.6885" x="40.625" y="928.8239">executeCollectorUnit(official_search)</text><rect fill="url(#g7pqvsrdba67f1)" filter="url(#f7pqvsrdba67f)" height="48.525" rx="4.1667" ry="4.1667" style="stroke:#FFFFFF;stroke-width:1.0417;" width="201.8392" x="329.1524" y="830.2317"/><text fill="#FFFFFF" font-family="'Verdana'" font-size="12.5" lengthAdjust="spacing" textLength="168.5059" x="345.8191" y="859.4655">collector_financial_sources</text><rect fill="url(#g7pqvsrdba67f1)" filter="url(#f7pqvsrdba67f)" height="48.525" rx="4.1667" ry="4.1667" style="stroke:#FFFFFF;stroke-width:1.0417;" width="263.3504" x="298.3968" y="899.59"/><text fill="#FFFFFF" font-family="'Verdana'" font-size="12.5" lengthAdjust="spacing" textLength="230.0171" x="315.0635" y="928.8239">executeCollectorUnit(financial_pack)</text><rect fill="url(#g7pqvsrdba67f1)" filter="url(#f7pqvsrdba67f)" height="48.525" rx="4.1667" ry="4.1667" style="stroke:#FFFFFF;stroke-width:1.0417;" width="181.9051" x="627.6784" y="830.2317"/><text fill="#FFFFFF" font-family="'Verdana'" font-size="12.5" lengthAdjust="spacing" textLength="148.5718" x="644.3451" y="859.4655">collector_news_sources</text><rect fill="url(#g7pqvsrdba67f1)" filter="url(#f7pqvsrdba67f)" height="48.525" rx="4.1667" ry="4.1667" style="stroke:#FFFFFF;stroke-width:1.0417;" width="255.4342" x="590.9139" y="899.59"/><text fill="#FFFFFF" font-family="'Verdana'" font-size="12.5" lengthAdjust="spacing" textLength="222.1008" x="607.5806" y="928.8239">executeCollectorUnit(news_search)</text><rect fill="url(#g7pqvsrdba67f1)" filter="url(#f7pqvsrdba67f)" height="48.525" rx="4.1667" ry="4.1667" style="stroke:#FFFFFF;stroke-width:1.0417;" width="201.0152" x="893.5293" y="830.2317"/><text fill="#FFFFFF" font-family="'Verdana'" font-size="12.5" lengthAdjust="spacing" textLength="167.6819" x="910.1959" y="859.4655">collector_industry_sources</text><rect fill="url(#g7pqvsrdba67f1)" filter="url(#f7pqvsrdba67f)" height="48.525" rx="4.1667" ry="4.1667" style="stroke:#FFFFFF;stroke-width:1.0417;" width="274.5443" x="856.7647" y="899.59"/><text fill="#FFFFFF" font-family="'Verdana'" font-size="12.5" lengthAdjust="spacing" textLength="241.2109" x="873.4314" y="928.8239">executeCollectorUnit(industry_search)</text><rect fill="#4CAF50" filter="url(#f7pqvsrdba67f)" height="6.25" rx="2.6042" ry="2.6042" style="stroke:#4CAF50;stroke-width:1.0417;" width="1132.3507" x="11.4583" y="968.9484"/><rect fill="url(#g7pqvsrdba67f1)" filter="url(#f7pqvsrdba67f)" height="63.7166" rx="4.1667" ry="4.1667" style="stroke:#FFFFFF;stroke-width:1.0417;" width="183.1991" x="486.0341" y="996.0317"/><text fill="#FFFFFF" font-family="'Verdana'" font-size="12.5" lengthAdjust="spacing" textLength="110.0281" x="502.7008" y="1025.2655">agent4_synthesis</text><text fill="#FFFFFF" font-family="'Verdana'" font-size="12.5" lengthAdjust="spacing" textLength="149.8657" x="502.7008" y="1040.4572">curateEvidence &#27719;&#24635;&#35777;&#25454;</text><rect fill="url(#g7pqvsrdba67f1)" filter="url(#f7pqvsrdba67f)" height="48.525" rx="4.1667" ry="4.1667" style="stroke:#FFFFFF;stroke-width:1.0417;" width="244.5577" x="455.3548" y="1080.5817"/><text fill="#FFFFFF" font-family="'Verdana'" font-size="12.5" lengthAdjust="spacing" textLength="211.2244" x="472.0215" y="1109.8155">agent5_gap_analysis_and_replan</text><rect fill="url(#g7pqvsrdba67f1)" filter="url(#f7pqvsrdba67f)" height="48.525" rx="4.1667" ry="4.1667" style="stroke:#FFFFFF;stroke-width:1.0417;" width="236.2996" x="459.4838" y="1222.7275"/><text fill="#FFFFFF" font-family="'Verdana'" font-size="12.5" lengthAdjust="spacing" textLength="202.9663" x="476.1505" y="1251.9613">runGapLoop &#36861;&#21152; follow-up units</text><rect fill="url(#g7pqvsrdba67f1)" filter="url(#f7pqvsrdba67f)" height="48.525" rx="4.1667" ry="4.1667" style="stroke:#FFFFFF;stroke-width:1.0417;" width="168.7398" x="493.2638" y="1302.6545"/><text fill="#FFFFFF" font-family="'Verdana'" font-size="12.5" lengthAdjust="spacing" textLength="135.4065" x="509.9304" y="1331.8883">&#20877;&#27425;&#25191;&#34892; executeUnits</text><polygon fill="url(#g7pqvsrdba67f0)" filter="url(#f7pqvsrdba67f)" points="526.3082,1149.94,628.9591,1149.94,641.4591,1167.9525,628.9591,1185.965,526.3082,1185.965,513.8082,1167.9525,526.3082,1149.94" style="stroke:#FFFFFF;stroke-width:1.0417;"/><text fill="#FFFFFF" font-family="'Verdana'" font-size="12.5" lengthAdjust="spacing" textLength="12.5" x="592.217" y="1208.9488">&#26159;</text><text fill="#FFFFFF" font-family="'Verdana'" font-size="12.5" lengthAdjust="spacing" textLength="81.8176" x="536.7249" y="1172.9238">&#36824;&#26377;&#26448;&#26009;&#31354;&#27934;?</text><text fill="#FFFFFF" font-family="'Verdana'" font-size="12.5" lengthAdjust="spacing" textLength="12.5" x="651.8758" y="1154.9113">&#21542;</text><polygon fill="url(#g7pqvsrdba67f0)" filter="url(#f7pqvsrdba67f)" points="577.6337,1372.0128,590.1337,1384.5128,577.6337,1397.0128,565.1337,1384.5128,577.6337,1372.0128" style="stroke:#FFFFFF;stroke-width:1.0417;"/><rect fill="url(#g7pqvsrdba67f1)" filter="url(#f7pqvsrdba67f)" height="48.525" rx="4.1667" ry="4.1667" style="stroke:#FFFFFF;stroke-width:1.0417;" width="201.766" x="476.7507" y="1417.8462"/><text fill="#FFFFFF" font-family="'Verdana'" font-size="12.5" lengthAdjust="spacing" textLength="168.4326" x="493.4174" y="1447.08">agent6_compress_findings</text><rect fill="url(#g7pqvsrdba67f1)" filter="url(#f7pqvsrdba67f)" height="48.525" rx="4.1667" ry="4.1667" style="stroke:#FFFFFF;stroke-width:1.0417;" width="223.0062" x="466.1306" y="1487.2045"/><text fill="#FFFFFF" font-family="'Verdana'" font-size="12.5" lengthAdjust="spacing" textLength="189.6729" x="482.7972" y="1516.4383">agent7_reference_enrichment</text><rect fill="url(#g7pqvsrdba67f1)" filter="url(#f7pqvsrdba67f)" height="48.525" rx="4.1667" ry="4.1667" style="stroke:#FFFFFF;stroke-width:1.0417;" width="175.2828" x="489.9923" y="1556.5628"/><text fill="#FFFFFF" font-family="'Verdana'" font-size="12.5" lengthAdjust="spacing" textLength="141.9495" x="506.6589" y="1585.7966">agent8_finalize_report</text><rect fill="url(#g7pqvsrdba67f1)" filter="url(#f7pqvsrdba67f)" height="48.525" rx="4.1667" ry="4.1667" style="stroke:#FFFFFF;stroke-width:1.0417;" width="143.221" x="506.0232" y="1625.9211"/><text fill="#FFFFFF" font-family="'Verdana'" font-size="12.5" lengthAdjust="spacing" textLength="109.8877" x="522.6898" y="1655.1549">agent9_reflection</text><ellipse cx="577.6337" cy="1706.7378" fill="none" filter="url(#f7pqvsrdba67f)" rx="11.4583" ry="11.4583" style="stroke:#1A78C2;stroke-width:1.0417;"/><ellipse cx="577.6337" cy="1706.7378" fill="none" rx="6.25" ry="6.25" style="stroke:#1A78C2;stroke-width:1.0417;"/><line style="stroke:#FFFFFF;stroke-width:3.125;" x1="577.6337" x2="577.6337" y1="111.7778" y2="132.6111"/><polygon fill="#FFFFFF" points="573.467,122.1944,577.6337,132.6111,581.8003,122.1944,577.6337,126.3611" style="stroke:#FFFFFF;stroke-width:1.0417;"/><line style="stroke:#FFFFFF;stroke-width:3.125;" x1="577.6337" x2="577.6337" y1="181.1361" y2="201.9694"/><polygon fill="#FFFFFF" points="573.467,191.5527,577.6337,201.9694,581.8003,191.5527,577.6337,195.7194" style="stroke:#FFFFFF;stroke-width:1.0417;"/><line style="stroke:#FFFFFF;stroke-width:3.125;" x1="577.6337" x2="577.6337" y1="250.4944" y2="271.3277"/><polygon fill="#FFFFFF" points="573.467,260.9111,577.6337,271.3277,581.8003,260.9111,577.6337,265.0777" style="stroke:#FFFFFF;stroke-width:1.0417;"/><line style="stroke:#FFFFFF;stroke-width:3.125;" x1="577.6337" x2="577.6337" y1="461.9985" y2="482.8318"/><polygon fill="#FFFFFF" points="573.467,472.4152,577.6337,482.8318,581.8003,472.4152,577.6337,476.5818" style="stroke:#FFFFFF;stroke-width:1.0417;"/><line style="stroke:#FFFFFF;stroke-width:3.125;" x1="577.6337" x2="577.6337" y1="376.711" y2="413.4735"/><polygon fill="#FFFFFF" points="573.467,403.0568,577.6337,413.4735,581.8003,403.0568,577.6337,407.2235" style="stroke:#FFFFFF;stroke-width:1.0417;"/><line style="stroke:#FFFFFF;stroke-width:3.125;" x1="653.9591" x2="682.7779" y1="358.6985" y2="358.6985"/><polygon fill="#FFFFFF" points="678.6112,451.1256,682.7779,461.5423,686.9446,451.1256,682.7779,455.2923" style="stroke:#FFFFFF;stroke-width:3.125;"/><line style="stroke:#FFFFFF;stroke-width:3.125;" x1="682.7779" x2="682.7779" y1="358.6985" y2="528.6652"/><line style="stroke:#FFFFFF;stroke-width:3.125;" x1="682.7779" x2="577.6337" y1="528.6652" y2="528.6652"/><line style="stroke:#FFFFFF;stroke-width:3.125;" x1="577.6337" x2="577.6337" y1="528.6652" y2="549.4985"/><polygon fill="#FFFFFF" points="573.467,539.0818,577.6337,549.4985,581.8003,539.0818,577.6337,543.2485" style="stroke:#FFFFFF;stroke-width:1.0417;"/><line style="stroke:#FFFFFF;stroke-width:3.125;" x1="577.6337" x2="577.6337" y1="319.8527" y2="340.686"/><polygon fill="#FFFFFF" points="573.467,330.2694,577.6337,340.686,581.8003,330.2694,577.6337,334.436" style="stroke:#FFFFFF;stroke-width:1.0417;"/><line style="stroke:#FFFFFF;stroke-width:3.125;" x1="577.6337" x2="577.6337" y1="613.2151" y2="634.0485"/><polygon fill="#FFFFFF" points="573.467,623.6318,577.6337,634.0485,581.8003,623.6318,577.6337,627.7985" style="stroke:#FFFFFF;stroke-width:1.0417;"/><line style="stroke:#FFFFFF;stroke-width:3.125;" x1="577.6337" x2="577.6337" y1="697.7651" y2="718.5984"/><polygon fill="#FFFFFF" points="573.467,708.1818,577.6337,718.5984,581.8003,708.1818,577.6337,712.3484" style="stroke:#FFFFFF;stroke-width:1.0417;"/><line style="stroke:#FFFFFF;stroke-width:3.125;" x1="155.9692" x2="155.9692" y1="878.7567" y2="899.59"/><polygon fill="#FFFFFF" points="151.8026,889.1734,155.9692,899.59,160.1359,889.1734,155.9692,893.34" style="stroke:#FFFFFF;stroke-width:1.0417;"/><line style="stroke:#FFFFFF;stroke-width:3.125;" x1="430.072" x2="430.072" y1="878.7567" y2="899.59"/><polygon fill="#FFFFFF" points="425.9054,889.1734,430.072,899.59,434.2387,889.1734,430.072,893.34" style="stroke:#FFFFFF;stroke-width:1.0417;"/><line style="stroke:#FFFFFF;stroke-width:3.125;" x1="718.631" x2="718.631" y1="878.7567" y2="899.59"/><polygon fill="#FFFFFF" points="714.4643,889.1734,718.631,899.59,722.7976,889.1734,718.631,893.34" style="stroke:#FFFFFF;stroke-width:1.0417;"/><line style="stroke:#FFFFFF;stroke-width:3.125;" x1="994.0369" x2="994.0369" y1="878.7567" y2="899.59"/><polygon fill="#FFFFFF" points="989.8702,889.1734,994.0369,899.59,998.2035,889.1734,994.0369,893.34" style="stroke:#FFFFFF;stroke-width:1.0417;"/><line style="stroke:#FFFFFF;stroke-width:3.125;" x1="155.9692" x2="155.9692" y1="809.3984" y2="830.2317"/><polygon fill="#FFFFFF" points="151.8026,819.8151,155.9692,830.2317,160.1359,819.8151,155.9692,823.9817" style="stroke:#FFFFFF;stroke-width:1.0417;"/><line style="stroke:#FFFFFF;stroke-width:3.125;" x1="430.072" x2="430.072" y1="809.3984" y2="830.2317"/><polygon fill="#FFFFFF" points="425.9054,819.8151,430.072,830.2317,434.2387,819.8151,430.072,823.9817" style="stroke:#FFFFFF;stroke-width:1.0417;"/><line style="stroke:#FFFFFF;stroke-width:3.125;" x1="718.631" x2="718.631" y1="809.3984" y2="830.2317"/><polygon fill="#FFFFFF" points="714.4643,819.8151,718.631,830.2317,722.7976,819.8151,718.631,823.9817" style="stroke:#FFFFFF;stroke-width:1.0417;"/><line style="stroke:#FFFFFF;stroke-width:3.125;" x1="994.0369" x2="994.0369" y1="809.3984" y2="830.2317"/><polygon fill="#FFFFFF" points="989.8702,819.8151,994.0369,830.2317,998.2035,819.8151,994.0369,823.9817" style="stroke:#FFFFFF;stroke-width:1.0417;"/><line style="stroke:#FFFFFF;stroke-width:3.125;" x1="155.9692" x2="155.9692" y1="948.115" y2="968.9484"/><polygon fill="#FFFFFF" points="151.8026,958.5317,155.9692,968.9484,160.1359,958.5317,155.9692,962.6984" style="stroke:#FFFFFF;stroke-width:1.0417;"/><line style="stroke:#FFFFFF;stroke-width:3.125;" x1="430.072" x2="430.072" y1="948.115" y2="968.9484"/><polygon fill="#FFFFFF" points="425.9054,958.5317,430.072,968.9484,434.2387,958.5317,430.072,962.6984" style="stroke:#FFFFFF;stroke-width:1.0417;"/><line style="stroke:#FFFFFF;stroke-width:3.125;" x1="718.631" x2="718.631" y1="948.115" y2="968.9484"/><polygon fill="#FFFFFF" points="714.4643,958.5317,718.631,968.9484,722.7976,958.5317,718.631,962.6984" style="stroke:#FFFFFF;stroke-width:1.0417;"/><line style="stroke:#FFFFFF;stroke-width:3.125;" x1="994.0369" x2="994.0369" y1="948.115" y2="968.9484"/><polygon fill="#FFFFFF" points="989.8702,958.5317,994.0369,968.9484,998.2035,958.5317,994.0369,962.6984" style="stroke:#FFFFFF;stroke-width:1.0417;"/><line style="stroke:#FFFFFF;stroke-width:3.125;" x1="577.6337" x2="577.6337" y1="782.3151" y2="803.1484"/><polygon fill="#FFFFFF" points="573.467,792.7317,577.6337,803.1484,581.8003,792.7317,577.6337,796.8984" style="stroke:#FFFFFF;stroke-width:1.0417;"/><line style="stroke:#FFFFFF;stroke-width:3.125;" x1="577.6337" x2="577.6337" y1="975.1984" y2="996.0317"/><polygon fill="#FFFFFF" points="573.467,985.615,577.6337,996.0317,581.8003,985.615,577.6337,989.7817" style="stroke:#FFFFFF;stroke-width:1.0417;"/><line style="stroke:#FFFFFF;stroke-width:3.125;" x1="577.6337" x2="577.6337" y1="1059.7483" y2="1080.5817"/><polygon fill="#FFFFFF" points="573.467,1070.165,577.6337,1080.5817,581.8003,1070.165,577.6337,1074.3317" style="stroke:#FFFFFF;stroke-width:1.0417;"/><line style="stroke:#FFFFFF;stroke-width:3.125;" x1="577.6337" x2="577.6337" y1="1271.2524" y2="1302.6545"/><polygon fill="#FFFFFF" points="573.467,1292.2379,577.6337,1302.6545,581.8003,1292.2379,577.6337,1296.4045" style="stroke:#FFFFFF;stroke-width:1.0417;"/><line style="stroke:#FFFFFF;stroke-width:3.125;" x1="577.6337" x2="577.6337" y1="1185.965" y2="1222.7275"/><polygon fill="#FFFFFF" points="573.467,1212.3108,577.6337,1222.7275,581.8003,1212.3108,577.6337,1216.4775" style="stroke:#FFFFFF;stroke-width:1.0417;"/><line style="stroke:#FFFFFF;stroke-width:3.125;" x1="641.4591" x2="706.2002" y1="1167.9525" y2="1167.9525"/><polygon fill="#FFFFFF" points="702.0335,1281.6691,706.2002,1292.0858,710.3668,1281.6691,706.2002,1285.8358" style="stroke:#FFFFFF;stroke-width:3.125;"/><line style="stroke:#FFFFFF;stroke-width:3.125;" x1="706.2002" x2="706.2002" y1="1167.9525" y2="1384.5128"/><line style="stroke:#FFFFFF;stroke-width:3.125;" x1="706.2002" x2="590.1337" y1="1384.5128" y2="1384.5128"/><polygon fill="#FFFFFF" points="600.5503,1380.3462,590.1337,1384.5128,600.5503,1388.6795,596.3837,1384.5128" style="stroke:#FFFFFF;stroke-width:1.0417;"/><line style="stroke:#FFFFFF;stroke-width:3.125;" x1="577.6337" x2="577.6337" y1="1351.1795" y2="1372.0128"/><polygon fill="#FFFFFF" points="573.467,1361.5962,577.6337,1372.0128,581.8003,1361.5962,577.6337,1365.7628" style="stroke:#FFFFFF;stroke-width:1.0417;"/><line style="stroke:#FFFFFF;stroke-width:3.125;" x1="577.6337" x2="577.6337" y1="1129.1066" y2="1149.94"/><polygon fill="#FFFFFF" points="573.467,1139.5233,577.6337,1149.94,581.8003,1139.5233,577.6337,1143.69" style="stroke:#FFFFFF;stroke-width:1.0417;"/><line style="stroke:#FFFFFF;stroke-width:3.125;" x1="577.6337" x2="577.6337" y1="1397.0128" y2="1417.8462"/><polygon fill="#FFFFFF" points="573.467,1407.4295,577.6337,1417.8462,581.8003,1407.4295,577.6337,1411.5962" style="stroke:#FFFFFF;stroke-width:1.0417;"/><line style="stroke:#FFFFFF;stroke-width:3.125;" x1="577.6337" x2="577.6337" y1="1466.3712" y2="1487.2045"/><polygon fill="#FFFFFF" points="573.467,1476.7878,577.6337,1487.2045,581.8003,1476.7878,577.6337,1480.9545" style="stroke:#FFFFFF;stroke-width:1.0417;"/><line style="stroke:#FFFFFF;stroke-width:3.125;" x1="577.6337" x2="577.6337" y1="1535.7295" y2="1556.5628"/><polygon fill="#FFFFFF" points="573.467,1546.1461,577.6337,1556.5628,581.8003,1546.1461,577.6337,1550.3128" style="stroke:#FFFFFF;stroke-width:1.0417;"/><line style="stroke:#FFFFFF;stroke-width:3.125;" x1="577.6337" x2="577.6337" y1="1605.0878" y2="1625.9211"/><polygon fill="#FFFFFF" points="573.467,1615.5045,577.6337,1625.9211,581.8003,1615.5045,577.6337,1619.6711" style="stroke:#FFFFFF;stroke-width:1.0417;"/><line style="stroke:#FFFFFF;stroke-width:3.125;" x1="577.6337" x2="577.6337" y1="1674.4461" y2="1695.2794"/><polygon fill="#FFFFFF" points="573.467,1684.8628,577.6337,1695.2794,581.8003,1684.8628,577.6337,1689.0294" style="stroke:#FFFFFF;stroke-width:1.0417;"/><?plantuml-src ZLHTJnD157tVNp76bpQ6-8LVzC48WYzzG0ZuGh8PjtVRIRSpwymiM9yWKWe48Z74eA12H924I0n42IZy6MQx_WjdsYx5a7xiqsRkkMVElVVSkI9pK01Km18umPR84-fZZWie0ouEF3d0gEnZ7kFewa3rkm1vn3cRQ1PC4mhDOeFOoUCiz3AU0TuCD0IEn3JhjO7riOBFA53P6ZOCBmAW3hJK78FIn0MZlpFAGSmbSOYFEzLm8Q5bUnr9neaijYQDKPqmFIQum6YcCy8wk1NliDIsQLEpWLpca4HwW5HfLxqvhAmlLtP-ej5kT7Pu7FtQKoVJbYMaRfBL0o_12IHXj4i07oSEe73_cvfPK9iVpew_gDMJbDLpzdj5bMPLQL-7gdR0j3W40Z1tSdtwPeuTcTPEUiAndqE9qUwaJjBse_A6xNYO4xTe2uVvaBA8Yn9_roQZhQbeuwigbMhIeeNNQlNWOHBfNQ4e4Qxi9Is4UiBvLLK-GiyOpxiUcnZ4WO1-RI-Uqb4XcM-19m0brD9MqWAQ8Mxzsfls12SIR5uNQJ_d1DmnMbd-7Cuk8Ob5FjQDhg4OrMj0iV9RjkzXsc08A95YZ4RRqshsxNdAY3b5r_KkW_yq064QAMAAsxPW0NV0pd8MQ7KqEqPLUKPjbb7j13B3LO3Ei5nTfAdPOPwdzv9ncxckzZ3swYp255qVbzdx6ie8I3IGLL6w-uODuImcz7zEbr1CEoDjG7tzcBJWf30XsjFLKEtq4Pe9XEJ5zdmDPCof3O2gNQotlziMHQeD9OYUcnDmlIRzuoHZtWSK_YY7ayVHtbIu-3qUrnqxYtqRK-mLTOh-oUZf6nFKN1kTheHhS-77fV3T-yhEKNZmwP9VUK2VO3_Dc8-YqpzgVbthyRHnkm8VLVrJBKVDB8Qx6-7SThInWEgrZTIYJUnyrtRqqcdF2JD0OwHpZztJ6btWfYWRA2TEhg1Fu-Zzwi0zyigiWi_uUU21IJFTr7vDMMQL_W40?></g></svg>