<?plantuml 1.2026.2?><svg xmlns="http://www.w3.org/2000/svg" xmlns:xlink="http://www.w3.org/1999/xlink" contentStyleType="text/css" data-diagram-type="ACTIVITY" height="1369.7917px" preserveAspectRatio="none" style="width:471px;height:1369px;" version="1.1" viewBox="0 0 471 1369" width="471.875px" zoomAndPan="magnify"><title>&#20998;&#25903;&#21028;&#23450;&#22270;</title><defs><linearGradient id="g10kops4etzv9y0" x1="50%" x2="50%" y1="0%" y2="100%"><stop offset="0%" stop-color="#FFFFFF"/><stop offset="100%" stop-color="#FFFFFF"/></linearGradient><filter height="300%" id="f10kops4etzv9y" width="300%" x="-1" y="-1"><feGaussianBlur result="blurOut" stdDeviation="2.0833"/><feColorMatrix in="blurOut" result="blurOut2" type="matrix" values="0 0 0 0 0 0 0 0 0 0 0 0 0 0 0 0 0 0 .4 0"/><feOffset dx="4.1667" dy="4.1667" in="blurOut2" result="blurOut3"/><feBlend in="SourceGraphic" in2="blurOut3" mode="normal"/></filter><linearGradient id="g10kops4etzv9y1" x1="50%" x2="50%" y1="0%" y2="100%"><stop offset="0%" stop-color="#4DABF5"/><stop offset="100%" stop-color="#2196F3"/></linearGradient></defs><g><g class="title" data-source-line="18"><rect fill="url(#g10kops4etzv9y0)" height="58.6528" rx="4.1667" ry="4.1667" style="stroke:#CCCCCC;stroke-width:1.0417;" width="137.5" x="165.8112" y="20.8333"/><text fill="#FFFFFF" font-family="'Verdana'" font-size="20.8333" font-weight="bold" lengthAdjust="spacing" textLength="104.1667" x="182.4778" y="58.4452">&#20998;&#25903;&#21028;&#23450;&#22270;</text></g><ellipse cx="226.7487" cy="101.3611" fill="#9C27B0" filter="url(#f10kops4etzv9y)" rx="10.4167" ry="10.4167" style="stroke:#1A78C2;stroke-width:1.0417;"/><rect fill="url(#g10kops4etzv9y1)" filter="url(#f10kops4etzv9y)" height="48.525" rx="4.1667" ry="4.1667" style="stroke:#FFFFFF;stroke-width:1.0417;" width="183.3333" x="135.082" y="132.6111"/><text fill="#FFFFFF" font-family="'Verdana'" font-size="12.5" lengthAdjust="spacing" textLength="150" x="151.7487" y="161.8449">&#26816;&#26597;&#34892;&#19994;&#26292;&#38706;&#19982;&#21333;&#31080;&#38598;&#20013;&#24230;</text><rect fill="url(#g10kops4etzv9y1)" filter="url(#f10kops4etzv9y)" height="48.525" rx="4.1667" ry="4.1667" style="stroke:#FFFFFF;stroke-width:1.0417;" width="188.4847" x="132.5063" y="274.7569"/><text fill="#FFFFFF" font-family="'Verdana'" font-size="12.5" lengthAdjust="spacing" textLength="155.1514" x="149.173" y="303.9907">&#36861;&#21152; correlationWarnings</text><polygon fill="url(#g10kops4etzv9y0)" filter="url(#f10kops4etzv9y)" points="74.941,201.9694,378.5563,201.9694,391.0563,219.9819,378.5563,237.9944,74.941,237.9944,62.441,219.9819,74.941,201.9694" style="stroke:#FFFFFF;stroke-width:1.0417;"/><text fill="#FFFFFF" font-family="'Verdana'" font-size="12.5" lengthAdjust="spacing" textLength="12.5" x="241.332" y="260.9782">&#26159;</text><text fill="#FFFFFF" font-family="'Verdana'" font-size="12.5" lengthAdjust="spacing" textLength="282.782" x="85.3577" y="224.9532">sector exposure &gt;= maxThemeExposurePct?</text><polygon fill="url(#g10kops4etzv9y0)" filter="url(#f10kops4etzv9y)" points="226.7487,344.1152,239.2487,356.6152,226.7487,369.1152,214.2487,356.6152,226.7487,344.1152" style="stroke:#FFFFFF;stroke-width:1.0417;"/><rect fill="url(#g10kops4etzv9y1)" filter="url(#f10kops4etzv9y)" height="48.525" rx="4.1667" ry="4.1667" style="stroke:#FFFFFF;stroke-width:1.0417;" width="202.7303" x="125.3835" y="462.736"/><text fill="#FFFFFF" font-family="'Verdana'" font-size="12.5" lengthAdjust="spacing" textLength="169.397" x="142.0502" y="491.9698">&#36861;&#21152; concentration warning</text><polygon fill="url(#g10kops4etzv9y0)" filter="url(#f10kops4etzv9y)" points="33.3333,389.9485,420.164,389.9485,432.664,407.961,420.164,425.9735,33.3333,425.9735,20.8333,407.961,33.3333,389.9485" style="stroke:#FFFFFF;stroke-width:1.0417;"/><text fill="#FFFFFF" font-family="'Verdana'" font-size="12.5" lengthAdjust="spacing" textLength="12.5" x="241.332" y="448.9573">&#26159;</text><text fill="#FFFFFF" font-family="'Verdana'" font-size="12.5" lengthAdjust="spacing" textLength="365.9973" x="43.75" y="412.9323">top position concentration &gt;= 0.85 * maxSingleNamePct?</text><polygon fill="url(#g10kops4etzv9y0)" filter="url(#f10kops4etzv9y)" points="226.7487,532.0943,239.2487,544.5943,226.7487,557.0943,214.2487,544.5943,226.7487,532.0943" style="stroke:#FFFFFF;stroke-width:1.0417;"/><rect fill="url(#g10kops4etzv9y1)" filter="url(#f10kops4etzv9y)" height="48.525" rx="4.1667" ry="4.1667" style="stroke:#FFFFFF;stroke-width:1.0417;" width="183.7606" x="134.8684" y="650.7151"/><text fill="#FFFFFF" font-family="'Verdana'" font-size="12.5" lengthAdjust="spacing" textLength="150.4272" x="151.535" y="679.9489">blockedActions += ADD</text><rect fill="url(#g10kops4etzv9y1)" filter="url(#f10kops4etzv9y)" height="48.525" rx="4.1667" ry="4.1667" style="stroke:#FFFFFF;stroke-width:1.0417;" width="198.4945" x="127.5014" y="792.8609"/><text fill="#FFFFFF" font-family="'Verdana'" font-size="12.5" lengthAdjust="spacing" textLength="165.1611" x="144.1681" y="822.0947">blockedActions += PROBE</text><polygon fill="url(#g10kops4etzv9y0)" filter="url(#f10kops4etzv9y)" points="78.5146,720.0734,374.9827,720.0734,387.4827,738.0859,374.9827,756.0984,78.5146,756.0984,66.0146,738.0859,78.5146,720.0734" style="stroke:#FFFFFF;stroke-width:1.0417;"/><text fill="#FFFFFF" font-family="'Verdana'" font-size="12.5" lengthAdjust="spacing" textLength="12.5" x="241.332" y="779.0822">&#26159;</text><text fill="#FFFFFF" font-family="'Verdana'" font-size="12.5" lengthAdjust="spacing" textLength="275.6348" x="88.9313" y="743.0573">portfolioRiskBudgetPct &lt;= defaultProbePct?</text><polygon fill="url(#g10kops4etzv9y0)" filter="url(#f10kops4etzv9y)" points="226.7487,862.2192,239.2487,874.7192,226.7487,887.2192,214.2487,874.7192,226.7487,862.2192" style="stroke:#FFFFFF;stroke-width:1.0417;"/><polygon fill="url(#g10kops4etzv9y0)" filter="url(#f10kops4etzv9y)" points="126.4028,577.9277,327.0945,577.9277,339.5945,595.9401,327.0945,613.9526,126.4028,613.9526,113.9028,595.9401,126.4028,577.9277" style="stroke:#FFFFFF;stroke-width:1.0417;"/><text fill="#FFFFFF" font-family="'Verdana'" font-size="12.5" lengthAdjust="spacing" textLength="12.5" x="241.332" y="636.9364">&#26159;</text><text fill="#FFFFFF" font-family="'Verdana'" font-size="12.5" lengthAdjust="spacing" textLength="179.8584" x="136.8195" y="600.9115">market state == RISK_OFF?</text><polygon fill="url(#g10kops4etzv9y0)" filter="url(#f10kops4etzv9y)" points="226.7487,908.0526,239.2487,920.5526,226.7487,933.0526,214.2487,920.5526,226.7487,908.0526" style="stroke:#FFFFFF;stroke-width:1.0417;"/><rect fill="url(#g10kops4etzv9y1)" filter="url(#f10kops4etzv9y)" height="48.525" rx="4.1667" ry="4.1667" style="stroke:#FFFFFF;stroke-width:1.0417;" width="183.7606" x="134.8684" y="1026.6734"/><text fill="#FFFFFF" font-family="'Verdana'" font-size="12.5" lengthAdjust="spacing" textLength="150.4272" x="151.535" y="1055.9072">blockedActions += ADD</text><polygon fill="url(#g10kops4etzv9y0)" filter="url(#f10kops4etzv9y)" points="101.8392,953.8859,351.6581,953.8859,364.1581,971.8984,351.6581,989.9109,101.8392,989.9109,89.3392,971.8984,101.8392,953.8859" style="stroke:#FFFFFF;stroke-width:1.0417;"/><text fill="#FFFFFF" font-family="'Verdana'" font-size="12.5" lengthAdjust="spacing" textLength="12.5" x="241.332" y="1012.8947">&#26159;</text><text fill="#FFFFFF" font-family="'Verdana'" font-size="12.5" lengthAdjust="spacing" textLength="228.9856" x="112.2559" y="976.8697">availableCashPct &lt; defaultProbePct?</text><polygon fill="url(#g10kops4etzv9y0)" filter="url(#f10kops4etzv9y)" points="226.7487,1096.0317,239.2487,1108.5317,226.7487,1121.0317,214.2487,1108.5317,226.7487,1096.0317" style="stroke:#FFFFFF;stroke-width:1.0417;"/><rect fill="url(#g10kops4etzv9y1)" filter="url(#f10kops4etzv9y)" height="48.525" rx="4.1667" ry="4.1667" style="stroke:#FFFFFF;stroke-width:1.0417;" width="183.7606" x="134.8684" y="1214.6525"/><text fill="#FFFFFF" font-family="'Verdana'" font-size="12.5" lengthAdjust="spacing" textLength="150.4272" x="151.535" y="1243.8863">blockedActions += ADD</text><polygon fill="url(#g10kops4etzv9y0)" filter="url(#f10kops4etzv9y)" points="119.103,1141.865,334.3943,1141.865,346.8943,1159.8775,334.3943,1177.89,119.103,1177.89,106.603,1159.8775,119.103,1141.865" style="stroke:#FFFFFF;stroke-width:1.0417;"/><text fill="#FFFFFF" font-family="'Verdana'" font-size="12.5" lengthAdjust="spacing" textLength="12.5" x="241.332" y="1200.8738">&#26159;</text><text fill="#FFFFFF" font-family="'Verdana'" font-size="12.5" lengthAdjust="spacing" textLength="194.458" x="129.5197" y="1164.8488">&#25152;&#26377; card &#37117;&#19981;&#26159; ADD / PROBE?</text><polygon fill="url(#g10kops4etzv9y0)" filter="url(#f10kops4etzv9y)" points="226.7487,1284.0108,239.2487,1296.5108,226.7487,1309.0108,214.2487,1296.5108,226.7487,1284.0108" style="stroke:#FFFFFF;stroke-width:1.0417;"/><ellipse cx="226.7487" cy="1341.3025" fill="none" filter="url(#f10kops4etzv9y)" rx="11.4583" ry="11.4583" style="stroke:#1A78C2;stroke-width:1.0417;"/><ellipse cx="226.7487" cy="1341.3025" fill="none" rx="6.25" ry="6.25" style="stroke:#1A78C2;stroke-width:1.0417;"/><line style="stroke:#FFFFFF;stroke-width:3.125;" x1="226.7487" x2="226.7487" y1="111.7778" y2="132.6111"/><polygon fill="#FFFFFF" points="222.582,122.1944,226.7487,132.6111,230.9153,122.1944,226.7487,126.3611" style="stroke:#FFFFFF;stroke-width:1.0417;"/><line style="stroke:#FFFFFF;stroke-width:3.125;" x1="226.7487" x2="226.7487" y1="237.9944" y2="274.7569"/><polygon fill="#FFFFFF" points="222.582,264.3402,226.7487,274.7569,230.9153,264.3402,226.7487,268.5069" style="stroke:#FFFFFF;stroke-width:1.0417;"/><line style="stroke:#FFFFFF;stroke-width:3.125;" x1="391.0563" x2="403.5563" y1="219.9819" y2="219.9819"/><polygon fill="#FFFFFF" points="399.3896,296.2631,403.5563,306.6798,407.723,296.2631,403.5563,300.4298" style="stroke:#FFFFFF;stroke-width:3.125;"/><line style="stroke:#FFFFFF;stroke-width:3.125;" x1="403.5563" x2="403.5563" y1="219.9819" y2="356.6152"/><line style="stroke:#FFFFFF;stroke-width:3.125;" x1="403.5563" x2="239.2487" y1="356.6152" y2="356.6152"/><polygon fill="#FFFFFF" points="249.6653,352.4485,239.2487,356.6152,249.6653,360.7819,245.4987,356.6152" style="stroke:#FFFFFF;stroke-width:1.0417;"/><line style="stroke:#FFFFFF;stroke-width:3.125;" x1="226.7487" x2="226.7487" y1="323.2819" y2="344.1152"/><polygon fill="#FFFFFF" points="222.582,333.6985,226.7487,344.1152,230.9153,333.6985,226.7487,337.8652" style="stroke:#FFFFFF;stroke-width:1.0417;"/><line style="stroke:#FFFFFF;stroke-width:3.125;" x1="226.7487" x2="226.7487" y1="181.1361" y2="201.9694"/><polygon fill="#FFFFFF" points="222.582,191.5527,226.7487,201.9694,230.9153,191.5527,226.7487,195.7194" style="stroke:#FFFFFF;stroke-width:1.0417;"/><line style="stroke:#FFFFFF;stroke-width:3.125;" x1="226.7487" x2="226.7487" y1="425.9735" y2="462.736"/><polygon fill="#FFFFFF" points="222.582,452.3193,226.7487,462.736,230.9153,452.3193,226.7487,456.486" style="stroke:#FFFFFF;stroke-width:1.0417;"/><line style="stroke:#FFFFFF;stroke-width:3.125;" x1="432.664" x2="445.164" y1="407.961" y2="407.961"/><polygon fill="#FFFFFF" points="440.9973,484.2422,445.164,494.6589,449.3306,484.2422,445.164,488.4089" style="stroke:#FFFFFF;stroke-width:3.125;"/><line style="stroke:#FFFFFF;stroke-width:3.125;" x1="445.164" x2="445.164" y1="407.961" y2="544.5943"/><line style="stroke:#FFFFFF;stroke-width:3.125;" x1="445.164" x2="239.2487" y1="544.5943" y2="544.5943"/><polygon fill="#FFFFFF" points="249.6653,540.4277,239.2487,544.5943,249.6653,548.761,245.4987,544.5943" style="stroke:#FFFFFF;stroke-width:1.0417;"/><line style="stroke:#FFFFFF;stroke-width:3.125;" x1="226.7487" x2="226.7487" y1="511.261" y2="532.0943"/><polygon fill="#FFFFFF" points="222.582,521.6777,226.7487,532.0943,230.9153,521.6777,226.7487,525.8443" style="stroke:#FFFFFF;stroke-width:1.0417;"/><line style="stroke:#FFFFFF;stroke-width:3.125;" x1="226.7487" x2="226.7487" y1="369.1152" y2="389.9485"/><polygon fill="#FFFFFF" points="222.582,379.5319,226.7487,389.9485,230.9153,379.5319,226.7487,383.6985" style="stroke:#FFFFFF;stroke-width:1.0417;"/><line style="stroke:#FFFFFF;stroke-width:3.125;" x1="226.7487" x2="226.7487" y1="756.0984" y2="792.8609"/><polygon fill="#FFFFFF" points="222.582,782.4443,226.7487,792.8609,230.9153,782.4443,226.7487,786.6109" style="stroke:#FFFFFF;stroke-width:1.0417;"/><line style="stroke:#FFFFFF;stroke-width:3.125;" x1="387.4827" x2="399.9827" y1="738.0859" y2="738.0859"/><polygon fill="#FFFFFF" points="395.816,814.3672,399.9827,824.7838,404.1494,814.3672,399.9827,818.5338" style="stroke:#FFFFFF;stroke-width:3.125;"/><line style="stroke:#FFFFFF;stroke-width:3.125;" x1="399.9827" x2="399.9827" y1="738.0859" y2="874.7192"/><line style="stroke:#FFFFFF;stroke-width:3.125;" x1="399.9827" x2="239.2487" y1="874.7192" y2="874.7192"/><polygon fill="#FFFFFF" points="249.6653,870.5526,239.2487,874.7192,249.6653,878.8859,245.4987,874.7192" style="stroke:#FFFFFF;stroke-width:1.0417;"/><line style="stroke:#FFFFFF;stroke-width:3.125;" x1="226.7487" x2="226.7487" y1="841.3859" y2="862.2192"/><polygon fill="#FFFFFF" points="222.582,851.8026,226.7487,862.2192,230.9153,851.8026,226.7487,855.9692" style="stroke:#FFFFFF;stroke-width:1.0417;"/><line style="stroke:#FFFFFF;stroke-width:3.125;" x1="226.7487" x2="226.7487" y1="699.2401" y2="720.0734"/><polygon fill="#FFFFFF" points="222.582,709.6568,226.7487,720.0734,230.9153,709.6568,226.7487,713.8234" style="stroke:#FFFFFF;stroke-width:1.0417;"/><line style="stroke:#FFFFFF;stroke-width:3.125;" x1="226.7487" x2="226.7487" y1="613.9526" y2="650.7151"/><polygon fill="#FFFFFF" points="222.582,640.2985,226.7487,650.7151,230.9153,640.2985,226.7487,644.4651" style="stroke:#FFFFFF;stroke-width:1.0417;"/><line style="stroke:#FFFFFF;stroke-width:3.125;" x1="339.5945" x2="410.3994" y1="595.9401" y2="595.9401"/><polygon fill="#FFFFFF" points="406.2327,776.7797,410.3994,787.1964,414.566,776.7797,410.3994,780.9464" style="stroke:#FFFFFF;stroke-width:3.125;"/><line style="stroke:#FFFFFF;stroke-width:3.125;" x1="410.3994" x2="410.3994" y1="595.9401" y2="920.5526"/><line style="stroke:#FFFFFF;stroke-width:3.125;" x1="410.3994" x2="239.2487" y1="920.5526" y2="920.5526"/><polygon fill="#FFFFFF" points="249.6653,916.3859,239.2487,920.5526,249.6653,924.7192,245.4987,920.5526" style="stroke:#FFFFFF;stroke-width:1.0417;"/><line style="stroke:#FFFFFF;stroke-width:3.125;" x1="226.7487" x2="226.7487" y1="887.2192" y2="908.0526"/><polygon fill="#FFFFFF" points="222.582,897.6359,226.7487,908.0526,230.9153,897.6359,226.7487,901.8026" style="stroke:#FFFFFF;stroke-width:1.0417;"/><line style="stroke:#FFFFFF;stroke-width:3.125;" x1="226.7487" x2="226.7487" y1="557.0943" y2="577.9277"/><polygon fill="#FFFFFF" points="222.582,567.511,226.7487,577.9277,230.9153,567.511,226.7487,571.6777" style="stroke:#FFFFFF;stroke-width:1.0417;"/><line style="stroke:#FFFFFF;stroke-width:3.125;" x1="226.7487" x2="226.7487" y1="989.9109" y2="1026.6734"/><polygon fill="#FFFFFF" points="222.582,1016.2567,226.7487,1026.6734,230.9153,1016.2567,226.7487,1020.4234" style="stroke:#FFFFFF;stroke-width:1.0417;"/><line style="stroke:#FFFFFF;stroke-width:3.125;" x1="364.1581" x2="376.6581" y1="971.8984" y2="971.8984"/><polygon fill="#FFFFFF" points="372.4915,1048.1796,376.6581,1058.5963,380.8248,1048.1796,376.6581,1052.3463" style="stroke:#FFFFFF;stroke-width:3.125;"/><line style="stroke:#FFFFFF;stroke-width:3.125;" x1="376.6581" x2="376.6581" y1="971.8984" y2="1108.5317"/><line style="stroke:#FFFFFF;stroke-width:3.125;" x1="376.6581" x2="239.2487" y1="1108.5317" y2="1108.5317"/><polygon fill="#FFFFFF" points="249.6653,1104.365,239.2487,1108.5317,249.6653,1112.6984,245.4987,1108.5317" style="stroke:#FFFFFF;stroke-width:1.0417;"/><line style="stroke:#FFFFFF;stroke-width:3.125;" x1="226.7487" x2="226.7487" y1="1075.1984" y2="1096.0317"/><polygon fill="#FFFFFF" points="222.582,1085.615,226.7487,1096.0317,230.9153,1085.615,226.7487,1089.7817" style="stroke:#FFFFFF;stroke-width:1.0417;"/><line style="stroke:#FFFFFF;stroke-width:3.125;" x1="226.7487" x2="226.7487" y1="933.0526" y2="953.8859"/><polygon fill="#FFFFFF" points="222.582,943.4692,226.7487,953.8859,230.9153,943.4692,226.7487,947.6359" style="stroke:#FFFFFF;stroke-width:1.0417;"/><line style="stroke:#FFFFFF;stroke-width:3.125;" x1="226.7487" x2="226.7487" y1="1177.89" y2="1214.6525"/><polygon fill="#FFFFFF" points="222.582,1204.2358,226.7487,1214.6525,230.9153,1204.2358,226.7487,1208.4025" style="stroke:#FFFFFF;stroke-width:1.0417;"/><line style="stroke:#FFFFFF;stroke-width:3.125;" x1="346.8943" x2="359.3943" y1="1159.8775" y2="1159.8775"/><polygon fill="#FFFFFF" points="355.2277,1236.1588,359.3943,1246.5754,363.561,1236.1588,359.3943,1240.3254" style="stroke:#FFFFFF;stroke-width:3.125;"/><line style="stroke:#FFFFFF;stroke-width:3.125;" x1="359.3943" x2="359.3943" y1="1159.8775" y2="1296.5108"/><line style="stroke:#FFFFFF;stroke-width:3.125;" x1="359.3943" x2="239.2487" y1="1296.5108" y2="1296.5108"/><polygon fill="#FFFFFF" points="249.6653,1292.3442,239.2487,1296.5108,249.6653,1300.6775,245.4987,1296.5108" style="stroke:#FFFFFF;stroke-width:1.0417;"/><line style="stroke:#FFFFFF;stroke-width:3.125;" x1="226.7487" x2="226.7487" y1="1263.1775" y2="1284.0108"/><polygon fill="#FFFFFF" points="222.582,1273.5942,226.7487,1284.0108,230.9153,1273.5942,226.7487,1277.7608" style="stroke:#FFFFFF;stroke-width:1.0417;"/><line style="stroke:#FFFFFF;stroke-width:3.125;" x1="226.7487" x2="226.7487" y1="1121.0317" y2="1141.865"/><polygon fill="#FFFFFF" points="222.582,1131.4484,226.7487,1141.865,230.9153,1131.4484,226.7487,1135.615" style="stroke:#FFFFFF;stroke-width:1.0417;"/><line style="stroke:#FFFFFF;stroke-width:3.125;" x1="226.7487" x2="226.7487" y1="1309.0108" y2="1329.8442"/><polygon fill="#FFFFFF" points="222.582,1319.4275,226.7487,1329.8442,230.9153,1319.4275,226.7487,1323.5942" style="stroke:#FFFFFF;stroke-width:1.0417;"/><?plantuml-src bPDHQzDG5CVVyocE-B8fg2-2h4PPsnN4uKexy55EavFkakJUUE_jDjy6mjZ4-JH1ke6AJdpHWVXGXEcNQUBwBRmtNI6mDQrvpFcVt_-VSqwkwGsA2MBK91awAcGyGOan-1HWBz8DmNLDH4B2zKR-52JBKegjQSLLncbQhObUY5sg2kcJd2PgaQUHTwCPifg84y69wt9PcvxtY7jKcdaYMcK1sVpp8PieDVDOWlDcA3IKZjVJR9Ff5-NGYMeUKfrXBBW_7_12NCPjQtCsCxxPIYupDDCHGRgtcnsUfdkVq-_zzEYtexIPZBEKVTh9tf-SVtmz7FIp_i_HyO_Xu4rwyFRloTVHqUvmy2tzzQNYi00MbBaHGwNjHAYU97ZWcalUNhSdlNBnhkdfXujWhfp3GlRkTD41M3h_SvQ--W2Ua98Yr4pmfoWvurrLSOZxBCZXMYHW6CpMZTOiZckPgwtFdLltxi8DQzTczagVO5pkLUpV6jjDt7Ax66L86fGT6BWkj1wr7pzRQpGk4JkHy4BoxPu4Lt3JXULwlM8gbf88gGCHCT5YAgps_2vfamhkkvCVkYb5vwgWLuARhRNgYaMFSnRIuYQo23iHrL1jv0wp3ARbBa2p_PtiU1yyb3wCNfuD1mUcrwhWzZZA_p6LsU0_?></g></svg>