<?plantuml 1.2026.2?><svg xmlns="http://www.w3.org/2000/svg" xmlns:xlink="http://www.w3.org/1999/xlink" contentStyleType="text/css" data-diagram-type="ACTIVITY" height="1400px" preserveAspectRatio="none" style="width:341px;height:1400px;" version="1.1" viewBox="0 0 341 1400" width="341.6667px" zoomAndPan="magnify"><title>&#20998;&#25903;&#21028;&#23450;&#22270;</title><defs><linearGradient id="g1sonu03pec73y0" x1="50%" x2="50%" y1="0%" y2="100%"><stop offset="0%" stop-color="#FFFFFF"/><stop offset="100%" stop-color="#FFFFFF"/></linearGradient><filter height="300%" id="f1sonu03pec73y" width="300%" x="-1" y="-1"><feGaussianBlur result="blurOut" stdDeviation="2.0833"/><feColorMatrix in="blurOut" result="blurOut2" type="matrix" values="0 0 0 0 0 0 0 0 0 0 0 0 0 0 0 0 0 0 .4 0"/><feOffset dx="4.1667" dy="4.1667" in="blurOut2" result="blurOut3"/><feBlend in="SourceGraphic" in2="blurOut3" mode="normal"/></filter><linearGradient id="g1sonu03pec73y1" x1="50%" x2="50%" y1="0%" y2="100%"><stop offset="0%" stop-color="#4DABF5"/><stop offset="100%" stop-color="#2196F3"/></linearGradient></defs><g><g class="title" data-source-line="18"><rect fill="url(#g1sonu03pec73y0)" height="58.6528" rx="4.1667" ry="4.1667" style="stroke:#CCCCCC;stroke-width:1.0417;" width="137.5" x="100.8331" y="20.8333"/><text fill="#FFFFFF" font-family="'Verdana'" font-size="20.8333" font-weight="bold" lengthAdjust="spacing" textLength="104.1667" x="117.4998" y="58.4452">&#20998;&#25903;&#21028;&#23450;&#22270;</text></g><ellipse cx="161.7706" cy="101.3611" fill="#9C27B0" filter="url(#f1sonu03pec73y)" rx="10.4167" ry="10.4167" style="stroke:#1A78C2;stroke-width:1.0417;"/><rect fill="url(#g1sonu03pec73y1)" filter="url(#f1sonu03pec73y)" height="48.525" rx="4.1667" ry="4.1667" style="stroke:#FFFFFF;stroke-width:1.0417;" width="158.3089" x="82.6162" y="132.6111"/><text fill="#FFFFFF" font-family="'Verdana'" font-size="12.5" lengthAdjust="spacing" textLength="124.9756" x="99.2828" y="161.8449">&#35835;&#21462; card.actionBias</text><rect fill="url(#g1sonu03pec73y1)" filter="url(#f1sonu03pec73y)" height="48.525" rx="4.1667" ry="4.1667" style="stroke:#FFFFFF;stroke-width:1.0417;" width="121.9564" x="100.7924" y="274.7569"/><text fill="#FFFFFF" font-family="'Verdana'" font-size="12.5" lengthAdjust="spacing" textLength="88.623" x="117.4591" y="303.9907">&#25913;&#20889;&#20026; WATCH</text><polygon fill="url(#g1sonu03pec73y0)" filter="url(#f1sonu03pec73y)" points="47.6003,201.9694,275.941,201.9694,288.441,219.9819,275.941,237.9944,47.6003,237.9944,35.1003,219.9819,47.6003,201.9694" style="stroke:#FFFFFF;stroke-width:1.0417;"/><text fill="#FFFFFF" font-family="'Verdana'" font-size="12.5" lengthAdjust="spacing" textLength="12.5" x="176.354" y="260.9782">&#26159;</text><text fill="#FFFFFF" font-family="'Verdana'" font-size="12.5" lengthAdjust="spacing" textLength="207.5073" x="58.017" y="224.9532">&#26410;&#25345;&#20179;&#19988;&#21160;&#20316;&#26159; HOLD/TRIM/EXIT?</text><polygon fill="url(#g1sonu03pec73y0)" filter="url(#f1sonu03pec73y)" points="161.7706,344.1152,174.2706,356.6152,161.7706,369.1152,149.2706,356.6152,161.7706,344.1152" style="stroke:#FFFFFF;stroke-width:1.0417;"/><rect fill="url(#g1sonu03pec73y1)" filter="url(#f1sonu03pec73y)" height="63.7166" rx="4.1667" ry="4.1667" style="stroke:#FFFFFF;stroke-width:1.0417;" width="186.4583" x="68.5415" y="462.736"/><text fill="#FFFFFF" font-family="'Verdana'" font-size="12.5" lengthAdjust="spacing" textLength="153.125" x="85.2081" y="491.9698">ADD -&gt; PROBE/WATCH;</text><text fill="#FFFFFF" font-family="'Verdana'" font-size="12.5" lengthAdjust="spacing" textLength="113.9648" x="85.2081" y="507.1615">PROBE -&gt; WATCH</text><polygon fill="url(#g1sonu03pec73y0)" filter="url(#f1sonu03pec73y)" points="74.0621,389.9485,249.4792,389.9485,261.9792,407.961,249.4792,425.9735,74.0621,425.9735,61.5621,407.961,74.0621,389.9485" style="stroke:#FFFFFF;stroke-width:1.0417;"/><text fill="#FFFFFF" font-family="'Verdana'" font-size="12.5" lengthAdjust="spacing" textLength="12.5" x="176.354" y="448.9573">&#26159;</text><text fill="#FFFFFF" font-family="'Verdana'" font-size="12.5" lengthAdjust="spacing" textLength="154.5837" x="84.4788" y="412.9323">&#21160;&#20316;&#21629;&#20013; blockedActions?</text><polygon fill="url(#g1sonu03pec73y0)" filter="url(#f1sonu03pec73y)" points="161.7706,547.286,174.2706,559.786,161.7706,572.286,149.2706,559.786,161.7706,547.286" style="stroke:#FFFFFF;stroke-width:1.0417;"/><rect fill="url(#g1sonu03pec73y1)" filter="url(#f1sonu03pec73y)" height="48.525" rx="4.1667" ry="4.1667" style="stroke:#FFFFFF;stroke-width:1.0417;" width="133.3333" x="95.104" y="665.9068"/><text fill="#FFFFFF" font-family="'Verdana'" font-size="12.5" lengthAdjust="spacing" textLength="100" x="111.7706" y="695.1406">&#25353;&#32622;&#20449;&#24230;&#32487;&#32493;&#38477;&#32423;</text><polygon fill="url(#g1sonu03pec73y0)" filter="url(#f1sonu03pec73y)" points="33.3333,593.1193,290.2079,593.1193,302.7079,611.1318,290.2079,629.1443,33.3333,629.1443,20.8333,611.1318,33.3333,593.1193" style="stroke:#FFFFFF;stroke-width:1.0417;"/><text fill="#FFFFFF" font-family="'Verdana'" font-size="12.5" lengthAdjust="spacing" textLength="12.5" x="176.354" y="652.1281">&#26159;</text><text fill="#FFFFFF" font-family="'Verdana'" font-size="12.5" lengthAdjust="spacing" textLength="236.0413" x="43.75" y="616.1031">market == RISK_OFF &#19988;&#21160;&#20316;&#20173;&#20559;&#36827;&#25915;?</text><polygon fill="url(#g1sonu03pec73y0)" filter="url(#f1sonu03pec73y)" points="161.7706,735.2651,174.2706,747.7651,161.7706,760.2651,149.2706,747.7651,161.7706,735.2651" style="stroke:#FFFFFF;stroke-width:1.0417;"/><rect fill="url(#g1sonu03pec73y1)" filter="url(#f1sonu03pec73y)" height="63.7166" rx="4.1667" ry="4.1667" style="stroke:#FFFFFF;stroke-width:1.0417;" width="158.8094" x="82.3659" y="853.8859"/><text fill="#FFFFFF" font-family="'Verdana'" font-size="12.5" lengthAdjust="spacing" textLength="125.4761" x="99.0326" y="883.1197">ADD -&gt; TRIM/EXIT;</text><text fill="#FFFFFF" font-family="'Verdana'" font-size="12.5" lengthAdjust="spacing" textLength="103.0579" x="99.0326" y="898.3114">PROBE -&gt; HOLD</text><polygon fill="url(#g1sonu03pec73y0)" filter="url(#f1sonu03pec73y)" points="104.1951,781.0984,219.3461,781.0984,231.8461,799.1109,219.3461,817.1234,104.1951,817.1234,91.6951,799.1109,104.1951,781.0984" style="stroke:#FFFFFF;stroke-width:1.0417;"/><text fill="#FFFFFF" font-family="'Verdana'" font-size="12.5" lengthAdjust="spacing" textLength="12.5" x="176.354" y="840.1072">&#26159;</text><text fill="#FFFFFF" font-family="'Verdana'" font-size="12.5" lengthAdjust="spacing" textLength="94.3176" x="114.6118" y="804.0822">&#25345;&#20179;&#25509;&#36817;&#22833;&#25928;&#20301;?</text><polygon fill="url(#g1sonu03pec73y0)" filter="url(#f1sonu03pec73y)" points="161.7706,938.4359,174.2706,950.9359,161.7706,963.4359,149.2706,950.9359,161.7706,938.4359" style="stroke:#FFFFFF;stroke-width:1.0417;"/><rect fill="url(#g1sonu03pec73y1)" filter="url(#f1sonu03pec73y)" height="48.525" rx="4.1667" ry="4.1667" style="stroke:#FFFFFF;stroke-width:1.0417;" width="107.4178" x="108.0617" y="1057.0567"/><text fill="#FFFFFF" font-family="'Verdana'" font-size="12.5" lengthAdjust="spacing" textLength="74.0845" x="124.7284" y="1086.2905">&#25913;&#20889;&#20026; TRIM</text><polygon fill="url(#g1sonu03pec73y0)" filter="url(#f1sonu03pec73y)" points="91.6951,984.2692,231.8461,984.2692,244.3461,1002.2817,231.8461,1020.2942,91.6951,1020.2942,79.1951,1002.2817,91.6951,984.2692" style="stroke:#FFFFFF;stroke-width:1.0417;"/><text fill="#FFFFFF" font-family="'Verdana'" font-size="12.5" lengthAdjust="spacing" textLength="12.5" x="176.354" y="1043.278">&#26159;</text><text fill="#FFFFFF" font-family="'Verdana'" font-size="12.5" lengthAdjust="spacing" textLength="119.3176" x="102.1118" y="1007.253">&#25104;&#29087;&#30408;&#21033;&#19988;&#24066;&#22330;&#36716;&#24369;?</text><polygon fill="url(#g1sonu03pec73y0)" filter="url(#f1sonu03pec73y)" points="161.7706,1126.415,174.2706,1138.915,161.7706,1151.415,149.2706,1138.915,161.7706,1126.415" style="stroke:#FFFFFF;stroke-width:1.0417;"/><rect fill="url(#g1sonu03pec73y1)" filter="url(#f1sonu03pec73y)" height="48.525" rx="4.1667" ry="4.1667" style="stroke:#FFFFFF;stroke-width:1.0417;" width="179.067" x="72.2371" y="1245.0358"/><text fill="#FFFFFF" font-family="'Verdana'" font-size="12.5" lengthAdjust="spacing" textLength="145.7336" x="88.9038" y="1274.2696">&#38477;&#32423;&#20026; HOLD &#25110; WATCH</text><polygon fill="url(#g1sonu03pec73y0)" filter="url(#f1sonu03pec73y)" points="81.6274,1172.2483,241.9139,1172.2483,254.4139,1190.2608,241.9139,1208.2733,81.6274,1208.2733,69.1274,1190.2608,81.6274,1172.2483" style="stroke:#FFFFFF;stroke-width:1.0417;"/><text fill="#FFFFFF" font-family="'Verdana'" font-size="12.5" lengthAdjust="spacing" textLength="12.5" x="176.354" y="1231.2571">&#26159;</text><text fill="#FFFFFF" font-family="'Verdana'" font-size="12.5" lengthAdjust="spacing" textLength="139.4531" x="92.0441" y="1195.2321">&#21097;&#20313;&#39118;&#38505;&#39044;&#31639; &lt;= 0.25?</text><polygon fill="url(#g1sonu03pec73y0)" filter="url(#f1sonu03pec73y)" points="161.7706,1314.3941,174.2706,1326.8941,161.7706,1339.3941,149.2706,1326.8941,161.7706,1314.3941" style="stroke:#FFFFFF;stroke-width:1.0417;"/><ellipse cx="161.7706" cy="1371.6858" fill="none" filter="url(#f1sonu03pec73y)" rx="11.4583" ry="11.4583" style="stroke:#1A78C2;stroke-width:1.0417;"/><ellipse cx="161.7706" cy="1371.6858" fill="none" rx="6.25" ry="6.25" style="stroke:#1A78C2;stroke-width:1.0417;"/><line style="stroke:#FFFFFF;stroke-width:3.125;" x1="161.7706" x2="161.7706" y1="111.7778" y2="132.6111"/><polygon fill="#FFFFFF" points="157.604,122.1944,161.7706,132.6111,165.9373,122.1944,161.7706,126.3611" style="stroke:#FFFFFF;stroke-width:1.0417;"/><line style="stroke:#FFFFFF;stroke-width:3.125;" x1="161.7706" x2="161.7706" y1="237.9944" y2="274.7569"/><polygon fill="#FFFFFF" points="157.604,264.3402,161.7706,274.7569,165.9373,264.3402,161.7706,268.5069" style="stroke:#FFFFFF;stroke-width:1.0417;"/><line style="stroke:#FFFFFF;stroke-width:3.125;" x1="288.441" x2="300.941" y1="219.9819" y2="219.9819"/><polygon fill="#FFFFFF" points="296.7743,296.2631,300.941,306.6798,305.1076,296.2631,300.941,300.4298" style="stroke:#FFFFFF;stroke-width:3.125;"/><line style="stroke:#FFFFFF;stroke-width:3.125;" x1="300.941" x2="300.941" y1="219.9819" y2="356.6152"/><line style="stroke:#FFFFFF;stroke-width:3.125;" x1="300.941" x2="174.2706" y1="356.6152" y2="356.6152"/><polygon fill="#FFFFFF" points="184.6873,352.4485,174.2706,356.6152,184.6873,360.7819,180.5206,356.6152" style="stroke:#FFFFFF;stroke-width:1.0417;"/><line style="stroke:#FFFFFF;stroke-width:3.125;" x1="161.7706" x2="161.7706" y1="323.2819" y2="344.1152"/><polygon fill="#FFFFFF" points="157.604,333.6985,161.7706,344.1152,165.9373,333.6985,161.7706,337.8652" style="stroke:#FFFFFF;stroke-width:1.0417;"/><line style="stroke:#FFFFFF;stroke-width:3.125;" x1="161.7706" x2="161.7706" y1="181.1361" y2="201.9694"/><polygon fill="#FFFFFF" points="157.604,191.5527,161.7706,201.9694,165.9373,191.5527,161.7706,195.7194" style="stroke:#FFFFFF;stroke-width:1.0417;"/><line style="stroke:#FFFFFF;stroke-width:3.125;" x1="161.7706" x2="161.7706" y1="425.9735" y2="462.736"/><polygon fill="#FFFFFF" points="157.604,452.3193,161.7706,462.736,165.9373,452.3193,161.7706,456.486" style="stroke:#FFFFFF;stroke-width:1.0417;"/><line style="stroke:#FFFFFF;stroke-width:3.125;" x1="261.9792" x2="274.4792" y1="407.961" y2="407.961"/><polygon fill="#FFFFFF" points="270.3125,491.8381,274.4792,502.2547,278.6458,491.8381,274.4792,496.0047" style="stroke:#FFFFFF;stroke-width:3.125;"/><line style="stroke:#FFFFFF;stroke-width:3.125;" x1="274.4792" x2="274.4792" y1="407.961" y2="559.786"/><line style="stroke:#FFFFFF;stroke-width:3.125;" x1="274.4792" x2="174.2706" y1="559.786" y2="559.786"/><polygon fill="#FFFFFF" points="184.6873,555.6193,174.2706,559.786,184.6873,563.9526,180.5206,559.786" style="stroke:#FFFFFF;stroke-width:1.0417;"/><line style="stroke:#FFFFFF;stroke-width:3.125;" x1="161.7706" x2="161.7706" y1="526.4526" y2="547.286"/><polygon fill="#FFFFFF" points="157.604,536.8693,161.7706,547.286,165.9373,536.8693,161.7706,541.036" style="stroke:#FFFFFF;stroke-width:1.0417;"/><line style="stroke:#FFFFFF;stroke-width:3.125;" x1="161.7706" x2="161.7706" y1="369.1152" y2="389.9485"/><polygon fill="#FFFFFF" points="157.604,379.5319,161.7706,389.9485,165.9373,379.5319,161.7706,383.6985" style="stroke:#FFFFFF;stroke-width:1.0417;"/><line style="stroke:#FFFFFF;stroke-width:3.125;" x1="161.7706" x2="161.7706" y1="629.1443" y2="665.9068"/><polygon fill="#FFFFFF" points="157.604,655.4901,161.7706,665.9068,165.9373,655.4901,161.7706,659.6568" style="stroke:#FFFFFF;stroke-width:1.0417;"/><line style="stroke:#FFFFFF;stroke-width:3.125;" x1="302.7079" x2="315.2079" y1="611.1318" y2="611.1318"/><polygon fill="#FFFFFF" points="311.0413,687.413,315.2079,697.8297,319.3746,687.413,315.2079,691.5797" style="stroke:#FFFFFF;stroke-width:3.125;"/><line style="stroke:#FFFFFF;stroke-width:3.125;" x1="315.2079" x2="315.2079" y1="611.1318" y2="747.7651"/><line style="stroke:#FFFFFF;stroke-width:3.125;" x1="315.2079" x2="174.2706" y1="747.7651" y2="747.7651"/><polygon fill="#FFFFFF" points="184.6873,743.5984,174.2706,747.7651,184.6873,751.9318,180.5206,747.7651" style="stroke:#FFFFFF;stroke-width:1.0417;"/><line style="stroke:#FFFFFF;stroke-width:3.125;" x1="161.7706" x2="161.7706" y1="714.4318" y2="735.2651"/><polygon fill="#FFFFFF" points="157.604,724.8484,161.7706,735.2651,165.9373,724.8484,161.7706,729.0151" style="stroke:#FFFFFF;stroke-width:1.0417;"/><line style="stroke:#FFFFFF;stroke-width:3.125;" x1="161.7706" x2="161.7706" y1="572.286" y2="593.1193"/><polygon fill="#FFFFFF" points="157.604,582.7026,161.7706,593.1193,165.9373,582.7026,161.7706,586.8693" style="stroke:#FFFFFF;stroke-width:1.0417;"/><line style="stroke:#FFFFFF;stroke-width:3.125;" x1="161.7706" x2="161.7706" y1="817.1234" y2="853.8859"/><polygon fill="#FFFFFF" points="157.604,843.4692,161.7706,853.8859,165.9373,843.4692,161.7706,847.6359" style="stroke:#FFFFFF;stroke-width:1.0417;"/><line style="stroke:#FFFFFF;stroke-width:3.125;" x1="231.8461" x2="251.592" y1="799.1109" y2="799.1109"/><polygon fill="#FFFFFF" points="247.4253,882.988,251.592,893.4046,255.7587,882.988,251.592,887.1546" style="stroke:#FFFFFF;stroke-width:3.125;"/><line style="stroke:#FFFFFF;stroke-width:3.125;" x1="251.592" x2="251.592" y1="799.1109" y2="950.9359"/><line style="stroke:#FFFFFF;stroke-width:3.125;" x1="251.592" x2="174.2706" y1="950.9359" y2="950.9359"/><polygon fill="#FFFFFF" points="184.6873,946.7692,174.2706,950.9359,184.6873,955.1025,180.5206,950.9359" style="stroke:#FFFFFF;stroke-width:1.0417;"/><line style="stroke:#FFFFFF;stroke-width:3.125;" x1="161.7706" x2="161.7706" y1="917.6025" y2="938.4359"/><polygon fill="#FFFFFF" points="157.604,928.0192,161.7706,938.4359,165.9373,928.0192,161.7706,932.1859" style="stroke:#FFFFFF;stroke-width:1.0417;"/><line style="stroke:#FFFFFF;stroke-width:3.125;" x1="161.7706" x2="161.7706" y1="760.2651" y2="781.0984"/><polygon fill="#FFFFFF" points="157.604,770.6818,161.7706,781.0984,165.9373,770.6818,161.7706,774.8484" style="stroke:#FFFFFF;stroke-width:1.0417;"/><line style="stroke:#FFFFFF;stroke-width:3.125;" x1="161.7706" x2="161.7706" y1="1020.2942" y2="1057.0567"/><polygon fill="#FFFFFF" points="157.604,1046.64,161.7706,1057.0567,165.9373,1046.64,161.7706,1050.8067" style="stroke:#FFFFFF;stroke-width:1.0417;"/><line style="stroke:#FFFFFF;stroke-width:3.125;" x1="244.3461" x2="256.8461" y1="1002.2817" y2="1002.2817"/><polygon fill="#FFFFFF" points="252.6794,1078.5629,256.8461,1088.9796,261.0128,1078.5629,256.8461,1082.7296" style="stroke:#FFFFFF;stroke-width:3.125;"/><line style="stroke:#FFFFFF;stroke-width:3.125;" x1="256.8461" x2="256.8461" y1="1002.2817" y2="1138.915"/><line style="stroke:#FFFFFF;stroke-width:3.125;" x1="256.8461" x2="174.2706" y1="1138.915" y2="1138.915"/><polygon fill="#FFFFFF" points="184.6873,1134.7483,174.2706,1138.915,184.6873,1143.0817,180.5206,1138.915" style="stroke:#FFFFFF;stroke-width:1.0417;"/><line style="stroke:#FFFFFF;stroke-width:3.125;" x1="161.7706" x2="161.7706" y1="1105.5817" y2="1126.415"/><polygon fill="#FFFFFF" points="157.604,1115.9983,161.7706,1126.415,165.9373,1115.9983,161.7706,1120.165" style="stroke:#FFFFFF;stroke-width:1.0417;"/><line style="stroke:#FFFFFF;stroke-width:3.125;" x1="161.7706" x2="161.7706" y1="963.4359" y2="984.2692"/><polygon fill="#FFFFFF" points="157.604,973.8525,161.7706,984.2692,165.9373,973.8525,161.7706,978.0192" style="stroke:#FFFFFF;stroke-width:1.0417;"/><line style="stroke:#FFFFFF;stroke-width:3.125;" x1="161.7706" x2="161.7706" y1="1208.2733" y2="1245.0358"/><polygon fill="#FFFFFF" points="157.604,1234.6191,161.7706,1245.0358,165.9373,1234.6191,161.7706,1238.7858" style="stroke:#FFFFFF;stroke-width:1.0417;"/><line style="stroke:#FFFFFF;stroke-width:3.125;" x1="254.4139" x2="266.9139" y1="1190.2608" y2="1190.2608"/><polygon fill="#FFFFFF" points="262.7472,1266.5421,266.9139,1276.9587,271.0805,1266.5421,266.9139,1270.7087" style="stroke:#FFFFFF;stroke-width:3.125;"/><line style="stroke:#FFFFFF;stroke-width:3.125;" x1="266.9139" x2="266.9139" y1="1190.2608" y2="1326.8941"/><line style="stroke:#FFFFFF;stroke-width:3.125;" x1="266.9139" x2="174.2706" y1="1326.8941" y2="1326.8941"/><polygon fill="#FFFFFF" points="184.6873,1322.7275,174.2706,1326.8941,184.6873,1331.0608,180.5206,1326.8941" style="stroke:#FFFFFF;stroke-width:1.0417;"/><line style="stroke:#FFFFFF;stroke-width:3.125;" x1="161.7706" x2="161.7706" y1="1293.5608" y2="1314.3941"/><polygon fill="#FFFFFF" points="157.604,1303.9775,161.7706,1314.3941,165.9373,1303.9775,161.7706,1308.1441" style="stroke:#FFFFFF;stroke-width:1.0417;"/><line style="stroke:#FFFFFF;stroke-width:3.125;" x1="161.7706" x2="161.7706" y1="1151.415" y2="1172.2483"/><polygon fill="#FFFFFF" points="157.604,1161.8317,161.7706,1172.2483,165.9373,1161.8317,161.7706,1165.9983" style="stroke:#FFFFFF;stroke-width:1.0417;"/><line style="stroke:#FFFFFF;stroke-width:3.125;" x1="161.7706" x2="161.7706" y1="1339.3941" y2="1360.2275"/><polygon fill="#FFFFFF" points="157.604,1349.8108,161.7706,1360.2275,165.9373,1349.8108,161.7706,1353.9775" style="stroke:#FFFFFF;stroke-width:1.0417;"/><?plantuml-src ZP9DRn9108Rl-ol6UB47Yp7nqeg6Zv8ICH0WiGSJC-uETSBk3CvEDHvh3DcQqe-8jGY9KQiLOo6z8UlAdzdPXN_XBjW6ic7Bt6RcdMUUUJFN-3Ea8Q11ZXY6abx6f08Pr822Id1BvIbAU8Agb87hgV6OYiGOeo_dRMOmGVFsSb0kmqqKfqn1R5ueZsGEoQPwHIn1jGebYF3mM04ztq94Hg7E5w4CBY7VVp5a3ZAEPLo1YpfC7GYjL-Ru1UQlmg4NgKL8IGmrIfJ5WF_3OTm2zxxD5M_s8q46nrn5G1XLfzuLnedeV1JDlvBElMQabM7N5Fj7G8PCMOQU3ILn3FLL2PV03QVrqzdTjirtTgyktlwmhPPpt0NhsKmoKiod7qRMDjB5-ql0-zN42nztboG0LfpwRr5jsBq-U1Gh9jPN9KGKN9B6m0b475fsxmmyLQbSHafiVAaUuCIIIN3p7iZbi_6ro0Jrc8nd_dAGhK5MHXn4eo2VBZnuaasbmAMsRTR4zlvmq7JgPb1uTyUrElRWi-X_TyrJrpmRDMfk_tI6Fkd1sVis71oAatFdlM5RjNdEb-LC6_krpIAD0xVwoMqQmcZxfhtNejKVMh_4d_EGKdtsRASxRTjgZBxkZHhjqPStRkS3k1i5jvPltmbG9k_oARuCS8oZsHvrJYl_0000?></g></svg>