<?plantuml 1.2026.2?><svg xmlns="http://www.w3.org/2000/svg" xmlns:xlink="http://www.w3.org/1999/xlink" contentStyleType="text/css" data-diagram-type="ACTIVITY" height="1144.7917px" preserveAspectRatio="none" style="width:346px;height:1144px;" version="1.1" viewBox="0 0 346 1144" width="346.875px" zoomAndPan="magnify"><title>&#20027;&#27969;&#31243;&#27963;&#21160;&#22270;</title><defs><linearGradient id="g1hmivq6on1asa0" x1="50%" x2="50%" y1="0%" y2="100%"><stop offset="0%" stop-color="#FFFFFF"/><stop offset="100%" stop-color="#FFFFFF"/></linearGradient><filter height="300%" id="f1hmivq6on1asa" width="300%" x="-1" y="-1"><feGaussianBlur result="blurOut" stdDeviation="2.0833"/><feColorMatrix in="blurOut" result="blurOut2" type="matrix" values="0 0 0 0 0 0 0 0 0 0 0 0 0 0 0 0 0 0 .4 0"/><feOffset dx="4.1667" dy="4.1667" in="blurOut2" result="blurOut3"/><feBlend in="SourceGraphic" in2="blurOut3" mode="normal"/></filter><linearGradient id="g1hmivq6on1asa1" x1="50%" x2="50%" y1="0%" y2="100%"><stop offset="0%" stop-color="#4DABF5"/><stop offset="100%" stop-color="#2196F3"/></linearGradient></defs><g><g class="title" data-source-line="18"><rect fill="url(#g1hmivq6on1asa0)" height="58.6528" rx="4.1667" ry="4.1667" style="stroke:#CCCCCC;stroke-width:1.0417;" width="158.3333" x="93.0013" y="20.8333"/><text fill="#FFFFFF" font-family="'Verdana'" font-size="20.8333" font-weight="bold" lengthAdjust="spacing" textLength="125" x="109.668" y="58.4452">&#20027;&#27969;&#31243;&#27963;&#21160;&#22270;</text></g><ellipse cx="170.6055" cy="101.3611" fill="#9C27B0" filter="url(#f1hmivq6on1asa)" rx="10.4167" ry="10.4167" style="stroke:#1A78C2;stroke-width:1.0417;"/><rect fill="url(#g1hmivq6on1asa1)" filter="url(#f1hmivq6on1asa)" height="48.525" rx="4.1667" ry="4.1667" style="stroke:#FFFFFF;stroke-width:1.0417;" width="194.814" x="73.1984" y="132.6111"/><text fill="#FFFFFF" font-family="'Verdana'" font-size="12.5" lengthAdjust="spacing" textLength="161.4807" x="89.8651" y="161.8449">&#36827;&#20837; refreshSuggestions()</text><rect fill="url(#g1hmivq6on1asa1)" filter="url(#f1hmivq6on1asa)" height="48.525" rx="4.1667" ry="4.1667" style="stroke:#FFFFFF;stroke-width:1.0417;" width="311.141" x="15.035" y="201.9694"/><text fill="#FFFFFF" font-family="'Verdana'" font-size="12.5" lengthAdjust="spacing" textLength="277.8076" x="31.7017" y="231.2032">resolveTimingPresetConfig + feedbackPolicy</text><rect fill="url(#g1hmivq6on1asa1)" filter="url(#f1hmivq6on1asa)" height="48.525" rx="4.1667" ry="4.1667" style="stroke:#FFFFFF;stroke-width:1.0417;" width="250.2096" x="45.5007" y="271.3277"/><text fill="#FFFFFF" font-family="'Verdana'" font-size="12.5" lengthAdjust="spacing" textLength="216.8762" x="62.1674" y="300.5615">&#35835;&#21462; lookbackDays &#20869; observations</text><rect fill="url(#g1hmivq6on1asa1)" filter="url(#f1hmivq6on1asa)" height="48.525" rx="4.1667" ry="4.1667" style="stroke:#FFFFFF;stroke-width:1.0417;" width="255.3243" x="42.9433" y="413.4735"/><text fill="#FFFFFF" font-family="'Verdana'" font-size="12.5" lengthAdjust="spacing" textLength="221.991" x="59.61" y="442.7073">replacePendingForPreset(items=[])</text><ellipse cx="170.6055" cy="494.2902" fill="none" filter="url(#f1hmivq6on1asa)" rx="11.4583" ry="11.4583" style="stroke:#1A78C2;stroke-width:1.0417;"/><ellipse cx="170.6055" cy="494.2902" fill="none" rx="6.25" ry="6.25" style="stroke:#1A78C2;stroke-width:1.0417;"/><polygon fill="url(#g1hmivq6on1asa0)" filter="url(#f1hmivq6on1asa)" points="72.2493,340.686,268.9616,340.686,281.4616,358.6985,268.9616,376.711,72.2493,376.711,59.7493,358.6985,72.2493,340.686" style="stroke:#FFFFFF;stroke-width:1.0417;"/><text fill="#FFFFFF" font-family="'Verdana'" font-size="12.5" lengthAdjust="spacing" textLength="12.5" x="185.1888" y="399.6948">&#26159;</text><text fill="#FFFFFF" font-family="'Verdana'" font-size="12.5" lengthAdjust="spacing" textLength="175.8789" x="82.666" y="363.6698">&#26679;&#26412;&#37327; &lt; minimumSamples?</text><rect fill="url(#g1hmivq6on1asa1)" filter="url(#f1hmivq6on1asa)" height="48.525" rx="4.1667" ry="4.1667" style="stroke:#FFFFFF;stroke-width:1.0417;" width="148.9766" x="96.1171" y="549.4985"/><text fill="#FFFFFF" font-family="'Verdana'" font-size="12.5" lengthAdjust="spacing" textLength="115.6433" x="112.7838" y="578.7323">&#35745;&#31639; baseline stats</text><rect fill="url(#g1hmivq6on1asa1)" filter="url(#f1hmivq6on1asa)" height="48.525" rx="4.1667" ry="4.1667" style="stroke:#FFFFFF;stroke-width:1.0417;" width="298.5128" x="21.3491" y="618.8568"/><text fill="#FFFFFF" font-family="'Verdana'" font-size="12.5" lengthAdjust="spacing" textLength="265.1794" x="38.0157" y="648.0906">&#36941;&#21382; signalEngineWeights &#27604;&#36739;&#27491;/&#36127; bucket</text><rect fill="url(#g1hmivq6on1asa1)" filter="url(#f1hmivq6on1asa)" height="48.525" rx="4.1667" ry="4.1667" style="stroke:#FFFFFF;stroke-width:1.0417;" width="295.6441" x="22.7834" y="688.2151"/><text fill="#FFFFFF" font-family="'Verdana'" font-size="12.5" lengthAdjust="spacing" textLength="262.3108" x="39.4501" y="717.4489">&#25353;&#38408;&#20540;&#29983;&#25104; SIGNAL_ENGINE_WEIGHT &#24314;&#35758;</text><rect fill="url(#g1hmivq6on1asa1)" filter="url(#f1hmivq6on1asa)" height="48.525" rx="4.1667" ry="4.1667" style="stroke:#FFFFFF;stroke-width:1.0417;" width="317.9403" x="11.6353" y="757.5734"/><text fill="#FFFFFF" font-family="'Verdana'" font-size="12.5" lengthAdjust="spacing" textLength="284.6069" x="28.302" y="786.8073">&#27604;&#36739; RISK_ON / NEUTRAL / RISK_OFF bucket</text><rect fill="url(#g1hmivq6on1asa1)" filter="url(#f1hmivq6on1asa)" height="48.525" rx="4.1667" ry="4.1667" style="stroke:#FFFFFF;stroke-width:1.0417;" width="249.6724" x="45.7692" y="826.9318"/><text fill="#FFFFFF" font-family="'Verdana'" font-size="12.5" lengthAdjust="spacing" textLength="216.3391" x="62.4359" y="856.1656">&#25353;&#38408;&#20540;&#29983;&#25104; CONTEXT_WEIGHT &#24314;&#35758;</text><rect fill="url(#g1hmivq6on1asa1)" filter="url(#f1hmivq6on1asa)" height="48.525" rx="4.1667" ry="4.1667" style="stroke:#FFFFFF;stroke-width:1.0417;" width="245.3023" x="47.9543" y="896.2901"/><text fill="#FFFFFF" font-family="'Verdana'" font-size="12.5" lengthAdjust="spacing" textLength="211.969" x="64.621" y="925.5239">&#27604;&#36739; ADD / PROBE &#26679;&#26412;&#19982; baseline</text><rect fill="url(#g1hmivq6on1asa1)" filter="url(#f1hmivq6on1asa)" height="48.525" rx="4.1667" ry="4.1667" style="stroke:#FFFFFF;stroke-width:1.0417;" width="265.0533" x="38.0788" y="965.6484"/><text fill="#FFFFFF" font-family="'Verdana'" font-size="12.5" lengthAdjust="spacing" textLength="231.72" x="54.7455" y="994.8822">&#25353;&#38408;&#20540;&#29983;&#25104; ACTION_THRESHOLD &#24314;&#35758;</text><rect fill="url(#g1hmivq6on1asa1)" filter="url(#f1hmivq6on1asa)" height="48.525" rx="4.1667" ry="4.1667" style="stroke:#FFFFFF;stroke-width:1.0417;" width="318.2943" x="11.4583" y="1035.0067"/><text fill="#FFFFFF" font-family="'Verdana'" font-size="12.5" lengthAdjust="spacing" textLength="284.9609" x="28.125" y="1064.2405">replacePendingForPreset(items=suggestions)</text><ellipse cx="170.6055" cy="1115.8234" fill="none" filter="url(#f1hmivq6on1asa)" rx="11.4583" ry="11.4583" style="stroke:#1A78C2;stroke-width:1.0417;"/><ellipse cx="170.6055" cy="1115.8234" fill="none" rx="6.25" ry="6.25" style="stroke:#1A78C2;stroke-width:1.0417;"/><line style="stroke:#FFFFFF;stroke-width:3.125;" x1="170.6055" x2="170.6055" y1="111.7778" y2="132.6111"/><polygon fill="#FFFFFF" points="166.4388,122.1944,170.6055,132.6111,174.7721,122.1944,170.6055,126.3611" style="stroke:#FFFFFF;stroke-width:1.0417;"/><line style="stroke:#FFFFFF;stroke-width:3.125;" x1="170.6055" x2="170.6055" y1="181.1361" y2="201.9694"/><polygon fill="#FFFFFF" points="166.4388,191.5527,170.6055,201.9694,174.7721,191.5527,170.6055,195.7194" style="stroke:#FFFFFF;stroke-width:1.0417;"/><line style="stroke:#FFFFFF;stroke-width:3.125;" x1="170.6055" x2="170.6055" y1="250.4944" y2="271.3277"/><polygon fill="#FFFFFF" points="166.4388,260.9111,170.6055,271.3277,174.7721,260.9111,170.6055,265.0777" style="stroke:#FFFFFF;stroke-width:1.0417;"/><line style="stroke:#FFFFFF;stroke-width:3.125;" x1="170.6055" x2="170.6055" y1="461.9985" y2="482.8318"/><polygon fill="#FFFFFF" points="166.4388,472.4152,170.6055,482.8318,174.7721,472.4152,170.6055,476.5818" style="stroke:#FFFFFF;stroke-width:1.0417;"/><line style="stroke:#FFFFFF;stroke-width:3.125;" x1="170.6055" x2="170.6055" y1="376.711" y2="413.4735"/><polygon fill="#FFFFFF" points="166.4388,403.0568,170.6055,413.4735,174.7721,403.0568,170.6055,407.2235" style="stroke:#FFFFFF;stroke-width:1.0417;"/><line style="stroke:#FFFFFF;stroke-width:3.125;" x1="281.4616" x2="308.6843" y1="358.6985" y2="358.6985"/><polygon fill="#FFFFFF" points="304.5176,451.1256,308.6843,461.5423,312.851,451.1256,308.6843,455.2923" style="stroke:#FFFFFF;stroke-width:3.125;"/><line style="stroke:#FFFFFF;stroke-width:3.125;" x1="308.6843" x2="308.6843" y1="358.6985" y2="528.6652"/><line style="stroke:#FFFFFF;stroke-width:3.125;" x1="308.6843" x2="170.6055" y1="528.6652" y2="528.6652"/><line style="stroke:#FFFFFF;stroke-width:3.125;" x1="170.6055" x2="170.6055" y1="528.6652" y2="549.4985"/><polygon fill="#FFFFFF" points="166.4388,539.0818,170.6055,549.4985,174.7721,539.0818,170.6055,543.2485" style="stroke:#FFFFFF;stroke-width:1.0417;"/><line style="stroke:#FFFFFF;stroke-width:3.125;" x1="170.6055" x2="170.6055" y1="319.8527" y2="340.686"/><polygon fill="#FFFFFF" points="166.4388,330.2694,170.6055,340.686,174.7721,330.2694,170.6055,334.436" style="stroke:#FFFFFF;stroke-width:1.0417;"/><line style="stroke:#FFFFFF;stroke-width:3.125;" x1="170.6055" x2="170.6055" y1="598.0235" y2="618.8568"/><polygon fill="#FFFFFF" points="166.4388,608.4401,170.6055,618.8568,174.7721,608.4401,170.6055,612.6068" style="stroke:#FFFFFF;stroke-width:1.0417;"/><line style="stroke:#FFFFFF;stroke-width:3.125;" x1="170.6055" x2="170.6055" y1="667.3818" y2="688.2151"/><polygon fill="#FFFFFF" points="166.4388,677.7985,170.6055,688.2151,174.7721,677.7985,170.6055,681.9651" style="stroke:#FFFFFF;stroke-width:1.0417;"/><line style="stroke:#FFFFFF;stroke-width:3.125;" x1="170.6055" x2="170.6055" y1="736.7401" y2="757.5734"/><polygon fill="#FFFFFF" points="166.4388,747.1568,170.6055,757.5734,174.7721,747.1568,170.6055,751.3234" style="stroke:#FFFFFF;stroke-width:1.0417;"/><line style="stroke:#FFFFFF;stroke-width:3.125;" x1="170.6055" x2="170.6055" y1="806.0984" y2="826.9318"/><polygon fill="#FFFFFF" points="166.4388,816.5151,170.6055,826.9318,174.7721,816.5151,170.6055,820.6818" style="stroke:#FFFFFF;stroke-width:1.0417;"/><line style="stroke:#FFFFFF;stroke-width:3.125;" x1="170.6055" x2="170.6055" y1="875.4567" y2="896.2901"/><polygon fill="#FFFFFF" points="166.4388,885.8734,170.6055,896.2901,174.7721,885.8734,170.6055,890.0401" style="stroke:#FFFFFF;stroke-width:1.0417;"/><line style="stroke:#FFFFFF;stroke-width:3.125;" x1="170.6055" x2="170.6055" y1="944.8151" y2="965.6484"/><polygon fill="#FFFFFF" points="166.4388,955.2317,170.6055,965.6484,174.7721,955.2317,170.6055,959.3984" style="stroke:#FFFFFF;stroke-width:1.0417;"/><line style="stroke:#FFFFFF;stroke-width:3.125;" x1="170.6055" x2="170.6055" y1="1014.1734" y2="1035.0067"/><polygon fill="#FFFFFF" points="166.4388,1024.59,170.6055,1035.0067,174.7721,1024.59,170.6055,1028.7567" style="stroke:#FFFFFF;stroke-width:1.0417;"/><line style="stroke:#FFFFFF;stroke-width:3.125;" x1="170.6055" x2="170.6055" y1="1083.5317" y2="1104.365"/><polygon fill="#FFFFFF" points="166.4388,1093.9484,170.6055,1104.365,174.7721,1093.9484,170.6055,1098.115" style="stroke:#FFFFFF;stroke-width:1.0417;"/><?plantuml-src ZPFBRjD058RtVeg3s2HYqNqAGcdYN4JaHB5HaH2A9iwnCuez4poJeEoeK2_SMXOLL2fIGGYf2qWsHLG4bPUfdUGj62UKLeAaySgUyytdVuwFRyWc-WW-aHXGeeaMPMqI41yQw92E9tESoGptU00tSzFh2f8E0lvaNh546SwhLOZT8YwkyQ21mJoeYhOapFMkmJBSRtE6J2x6J7pSGMRZmimNK8aw6ETVJbaXWQGsRPDbCrpPiB2zjgHTAdkBfHVKCgOi9JvdZUM4V-15NbEgiRdcp37ohqDIwI6SdmwZRnkZuvVHoJ1ySHmUdcb2gkPegV6lmt3pCmJe12YQPiTrKKZAcKWaLxMKMkDU5otgK-PMr1CgFNEe2xV0GMpKrNnLk4VjdeB7Ws6uznOypblnUfRq18HRcy3h0eCkcLfNDUf08lhmFNh_PRAz1xT1cQdVyKtYjpqKTvEW_XEca8D1KWDG2TeUKLyIMKD5oF5WbY919VhYpiD7AYM0aBojnOIZgHZzZwF-EwWJWPuQBLKaKhqtDTbu7UvkWQ0k8vxEN5LRH-esfO1ei3y-UnPz_RGoFZc2UiTkeLGxebVF9mSxuTEVe_sZQESDcCMyaIxLT2DVDFJQkbxC5om8Xp_6_NvCJoLGBPhtQcK3Li3GxrlLT4dTpTPokVdgJDcmz0VMF6awcrMQIhMyfiEiUUUdkt-F-1zVEcCLoqRDAbHrir0kPI-DYnigBWT0TJRkwsy0?></g></svg>