<?plantuml 1.2026.2?><svg xmlns="http://www.w3.org/2000/svg" xmlns:xlink="http://www.w3.org/1999/xlink" contentStyleType="text/css" data-diagram-type="ACTIVITY" height="1143.75px" preserveAspectRatio="none" style="width:346px;height:1143px;" version="1.1" viewBox="0 0 346 1143" width="346.875px" zoomAndPan="magnify"><title>&#20027;&#27969;&#31243;&#27963;&#21160;&#22270;</title><defs><linearGradient id="g1jxhzrzh82d4k0" x1="50%" x2="50%" y1="0%" y2="100%"><stop offset="0%" stop-color="#FFFFFF"/><stop offset="100%" stop-color="#FFFFFF"/></linearGradient><filter height="300%" id="f1jxhzrzh82d4k" width="300%" x="-1" y="-1"><feGaussianBlur result="blurOut" stdDeviation="2.0833"/><feColorMatrix in="blurOut" result="blurOut2" type="matrix" values="0 0 0 0 0 0 0 0 0 0 0 0 0 0 0 0 0 0 .4 0"/><feOffset dx="4.1667" dy="4.1667" in="blurOut2" result="blurOut3"/><feBlend in="SourceGraphic" in2="blurOut3" mode="normal"/></filter><linearGradient id="g1jxhzrzh82d4k1" x1="50%" x2="50%" y1="0%" y2="100%"><stop offset="0%" stop-color="#4DABF5"/><stop offset="100%" stop-color="#2196F3"/></linearGradient></defs><g><g class="title" data-source-line="18"><rect fill="url(#g1jxhzrzh82d4k0)" height="58.6528" rx="4.1667" ry="4.1667" style="stroke:#CCCCCC;stroke-width:1.0417;" width="158.3333" x="93.0135" y="20.8333"/><text fill="#FFFFFF" font-family="'Verdana'" font-size="20.8333" font-weight="bold" lengthAdjust="spacing" textLength="125" x="109.6802" y="58.4452">&#20027;&#27969;&#31243;&#27963;&#21160;&#22270;</text></g><ellipse cx="170.6177" cy="101.3611" fill="#9C27B0" filter="url(#f1jxhzrzh82d4k)" rx="10.4167" ry="10.4167" style="stroke:#1A78C2;stroke-width:1.0417;"/><rect fill="url(#g1jxhzrzh82d4k1)" filter="url(#f1jxhzrzh82d4k)" height="48.525" rx="4.1667" ry="4.1667" style="stroke:#FFFFFF;stroke-width:1.0417;" width="219.9972" x="60.6191" y="132.6111"/><text fill="#FFFFFF" font-family="'Verdana'" font-size="12.5" lengthAdjust="spacing" textLength="186.6638" x="77.2858" y="161.8449">&#36827;&#20837; buildRecommendations()</text><rect fill="url(#g1jxhzrzh82d4k1)" filter="url(#f1jxhzrzh82d4k)" height="48.525" rx="4.1667" ry="4.1667" style="stroke:#FFFFFF;stroke-width:1.0417;" width="211.2996" x="64.9679" y="201.9694"/><text fill="#FFFFFF" font-family="'Verdana'" font-size="12.5" lengthAdjust="spacing" textLength="177.9663" x="81.6345" y="231.2032">resolveTimingPresetConfig()</text><rect fill="url(#g1jxhzrzh82d4k1)" filter="url(#f1jxhzrzh82d4k)" height="48.525" rx="4.1667" ry="4.1667" style="stroke:#FFFFFF;stroke-width:1.0417;" width="318.3187" x="11.4583" y="271.3277"/><text fill="#FFFFFF" font-family="'Verdana'" font-size="12.5" lengthAdjust="spacing" textLength="284.9854" x="28.125" y="300.5615">&#24314;&#31435; positionsByCode + remainingRiskBudget</text><rect fill="url(#g1jxhzrzh82d4k1)" filter="url(#f1jxhzrzh82d4k)" height="48.525" rx="4.1667" ry="4.1667" style="stroke:#FFFFFF;stroke-width:1.0417;" width="235.0606" x="53.0874" y="340.686"/><text fill="#FFFFFF" font-family="'Verdana'" font-size="12.5" lengthAdjust="spacing" textLength="201.7273" x="69.754" y="369.9198">&#36941;&#21382; timingCards &#29983;&#25104; Candidate</text><rect fill="url(#g1jxhzrzh82d4k1)" filter="url(#f1jxhzrzh82d4k)" height="48.525" rx="4.1667" ry="4.1667" style="stroke:#FFFFFF;stroke-width:1.0417;" width="169.3075" x="85.9639" y="410.0444"/><text fill="#FFFFFF" font-family="'Verdana'" font-size="12.5" lengthAdjust="spacing" textLength="135.9741" x="102.6306" y="439.2782">normalizeForMarket()</text><rect fill="url(#g1jxhzrzh82d4k1)" filter="url(#f1jxhzrzh82d4k)" height="48.525" rx="4.1667" ry="4.1667" style="stroke:#FFFFFF;stroke-width:1.0417;" width="223.5311" x="58.8521" y="479.4027"/><text fill="#FFFFFF" font-family="'Verdana'" font-size="12.5" lengthAdjust="spacing" textLength="190.1978" x="75.5188" y="508.6365">PositionContextService.build()</text><rect fill="url(#g1jxhzrzh82d4k1)" filter="url(#f1jxhzrzh82d4k)" height="48.525" rx="4.1667" ry="4.1667" style="stroke:#FFFFFF;stroke-width:1.0417;" width="175.0814" x="83.077" y="548.761"/><text fill="#FFFFFF" font-family="'Verdana'" font-size="12.5" lengthAdjust="spacing" textLength="141.748" x="99.7437" y="577.9948">normalizeForPosition()</text><rect fill="url(#g1jxhzrzh82d4k1)" filter="url(#f1jxhzrzh82d4k)" height="48.525" rx="4.1667" ry="4.1667" style="stroke:#FFFFFF;stroke-width:1.0417;" width="170.3389" x="85.4482" y="618.1193"/><text fill="#FFFFFF" font-family="'Verdana'" font-size="12.5" lengthAdjust="spacing" textLength="137.0056" x="102.1149" y="647.3531">getSuggestedRange()</text><rect fill="url(#g1jxhzrzh82d4k1)" filter="url(#f1jxhzrzh82d4k)" height="48.525" rx="4.1667" ry="4.1667" style="stroke:#FFFFFF;stroke-width:1.0417;" width="272.9085" x="34.1634" y="687.4776"/><text fill="#FFFFFF" font-family="'Verdana'" font-size="12.5" lengthAdjust="spacing" textLength="239.5752" x="50.8301" y="716.7114">adjustConfidence() + computeScore()</text><rect fill="url(#g1jxhzrzh82d4k1)" filter="url(#f1jxhzrzh82d4k)" height="48.525" rx="4.1667" ry="4.1667" style="stroke:#FFFFFF;stroke-width:1.0417;" width="138.0147" x="101.6103" y="756.8359"/><text fill="#FFFFFF" font-family="'Verdana'" font-size="12.5" lengthAdjust="spacing" textLength="104.6814" x="118.277" y="786.0697">&#25353; score &#38477;&#24207;&#25490;&#24207;</text><rect fill="url(#g1jxhzrzh82d4k1)" filter="url(#f1jxhzrzh82d4k)" height="48.525" rx="4.1667" ry="4.1667" style="stroke:#FFFFFF;stroke-width:1.0417;" width="299.2696" x="20.9829" y="826.1943"/><text fill="#FFFFFF" font-family="'Verdana'" font-size="12.5" lengthAdjust="spacing" textLength="265.9363" x="37.6495" y="855.4281">&#25353; remainingRiskBudget &#25130;&#26029;&#25110; downgrade</text><rect fill="url(#g1jxhzrzh82d4k1)" filter="url(#f1jxhzrzh82d4k)" height="48.525" rx="4.1667" ry="4.1667" style="stroke:#FFFFFF;stroke-width:1.0417;" width="262.0138" x="39.6108" y="895.5526"/><text fill="#FFFFFF" font-family="'Verdana'" font-size="12.5" lengthAdjust="spacing" textLength="228.6804" x="56.2775" y="924.7864">&#37325;&#31639; positionContext(targetDeltaPct)</text><rect fill="url(#g1jxhzrzh82d4k1)" filter="url(#f1jxhzrzh82d4k)" height="48.525" rx="4.1667" ry="4.1667" style="stroke:#FFFFFF;stroke-width:1.0417;" width="311.971" x="14.6322" y="964.9109"/><text fill="#FFFFFF" font-family="'Verdana'" font-size="12.5" lengthAdjust="spacing" textLength="278.6377" x="31.2988" y="994.1447">&#32452;&#35013; TimingRecommendationDraft.reasoning</text><rect fill="url(#g1jxhzrzh82d4k1)" filter="url(#f1jxhzrzh82d4k)" height="48.525" rx="4.1667" ry="4.1667" style="stroke:#FFFFFF;stroke-width:1.0417;" width="174.941" x="83.1472" y="1034.2692"/><text fill="#FFFFFF" font-family="'Verdana'" font-size="12.5" lengthAdjust="spacing" textLength="141.6077" x="99.8138" y="1063.503">&#36820;&#22238; recommendations</text><ellipse cx="170.6177" cy="1115.0859" fill="none" filter="url(#f1jxhzrzh82d4k)" rx="11.4583" ry="11.4583" style="stroke:#1A78C2;stroke-width:1.0417;"/><ellipse cx="170.6177" cy="1115.0859" fill="none" rx="6.25" ry="6.25" style="stroke:#1A78C2;stroke-width:1.0417;"/><line style="stroke:#FFFFFF;stroke-width:3.125;" x1="170.6177" x2="170.6177" y1="111.7778" y2="132.6111"/><polygon fill="#FFFFFF" points="166.451,122.1944,170.6177,132.6111,174.7843,122.1944,170.6177,126.3611" style="stroke:#FFFFFF;stroke-width:1.0417;"/><line style="stroke:#FFFFFF;stroke-width:3.125;" x1="170.6177" x2="170.6177" y1="181.1361" y2="201.9694"/><polygon fill="#FFFFFF" points="166.451,191.5527,170.6177,201.9694,174.7843,191.5527,170.6177,195.7194" style="stroke:#FFFFFF;stroke-width:1.0417;"/><line style="stroke:#FFFFFF;stroke-width:3.125;" x1="170.6177" x2="170.6177" y1="250.4944" y2="271.3277"/><polygon fill="#FFFFFF" points="166.451,260.9111,170.6177,271.3277,174.7843,260.9111,170.6177,265.0777" style="stroke:#FFFFFF;stroke-width:1.0417;"/><line style="stroke:#FFFFFF;stroke-width:3.125;" x1="170.6177" x2="170.6177" y1="319.8527" y2="340.686"/><polygon fill="#FFFFFF" points="166.451,330.2694,170.6177,340.686,174.7843,330.2694,170.6177,334.436" style="stroke:#FFFFFF;stroke-width:1.0417;"/><line style="stroke:#FFFFFF;stroke-width:3.125;" x1="170.6177" x2="170.6177" y1="389.211" y2="410.0444"/><polygon fill="#FFFFFF" points="166.451,399.6277,170.6177,410.0444,174.7843,399.6277,170.6177,403.7944" style="stroke:#FFFFFF;stroke-width:1.0417;"/><line style="stroke:#FFFFFF;stroke-width:3.125;" x1="170.6177" x2="170.6177" y1="458.5693" y2="479.4027"/><polygon fill="#FFFFFF" points="166.451,468.986,170.6177,479.4027,174.7843,468.986,170.6177,473.1527" style="stroke:#FFFFFF;stroke-width:1.0417;"/><line style="stroke:#FFFFFF;stroke-width:3.125;" x1="170.6177" x2="170.6177" y1="527.9277" y2="548.761"/><polygon fill="#FFFFFF" points="166.451,538.3443,170.6177,548.761,174.7843,538.3443,170.6177,542.511" style="stroke:#FFFFFF;stroke-width:1.0417;"/><line style="stroke:#FFFFFF;stroke-width:3.125;" x1="170.6177" x2="170.6177" y1="597.286" y2="618.1193"/><polygon fill="#FFFFFF" points="166.451,607.7026,170.6177,618.1193,174.7843,607.7026,170.6177,611.8693" style="stroke:#FFFFFF;stroke-width:1.0417;"/><line style="stroke:#FFFFFF;stroke-width:3.125;" x1="170.6177" x2="170.6177" y1="666.6443" y2="687.4776"/><polygon fill="#FFFFFF" points="166.451,677.061,170.6177,687.4776,174.7843,677.061,170.6177,681.2276" style="stroke:#FFFFFF;stroke-width:1.0417;"/><line style="stroke:#FFFFFF;stroke-width:3.125;" x1="170.6177" x2="170.6177" y1="736.0026" y2="756.8359"/><polygon fill="#FFFFFF" points="166.451,746.4193,170.6177,756.8359,174.7843,746.4193,170.6177,750.5859" style="stroke:#FFFFFF;stroke-width:1.0417;"/><line style="stroke:#FFFFFF;stroke-width:3.125;" x1="170.6177" x2="170.6177" y1="805.3609" y2="826.1943"/><polygon fill="#FFFFFF" points="166.451,815.7776,170.6177,826.1943,174.7843,815.7776,170.6177,819.9443" style="stroke:#FFFFFF;stroke-width:1.0417;"/><line style="stroke:#FFFFFF;stroke-width:3.125;" x1="170.6177" x2="170.6177" y1="874.7192" y2="895.5526"/><polygon fill="#FFFFFF" points="166.451,885.1359,170.6177,895.5526,174.7843,885.1359,170.6177,889.3026" style="stroke:#FFFFFF;stroke-width:1.0417;"/><line style="stroke:#FFFFFF;stroke-width:3.125;" x1="170.6177" x2="170.6177" y1="944.0776" y2="964.9109"/><polygon fill="#FFFFFF" points="166.451,954.4942,170.6177,964.9109,174.7843,954.4942,170.6177,958.6609" style="stroke:#FFFFFF;stroke-width:1.0417;"/><line style="stroke:#FFFFFF;stroke-width:3.125;" x1="170.6177" x2="170.6177" y1="1013.4359" y2="1034.2692"/><polygon fill="#FFFFFF" points="166.451,1023.8525,170.6177,1034.2692,174.7843,1023.8525,170.6177,1028.0192" style="stroke:#FFFFFF;stroke-width:1.0417;"/><line style="stroke:#FFFFFF;stroke-width:3.125;" x1="170.6177" x2="170.6177" y1="1082.7942" y2="1103.6275"/><polygon fill="#FFFFFF" points="166.451,1093.2109,170.6177,1103.6275,174.7843,1093.2109,170.6177,1097.3775" style="stroke:#FFFFFF;stroke-width:1.0417;"/><?plantuml-src ZPBFRjD04CRlUOf5N58XzG6Q4qdKKojPCIymU2TcYBrhTiSfvLQ9Gg2a85IrGf7WW2fL83Y1X1e9NWRRpLkmTXAK2fB61qls_ERxvjyjVe0nYXWO3K7DzaWbO20M4hkGHhoj5RTqf8sulLqz2yXTO_JUik0EALmMyo3eGOXDRIIQPL070mOLHZTWBHqdMg7YrPYFZr9K0QwiUGxjK1VB-jUJzC0m1PJ0kZKi9AmSRy3K9zvVBJgdrb5g4yHQoVK4P_0gNP_TsTpGSudygy744OhVFyRvzuFYuYZ_DivUNcIZdpNBRZYrhQjVe-pmNDnFAPBk47GSevB0f9MjRpHgMmQjZlfuZs9IeUU-q1ceBeLLD1jV5f-FHA8jLIdD_PQMAEu8Wp6GSYaTihrcAaDaXqyEXjdnCy6LM0kCjA8u-P0FteWMA4dE5nsbj8aXeYUk6xCBfeTSUNap4sVF-9XzD7qASBEgl08My-Pm5N3cVXg6Q1bbnrqwLdz1Fapjj1bP7ajzmzNj1f2aZ7wWpPJANxqGjlmIatV3xF9rVlpMlMU1_tGfyi6d_FHBFZWLKk-fq80iUvey7nPVp_uEQjP3tUt0vRGnOl02BlsAyTEhZuTYEk_h2saRwFAcGR2wz6oKopl9HkzT6TVsrd2xrSaV?></g></svg>