<?plantuml 1.2026.2?><svg xmlns="http://www.w3.org/2000/svg" xmlns:xlink="http://www.w3.org/1999/xlink" contentStyleType="text/css" data-diagram-type="ACTIVITY" height="1500px" preserveAspectRatio="none" style="width:476px;height:1500px;" version="1.1" viewBox="0 0 476 1500" width="476.0417px" zoomAndPan="magnify"><title>&#20027;&#27969;&#31243;&#27963;&#21160;&#22270;</title><defs><linearGradient id="g1m5hgqze4gtrq0" x1="50%" x2="50%" y1="0%" y2="100%"><stop offset="0%" stop-color="#FFFFFF"/><stop offset="100%" stop-color="#FFFFFF"/></linearGradient><filter height="300%" id="f1m5hgqze4gtrq" width="300%" x="-1" y="-1"><feGaussianBlur result="blurOut" stdDeviation="2.0833"/><feColorMatrix in="blurOut" result="blurOut2" type="matrix" values="0 0 0 0 0 0 0 0 0 0 0 0 0 0 0 0 0 0 .4 0"/><feOffset dx="4.1667" dy="4.1667" in="blurOut2" result="blurOut3"/><feBlend in="SourceGraphic" in2="blurOut3" mode="normal"/></filter><linearGradient id="g1m5hgqze4gtrq1" x1="50%" x2="50%" y1="0%" y2="100%"><stop offset="0%" stop-color="#4DABF5"/><stop offset="100%" stop-color="#2196F3"/></linearGradient></defs><g><g class="title" data-source-line="18"><rect fill="url(#g1m5hgqze4gtrq0)" height="58.6528" rx="4.1667" ry="4.1667" style="stroke:#CCCCCC;stroke-width:1.0417;" width="158.3333" x="157.5175" y="20.8333"/><text fill="#FFFFFF" font-family="'Verdana'" font-size="20.8333" font-weight="bold" lengthAdjust="spacing" textLength="125" x="174.1842" y="58.4452">&#20027;&#27969;&#31243;&#27963;&#21160;&#22270;</text></g><ellipse cx="244.8293" cy="101.3611" fill="#9C27B0" filter="url(#f1m5hgqze4gtrq)" rx="10.4167" ry="10.4167" style="stroke:#1A78C2;stroke-width:1.0417;"/><rect fill="url(#g1m5hgqze4gtrq1)" filter="url(#f1m5hgqze4gtrq)" height="63.7166" rx="4.1667" ry="4.1667" style="stroke:#FFFFFF;stroke-width:1.0417;" width="243.1478" x="123.2554" y="132.6111"/><text fill="#FFFFFF" font-family="'Verdana'" font-size="12.5" lengthAdjust="spacing" textLength="144.2932" x="139.9221" y="161.8449">load_watchlist_context</text><text fill="#FFFFFF" font-family="'Verdana'" font-size="12.5" lengthAdjust="spacing" textLength="209.8145" x="139.9221" y="177.0365">&#35835;&#21462; watchlist / snapshot / preset</text><rect fill="url(#g1m5hgqze4gtrq1)" filter="url(#f1m5hgqze4gtrq)" height="48.525" rx="4.1667" ry="4.1667" style="stroke:#FFFFFF;stroke-width:1.0417;" width="146.3826" x="171.638" y="289.9485"/><text fill="#FFFFFF" font-family="'Verdana'" font-size="12.5" lengthAdjust="spacing" textLength="113.0493" x="188.3046" y="319.1823">&#25243;&#20986;&#38169;&#35823;&#24182;&#32456;&#27490; run</text><ellipse cx="244.8293" cy="370.7652" fill="none" filter="url(#f1m5hgqze4gtrq)" rx="11.4583" ry="11.4583" style="stroke:#1A78C2;stroke-width:1.0417;"/><ellipse cx="244.8293" cy="370.7652" fill="none" rx="6.25" ry="6.25" style="stroke:#1A78C2;stroke-width:1.0417;"/><polygon fill="url(#g1m5hgqze4gtrq0)" filter="url(#f1m5hgqze4gtrq)" points="149.644,217.1611,340.0146,217.1611,352.5146,235.1735,340.0146,253.186,149.644,253.186,137.144,235.1735,149.644,217.1611" style="stroke:#FFFFFF;stroke-width:1.0417;"/><text fill="#FFFFFF" font-family="'Verdana'" font-size="12.5" lengthAdjust="spacing" textLength="12.5" x="259.4126" y="276.1698">&#26159;</text><text fill="#FFFFFF" font-family="'Verdana'" font-size="12.5" lengthAdjust="spacing" textLength="169.5374" x="160.0606" y="240.1449">watchlist &#25110; snapshot &#32570;&#22833;?</text><rect fill="url(#g1m5hgqze4gtrq1)" filter="url(#f1m5hgqze4gtrq)" height="63.7166" rx="4.1667" ry="4.1667" style="stroke:#FFFFFF;stroke-width:1.0417;" width="222.7498" x="133.4544" y="425.9735"/><text fill="#FFFFFF" font-family="'Verdana'" font-size="12.5" lengthAdjust="spacing" textLength="189.4165" x="150.1211" y="455.2073">fetch_signal_snapshots_batch</text><text fill="#FFFFFF" font-family="'Verdana'" font-size="12.5" lengthAdjust="spacing" textLength="156.1707" x="150.1211" y="470.399">&#25209;&#37327;&#25289;&#21462; signalSnapshots</text><polygon fill="url(#g1m5hgqze4gtrq0)" filter="url(#f1m5hgqze4gtrq)" points="194.0867,510.5235,295.5719,510.5235,308.0719,528.536,295.5719,546.5485,194.0867,546.5485,181.5867,528.536,194.0867,510.5235" style="stroke:#FFFFFF;stroke-width:1.0417;"/><text fill="#FFFFFF" font-family="'Verdana'" font-size="12.5" lengthAdjust="spacing" textLength="80.6519" x="204.5034" y="533.5073">targets &#20026;&#31354;?</text><text fill="#FFFFFF" font-family="'Verdana'" font-size="12.5" lengthAdjust="spacing" textLength="12.5" x="158.67" y="515.4948">&#26159;</text><text fill="#FFFFFF" font-family="'Verdana'" font-size="12.5" lengthAdjust="spacing" textLength="12.5" x="318.4886" y="515.4948">&#21542;</text><rect fill="url(#g1m5hgqze4gtrq1)" filter="url(#f1m5hgqze4gtrq)" height="48.525" rx="4.1667" ry="4.1667" style="stroke:#FFFFFF;stroke-width:1.0417;" width="177.004" x="56.1361" y="556.9651"/><text fill="#FFFFFF" font-family="'Verdana'" font-size="12.5" lengthAdjust="spacing" textLength="143.6707" x="72.8027" y="586.1989">&#36820;&#22238;&#31354; signalSnapshots</text><rect fill="url(#g1m5hgqze4gtrq1)" filter="url(#f1m5hgqze4gtrq)" height="48.525" rx="4.1667" ry="4.1667" style="stroke:#FFFFFF;stroke-width:1.0417;" width="146.3826" x="271.8292" y="629.7526"/><text fill="#FFFFFF" font-family="'Verdana'" font-size="12.5" lengthAdjust="spacing" textLength="113.0493" x="288.4959" y="658.9864">&#25243;&#20986;&#38169;&#35823;&#24182;&#32456;&#27490; run</text><ellipse cx="345.0205" cy="726.1943" fill="none" filter="url(#f1m5hgqze4gtrq)" rx="11.4583" ry="11.4583" style="stroke:#1A78C2;stroke-width:1.0417;"/><ellipse cx="345.0205" cy="726.1943" fill="none" rx="6.25" ry="6.25" style="stroke:#1A78C2;stroke-width:1.0417;"/><polygon fill="url(#g1m5hgqze4gtrq0)" filter="url(#f1m5hgqze4gtrq)" points="266.4734,556.9651,423.5677,556.9651,436.0677,574.9776,423.5677,592.9901,266.4734,592.9901,253.9734,574.9776,266.4734,556.9651" style="stroke:#FFFFFF;stroke-width:1.0417;"/><text fill="#FFFFFF" font-family="'Verdana'" font-size="12.5" lengthAdjust="spacing" textLength="12.5" x="359.6039" y="615.9739">&#26159;</text><text fill="#FFFFFF" font-family="'Verdana'" font-size="12.5" lengthAdjust="spacing" textLength="136.261" x="276.8901" y="579.9489">&#25209;&#37327;&#25509;&#21475;&#21482;&#36820;&#22238; errors?</text><polygon fill="url(#g1m5hgqze4gtrq0)" filter="url(#f1m5hgqze4gtrq)" points="244.8293,770.9859,257.3293,783.4859,244.8293,795.9859,232.3293,783.4859,244.8293,770.9859" style="stroke:#FFFFFF;stroke-width:1.0417;"/><rect fill="url(#g1m5hgqze4gtrq1)" filter="url(#f1m5hgqze4gtrq)" height="63.7166" rx="4.1667" ry="4.1667" style="stroke:#FFFFFF;stroke-width:1.0417;" width="199.3062" x="145.1762" y="816.8193"/><text fill="#FFFFFF" font-family="'Verdana'" font-size="12.5" lengthAdjust="spacing" textLength="143.634" x="161.8429" y="846.0531">technical_signal_agent</text><text fill="#FFFFFF" font-family="'Verdana'" font-size="12.5" lengthAdjust="spacing" textLength="165.9729" x="161.8429" y="861.2447">&#29983;&#25104; technicalAssessments</text><rect fill="url(#g1m5hgqze4gtrq1)" filter="url(#f1m5hgqze4gtrq)" height="63.7166" rx="4.1667" ry="4.1667" style="stroke:#FFFFFF;stroke-width:1.0417;" width="183.0037" x="153.3274" y="901.3692"/><text fill="#FFFFFF" font-family="'Verdana'" font-size="12.5" lengthAdjust="spacing" textLength="149.6704" x="169.9941" y="930.603">timing_synthesis_agent</text><text fill="#FFFFFF" font-family="'Verdana'" font-size="12.5" lengthAdjust="spacing" textLength="107.0862" x="169.9941" y="945.7947">&#29983;&#25104; timing cards</text><polygon fill="url(#g1m5hgqze4gtrq0)" filter="url(#f1m5hgqze4gtrq)" points="181.0038,985.9192,308.6548,985.9192,321.1548,1003.9317,308.6548,1021.9442,181.0038,1021.9442,168.5038,1003.9317,181.0038,985.9192" style="stroke:#FFFFFF;stroke-width:1.0417;"/><text fill="#FFFFFF" font-family="'Verdana'" font-size="12.5" lengthAdjust="spacing" textLength="106.8176" x="191.4205" y="1008.903">&#21629;&#20013;&#24066;&#22330;&#35821;&#22659;&#32531;&#23384;?</text><text fill="#FFFFFF" font-family="'Verdana'" font-size="12.5" lengthAdjust="spacing" textLength="12.5" x="145.5872" y="990.8905">&#26159;</text><text fill="#FFFFFF" font-family="'Verdana'" font-size="12.5" lengthAdjust="spacing" textLength="12.5" x="331.5715" y="990.8905">&#21542;</text><rect fill="url(#g1m5hgqze4gtrq1)" filter="url(#f1m5hgqze4gtrq)" height="48.525" rx="4.1667" ry="4.1667" style="stroke:#FFFFFF;stroke-width:1.0417;" width="232.6619" x="11.4583" y="1032.3608"/><text fill="#FFFFFF" font-family="'Verdana'" font-size="12.5" lengthAdjust="spacing" textLength="199.3286" x="28.125" y="1061.5946">&#22797;&#29992;&#24050;&#26377; marketContextAnalysis</text><rect fill="url(#g1m5hgqze4gtrq1)" filter="url(#f1m5hgqze4gtrq)" height="48.525" rx="4.1667" ry="4.1667" style="stroke:#FFFFFF;stroke-width:1.0417;" width="193.8314" x="264.9536" y="1032.3608"/><text fill="#FFFFFF" font-family="'Verdana'" font-size="12.5" lengthAdjust="spacing" textLength="160.498" x="281.6203" y="1061.5946">&#25289;&#21462;&#24066;&#22330;&#24555;&#29031;&#24182;&#20998;&#26512; regime</text><rect fill="url(#g1m5hgqze4gtrq1)" filter="url(#f1m5hgqze4gtrq)" height="48.525" rx="4.1667" ry="4.1667" style="stroke:#FFFFFF;stroke-width:1.0417;" width="152.6449" x="285.5469" y="1101.7192"/><text fill="#FFFFFF" font-family="'Verdana'" font-size="12.5" lengthAdjust="spacing" textLength="119.3115" x="302.2135" y="1130.953">upsert &#24066;&#22330;&#35821;&#22659;&#32531;&#23384;</text><polygon fill="url(#g1m5hgqze4gtrq0)" filter="url(#f1m5hgqze4gtrq)" points="244.8293,1160.6608,257.3293,1173.1608,244.8293,1185.6608,232.3293,1173.1608,244.8293,1160.6608" style="stroke:#FFFFFF;stroke-width:1.0417;"/><rect fill="url(#g1m5hgqze4gtrq1)" filter="url(#f1m5hgqze4gtrq)" height="63.7166" rx="4.1667" ry="4.1667" style="stroke:#FFFFFF;stroke-width:1.0417;" width="182.9366" x="153.361" y="1206.4941"/><text fill="#FFFFFF" font-family="'Verdana'" font-size="12.5" lengthAdjust="spacing" textLength="149.6033" x="170.0277" y="1235.7279">watchlist_risk_manager</text><text fill="#FFFFFF" font-family="'Verdana'" font-size="12.5" lengthAdjust="spacing" textLength="78.4546" x="170.0277" y="1250.9196">&#29983;&#25104; riskPlan</text><rect fill="url(#g1m5hgqze4gtrq1)" filter="url(#f1m5hgqze4gtrq)" height="63.7166" rx="4.1667" ry="4.1667" style="stroke:#FFFFFF;stroke-width:1.0417;" width="326.4303" x="81.6142" y="1291.0441"/><text fill="#FFFFFF" font-family="'Verdana'" font-size="12.5" lengthAdjust="spacing" textLength="178.9917" x="98.2808" y="1320.2779">watchlist_portfolio_manager</text><text fill="#FFFFFF" font-family="'Verdana'" font-size="12.5" lengthAdjust="spacing" textLength="293.0969" x="98.2808" y="1335.4696">&#35835;&#21462; feedbackContext &#24182;&#29983;&#25104; recommendations</text><rect fill="url(#g1m5hgqze4gtrq1)" filter="url(#f1m5hgqze4gtrq)" height="63.7166" rx="4.1667" ry="4.1667" style="stroke:#FFFFFF;stroke-width:1.0417;" width="195.4427" x="147.108" y="1375.5941"/><text fill="#FFFFFF" font-family="'Verdana'" font-size="12.5" lengthAdjust="spacing" textLength="162.1094" x="163.7746" y="1404.8279">persist_recommendations</text><text fill="#FFFFFF" font-family="'Verdana'" font-size="12.5" lengthAdjust="spacing" textLength="137.5" x="163.7746" y="1420.0195">&#33853;&#24211;&#24314;&#35758;&#24182;&#23433;&#25490;&#22797;&#30424;&#25552;&#37266;</text><ellipse cx="244.8293" cy="1471.6024" fill="none" filter="url(#f1m5hgqze4gtrq)" rx="11.4583" ry="11.4583" style="stroke:#1A78C2;stroke-width:1.0417;"/><ellipse cx="244.8293" cy="1471.6024" fill="none" rx="6.25" ry="6.25" style="stroke:#1A78C2;stroke-width:1.0417;"/><line style="stroke:#FFFFFF;stroke-width:3.125;" x1="244.8293" x2="244.8293" y1="111.7778" y2="132.6111"/><polygon fill="#FFFFFF" points="240.6626,122.1944,244.8293,132.6111,248.996,122.1944,244.8293,126.3611" style="stroke:#FFFFFF;stroke-width:1.0417;"/><line style="stroke:#FFFFFF;stroke-width:3.125;" x1="244.8293" x2="244.8293" y1="338.4735" y2="359.3068"/><polygon fill="#FFFFFF" points="240.6626,348.8902,244.8293,359.3068,248.996,348.8902,244.8293,353.0568" style="stroke:#FFFFFF;stroke-width:1.0417;"/><line style="stroke:#FFFFFF;stroke-width:3.125;" x1="244.8293" x2="244.8293" y1="253.186" y2="289.9485"/><polygon fill="#FFFFFF" points="240.6626,279.5319,244.8293,289.9485,248.996,279.5319,244.8293,283.6985" style="stroke:#FFFFFF;stroke-width:1.0417;"/><line style="stroke:#FFFFFF;stroke-width:3.125;" x1="352.5146" x2="365.0146" y1="235.1735" y2="235.1735"/><polygon fill="#FFFFFF" points="360.848,327.6006,365.0146,338.0173,369.1813,327.6006,365.0146,331.7673" style="stroke:#FFFFFF;stroke-width:3.125;"/><line style="stroke:#FFFFFF;stroke-width:3.125;" x1="365.0146" x2="365.0146" y1="235.1735" y2="405.1402"/><line style="stroke:#FFFFFF;stroke-width:3.125;" x1="365.0146" x2="244.8293" y1="405.1402" y2="405.1402"/><line style="stroke:#FFFFFF;stroke-width:3.125;" x1="244.8293" x2="244.8293" y1="405.1402" y2="425.9735"/><polygon fill="#FFFFFF" points="240.6626,415.5568,244.8293,425.9735,248.996,415.5568,244.8293,419.7235" style="stroke:#FFFFFF;stroke-width:1.0417;"/><line style="stroke:#FFFFFF;stroke-width:3.125;" x1="244.8293" x2="244.8293" y1="196.3277" y2="217.1611"/><polygon fill="#FFFFFF" points="240.6626,206.7444,244.8293,217.1611,248.996,206.7444,244.8293,210.9111" style="stroke:#FFFFFF;stroke-width:1.0417;"/><line style="stroke:#FFFFFF;stroke-width:3.125;" x1="345.0205" x2="345.0205" y1="678.2776" y2="714.7359"/><polygon fill="#FFFFFF" points="340.8539,704.3193,345.0205,714.7359,349.1872,704.3193,345.0205,708.4859" style="stroke:#FFFFFF;stroke-width:1.0417;"/><line style="stroke:#FFFFFF;stroke-width:3.125;" x1="345.0205" x2="345.0205" y1="592.9901" y2="629.7526"/><polygon fill="#FFFFFF" points="340.8539,619.3359,345.0205,629.7526,349.1872,619.3359,345.0205,623.5026" style="stroke:#FFFFFF;stroke-width:1.0417;"/><line style="stroke:#FFFFFF;stroke-width:3.125;" x1="436.0677" x2="448.5677" y1="574.9776" y2="574.9776"/><polygon fill="#FFFFFF" points="444.401,687.1964,448.5677,697.613,452.7344,687.1964,448.5677,691.363" style="stroke:#FFFFFF;stroke-width:3.125;"/><line style="stroke:#FFFFFF;stroke-width:3.125;" x1="448.5677" x2="448.5677" y1="574.9776" y2="783.4859"/><line style="stroke:#FFFFFF;stroke-width:3.125;" x1="448.5677" x2="257.3293" y1="783.4859" y2="783.4859"/><polygon fill="#FFFFFF" points="267.746,779.3193,257.3293,783.4859,267.746,787.6526,263.5793,783.4859" style="stroke:#FFFFFF;stroke-width:1.0417;"/><line style="stroke:#FFFFFF;stroke-width:3.125;" x1="181.5867" x2="144.6381" y1="528.536" y2="528.536"/><line style="stroke:#FFFFFF;stroke-width:3.125;" x1="144.6381" x2="144.6381" y1="528.536" y2="556.9651"/><polygon fill="#FFFFFF" points="140.4714,546.5485,144.6381,556.9651,148.8047,546.5485,144.6381,550.7151" style="stroke:#FFFFFF;stroke-width:1.0417;"/><line style="stroke:#FFFFFF;stroke-width:3.125;" x1="308.0719" x2="345.0205" y1="528.536" y2="528.536"/><line style="stroke:#FFFFFF;stroke-width:3.125;" x1="345.0205" x2="345.0205" y1="528.536" y2="556.9651"/><polygon fill="#FFFFFF" points="340.8539,546.5485,345.0205,556.9651,349.1872,546.5485,345.0205,550.7151" style="stroke:#FFFFFF;stroke-width:1.0417;"/><line style="stroke:#FFFFFF;stroke-width:3.125;" x1="144.6381" x2="144.6381" y1="605.4901" y2="783.4859"/><line style="stroke:#FFFFFF;stroke-width:3.125;" x1="144.6381" x2="232.3293" y1="783.4859" y2="783.4859"/><polygon fill="#FFFFFF" points="221.9126,779.3193,232.3293,783.4859,221.9126,787.6526,226.0793,783.4859" style="stroke:#FFFFFF;stroke-width:1.0417;"/><line style="stroke:#FFFFFF;stroke-width:3.125;" x1="244.8293" x2="244.8293" y1="489.6901" y2="510.5235"/><polygon fill="#FFFFFF" points="240.6626,500.1068,244.8293,510.5235,248.996,500.1068,244.8293,504.2735" style="stroke:#FFFFFF;stroke-width:1.0417;"/><line style="stroke:#FFFFFF;stroke-width:3.125;" x1="244.8293" x2="244.8293" y1="795.9859" y2="816.8193"/><polygon fill="#FFFFFF" points="240.6626,806.4026,244.8293,816.8193,248.996,806.4026,244.8293,810.5693" style="stroke:#FFFFFF;stroke-width:1.0417;"/><line style="stroke:#FFFFFF;stroke-width:3.125;" x1="244.8293" x2="244.8293" y1="880.5359" y2="901.3692"/><polygon fill="#FFFFFF" points="240.6626,890.9526,244.8293,901.3692,248.996,890.9526,244.8293,895.1192" style="stroke:#FFFFFF;stroke-width:1.0417;"/><line style="stroke:#FFFFFF;stroke-width:3.125;" x1="361.8693" x2="361.8693" y1="1080.8858" y2="1101.7192"/><polygon fill="#FFFFFF" points="357.7026,1091.3025,361.8693,1101.7192,366.036,1091.3025,361.8693,1095.4692" style="stroke:#FFFFFF;stroke-width:1.0417;"/><line style="stroke:#FFFFFF;stroke-width:3.125;" x1="168.5038" x2="127.7893" y1="1003.9317" y2="1003.9317"/><line style="stroke:#FFFFFF;stroke-width:3.125;" x1="127.7893" x2="127.7893" y1="1003.9317" y2="1032.3608"/><polygon fill="#FFFFFF" points="123.6226,1021.9442,127.7893,1032.3608,131.956,1021.9442,127.7893,1026.1108" style="stroke:#FFFFFF;stroke-width:1.0417;"/><line style="stroke:#FFFFFF;stroke-width:3.125;" x1="321.1548" x2="361.8693" y1="1003.9317" y2="1003.9317"/><line style="stroke:#FFFFFF;stroke-width:3.125;" x1="361.8693" x2="361.8693" y1="1003.9317" y2="1032.3608"/><polygon fill="#FFFFFF" points="357.7026,1021.9442,361.8693,1032.3608,366.036,1021.9442,361.8693,1026.1108" style="stroke:#FFFFFF;stroke-width:1.0417;"/><line style="stroke:#FFFFFF;stroke-width:3.125;" x1="127.7893" x2="127.7893" y1="1080.8858" y2="1173.1608"/><line style="stroke:#FFFFFF;stroke-width:3.125;" x1="127.7893" x2="232.3293" y1="1173.1608" y2="1173.1608"/><polygon fill="#FFFFFF" points="221.9126,1168.9941,232.3293,1173.1608,221.9126,1177.3275,226.0793,1173.1608" style="stroke:#FFFFFF;stroke-width:1.0417;"/><line style="stroke:#FFFFFF;stroke-width:3.125;" x1="361.8693" x2="361.8693" y1="1150.2441" y2="1173.1608"/><line style="stroke:#FFFFFF;stroke-width:3.125;" x1="361.8693" x2="257.3293" y1="1173.1608" y2="1173.1608"/><polygon fill="#FFFFFF" points="267.746,1168.9941,257.3293,1173.1608,267.746,1177.3275,263.5793,1173.1608" style="stroke:#FFFFFF;stroke-width:1.0417;"/><line style="stroke:#FFFFFF;stroke-width:3.125;" x1="244.8293" x2="244.8293" y1="965.0859" y2="985.9192"/><polygon fill="#FFFFFF" points="240.6626,975.5025,244.8293,985.9192,248.996,975.5025,244.8293,979.6692" style="stroke:#FFFFFF;stroke-width:1.0417;"/><line style="stroke:#FFFFFF;stroke-width:3.125;" x1="244.8293" x2="244.8293" y1="1185.6608" y2="1206.4941"/><polygon fill="#FFFFFF" points="240.6626,1196.0775,244.8293,1206.4941,248.996,1196.0775,244.8293,1200.2441" style="stroke:#FFFFFF;stroke-width:1.0417;"/><line style="stroke:#FFFFFF;stroke-width:3.125;" x1="244.8293" x2="244.8293" y1="1270.2108" y2="1291.0441"/><polygon fill="#FFFFFF" points="240.6626,1280.6274,244.8293,1291.0441,248.996,1280.6274,244.8293,1284.7941" style="stroke:#FFFFFF;stroke-width:1.0417;"/><line style="stroke:#FFFFFF;stroke-width:3.125;" x1="244.8293" x2="244.8293" y1="1354.7607" y2="1375.5941"/><polygon fill="#FFFFFF" points="240.6626,1365.1774,244.8293,1375.5941,248.996,1365.1774,244.8293,1369.3441" style="stroke:#FFFFFF;stroke-width:1.0417;"/><line style="stroke:#FFFFFF;stroke-width:3.125;" x1="244.8293" x2="244.8293" y1="1439.3107" y2="1460.144"/><polygon fill="#FFFFFF" points="240.6626,1449.7274,244.8293,1460.144,248.996,1449.7274,244.8293,1453.894" style="stroke:#FFFFFF;stroke-width:1.0417;"/><?plantuml-src ZLHFJzim7BtdKtZQ1KwxjuU9CN7YWCOLAJB9BwtLnCviTupZDWrQq6W75UfKn2J6DhQfL9ls1r8ONmOdvLlCRlg7KL6QKvJt_FpUyo--9_CG00gm14wm9Gg4XfZZ0BdWuQ8lvnYLiynd7DsVwpxNA3ESivNRm7b2uJPi0Ji5d8D7ZBl0RoCz0KTYclFleCso86GKg1nFMuIdHQ0EZFNS9yqJ3up_oIGNC9V48I6UrCEr1MFhTIHvHkJgUD4-QnAbnmG7ZBgJ2VR8utGNfHwREp8RogY69D87T7dIZd-zI8usuvzjjN6a6dyj8NKvLiPdsBLNi7JoFX7IThG0F9TBjDDggyek6Y3e0H8KXoBFp6l8GO3CMiH3KqDANDeTafApI1r-VpYDzDnJD1NNMzCMGfbuew7MewlQkqwhfKv_9-rIt3n0l4Yp6XMIXHPGbtYMbV50wzg2v2ZsxRwii9VDTaiqBfzUhLVYpR9ncP8M-vpKbywN0obqzYZv4eqOwLpKL6DV8wEhmHU0fbJrao4QgTvcMnzLvOEgV4sN8j0JpiLDuRiozb8YbERifvNWv2bnJDGqiVvjgJw7fFO-BbNH09uH0eG8DAQDPYG92CtPOfLg3uA8cwkwC78mTpMxsufwUtvvqbGdBzLUr6arrS6hv6n7DUiZ_QZ3DqdjIFtv4U-LzQt52w0dgpiSCzhUgjxiHb6Pz31IQNNnBNdzMOTNfRLulueuv4W09d-c60hW4erQo0xA6CuZ9w9W1vZgN7mGotnSyB6kynepP5nwp2TiIE_Di0VWBkkBi6SVcIFf2O730jsbYoLXr1GQ0XVTVVz7j5RrN4KxgXrrZezDhEDolBLjEchKuqhrQcqxQvbp_GS0?></g></svg>