<?plantuml 1.2026.2?><svg xmlns="http://www.w3.org/2000/svg" xmlns:xlink="http://www.w3.org/1999/xlink" contentStyleType="text/css" data-diagram-type="ACTIVITY" height="1055.2083px" preserveAspectRatio="none" style="width:567px;height:1055px;" version="1.1" viewBox="0 0 567 1055" width="567.7083px" zoomAndPan="magnify"><title>&#20027;&#27969;&#31243;&#27963;&#21160;&#22270;</title><defs><linearGradient id="gbcctcwpuvo1a0" x1="50%" x2="50%" y1="0%" y2="100%"><stop offset="0%" stop-color="#FFFFFF"/><stop offset="100%" stop-color="#FFFFFF"/></linearGradient><filter height="300%" id="fbcctcwpuvo1a" width="300%" x="-1" y="-1"><feGaussianBlur result="blurOut" stdDeviation="2.0833"/><feColorMatrix in="blurOut" result="blurOut2" type="matrix" values="0 0 0 0 0 0 0 0 0 0 0 0 0 0 0 0 0 0 .4 0"/><feOffset dx="4.1667" dy="4.1667" in="blurOut2" result="blurOut3"/><feBlend in="SourceGraphic" in2="blurOut3" mode="normal"/></filter><linearGradient id="gbcctcwpuvo1a1" x1="50%" x2="50%" y1="0%" y2="100%"><stop offset="0%" stop-color="#4DABF5"/><stop offset="100%" stop-color="#2196F3"/></linearGradient></defs><g><g class="title" data-source-line="18"><rect fill="url(#gbcctcwpuvo1a0)" height="58.6528" rx="4.1667" ry="4.1667" style="stroke:#CCCCCC;stroke-width:1.0417;" width="158.3333" x="203.4281" y="20.8333"/><text fill="#FFFFFF" font-family="'Verdana'" font-size="20.8333" font-weight="bold" lengthAdjust="spacing" textLength="125" x="220.0948" y="58.4452">&#20027;&#27969;&#31243;&#27963;&#21160;&#22270;</text></g><ellipse cx="271.1365" cy="101.3611" fill="#9C27B0" filter="url(#fbcctcwpuvo1a)" rx="10.4167" ry="10.4167" style="stroke:#1A78C2;stroke-width:1.0417;"/><rect fill="url(#gbcctcwpuvo1a1)" filter="url(#fbcctcwpuvo1a)" height="48.525" rx="4.1667" ry="4.1667" style="stroke:#FFFFFF;stroke-width:1.0417;" width="141.0177" x="200.6276" y="132.6111"/><text fill="#FFFFFF" font-family="'Verdana'" font-size="12.5" lengthAdjust="spacing" textLength="107.6843" x="217.2943" y="161.8449">&#36827;&#20837; TimingClient</text><rect fill="url(#gbcctcwpuvo1a1)" filter="url(#fbcctcwpuvo1a)" height="48.525" rx="4.1667" ry="4.1667" style="stroke:#FFFFFF;stroke-width:1.0417;" width="413.5763" x="64.3483" y="201.9694"/><text fill="#FFFFFF" font-family="'Verdana'" font-size="12.5" lengthAdjust="spacing" textLength="380.2429" x="81.015" y="231.2032">&#25191;&#34892; watchlist / snapshot / preset / recommendation queries</text><rect fill="url(#gbcctcwpuvo1a1)" filter="url(#fbcctcwpuvo1a)" height="48.525" rx="4.1667" ry="4.1667" style="stroke:#FFFFFF;stroke-width:1.0417;" width="470.5892" x="35.8419" y="271.3277"/><text fill="#FFFFFF" font-family="'Verdana'" font-size="12.5" lengthAdjust="spacing" textLength="437.2559" x="52.5085" y="300.5615">useEffect &#36873;&#25321;&#40664;&#35748; watchListId / selectedPortfolioId / selectedPresetId</text><rect fill="url(#gbcctcwpuvo1a1)" filter="url(#fbcctcwpuvo1a)" height="48.525" rx="4.1667" ry="4.1667" style="stroke:#FFFFFF;stroke-width:1.0417;" width="179.8421" x="181.2154" y="413.4735"/><text fill="#FFFFFF" font-family="'Verdana'" font-size="12.5" lengthAdjust="spacing" textLength="146.5088" x="197.8821" y="442.7073">parsePortfolioPayload()</text><rect fill="url(#gbcctcwpuvo1a1)" filter="url(#fbcctcwpuvo1a)" height="48.525" rx="4.1667" ry="4.1667" style="stroke:#FFFFFF;stroke-width:1.0417;" width="358.1563" x="92.0583" y="493.4006"/><text fill="#FFFFFF" font-family="'Verdana'" font-size="12.5" lengthAdjust="spacing" textLength="324.823" x="108.725" y="522.6344">createPortfolioSnapshot &#25110; updatePortfolioSnapshot</text><polygon fill="url(#gbcctcwpuvo1a0)" filter="url(#fbcctcwpuvo1a)" points="207.311,340.686,334.962,340.686,347.462,358.6985,334.962,376.711,207.311,376.711,194.811,358.6985,207.311,340.686" style="stroke:#FFFFFF;stroke-width:1.0417;"/><text fill="#FFFFFF" font-family="'Verdana'" font-size="12.5" lengthAdjust="spacing" textLength="12.5" x="285.7198" y="399.6948">&#26159;</text><text fill="#FFFFFF" font-family="'Verdana'" font-size="12.5" lengthAdjust="spacing" textLength="106.8176" x="217.7277" y="363.6698">&#29992;&#25143;&#32534;&#36753;&#32452;&#21512;&#24555;&#29031;?</text><polygon fill="url(#gbcctcwpuvo1a0)" filter="url(#fbcctcwpuvo1a)" points="271.1365,562.7589,283.6365,575.2589,271.1365,587.7589,258.6365,575.2589,271.1365,562.7589" style="stroke:#FFFFFF;stroke-width:1.0417;"/><rect fill="url(#gbcctcwpuvo1a1)" filter="url(#fbcctcwpuvo1a)" height="48.525" rx="4.1667" ry="4.1667" style="stroke:#FFFFFF;stroke-width:1.0417;" width="519.3563" x="11.4583" y="681.3797"/><text fill="#FFFFFF" font-family="'Verdana'" font-size="12.5" lengthAdjust="spacing" textLength="486.0229" x="28.125" y="710.6135">startWatchlistTimingMutation({ watchListId, portfolioSnapshotId, presetId })</text><rect fill="url(#gbcctcwpuvo1a1)" filter="url(#fbcctcwpuvo1a)" height="48.525" rx="4.1667" ry="4.1667" style="stroke:#FFFFFF;stroke-width:1.0417;" width="273.7203" x="134.2763" y="761.3068"/><text fill="#FFFFFF" font-family="'Verdana'" font-size="12.5" lengthAdjust="spacing" textLength="240.387" x="150.943" y="790.5406">&#25104;&#21151;&#21518; router.push(/workflows/:runId)</text><polygon fill="url(#gbcctcwpuvo1a0)" filter="url(#fbcctcwpuvo1a)" points="194.811,608.5922,347.462,608.5922,359.962,626.6047,347.462,644.6172,194.811,644.6172,182.311,626.6047,194.811,608.5922" style="stroke:#FFFFFF;stroke-width:1.0417;"/><text fill="#FFFFFF" font-family="'Verdana'" font-size="12.5" lengthAdjust="spacing" textLength="12.5" x="285.7198" y="667.601">&#26159;</text><text fill="#FFFFFF" font-family="'Verdana'" font-size="12.5" lengthAdjust="spacing" textLength="131.8176" x="205.2277" y="631.576">&#29992;&#25143;&#28857;&#20987;&#29983;&#25104;&#32452;&#21512;&#24314;&#35758;?</text><polygon fill="url(#gbcctcwpuvo1a0)" filter="url(#fbcctcwpuvo1a)" points="271.1365,830.6651,283.6365,843.1651,271.1365,855.6651,258.6365,843.1651,271.1365,830.6651" style="stroke:#FFFFFF;stroke-width:1.0417;"/><rect fill="url(#gbcctcwpuvo1a1)" filter="url(#fbcctcwpuvo1a)" height="48.525" rx="4.1667" ry="4.1667" style="stroke:#FFFFFF;stroke-width:1.0417;" width="246.5963" x="147.8383" y="876.4984"/><text fill="#FFFFFF" font-family="'Verdana'" font-size="12.5" lengthAdjust="spacing" textLength="213.2629" x="164.505" y="905.7322">listRecommendations &#37325;&#26032;&#25289;&#21462;&#32467;&#26524;</text><rect fill="url(#gbcctcwpuvo1a1)" filter="url(#fbcctcwpuvo1a)" height="48.525" rx="4.1667" ry="4.1667" style="stroke:#FFFFFF;stroke-width:1.0417;" width="310.9884" x="115.6423" y="945.8567"/><text fill="#FFFFFF" font-family="'Verdana'" font-size="12.5" lengthAdjust="spacing" textLength="277.655" x="132.309" y="975.0905">&#25353; latestRecommendationRunId &#32452;&#32455;&#39029;&#38754;&#23637;&#31034;</text><ellipse cx="271.1365" cy="1026.6734" fill="none" filter="url(#fbcctcwpuvo1a)" rx="11.4583" ry="11.4583" style="stroke:#1A78C2;stroke-width:1.0417;"/><ellipse cx="271.1365" cy="1026.6734" fill="none" rx="6.25" ry="6.25" style="stroke:#1A78C2;stroke-width:1.0417;"/><line style="stroke:#FFFFFF;stroke-width:3.125;" x1="271.1365" x2="271.1365" y1="111.7778" y2="132.6111"/><polygon fill="#FFFFFF" points="266.9698,122.1944,271.1365,132.6111,275.3031,122.1944,271.1365,126.3611" style="stroke:#FFFFFF;stroke-width:1.0417;"/><line style="stroke:#FFFFFF;stroke-width:3.125;" x1="271.1365" x2="271.1365" y1="181.1361" y2="201.9694"/><polygon fill="#FFFFFF" points="266.9698,191.5527,271.1365,201.9694,275.3031,191.5527,271.1365,195.7194" style="stroke:#FFFFFF;stroke-width:1.0417;"/><line style="stroke:#FFFFFF;stroke-width:3.125;" x1="271.1365" x2="271.1365" y1="250.4944" y2="271.3277"/><polygon fill="#FFFFFF" points="266.9698,260.9111,271.1365,271.3277,275.3031,260.9111,271.1365,265.0777" style="stroke:#FFFFFF;stroke-width:1.0417;"/><line style="stroke:#FFFFFF;stroke-width:3.125;" x1="271.1365" x2="271.1365" y1="461.9985" y2="493.4006"/><polygon fill="#FFFFFF" points="266.9698,482.9839,271.1365,493.4006,275.3031,482.9839,271.1365,487.1506" style="stroke:#FFFFFF;stroke-width:1.0417;"/><line style="stroke:#FFFFFF;stroke-width:3.125;" x1="271.1365" x2="271.1365" y1="376.711" y2="413.4735"/><polygon fill="#FFFFFF" points="266.9698,403.0568,271.1365,413.4735,275.3031,403.0568,271.1365,407.2235" style="stroke:#FFFFFF;stroke-width:1.0417;"/><line style="stroke:#FFFFFF;stroke-width:3.125;" x1="347.462" x2="460.6313" y1="358.6985" y2="358.6985"/><polygon fill="#FFFFFF" points="456.4646,472.4152,460.6313,482.8318,464.798,472.4152,460.6313,476.5818" style="stroke:#FFFFFF;stroke-width:3.125;"/><line style="stroke:#FFFFFF;stroke-width:3.125;" x1="460.6313" x2="460.6313" y1="358.6985" y2="575.2589"/><line style="stroke:#FFFFFF;stroke-width:3.125;" x1="460.6313" x2="283.6365" y1="575.2589" y2="575.2589"/><polygon fill="#FFFFFF" points="294.0531,571.0922,283.6365,575.2589,294.0531,579.4256,289.8865,575.2589" style="stroke:#FFFFFF;stroke-width:1.0417;"/><line style="stroke:#FFFFFF;stroke-width:3.125;" x1="271.1365" x2="271.1365" y1="541.9256" y2="562.7589"/><polygon fill="#FFFFFF" points="266.9698,552.3422,271.1365,562.7589,275.3031,552.3422,271.1365,556.5089" style="stroke:#FFFFFF;stroke-width:1.0417;"/><line style="stroke:#FFFFFF;stroke-width:3.125;" x1="271.1365" x2="271.1365" y1="319.8527" y2="340.686"/><polygon fill="#FFFFFF" points="266.9698,330.2694,271.1365,340.686,275.3031,330.2694,271.1365,334.436" style="stroke:#FFFFFF;stroke-width:1.0417;"/><line style="stroke:#FFFFFF;stroke-width:3.125;" x1="271.1365" x2="271.1365" y1="729.9047" y2="761.3068"/><polygon fill="#FFFFFF" points="266.9698,750.8901,271.1365,761.3068,275.3031,750.8901,271.1365,755.0568" style="stroke:#FFFFFF;stroke-width:1.0417;"/><line style="stroke:#FFFFFF;stroke-width:3.125;" x1="271.1365" x2="271.1365" y1="644.6172" y2="681.3797"/><polygon fill="#FFFFFF" points="266.9698,670.963,271.1365,681.3797,275.3031,670.963,271.1365,675.1297" style="stroke:#FFFFFF;stroke-width:1.0417;"/><line style="stroke:#FFFFFF;stroke-width:3.125;" x1="359.962" x2="541.2313" y1="626.6047" y2="626.6047"/><polygon fill="#FFFFFF" points="537.0646,740.3214,541.2313,750.738,545.3979,740.3214,541.2313,744.488" style="stroke:#FFFFFF;stroke-width:3.125;"/><line style="stroke:#FFFFFF;stroke-width:3.125;" x1="541.2313" x2="541.2313" y1="626.6047" y2="843.1651"/><line style="stroke:#FFFFFF;stroke-width:3.125;" x1="541.2313" x2="283.6365" y1="843.1651" y2="843.1651"/><polygon fill="#FFFFFF" points="294.0531,838.9984,283.6365,843.1651,294.0531,847.3317,289.8865,843.1651" style="stroke:#FFFFFF;stroke-width:1.0417;"/><line style="stroke:#FFFFFF;stroke-width:3.125;" x1="271.1365" x2="271.1365" y1="809.8317" y2="830.6651"/><polygon fill="#FFFFFF" points="266.9698,820.2484,271.1365,830.6651,275.3031,820.2484,271.1365,824.4151" style="stroke:#FFFFFF;stroke-width:1.0417;"/><line style="stroke:#FFFFFF;stroke-width:3.125;" x1="271.1365" x2="271.1365" y1="587.7589" y2="608.5922"/><polygon fill="#FFFFFF" points="266.9698,598.1756,271.1365,608.5922,275.3031,598.1756,271.1365,602.3422" style="stroke:#FFFFFF;stroke-width:1.0417;"/><line style="stroke:#FFFFFF;stroke-width:3.125;" x1="271.1365" x2="271.1365" y1="855.6651" y2="876.4984"/><polygon fill="#FFFFFF" points="266.9698,866.0817,271.1365,876.4984,275.3031,866.0817,271.1365,870.2484" style="stroke:#FFFFFF;stroke-width:1.0417;"/><line style="stroke:#FFFFFF;stroke-width:3.125;" x1="271.1365" x2="271.1365" y1="925.0234" y2="945.8567"/><polygon fill="#FFFFFF" points="266.9698,935.4401,271.1365,945.8567,275.3031,935.4401,271.1365,939.6067" style="stroke:#FFFFFF;stroke-width:1.0417;"/><line style="stroke:#FFFFFF;stroke-width:3.125;" x1="271.1365" x2="271.1365" y1="994.3817" y2="1015.215"/><polygon fill="#FFFFFF" points="266.9698,1004.7984,271.1365,1015.215,275.3031,1004.7984,271.1365,1008.965" style="stroke:#FFFFFF;stroke-width:1.0417;"/><?plantuml-src ZPHTQnD158RlzrUCU9E0cFlaGZHQ24G8YU3ri7is6J8xiyxC6ee8AfOaJTM8DHIgbagb4I4gMDIkj7_6_SY_S3PVfAr9irV3ddVUyvvdPlUAge43oC4A1C66h1FcOe4TP86DFQhME5DvJhb0LzT6pvpafX2yiQXO90mMrKhOhECgtEB20h58L0PJOLQbbyZot74v0wQMoohmm0DcmjBCKr6Hs93aNysoX8KY9d7ngXdcDYp5QohoaAZrvQPJrIfEjmbsEBDMCvo8b_bMbBusbyoSI2vwAA8eeB-__F3eQTJlX3_yOBCVx9uOKcauHZO-tGqsFg5xn26icgT4ds_Eo8RjmtX_2pMmCckKI8KoI3BioXfFbgu02Sb2WCaT1vY55U4CQUY2WDJxFGbtR5lVApHyqWuxduV-JZmu6FiLjL_1IXo1QWLO9IwKpIdXPz-EcXIid45ib8gs-s7hP_Id5v-yZlpdGRSLd7w9DWvlf97-hXXAXJjVqmP2MGr3mionXDSfnrOgdKjgfW3DQ5QiJ2SAMptakTR_QZb3JqTiOpx4izz1qu-szy9MTnB5Fuu7WmjHHeJlJn6E2T_rr8XLwj4yZ6l8FTzuz7A203qUvzSDWyszeFiI2UxftyXrrvErLAR1HTscl24pMU6nWfMUXSucZSjd3acYOVD5sFiMTjh1grxalma_l4iEVAkDg0PmNbvE394UC_ARm_sZuVkFmVUtqS5nJjyVxlu3?></g></svg>