<?plantuml 1.2026.2?><svg xmlns="http://www.w3.org/2000/svg" xmlns:xlink="http://www.w3.org/1999/xlink" contentStyleType="text/css" data-diagram-type="ACTIVITY" height="1603.125px" preserveAspectRatio="none" style="width:546px;height:1603px;" version="1.1" viewBox="0 0 546 1603" width="546.875px" zoomAndPan="magnify"><title>&#20998;&#25903;&#21028;&#23450;&#22270;</title><defs><linearGradient id="gzy47pa8b6z6f0" x1="50%" x2="50%" y1="0%" y2="100%"><stop offset="0%" stop-color="#FFFFFF"/><stop offset="100%" stop-color="#FFFFFF"/></linearGradient><filter height="300%" id="fzy47pa8b6z6f" width="300%" x="-1" y="-1"><feGaussianBlur result="blurOut" stdDeviation="2.0833"/><feColorMatrix in="blurOut" result="blurOut2" type="matrix" values="0 0 0 0 0 0 0 0 0 0 0 0 0 0 0 0 0 0 .4 0"/><feOffset dx="4.1667" dy="4.1667" in="blurOut2" result="blurOut3"/><feBlend in="SourceGraphic" in2="blurOut3" mode="normal"/></filter><linearGradient id="gzy47pa8b6z6f1" x1="50%" x2="50%" y1="0%" y2="100%"><stop offset="0%" stop-color="#4DABF5"/><stop offset="100%" stop-color="#2196F3"/></linearGradient></defs><g><g class="title" data-source-line="18"><rect fill="url(#gzy47pa8b6z6f0)" height="58.6528" rx="4.1667" ry="4.1667" style="stroke:#CCCCCC;stroke-width:1.0417;" width="137.5" x="203.1324" y="20.8333"/><text fill="#FFFFFF" font-family="'Verdana'" font-size="20.8333" font-weight="bold" lengthAdjust="spacing" textLength="104.1667" x="219.799" y="58.4452">&#20998;&#25903;&#21028;&#23450;&#22270;</text></g><ellipse cx="224.7884" cy="101.3611" fill="#9C27B0" filter="url(#fzy47pa8b6z6f)" rx="10.4167" ry="10.4167" style="stroke:#1A78C2;stroke-width:1.0417;"/><rect fill="url(#gzy47pa8b6z6f1)" filter="url(#fzy47pa8b6z6f)" height="48.525" rx="4.1667" ry="4.1667" style="stroke:#FFFFFF;stroke-width:1.0417;" width="177.6265" x="135.9751" y="132.6111"/><text fill="#FFFFFF" font-family="'Verdana'" font-size="12.5" lengthAdjust="spacing" textLength="144.2932" x="152.6418" y="161.8449">load_watchlist_context</text><rect fill="url(#gzy47pa8b6z6f1)" filter="url(#fzy47pa8b6z6f)" height="48.525" rx="4.1667" ry="4.1667" style="stroke:#FFFFFF;stroke-width:1.0417;" width="286.7147" x="81.4311" y="274.7569"/><text fill="#FFFFFF" font-family="'Verdana'" font-size="12.5" lengthAdjust="spacing" textLength="253.3813" x="98.0977" y="303.9907">&#25243;&#20986; Watchlist not found / access denied</text><ellipse cx="224.7884" cy="355.5735" fill="none" filter="url(#fzy47pa8b6z6f)" rx="11.4583" ry="11.4583" style="stroke:#1A78C2;stroke-width:1.0417;"/><ellipse cx="224.7884" cy="355.5735" fill="none" rx="6.25" ry="6.25" style="stroke:#1A78C2;stroke-width:1.0417;"/><polygon fill="url(#gzy47pa8b6z6f0)" filter="url(#fzy47pa8b6z6f)" points="124.824,201.9694,324.7528,201.9694,337.2528,219.9819,324.7528,237.9944,124.824,237.9944,112.324,219.9819,124.824,201.9694" style="stroke:#FFFFFF;stroke-width:1.0417;"/><text fill="#FFFFFF" font-family="'Verdana'" font-size="12.5" lengthAdjust="spacing" textLength="12.5" x="239.3717" y="260.9782">&#21542;</text><text fill="#FFFFFF" font-family="'Verdana'" font-size="12.5" lengthAdjust="spacing" textLength="179.0955" x="135.2407" y="224.9532">watchlist &#21512;&#27861;&#19988;&#23646;&#20110;&#24403;&#21069;&#29992;&#25143;?</text><text fill="#FFFFFF" font-family="'Verdana'" font-size="12.5" lengthAdjust="spacing" textLength="12.5" x="347.6695" y="206.9407">&#26159;</text><rect fill="url(#gzy47pa8b6z6f1)" filter="url(#fzy47pa8b6z6f)" height="48.525" rx="4.1667" ry="4.1667" style="stroke:#FFFFFF;stroke-width:1.0417;" width="227.7242" x="110.9263" y="483.5693"/><text fill="#FFFFFF" font-family="'Verdana'" font-size="12.5" lengthAdjust="spacing" textLength="194.3909" x="127.593" y="512.8031">&#25243;&#20986; Portfolio snapshot missing</text><ellipse cx="224.7884" cy="564.386" fill="none" filter="url(#fzy47pa8b6z6f)" rx="11.4583" ry="11.4583" style="stroke:#1A78C2;stroke-width:1.0417;"/><ellipse cx="224.7884" cy="564.386" fill="none" rx="6.25" ry="6.25" style="stroke:#1A78C2;stroke-width:1.0417;"/><polygon fill="url(#gzy47pa8b6z6f0)" filter="url(#fzy47pa8b6z6f)" points="140.8915,410.7819,308.6853,410.7819,321.1853,428.7944,308.6853,446.8068,140.8915,446.8068,128.3915,428.7944,140.8915,410.7819" style="stroke:#FFFFFF;stroke-width:1.0417;"/><text fill="#FFFFFF" font-family="'Verdana'" font-size="12.5" lengthAdjust="spacing" textLength="12.5" x="239.3717" y="469.7906">&#21542;</text><text fill="#FFFFFF" font-family="'Verdana'" font-size="12.5" lengthAdjust="spacing" textLength="146.9604" x="151.3082" y="433.7657">portfolioSnapshot &#23384;&#22312;?</text><text fill="#FFFFFF" font-family="'Verdana'" font-size="12.5" lengthAdjust="spacing" textLength="12.5" x="331.602" y="415.7532">&#26159;</text><rect fill="url(#gzy47pa8b6z6f1)" filter="url(#fzy47pa8b6z6f)" height="48.525" rx="4.1667" ry="4.1667" style="stroke:#FFFFFF;stroke-width:1.0417;" width="222.7498" x="113.4135" y="619.5943"/><text fill="#FFFFFF" font-family="'Verdana'" font-size="12.5" lengthAdjust="spacing" textLength="189.4165" x="130.0802" y="648.8281">fetch_signal_snapshots_batch</text><polygon fill="url(#gzy47pa8b6z6f0)" filter="url(#fzy47pa8b6z6f)" points="174.0458,688.9526,275.531,688.9526,288.031,706.9651,275.531,724.9776,174.0458,724.9776,161.5458,706.9651,174.0458,688.9526" style="stroke:#FFFFFF;stroke-width:1.0417;"/><text fill="#FFFFFF" font-family="'Verdana'" font-size="12.5" lengthAdjust="spacing" textLength="80.6519" x="184.4625" y="711.9364">targets &#20026;&#31354;?</text><text fill="#FFFFFF" font-family="'Verdana'" font-size="12.5" lengthAdjust="spacing" textLength="12.5" x="138.6292" y="693.924">&#26159;</text><text fill="#FFFFFF" font-family="'Verdana'" font-size="12.5" lengthAdjust="spacing" textLength="12.5" x="298.4477" y="693.924">&#21542;</text><rect fill="url(#gzy47pa8b6z6f1)" filter="url(#fzy47pa8b6z6f)" height="48.525" rx="4.1667" ry="4.1667" style="stroke:#FFFFFF;stroke-width:1.0417;" width="120.8333" x="43.1157" y="735.3943"/><text fill="#FFFFFF" font-family="'Verdana'" font-size="12.5" lengthAdjust="spacing" textLength="87.5" x="59.7824" y="764.6281">&#36820;&#22238;&#31354;&#25209;&#27425;&#32467;&#26524;</text><rect fill="url(#gzy47pa8b6z6f1)" filter="url(#fzy47pa8b6z6f)" height="48.525" rx="4.1667" ry="4.1667" style="stroke:#FFFFFF;stroke-width:1.0417;" width="133.3333" x="279.3777" y="808.1818"/><text fill="#FFFFFF" font-family="'Verdana'" font-size="12.5" lengthAdjust="spacing" textLength="100" x="296.0444" y="837.4156">&#25243;&#20986;&#25209;&#37327;&#20449;&#21495;&#38169;&#35823;</text><ellipse cx="346.0444" cy="904.6234" fill="none" filter="url(#fzy47pa8b6z6f)" rx="11.4583" ry="11.4583" style="stroke:#1A78C2;stroke-width:1.0417;"/><ellipse cx="346.0444" cy="904.6234" fill="none" rx="6.25" ry="6.25" style="stroke:#1A78C2;stroke-width:1.0417;"/><polygon fill="url(#gzy47pa8b6z6f0)" filter="url(#fzy47pa8b6z6f)" points="197.2824,735.3943,494.8064,735.3943,507.3064,753.4068,494.8064,771.4193,197.2824,771.4193,184.7824,753.4068,197.2824,735.3943" style="stroke:#FFFFFF;stroke-width:1.0417;"/><text fill="#FFFFFF" font-family="'Verdana'" font-size="12.5" lengthAdjust="spacing" textLength="12.5" x="360.6277" y="794.4031">&#26159;</text><text fill="#FFFFFF" font-family="'Verdana'" font-size="12.5" lengthAdjust="spacing" textLength="276.6907" x="207.6991" y="758.3781">response.items &#20026;&#31354;&#19988; response.errors &#38750;&#31354;?</text><polygon fill="url(#gzy47pa8b6z6f0)" filter="url(#fzy47pa8b6z6f)" points="224.7884,949.4151,237.2884,961.9151,224.7884,974.4151,212.2884,961.9151,224.7884,949.4151" style="stroke:#FFFFFF;stroke-width:1.0417;"/><rect fill="url(#gzy47pa8b6z6f1)" filter="url(#fzy47pa8b6z6f)" height="48.525" rx="4.1667" ry="4.1667" style="stroke:#FFFFFF;stroke-width:1.0417;" width="173.1771" x="138.1999" y="995.2484"/><text fill="#FFFFFF" font-family="'Verdana'" font-size="12.5" lengthAdjust="spacing" textLength="139.8438" x="154.8665" y="1024.4822">market_regime_agent</text><polygon fill="url(#gzy47pa8b6z6f0)" filter="url(#fzy47pa8b6z6f)" points="142.2129,1064.6067,307.3639,1064.6067,319.8639,1082.6192,307.3639,1100.6317,142.2129,1100.6317,129.7129,1082.6192,142.2129,1064.6067" style="stroke:#FFFFFF;stroke-width:1.0417;"/><text fill="#FFFFFF" font-family="'Verdana'" font-size="12.5" lengthAdjust="spacing" textLength="144.3176" x="152.6296" y="1087.5905">&#23384;&#22312;&#21516;&#26085;&#25110;&#26368;&#26032;&#24066;&#22330;&#32531;&#23384;?</text><text fill="#FFFFFF" font-family="'Verdana'" font-size="12.5" lengthAdjust="spacing" textLength="12.5" x="106.7963" y="1069.578">&#26159;</text><text fill="#FFFFFF" font-family="'Verdana'" font-size="12.5" lengthAdjust="spacing" textLength="12.5" x="330.2806" y="1069.578">&#21542;</text><rect fill="url(#gzy47pa8b6z6f1)" filter="url(#fzy47pa8b6z6f)" height="48.525" rx="4.1667" ry="4.1667" style="stroke:#FFFFFF;stroke-width:1.0417;" width="213.6068" x="11.4583" y="1111.0484"/><text fill="#FFFFFF" font-family="'Verdana'" font-size="12.5" lengthAdjust="spacing" textLength="180.2734" x="28.125" y="1140.2822">&#30452;&#25509;&#22797;&#29992; snapshot + analysis</text><rect fill="url(#gzy47pa8b6z6f1)" filter="url(#fzy47pa8b6z6f)" height="48.525" rx="4.1667" ry="4.1667" style="stroke:#FFFFFF;stroke-width:1.0417;" width="170.8333" x="245.8984" y="1111.0484"/><text fill="#FFFFFF" font-family="'Verdana'" font-size="12.5" lengthAdjust="spacing" textLength="137.5" x="262.5651" y="1140.2822">&#37325;&#26032;&#25235;&#21462;&#24066;&#22330;&#24555;&#29031;&#24182;&#20998;&#26512;</text><polygon fill="url(#gzy47pa8b6z6f0)" filter="url(#fzy47pa8b6z6f)" points="224.7884,1169.99,237.2884,1182.49,224.7884,1194.99,212.2884,1182.49,224.7884,1169.99" style="stroke:#FFFFFF;stroke-width:1.0417;"/><rect fill="url(#gzy47pa8b6z6f1)" filter="url(#fzy47pa8b6z6f)" height="48.525" rx="4.1667" ry="4.1667" style="stroke:#FFFFFF;stroke-width:1.0417;" width="212.325" x="118.6259" y="1215.8234"/><text fill="#FFFFFF" font-family="'Verdana'" font-size="12.5" lengthAdjust="spacing" textLength="178.9917" x="135.2926" y="1245.0572">watchlist_portfolio_manager</text><rect fill="url(#gzy47pa8b6z6f1)" filter="url(#fzy47pa8b6z6f)" height="48.525" rx="4.1667" ry="4.1667" style="stroke:#FFFFFF;stroke-width:1.0417;" width="312.3678" x="68.6045" y="1357.9692"/><text fill="#FFFFFF" font-family="'Verdana'" font-size="12.5" lengthAdjust="spacing" textLength="279.0344" x="85.2712" y="1387.203">&#25243;&#20986; Recommendation inputs are incomplete</text><ellipse cx="224.7884" cy="1438.7858" fill="none" filter="url(#fzy47pa8b6z6f)" rx="11.4583" ry="11.4583" style="stroke:#1A78C2;stroke-width:1.0417;"/><ellipse cx="224.7884" cy="1438.7858" fill="none" rx="6.25" ry="6.25" style="stroke:#1A78C2;stroke-width:1.0417;"/><polygon fill="url(#gzy47pa8b6z6f0)" filter="url(#fzy47pa8b6z6f)" points="56.4768,1285.1817,393.1,1285.1817,405.6,1303.1942,393.1,1321.2067,56.4768,1321.2067,43.9768,1303.1942,56.4768,1285.1817" style="stroke:#FFFFFF;stroke-width:1.0417;"/><text fill="#FFFFFF" font-family="'Verdana'" font-size="12.5" lengthAdjust="spacing" textLength="12.5" x="239.3717" y="1344.1905">&#26159;</text><text fill="#FFFFFF" font-family="'Verdana'" font-size="12.5" lengthAdjust="spacing" textLength="315.7898" x="66.8935" y="1308.1655">riskPlan / marketContextAnalysis / snapshot &#32570;&#22833;?</text><rect fill="url(#gzy47pa8b6z6f1)" filter="url(#fzy47pa8b6z6f)" height="48.525" rx="4.1667" ry="4.1667" style="stroke:#FFFFFF;stroke-width:1.0417;" width="195.4427" x="127.0671" y="1493.9941"/><text fill="#FFFFFF" font-family="'Verdana'" font-size="12.5" lengthAdjust="spacing" textLength="162.1094" x="143.7337" y="1523.2279">persist_recommendations</text><ellipse cx="224.7884" cy="1574.8108" fill="none" filter="url(#fzy47pa8b6z6f)" rx="11.4583" ry="11.4583" style="stroke:#1A78C2;stroke-width:1.0417;"/><ellipse cx="224.7884" cy="1574.8108" fill="none" rx="6.25" ry="6.25" style="stroke:#1A78C2;stroke-width:1.0417;"/><line style="stroke:#FFFFFF;stroke-width:3.125;" x1="224.7884" x2="224.7884" y1="111.7778" y2="132.6111"/><polygon fill="#FFFFFF" points="220.6217,122.1944,224.7884,132.6111,228.9551,122.1944,224.7884,126.3611" style="stroke:#FFFFFF;stroke-width:1.0417;"/><line style="stroke:#FFFFFF;stroke-width:3.125;" x1="224.7884" x2="224.7884" y1="323.2819" y2="344.1152"/><polygon fill="#FFFFFF" points="220.6217,333.6985,224.7884,344.1152,228.9551,333.6985,224.7884,337.8652" style="stroke:#FFFFFF;stroke-width:1.0417;"/><line style="stroke:#FFFFFF;stroke-width:3.125;" x1="224.7884" x2="224.7884" y1="237.9944" y2="274.7569"/><polygon fill="#FFFFFF" points="220.6217,264.3402,224.7884,274.7569,228.9551,264.3402,224.7884,268.5069" style="stroke:#FFFFFF;stroke-width:1.0417;"/><line style="stroke:#FFFFFF;stroke-width:3.125;" x1="337.2528" x2="378.5624" y1="219.9819" y2="219.9819"/><polygon fill="#FFFFFF" points="374.3958,312.409,378.5624,322.8256,382.7291,312.409,378.5624,316.5756" style="stroke:#FFFFFF;stroke-width:3.125;"/><line style="stroke:#FFFFFF;stroke-width:3.125;" x1="378.5624" x2="378.5624" y1="219.9819" y2="389.9485"/><line style="stroke:#FFFFFF;stroke-width:3.125;" x1="378.5624" x2="224.7884" y1="389.9485" y2="389.9485"/><line style="stroke:#FFFFFF;stroke-width:3.125;" x1="224.7884" x2="224.7884" y1="389.9485" y2="410.7819"/><polygon fill="#FFFFFF" points="220.6217,400.3652,224.7884,410.7819,228.9551,400.3652,224.7884,404.5319" style="stroke:#FFFFFF;stroke-width:1.0417;"/><line style="stroke:#FFFFFF;stroke-width:3.125;" x1="224.7884" x2="224.7884" y1="181.1361" y2="201.9694"/><polygon fill="#FFFFFF" points="220.6217,191.5527,224.7884,201.9694,228.9551,191.5527,224.7884,195.7194" style="stroke:#FFFFFF;stroke-width:1.0417;"/><line style="stroke:#FFFFFF;stroke-width:3.125;" x1="224.7884" x2="224.7884" y1="532.0943" y2="552.9277"/><polygon fill="#FFFFFF" points="220.6217,542.511,224.7884,552.9277,228.9551,542.511,224.7884,546.6777" style="stroke:#FFFFFF;stroke-width:1.0417;"/><line style="stroke:#FFFFFF;stroke-width:3.125;" x1="224.7884" x2="224.7884" y1="446.8068" y2="483.5693"/><polygon fill="#FFFFFF" points="220.6217,473.1527,224.7884,483.5693,228.9551,473.1527,224.7884,477.3193" style="stroke:#FFFFFF;stroke-width:1.0417;"/><line style="stroke:#FFFFFF;stroke-width:3.125;" x1="321.1853" x2="349.0672" y1="428.7944" y2="428.7944"/><polygon fill="#FFFFFF" points="344.9005,521.2214,349.0672,531.6381,353.2338,521.2214,349.0672,525.3881" style="stroke:#FFFFFF;stroke-width:3.125;"/><line style="stroke:#FFFFFF;stroke-width:3.125;" x1="349.0672" x2="349.0672" y1="428.7944" y2="598.761"/><line style="stroke:#FFFFFF;stroke-width:3.125;" x1="349.0672" x2="224.7884" y1="598.761" y2="598.761"/><line style="stroke:#FFFFFF;stroke-width:3.125;" x1="224.7884" x2="224.7884" y1="598.761" y2="619.5943"/><polygon fill="#FFFFFF" points="220.6217,609.1777,224.7884,619.5943,228.9551,609.1777,224.7884,613.3443" style="stroke:#FFFFFF;stroke-width:1.0417;"/><line style="stroke:#FFFFFF;stroke-width:3.125;" x1="346.0444" x2="346.0444" y1="856.7067" y2="893.1651"/><polygon fill="#FFFFFF" points="341.8777,882.7484,346.0444,893.1651,350.2111,882.7484,346.0444,886.9151" style="stroke:#FFFFFF;stroke-width:1.0417;"/><line style="stroke:#FFFFFF;stroke-width:3.125;" x1="346.0444" x2="346.0444" y1="771.4193" y2="808.1818"/><polygon fill="#FFFFFF" points="341.8777,797.7651,346.0444,808.1818,350.2111,797.7651,346.0444,801.9318" style="stroke:#FFFFFF;stroke-width:1.0417;"/><line style="stroke:#FFFFFF;stroke-width:3.125;" x1="507.3064" x2="519.8064" y1="753.4068" y2="753.4068"/><polygon fill="#FFFFFF" points="515.6398,865.6255,519.8064,876.0422,523.9731,865.6255,519.8064,869.7922" style="stroke:#FFFFFF;stroke-width:3.125;"/><line style="stroke:#FFFFFF;stroke-width:3.125;" x1="519.8064" x2="519.8064" y1="753.4068" y2="961.9151"/><line style="stroke:#FFFFFF;stroke-width:3.125;" x1="519.8064" x2="237.2884" y1="961.9151" y2="961.9151"/><polygon fill="#FFFFFF" points="247.7051,957.7484,237.2884,961.9151,247.7051,966.0817,243.5384,961.9151" style="stroke:#FFFFFF;stroke-width:1.0417;"/><line style="stroke:#FFFFFF;stroke-width:3.125;" x1="161.5458" x2="103.5324" y1="706.9651" y2="706.9651"/><line style="stroke:#FFFFFF;stroke-width:3.125;" x1="103.5324" x2="103.5324" y1="706.9651" y2="735.3943"/><polygon fill="#FFFFFF" points="99.3657,724.9776,103.5324,735.3943,107.6991,724.9776,103.5324,729.1443" style="stroke:#FFFFFF;stroke-width:1.0417;"/><line style="stroke:#FFFFFF;stroke-width:3.125;" x1="288.031" x2="346.0444" y1="706.9651" y2="706.9651"/><line style="stroke:#FFFFFF;stroke-width:3.125;" x1="346.0444" x2="346.0444" y1="706.9651" y2="735.3943"/><polygon fill="#FFFFFF" points="341.8777,724.9776,346.0444,735.3943,350.2111,724.9776,346.0444,729.1443" style="stroke:#FFFFFF;stroke-width:1.0417;"/><line style="stroke:#FFFFFF;stroke-width:3.125;" x1="103.5324" x2="103.5324" y1="783.9193" y2="961.9151"/><line style="stroke:#FFFFFF;stroke-width:3.125;" x1="103.5324" x2="212.2884" y1="961.9151" y2="961.9151"/><polygon fill="#FFFFFF" points="201.8717,957.7484,212.2884,961.9151,201.8717,966.0817,206.0384,961.9151" style="stroke:#FFFFFF;stroke-width:1.0417;"/><line style="stroke:#FFFFFF;stroke-width:3.125;" x1="224.7884" x2="224.7884" y1="668.1193" y2="688.9526"/><polygon fill="#FFFFFF" points="220.6217,678.536,224.7884,688.9526,228.9551,678.536,224.7884,682.7026" style="stroke:#FFFFFF;stroke-width:1.0417;"/><line style="stroke:#FFFFFF;stroke-width:3.125;" x1="224.7884" x2="224.7884" y1="974.4151" y2="995.2484"/><polygon fill="#FFFFFF" points="220.6217,984.8317,224.7884,995.2484,228.9551,984.8317,224.7884,988.9984" style="stroke:#FFFFFF;stroke-width:1.0417;"/><line style="stroke:#FFFFFF;stroke-width:3.125;" x1="129.7129" x2="118.2617" y1="1082.6192" y2="1082.6192"/><line style="stroke:#FFFFFF;stroke-width:3.125;" x1="118.2617" x2="118.2617" y1="1082.6192" y2="1111.0484"/><polygon fill="#FFFFFF" points="114.0951,1100.6317,118.2617,1111.0484,122.4284,1100.6317,118.2617,1104.7984" style="stroke:#FFFFFF;stroke-width:1.0417;"/><line style="stroke:#FFFFFF;stroke-width:3.125;" x1="319.8639" x2="331.3151" y1="1082.6192" y2="1082.6192"/><line style="stroke:#FFFFFF;stroke-width:3.125;" x1="331.3151" x2="331.3151" y1="1082.6192" y2="1111.0484"/><polygon fill="#FFFFFF" points="327.1484,1100.6317,331.3151,1111.0484,335.4818,1100.6317,331.3151,1104.7984" style="stroke:#FFFFFF;stroke-width:1.0417;"/><line style="stroke:#FFFFFF;stroke-width:3.125;" x1="118.2617" x2="118.2617" y1="1159.5734" y2="1182.49"/><line style="stroke:#FFFFFF;stroke-width:3.125;" x1="118.2617" x2="212.2884" y1="1182.49" y2="1182.49"/><polygon fill="#FFFFFF" points="201.8717,1178.3234,212.2884,1182.49,201.8717,1186.6567,206.0384,1182.49" style="stroke:#FFFFFF;stroke-width:1.0417;"/><line style="stroke:#FFFFFF;stroke-width:3.125;" x1="331.3151" x2="331.3151" y1="1159.5734" y2="1182.49"/><line style="stroke:#FFFFFF;stroke-width:3.125;" x1="331.3151" x2="237.2884" y1="1182.49" y2="1182.49"/><polygon fill="#FFFFFF" points="247.7051,1178.3234,237.2884,1182.49,247.7051,1186.6567,243.5384,1182.49" style="stroke:#FFFFFF;stroke-width:1.0417;"/><line style="stroke:#FFFFFF;stroke-width:3.125;" x1="224.7884" x2="224.7884" y1="1043.7734" y2="1064.6067"/><polygon fill="#FFFFFF" points="220.6217,1054.1901,224.7884,1064.6067,228.9551,1054.1901,224.7884,1058.3567" style="stroke:#FFFFFF;stroke-width:1.0417;"/><line style="stroke:#FFFFFF;stroke-width:3.125;" x1="224.7884" x2="224.7884" y1="1194.99" y2="1215.8234"/><polygon fill="#FFFFFF" points="220.6217,1205.4067,224.7884,1215.8234,228.9551,1205.4067,224.7884,1209.5734" style="stroke:#FFFFFF;stroke-width:1.0417;"/><line style="stroke:#FFFFFF;stroke-width:3.125;" x1="224.7884" x2="224.7884" y1="1406.4941" y2="1427.3275"/><polygon fill="#FFFFFF" points="220.6217,1416.9108,224.7884,1427.3275,228.9551,1416.9108,224.7884,1421.0775" style="stroke:#FFFFFF;stroke-width:1.0417;"/><line style="stroke:#FFFFFF;stroke-width:3.125;" x1="224.7884" x2="224.7884" y1="1321.2067" y2="1357.9692"/><polygon fill="#FFFFFF" points="220.6217,1347.5525,224.7884,1357.9692,228.9551,1347.5525,224.7884,1351.7192" style="stroke:#FFFFFF;stroke-width:1.0417;"/><line style="stroke:#FFFFFF;stroke-width:3.125;" x1="405.6" x2="418.1" y1="1303.1942" y2="1303.1942"/><polygon fill="#FFFFFF" points="413.9333,1395.6212,418.1,1406.0379,422.2666,1395.6212,418.1,1399.7879" style="stroke:#FFFFFF;stroke-width:3.125;"/><line style="stroke:#FFFFFF;stroke-width:3.125;" x1="418.1" x2="418.1" y1="1303.1942" y2="1473.1608"/><line style="stroke:#FFFFFF;stroke-width:3.125;" x1="418.1" x2="224.7884" y1="1473.1608" y2="1473.1608"/><line style="stroke:#FFFFFF;stroke-width:3.125;" x1="224.7884" x2="224.7884" y1="1473.1608" y2="1493.9941"/><polygon fill="#FFFFFF" points="220.6217,1483.5775,224.7884,1493.9941,228.9551,1483.5775,224.7884,1487.7441" style="stroke:#FFFFFF;stroke-width:1.0417;"/><line style="stroke:#FFFFFF;stroke-width:3.125;" x1="224.7884" x2="224.7884" y1="1264.3483" y2="1285.1817"/><polygon fill="#FFFFFF" points="220.6217,1274.765,224.7884,1285.1817,228.9551,1274.765,224.7884,1278.9317" style="stroke:#FFFFFF;stroke-width:1.0417;"/><line style="stroke:#FFFFFF;stroke-width:3.125;" x1="224.7884" x2="224.7884" y1="1542.5191" y2="1563.3525"/><polygon fill="#FFFFFF" points="220.6217,1552.9358,224.7884,1563.3525,228.9551,1552.9358,224.7884,1557.1025" style="stroke:#FFFFFF;stroke-width:1.0417;"/><?plantuml-src ZLJDJnD15B_lNp762yH4x-t188OJXqOE7ZVZxjiowUxCEZCLkHaJfH219gqLRMr20ehnenADG4NvPpfJ-b_ujbzyL4htjDdtUx-FDs_sXbw424X4DKX67PLZFAQIHiI7WEP3FIUudXMXaEJcNFSv1vcHKYnTLPnd7AwgPQYNercu9wGFyYhG0_0qvTdm6jYiY6B1WUlni0Lud0VkmLZF0z0y2o3nFnbbXahDF1RJIJsSQnWxNa-p9qmlZoSTe2PXkize9BW_6M4VF8vtGUFQN9CvWOnoQAP38ARmqfORfh1ZlhqprR-EqZWP9nKAwhjBL7kB8LFQzR0Rdkgqmm8oDVnCJB5WVxnk7PRDVhtLt31_IcPrlLtUiuM3kzC4rvgJARlLc7OWL42cJF73j4D8ogvLpKgJF1poSA598FBS9tS8zJnG2dUVC_3J25TQn0vmdmLELpuMKWSYP6A1qrWjOglvkcLgUnCePWQjH0rw8wOKuzdBGga0q9ohM9RJq1sWbVieyTmR0mug2rgHrc6p_QbvKHqbJq_Afbh7Ybqzib-ssxzBjbvBN_ILq4XGU7aKt6OQeW4RZfGC2u3tHIhIUL__Zyum7CfqLZPR9zjcyw1JVdlQQAIxvMugGdgv1kaYAdEWNGbP5e6B_m7UFzlUA4tnbNspQmiLMtjcAz_DuNDJQxQFIrWToTck_hGRksOdEVUpiTuY50Uth9Yw53dLMLb7IhjMCfkL7h4v-Tn-yT4S_KfsiLvC3rsUxT_mpDq8URCWUsubKxbCI3ckJI_HR6zFP_hQ-7teg7tSD3lx8_Rxcu5_EX55A4mr4vpWrSdZqL89-8gLE0GD8piIWrI9EtcX6HCdg7y0?></g></svg>