<?plantuml 1.2026.2?><svg xmlns="http://www.w3.org/2000/svg" xmlns:xlink="http://www.w3.org/1999/xlink" contentStyleType="text/css" data-diagram-type="DESCRIPTION" height="480.2083px" preserveAspectRatio="none" style="width:1100px;height:480px;" version="1.1" viewBox="0 0 1100 480" width="1100px" zoomAndPan="magnify"><title>&#26550;&#26500;&#24635;&#35272;&#22270;</title><defs><linearGradient id="g19nld6vyghfij0" x1="50%" x2="50%" y1="0%" y2="100%"><stop offset="0%" stop-color="#FFFFFF"/><stop offset="100%" stop-color="#FFFFFF"/></linearGradient></defs><g><g class="title" data-source-line="18"><rect fill="url(#g19nld6vyghfij0)" height="58.6528" rx="4.1667" ry="4.1667" style="stroke:#CCCCCC;stroke-width:1.0417;" width="137.5" x="476.7043" y="20.8333"/><text fill="#FFFFFF" font-family="'Verdana'" font-size="20.8333" font-weight="bold" lengthAdjust="spacing" textLength="104.1667" x="493.3709" y="58.4452">&#26550;&#26500;&#24635;&#35272;&#22270;</text></g><!--entity Graph--><g class="entity" data-qualified-name="Graph" data-source-line="22" id="ent0002"><rect fill="url(#g19nld6vyghfij0)" height="56.8583" rx="4.1667" ry="4.1667" style="stroke:#FFFFFF;stroke-width:2.0833;" width="179.8319" x="87.7917" y="98.2361"/><text fill="#FFFFFF" font-family="'Verdana'" font-size="12.5" lengthAdjust="spacing" textLength="138.1653" x="108.625" y="131.6366">WatchlistTimingGraph</text></g><!--entity Service--><g class="entity" data-qualified-name="Service" data-source-line="23" id="ent0003"><rect fill="url(#g19nld6vyghfij0)" height="56.8583" rx="4.1667" ry="4.1667" style="stroke:#FFFFFF;stroke-width:2.0833;" width="412.9496" x="409.1458" y="255.5278"/><text fill="#FFFFFF" font-family="'Verdana'" font-size="12.5" lengthAdjust="spacing" textLength="371.283" x="429.9792" y="288.9282">WatchlistPortfolioManagerService.buildRecommendations()</text></g><!--entity PositionContextService--><g class="entity" data-qualified-name="PositionContextService" data-source-line="24" id="ent0004"><rect fill="url(#g19nld6vyghfij0)" height="56.8583" rx="4.1667" ry="4.1667" style="stroke:#FFFFFF;stroke-width:2.0833;" width="185.6181" x="398.7292" y="412.8194"/><text fill="#FFFFFF" font-family="'Verdana'" font-size="12.5" lengthAdjust="spacing" textLength="143.9514" x="419.5625" y="446.2199">PositionContextService</text></g><!--entity Cards--><g class="entity" data-qualified-name="Cards" data-source-line="25" id="ent0005"><rect fill="url(#g19nld6vyghfij0)" height="56.8583" rx="4.1667" ry="4.1667" style="stroke:#FFFFFF;stroke-width:2.0833;" width="117.1794" x="438.3125" y="98.2361"/><text fill="#FFFFFF" font-family="'Verdana'" font-size="12.5" lengthAdjust="spacing" textLength="75.5127" x="459.1458" y="131.6366">timingCards</text></g><!--entity RiskPlan--><g class="entity" data-qualified-name="RiskPlan" data-source-line="26" id="ent0006"><rect fill="url(#g19nld6vyghfij0)" height="56.8583" rx="4.1667" ry="4.1667" style="stroke:#FFFFFF;stroke-width:2.0833;" width="90.7267" x="591.9583" y="98.2361"/><text fill="#FFFFFF" font-family="'Verdana'" font-size="12.5" lengthAdjust="spacing" textLength="49.0601" x="612.7917" y="131.6366">riskPlan</text></g><!--entity Market--><g class="entity" data-qualified-name="Market" data-source-line="27" id="ent0007"><rect fill="url(#g19nld6vyghfij0)" height="56.8583" rx="4.1667" ry="4.1667" style="stroke:#FFFFFF;stroke-width:2.0833;" width="186.6007" x="719.0417" y="98.2361"/><text fill="#FFFFFF" font-family="'Verdana'" font-size="12.5" lengthAdjust="spacing" textLength="144.9341" x="739.875" y="131.6366">marketContextAnalysis</text></g><!--entity Feedback--><g class="entity" data-qualified-name="Feedback" data-source-line="28" id="ent0008"><rect fill="url(#g19nld6vyghfij0)" height="56.8583" rx="4.1667" ry="4.1667" style="stroke:#FFFFFF;stroke-width:2.0833;" width="146.8669" x="941.9583" y="98.2361"/><text fill="#FFFFFF" font-family="'Verdana'" font-size="12.5" lengthAdjust="spacing" textLength="105.2002" x="962.7917" y="131.6366">feedbackContext</text></g><!--entity Recommendations--><g class="entity" data-qualified-name="Recommendations" data-source-line="29" id="ent0009"><rect fill="url(#g19nld6vyghfij0)" height="56.8583" rx="4.1667" ry="4.1667" style="stroke:#FFFFFF;stroke-width:2.0833;" width="236.2895" x="621.125" y="412.8194"/><text fill="#FFFFFF" font-family="'Verdana'" font-size="12.5" lengthAdjust="spacing" textLength="194.6228" x="641.9583" y="446.2199">TimingRecommendationDraft[]</text></g><!--link Graph to Service--><g class="link" data-entity-1="ent0002" data-entity-2="ent0003" data-link-type="dependency" data-source-line="31" id="lnk10"><path d="M90.5417,155.6319 C50.4167,172.8194 16.6667,196.8298 41.4375,224.2778 C66.3021,251.809 248.3002,266.8573 402.5398,274.9302" fill="none" id="Graph-to-Service" style="stroke:#FFFFFF;stroke-width:3.125;"/><polygon fill="#FFFFFF" points="408.7813,275.2569,399.6369,270.6059,403.58,274.9847,399.2013,278.9279,408.7813,275.2569" style="stroke:#FFFFFF;stroke-width:3.125;"/><text fill="#FFFFFF" font-family="'Verdana'" font-size="12.5" lengthAdjust="spacing" textLength="327.6733" x="52.8958" y="210.8032">&#20256;&#20837; cards / snapshot / riskPlan / market / feedback</text></g><!--link Service to Graph--><g class="link" data-entity-1="ent0003" data-entity-2="ent0002" data-link-type="dependency" data-source-line="38" id="lnk17"><path d="M494.2292,255.3611 C471.5313,247.309 448.7396,237.1111 428.9375,224.2778 C410.2292,212.1528 414.5729,198.5069 395.6042,186.7778 C357.2396,163.0382 315.4111,150.0175 274.2861,141.4758" fill="none" id="Service-to-Graph" style="stroke:#FFFFFF;stroke-width:3.125;"/><polygon fill="#FFFFFF" points="268.1667,140.2048,276.4984,146.1909,273.2662,141.264,278.1931,138.0317,268.1667,140.2048" style="stroke:#FFFFFF;stroke-width:3.125;"/><text fill="#FFFFFF" font-family="'Verdana'" font-size="12.5" lengthAdjust="spacing" textLength="112.2131" x="440.3958" y="210.8032">recommendations</text></g><!--link Cards to Service--><g class="link" data-entity-1="ent0005" data-entity-2="ent0003" data-link-type="dependency" data-source-line="32" id="lnk11"><path d="M539.1458,155.5903 C550.7083,164.5486 562.5521,175.1944 571.6458,186.7778 C587.875,207.434 597.5414,229.1874 604.7497,249.5728" fill="none" id="Cards-to-Service" style="stroke:#FFFFFF;stroke-width:3.125;"/><polygon fill="#FFFFFF" points="606.8333,255.4653,607.6363,245.2375,605.097,250.5549,599.7796,248.0156,606.8333,255.4653" style="stroke:#FFFFFF;stroke-width:3.125;"/></g><!--link RiskPlan to Service--><g class="link" data-entity-1="ent0006" data-entity-2="ent0003" data-link-type="dependency" data-source-line="33" id="lnk12"><path d="M633.3646,155.6736 C629.3958,183.8403 624.1533,221.0056 620.1845,249.1722" fill="none" id="RiskPlan-to-Service" style="stroke:#FFFFFF;stroke-width:3.125;"/><polygon fill="#FFFFFF" points="619.3125,255.3611,624.7465,246.6591,620.0392,250.2037,616.4946,245.4964,619.3125,255.3611" style="stroke:#FFFFFF;stroke-width:3.125;"/></g><!--link Market to Service--><g class="link" data-entity-1="ent0007" data-entity-2="ent0003" data-link-type="dependency" data-source-line="34" id="lnk13"><path d="M777.0729,155.6736 C741.3542,183.8403 691.2624,223.3251 655.5332,251.4917" fill="none" id="Market-to-Service" style="stroke:#FFFFFF;stroke-width:3.125;"/><polygon fill="#FFFFFF" points="650.625,255.3611,660.5669,252.8292,654.7152,252.1366,655.4078,246.2849,650.625,255.3611" style="stroke:#FFFFFF;stroke-width:3.125;"/></g><!--link Feedback to Service--><g class="link" data-entity-1="ent0008" data-entity-2="ent0003" data-link-type="dependency" data-source-line="35" id="lnk14"><path d="M943.8854,155.6736 C871.1875,183.8819 765.0455,225.069 692.4518,253.2357" fill="none" id="Feedback-to-Service" style="stroke:#FFFFFF;stroke-width:3.125;"/><polygon fill="#FFFFFF" points="686.625,255.4965,696.8724,255.9898,691.4806,253.6125,693.8579,248.2208,686.625,255.4965" style="stroke:#FFFFFF;stroke-width:3.125;"/></g><!--link Service to PositionContextService--><g class="link" data-entity-1="ent0003" data-entity-2="ent0004" data-link-type="dependency" data-source-line="36" id="lnk15"><path d="M533.2292,312.8923 C519.7396,320.934 507.375,331.1528 498.7292,344.0694 C485.3021,364.1528 484.0682,385.9012 486.0891,406.5471" fill="none" id="Service-to-PositionContextService" style="stroke:#FFFFFF;stroke-width:3.125;"/><polygon fill="#FFFFFF" points="486.6979,412.7673,489.9315,403.031,486.1905,407.5838,481.6378,403.8428,486.6979,412.7673" style="stroke:#FFFFFF;stroke-width:3.125;"/><text fill="#FFFFFF" font-family="'Verdana'" font-size="12.5" lengthAdjust="spacing" textLength="173.3337" x="510.1875" y="368.0949">build() / scoreAdjustment()</text></g><!--link Service to Recommendations--><g class="link" data-entity-1="ent0003" data-entity-2="ent0009" data-link-type="dependency" data-source-line="37" id="lnk16"><path d="M664.2083,312.9028 C676.6458,321.6632 689.1875,332.2048 698.7292,344.0694 C715.0104,364.2986 723.9232,386.0258 730.267,406.5258" fill="none" id="Service-to-Recommendations" style="stroke:#FFFFFF;stroke-width:3.125;"/><polygon fill="#FFFFFF" points="732.1146,412.4965,733.3236,402.3088,730.5749,407.521,725.3627,404.7723,732.1146,412.4965" style="stroke:#FFFFFF;stroke-width:3.125;"/><text fill="#FFFFFF" font-family="'Verdana'" font-size="12.5" lengthAdjust="spacing" textLength="247.5281" x="731.0208" y="368.0949">priority / action / pct range / reasoning</text></g><?plantuml-src ZLF1RjD04BtxAvPoIGw5Umz88LLwQIMhGUA0E4pNutY8lMjc9osvSG29Vq2gk23-W0k8hw4Hdy5wRLThIDBuD9vvy_pUs_KZAR12LO4W4oHkIQO6XafbcCEgb9arChMbPVLu5fu8Cc6sDxk6vsHmrom5lOG5FhUS8Uy2NQ8MC8lo0TZKLhKrQ6G_R8vlLsWqxjNSWyufnqR_OPGfi92c6WxL42tiZLSBNPEizvFsg4EOJWagQxB323lmFjwv-6lpWES6yZ-7a9IeDhVVDxSVDkz__FdswUxphsZD5P3P6p8BbKFfC9he_hpdilOKtD-I9BalrT5B45sKvEG5LPxaZA4kZXGu5QgjoDIovBOaUm76tqsU8r-JnYTNAoepVnTjLQ79GCWQDne7iWuIqwNMKGEPUiVuJZf4G6yVnSiIn4w1CnSsGXK3cDmoBS64wMNt4WCgu2LAzuM9WNBjgEMw29COcoDcL_v7xD01DUjwCQwDS9Z0AKCkhrwtEeRP94d8M1qVF-i3KYVgzyylTn-_AjquKa-LCr2xmeelUq--RDNxefUMX0HYggHtFMYsvWQjticWsUjfUjkFmqiD1puQDogrPPnaRrPEl3yPZGS4__ZscpMJPV_d-5NGJTCNjHR5Fabih28uQtoO0vushfFc9iTyVm40?></g></svg>