<?plantuml 1.2026.2?><svg xmlns="http://www.w3.org/2000/svg" xmlns:xlink="http://www.w3.org/1999/xlink" contentStyleType="text/css" data-diagram-type="DESCRIPTION" height="382.2917px" preserveAspectRatio="none" style="width:3070px;height:382px;" version="1.1" viewBox="0 0 3070 382" width="3070.8333px" zoomAndPan="magnify"><title>&#20381;&#36182;&#32844;&#36131;&#22270;</title><defs><linearGradient id="g1ekkrswacvam70" x1="50%" x2="50%" y1="0%" y2="100%"><stop offset="0%" stop-color="#FFFFFF"/><stop offset="100%" stop-color="#FFFFFF"/></linearGradient></defs><g><g class="title" data-source-line="18"><rect fill="url(#g1ekkrswacvam70)" height="58.6528" rx="4.1667" ry="4.1667" style="stroke:#CCCCCC;stroke-width:1.0417;" width="137.5" x="1461.9792" y="20.8333"/><text fill="#FFFFFF" font-family="'Verdana'" font-size="20.8333" font-weight="bold" lengthAdjust="spacing" textLength="104.1667" x="1478.6458" y="58.4452">&#20381;&#36182;&#32844;&#36131;&#22270;</text></g><!--cluster ????--><g class="cluster" data-qualified-name="...." data-source-line="24" id="ent0003"><path d="M20.8333,240.9444 L89.5833,240.9444 A6.25,6.25 0 0 1 93.75,245.1111 L101.0417,283.2194 L1290.625,283.2194 A4.1667,4.1667 0 0 1 1294.7917,287.3861 L1294.7917,365.9444 A4.1667,4.1667 0 0 1 1290.625,370.1111 L20.8333,370.1111 A4.1667,4.1667 0 0 1 16.6667,365.9444 L16.6667,245.1111 A4.1667,4.1667 0 0 1 20.8333,240.9444" fill="url(#g1ekkrswacvam70)" style="stroke:#FFFFFF;stroke-width:2.0833;"/><line style="stroke:#FFFFFF;stroke-width:2.0833;" x1="16.6667" x2="101.0417" y1="283.2194" y2="283.2194"/><text fill="#FFFFFF" font-family="'Verdana'" font-size="12.5" font-weight="bold" lengthAdjust="spacing" textLength="50" x="31.25" y="266.0116">&#20179;&#20648;&#20381;&#36182;</text></g><!--cluster ???????--><g class="cluster" data-qualified-name="......." data-source-line="32" id="ent0009"><path d="M1323.9583,240.9444 L1430.2083,240.9444 A6.25,6.25 0 0 1 1434.375,245.1111 L1441.6667,283.2194 L1976.0417,283.2194 A4.1667,4.1667 0 0 1 1980.2083,287.3861 L1980.2083,365.9444 A4.1667,4.1667 0 0 1 1976.0417,370.1111 L1323.9583,370.1111 A4.1667,4.1667 0 0 1 1319.7917,365.9444 L1319.7917,245.1111 A4.1667,4.1667 0 0 1 1323.9583,240.9444" fill="url(#g1ekkrswacvam70)" style="stroke:#FFFFFF;stroke-width:2.0833;"/><line style="stroke:#FFFFFF;stroke-width:2.0833;" x1="1319.7917" x2="1441.6667" y1="283.2194" y2="283.2194"/><text fill="#FFFFFF" font-family="'Verdana'" font-size="12.5" font-weight="bold" lengthAdjust="spacing" textLength="87.5" x="1334.375" y="266.0116">&#25968;&#25454;&#19982;&#20998;&#26512;&#20381;&#36182;</text></g><!--cluster ???????--><g class="cluster" data-qualified-name="......." data-source-line="38" id="ent0013"><path d="M2009.375,240.9444 L2115.625,240.9444 A6.25,6.25 0 0 1 2119.7917,245.1111 L2127.0833,283.2194 L3054.1667,283.2194 A4.1667,4.1667 0 0 1 3058.3333,287.3861 L3058.3333,365.9444 A4.1667,4.1667 0 0 1 3054.1667,370.1111 L2009.375,370.1111 A4.1667,4.1667 0 0 1 2005.2083,365.9444 L2005.2083,245.1111 A4.1667,4.1667 0 0 1 2009.375,240.9444" fill="url(#g1ekkrswacvam70)" style="stroke:#FFFFFF;stroke-width:2.0833;"/><line style="stroke:#FFFFFF;stroke-width:2.0833;" x1="2005.2083" x2="2127.0833" y1="283.2194" y2="283.2194"/><text fill="#FFFFFF" font-family="'Verdana'" font-size="12.5" font-weight="bold" lengthAdjust="spacing" textLength="87.5" x="2019.7917" y="266.0116">&#32452;&#21512;&#19982;&#22797;&#30424;&#20381;&#36182;</text></g><!--entity WatchRepo--><g class="entity" data-qualified-name=".....WatchRepo" data-source-line="25" id="ent0004"><rect fill="url(#g1ekkrswacvam70)" height="56.8583" rx="4.1667" ry="4.1667" style="stroke:#FFFFFF;stroke-width:2.0833;" width="169.4071" x="33.8542" y="296.1528"/><text fill="#FFFFFF" font-family="'Verdana'" font-size="12.5" lengthAdjust="spacing" textLength="127.7405" x="54.6875" y="329.5532">WatchListRepository</text></g><!--entity SnapshotRepo--><g class="entity" data-qualified-name=".....SnapshotRepo" data-source-line="26" id="ent0005"><rect fill="url(#g1ekkrswacvam70)" height="56.8583" rx="4.1667" ry="4.1667" style="stroke:#FFFFFF;stroke-width:2.0833;" width="218.8639" x="240.625" y="296.1528"/><text fill="#FFFFFF" font-family="'Verdana'" font-size="12.5" lengthAdjust="spacing" textLength="177.1973" x="261.4583" y="329.5532">PortfolioSnapshotRepository</text></g><!--entity PresetRepo--><g class="entity" data-qualified-name=".....PresetRepo" data-source-line="27" id="ent0006"><rect fill="url(#g1ekkrswacvam70)" height="56.8583" rx="4.1667" ry="4.1667" style="stroke:#FFFFFF;stroke-width:2.0833;" width="189.9882" x="495.8333" y="296.1528"/><text fill="#FFFFFF" font-family="'Verdana'" font-size="12.5" lengthAdjust="spacing" textLength="148.3215" x="516.6667" y="329.5532">TimingPresetRepository</text></g><!--entity MarketRepo--><g class="entity" data-qualified-name=".....MarketRepo" data-source-line="28" id="ent0007"><rect fill="url(#g1ekkrswacvam70)" height="56.8583" rx="4.1667" ry="4.1667" style="stroke:#FFFFFF;stroke-width:2.0833;" width="259.1166" x="722.3958" y="296.1528"/><text fill="#FFFFFF" font-family="'Verdana'" font-size="12.5" lengthAdjust="spacing" textLength="217.45" x="743.2292" y="329.5532">MarketContextSnapshotRepository</text></g><!--entity RecommendationRepo--><g class="entity" data-qualified-name=".....RecommendationRepo" data-source-line="29" id="ent0008"><rect fill="url(#g1ekkrswacvam70)" height="56.8583" rx="4.1667" ry="4.1667" style="stroke:#FFFFFF;stroke-width:2.0833;" width="259.8429" x="1018.2292" y="296.1528"/><text fill="#FFFFFF" font-family="'Verdana'" font-size="12.5" lengthAdjust="spacing" textLength="218.1763" x="1039.0625" y="329.5532">TimingRecommendationRepository</text></g><!--entity DataClient--><g class="entity" data-qualified-name="........DataClient" data-source-line="33" id="ent0010"><rect fill="url(#g1ekkrswacvam70)" height="56.8583" rx="4.1667" ry="4.1667" style="stroke:#FFFFFF;stroke-width:2.0833;" width="192.7958" x="1336.9792" y="296.1528"/><text fill="#FFFFFF" font-family="'Verdana'" font-size="12.5" lengthAdjust="spacing" textLength="151.1292" x="1357.8125" y="329.5532">PythonTimingDataClient</text></g><!--entity AnalysisService--><g class="entity" data-qualified-name="........AnalysisService" data-source-line="34" id="ent0011"><rect fill="url(#g1ekkrswacvam70)" height="56.8583" rx="4.1667" ry="4.1667" style="stroke:#FFFFFF;stroke-width:2.0833;" width="181.4433" x="1566.6667" y="296.1528"/><text fill="#FFFFFF" font-family="'Verdana'" font-size="12.5" lengthAdjust="spacing" textLength="139.7766" x="1587.5" y="329.5532">TimingAnalysisService</text></g><!--entity RegimeService--><g class="entity" data-qualified-name="........RegimeService" data-source-line="35" id="ent0012"><rect fill="url(#g1ekkrswacvam70)" height="56.8583" rx="4.1667" ry="4.1667" style="stroke:#FFFFFF;stroke-width:2.0833;" width="177.8849" x="1784.8958" y="296.1528"/><text fill="#FFFFFF" font-family="'Verdana'" font-size="12.5" lengthAdjust="spacing" textLength="136.2183" x="1805.7292" y="329.5532">MarketRegimeService</text></g><!--entity RiskManager--><g class="entity" data-qualified-name="........RiskManager" data-source-line="39" id="ent0014"><rect fill="url(#g1ekkrswacvam70)" height="56.8583" rx="4.1667" ry="4.1667" style="stroke:#FFFFFF;stroke-width:2.0833;" width="225.352" x="2021.875" y="296.1528"/><text fill="#FFFFFF" font-family="'Verdana'" font-size="12.5" lengthAdjust="spacing" textLength="183.6853" x="2042.7083" y="329.5532">WatchlistRiskManagerService</text></g><!--entity FeedbackService--><g class="entity" data-qualified-name="........FeedbackService" data-source-line="40" id="ent0015"><rect fill="url(#g1ekkrswacvam70)" height="56.8583" rx="4.1667" ry="4.1667" style="stroke:#FFFFFF;stroke-width:2.0833;" width="189.268" x="2283.3333" y="296.1528"/><text fill="#FFFFFF" font-family="'Verdana'" font-size="12.5" lengthAdjust="spacing" textLength="147.6013" x="2304.1667" y="329.5532">TimingFeedbackService</text></g><!--entity PortfolioManager--><g class="entity" data-qualified-name="........PortfolioManager" data-source-line="41" id="ent0016"><rect fill="url(#g1ekkrswacvam70)" height="56.8583" rx="4.1667" ry="4.1667" style="stroke:#FFFFFF;stroke-width:2.0833;" width="251.1332" x="2509.8958" y="296.1528"/><text fill="#FFFFFF" font-family="'Verdana'" font-size="12.5" lengthAdjust="spacing" textLength="209.4666" x="2530.7292" y="329.5532">WatchlistPortfolioManagerService</text></g><!--entity ReviewService--><g class="entity" data-qualified-name="........ReviewService" data-source-line="42" id="ent0017"><rect fill="url(#g1ekkrswacvam70)" height="56.8583" rx="4.1667" ry="4.1667" style="stroke:#FFFFFF;stroke-width:2.0833;" width="243.5099" x="2797.9167" y="296.1528"/><text fill="#FFFFFF" font-family="'Verdana'" font-size="12.5" lengthAdjust="spacing" textLength="201.8433" x="2818.75" y="329.5532">TimingReviewSchedulingService</text></g><!--entity Graph--><g class="entity" data-qualified-name="Graph" data-source-line="22" id="ent0002"><rect fill="url(#g1ekkrswacvam70)" height="56.8583" rx="4.1667" ry="4.1667" style="stroke:#FFFFFF;stroke-width:2.0833;" width="258.4147" x="1365.625" y="98.2361"/><text fill="#FFFFFF" font-family="'Verdana'" font-size="12.5" lengthAdjust="spacing" textLength="216.748" x="1386.4583" y="131.6366">WatchlistTimingPipelineLangGraph</text></g><!--link Graph to WatchRepo--><g class="link" data-entity-1="ent0002" data-entity-2="ent0004" data-link-type="dependency" data-source-line="45" id="lnk18"><path d="M1365.3646,129.0903 C1105.4271,132.3298 528.2813,144.2153 335.4167,186.7778 C282.2708,198.5069 268.1667,203.9965 221.875,232.6111 C193.2188,250.3298 169.2702,271.7716 149.5618,291.4174" fill="none" id="Graph-to-WatchRepo" style="stroke:#FFFFFF;stroke-width:3.125;"/><polygon fill="#FFFFFF" points="145.1354,295.8298,154.7167,292.1622,148.8241,292.1528,148.8335,286.2603,145.1354,295.8298" style="stroke:#FFFFFF;stroke-width:3.125;"/><text fill="#FFFFFF" font-family="'Verdana'" font-size="12.5" lengthAdjust="spacing" textLength="114.2883" x="346.875" y="210.8032">watchlist / targets</text></g><!--link Graph to SnapshotRepo--><g class="link" data-entity-1="ent0002" data-entity-2="ent0005" data-link-type="dependency" data-source-line="46" id="lnk19"><path d="M1365.2813,129.1215 C1145.1667,132.309 707.6146,143.9861 560.4167,186.7778 C488.4271,207.7048 422.8872,258.2202 384.5435,291.8348" fill="none" id="Graph-to-SnapshotRepo" style="stroke:#FFFFFF;stroke-width:3.125;"/><polygon fill="#FFFFFF" points="379.8438,295.9548,389.6401,292.9079,383.7602,292.5214,384.1466,286.6416,379.8438,295.9548" style="stroke:#FFFFFF;stroke-width:3.125;"/><text fill="#FFFFFF" font-family="'Verdana'" font-size="12.5" lengthAdjust="spacing" textLength="110.7483" x="571.875" y="210.8032">portfolioSnapshot</text></g><!--link Graph to PresetRepo--><g class="link" data-entity-1="ent0002" data-entity-2="ent0006" data-link-type="dependency" data-source-line="47" id="lnk20"><path d="M1365.5208,130.7048 C1188.0521,135.8507 878.9167,149.9132 772.9167,186.7778 C708.7917,209.0798 653.1558,258.5221 620.5204,291.6679" fill="none" id="Graph-to-PresetRepo" style="stroke:#FFFFFF;stroke-width:3.125;"/><polygon fill="#FFFFFF" points="616.1354,296.1215,625.682,292.3645,619.7896,292.4102,619.7439,286.5178,616.1354,296.1215" style="stroke:#FFFFFF;stroke-width:3.125;"/><text fill="#FFFFFF" font-family="'Verdana'" font-size="12.5" lengthAdjust="spacing" textLength="79.2908" x="784.375" y="210.8032">presetConfig</text></g><!--link Graph to DataClient--><g class="link" data-entity-1="ent0002" data-entity-2="ent0010" data-link-type="dependency" data-source-line="48" id="lnk21"><path d="M1365.5729,153.4028 C1350.0833,161.6319 1336.1979,172.4861 1326.0417,186.7778 C1298.4063,225.684 1340.5731,265.2448 1380.8751,292.5052" fill="none" id="Graph-to-DataClient" style="stroke:#FFFFFF;stroke-width:3.125;"/><polygon fill="#FFFFFF" points="1386.0521,296.0069,1380.6211,287.3031,1381.738,293.0888,1375.9522,294.2057,1386.0521,296.0069" style="stroke:#FFFFFF;stroke-width:3.125;"/><text fill="#FFFFFF" font-family="'Verdana'" font-size="12.5" lengthAdjust="spacing" textLength="268.6157" x="1337.5" y="210.8032">signalSnapshots / marketContextSnapshot</text></g><!--link Graph to AnalysisService--><g class="link" data-entity-1="ent0002" data-entity-2="ent0011" data-link-type="dependency" data-source-line="49" id="lnk22"><path d="M1580.8542,155.6319 C1595.8438,163.684 1610.0625,173.9132 1620.8333,186.7778 C1646.8958,217.9132 1654.0726,259.5848 1656.1872,289.6994" fill="none" id="Graph-to-AnalysisService" style="stroke:#FFFFFF;stroke-width:3.125;"/><polygon fill="#FFFFFF" points="1656.625,295.934,1660.1248,286.2902,1656.2602,290.7385,1651.8119,286.8739,1656.625,295.934" style="stroke:#FFFFFF;stroke-width:3.125;"/><text fill="#FFFFFF" font-family="'Verdana'" font-size="12.5" lengthAdjust="spacing" textLength="184.6985" x="1653.125" y="210.8032">technicalAssessments / cards</text></g><!--link Graph to MarketRepo--><g class="link" data-entity-1="ent0002" data-entity-2="ent0007" data-link-type="dependency" data-source-line="50" id="lnk23"><path d="M1365.3542,134.2778 C1205.5521,143.1528 950.375,161.1215 914.5833,186.7778 C878.6771,212.5173 864.1893,257.8419 857.6476,289.8419" fill="none" id="Graph-to-MarketRepo" style="stroke:#FFFFFF;stroke-width:3.125;"/><polygon fill="#FFFFFF" points="856.3958,295.9653,862.3557,287.6147,857.439,290.8625,854.1913,285.9457,856.3958,295.9653" style="stroke:#FFFFFF;stroke-width:3.125;"/><text fill="#FFFFFF" font-family="'Verdana'" font-size="12.5" lengthAdjust="spacing" textLength="158.9844" x="926.0417" y="210.8032">&#22797;&#29992;&#32531;&#23384; / upsert analysis</text></g><!--link Graph to RegimeService--><g class="link" data-entity-1="ent0002" data-entity-2="ent0012" data-link-type="dependency" data-source-line="51" id="lnk24"><path d="M1623.9688,132.8507 C1714.7604,139.1944 1825.4896,153.6736 1857.2917,186.7778 C1885.0104,215.6215 1884.5153,258.9412 1880.2236,289.8683" fill="none" id="Graph-to-RegimeService" style="stroke:#FFFFFF;stroke-width:3.125;"/><polygon fill="#FFFFFF" points="1879.3646,296.059,1884.7803,287.3457,1880.0805,290.9001,1876.5261,286.2003,1879.3646,296.059" style="stroke:#FFFFFF;stroke-width:3.125;"/><text fill="#FFFFFF" font-family="'Verdana'" font-size="12.5" lengthAdjust="spacing" textLength="144.9341" x="1888.5417" y="210.8032">marketContextAnalysis</text></g><!--link Graph to RiskManager--><g class="link" data-entity-1="ent0002" data-entity-2="ent0014" data-link-type="dependency" data-source-line="52" id="lnk25"><path d="M1624.1979,128.3611 C1766.5938,131.1111 1984.4063,142.7153 2053.125,186.7778 C2092.5729,212.0798 2113.3965,258.0055 2124.3132,290.1514" fill="none" id="Graph-to-RiskManager" style="stroke:#FFFFFF;stroke-width:3.125;"/><polygon fill="#FFFFFF" points="2126.3229,296.0694,2127.2536,285.8525,2124.6481,291.1377,2119.3629,288.5322,2126.3229,296.0694" style="stroke:#FFFFFF;stroke-width:3.125;"/><text fill="#FFFFFF" font-family="'Verdana'" font-size="12.5" lengthAdjust="spacing" textLength="49.0601" x="2102.0833" y="210.8032">riskPlan</text></g><!--link Graph to FeedbackService--><g class="link" data-entity-1="ent0002" data-entity-2="ent0015" data-link-type="dependency" data-source-line="53" id="lnk26"><path d="M1624.1042,133.5382 C1790.8646,141.7569 2071.2917,159.1423 2170.8333,186.7778 C2242.5313,206.684 2307.0945,257.7617 2344.605,291.6992" fill="none" id="Graph-to-FeedbackService" style="stroke:#FFFFFF;stroke-width:3.125;"/><polygon fill="#FFFFFF" points="2349.2396,295.8923,2345.0831,286.5128,2345.3774,292.398,2339.4922,292.6923,2349.2396,295.8923" style="stroke:#FFFFFF;stroke-width:3.125;"/><text fill="#FFFFFF" font-family="'Verdana'" font-size="12.5" lengthAdjust="spacing" textLength="105.2002" x="2262.5" y="210.8032">feedbackContext</text></g><!--link Graph to PortfolioManager--><g class="link" data-entity-1="ent0002" data-entity-2="ent0016" data-link-type="dependency" data-source-line="54" id="lnk27"><path d="M1624.3333,131.0069 C1835.7917,136.9548 2245.6979,152.5694 2386.4583,186.7778 C2469.1458,206.8715 2548.3977,258.3835 2594.5852,292.2585" fill="none" id="Graph-to-PortfolioManager" style="stroke:#FFFFFF;stroke-width:3.125;"/><polygon fill="#FFFFFF" points="2599.625,295.9548,2594.5295,287.0505,2595.4252,292.8746,2589.6011,293.7702,2599.625,295.9548" style="stroke:#FFFFFF;stroke-width:3.125;"/><text fill="#FFFFFF" font-family="'Verdana'" font-size="12.5" lengthAdjust="spacing" textLength="112.2131" x="2491.6667" y="210.8032">recommendations</text></g><!--link Graph to RecommendationRepo--><g class="link" data-entity-1="ent0002" data-entity-2="ent0008" data-link-type="dependency" data-source-line="55" id="lnk28"><path d="M1365.4167,130.5694 C1268.5938,135.6111 1147.5938,149.4653 1115.625,186.7778 C1089.3125,217.4861 1107.2906,260.3855 1125.5719,290.6668" fill="none" id="Graph-to-RecommendationRepo" style="stroke:#FFFFFF;stroke-width:3.125;"/><polygon fill="#FFFFFF" points="1128.8021,296.0173,1127.5238,285.8381,1126.1102,291.5585,1120.3898,290.145,1128.8021,296.0173" style="stroke:#FFFFFF;stroke-width:3.125;"/><text fill="#FFFFFF" font-family="'Verdana'" font-size="12.5" lengthAdjust="spacing" textLength="172.7539" x="1127.0833" y="210.8032">persistedRecommendations</text></g><!--link Graph to ReviewService--><g class="link" data-entity-1="ent0002" data-entity-2="ent0017" data-link-type="dependency" data-source-line="56" id="lnk29"><path d="M1624.3125,130.8819 C1878.5313,137.3298 2434.4167,154.6632 2622.9167,186.7778 C2694.2604,198.934 2713.3854,202.4236 2779.1667,232.6111 C2816.8438,249.9028 2851.0974,272.5138 2878.5349,292.42" fill="none" id="Graph-to-ReviewService" style="stroke:#FFFFFF;stroke-width:3.125;"/><polygon fill="#FFFFFF" points="2883.5938,296.0903,2878.4523,287.2123,2879.3781,293.0317,2873.5587,293.9574,2883.5938,296.0903" style="stroke:#FFFFFF;stroke-width:3.125;"/><text fill="#FFFFFF" font-family="'Verdana'" font-size="12.5" lengthAdjust="spacing" textLength="182.0313" x="2768.75" y="210.8032">reviewRecords / reminderIds</text></g><?plantuml-src ZLN1RjD04BtxAvPmhhXpG0gjYf1IAKgGE0_sn5x5tZMxauO8SG0Xr0D5bGgeKWKNEFG2uW0IKb6_fcdx6OoTf5wxjfkSl3FllPcTUQlSeGWJ50aG6WcU7KkLWe5413Y2IKpRMj6cZhKHTxVpdmFf6gEdJScULDYKwuC_XX0VQXEWQG8Dq2TGONmBR5CdgLQeg1qsnESJL3wszhm2zUG8i_xNa-o38UdB5DRjmI6qZjSdkIjfrYwwGgsZj2KXqIfOJt09RjCT4jlcbZjda9iQ92b6SNxsvUhFvwlNxwz-VviVdpaq6q6WfrA5OWInHIVZh_Ozf1bBc9LBFE_wKtIU0lbHB2qzaGcBz6MACU-pn-b71jAe8y2A_ClpqeKPHUVyz73-vcJHKqUyz8IeAlPOSO2fjfAqcUKYUJoBbU5zRMYaOwc72b8RwIhD3PUPouuDMgoIYc2PiWDcZ3nWHVY26WekC4tb-Atf944L04cjAjIRIU-LCxQBJxykzd-U__qmttjtyVMWONxz6KLQBQfj0S5cB7c7kNvnh6kjgo2UMMc7Q7QbZpcZ4gkRnW13cQ1BAaLADxWyVJi_sCjky7t_ylYepG6PfmRIZdT0CTMKz8jmtJss4ODdND6bL68DzQwzL5EqcgjVxgx4wT2FC9ZmAmZBGybpnL3oHo4sDXuKpXRtnNJLYxWd24o8P1saQpa6frNlEz32mXamFx1lHp9qC8KV66DboCjUALckdzIvtQ5NpC4QX7waf0znrrgqbgsS2_bW0lSQnHDXJcQ5ZoUN_mxdFuuOEqaj6XAmr7PO9LiniTHUjmPVs8JHXa_z69G3g9Y2GQDbP2dgZhEo_aonz5hBdLRVSRO3DDmVOJ1euJaUoIjavmpFy-FP66INyL_0uy3-1m00?></g></svg>