<?plantuml 1.2026.2?><svg xmlns="http://www.w3.org/2000/svg" xmlns:xlink="http://www.w3.org/1999/xlink" contentStyleType="text/css" data-diagram-type="DESCRIPTION" height="986.4583px" preserveAspectRatio="none" style="width:480px;height:986px;" version="1.1" viewBox="0 0 480 986" width="480.2083px" zoomAndPan="magnify"><title>&#27169;&#22359;&#25286;&#35299;&#22270;</title><defs><linearGradient id="gvyc2babin6650" x1="50%" x2="50%" y1="0%" y2="100%"><stop offset="0%" stop-color="#FFFFFF"/><stop offset="100%" stop-color="#FFFFFF"/></linearGradient><linearGradient id="gvyc2babin6651" x1="50%" x2="50%" y1="0%" y2="100%"><stop offset="0%" stop-color="#4DABF5"/><stop offset="100%" stop-color="#2196F3"/></linearGradient></defs><g><g class="title" data-source-line="18"><rect fill="url(#gvyc2babin6650)" height="58.6528" rx="4.1667" ry="4.1667" style="stroke:#CCCCCC;stroke-width:1.0417;" width="137.5" x="167.0553" y="20.8333"/><text fill="#FFFFFF" font-family="'Verdana'" font-size="20.8333" font-weight="bold" lengthAdjust="spacing" textLength="104.1667" x="183.7219" y="58.4452">&#27169;&#22359;&#25286;&#35299;&#22270;</text></g><!--cluster LangGraph ????--><g class="cluster" data-qualified-name="LangGraph ...." data-source-line="22" id="ent0002"><path d="M20.8333,97.1944 L170.1619,97.1944 A6.25,6.25 0 0 1 174.3286,101.3611 L181.6203,139.4694 L439.5833,139.4694 A4.1667,4.1667 0 0 1 443.75,143.6361 L443.75,970.1111 A4.1667,4.1667 0 0 1 439.5833,974.2778 L20.8333,974.2778 A4.1667,4.1667 0 0 1 16.6667,970.1111 L16.6667,101.3611 A4.1667,4.1667 0 0 1 20.8333,97.1944" fill="url(#gvyc2babin6650)" style="stroke:#FFFFFF;stroke-width:2.0833;"/><line style="stroke:#FFFFFF;stroke-width:2.0833;" x1="16.6667" x2="181.6203" y1="139.4694" y2="139.4694"/><text fill="#FFFFFF" font-family="'Verdana'" font-size="12.5" font-weight="bold" lengthAdjust="spacing" textLength="130.5786" x="31.25" y="122.2616">LangGraph &#20869;&#37096;&#32844;&#36131;</text></g><!--entity LoadContext--><g class="entity" data-qualified-name="LangGraph .....LoadContext" data-source-line="23" id="ent0003"><rect fill="url(#gvyc2babin6651)" height="72.05" rx="4.1667" ry="4.1667" style="stroke:#FFFFFF;stroke-width:1.0417;" width="185.9599" x="125.5208" y="152.4028"/><text fill="#FFFFFF" font-family="'Verdana'" font-size="12.5" lengthAdjust="spacing" textLength="50" x="146.3542" y="185.8032">&#36755;&#20837;&#35013;&#36733;</text><text fill="#FFFFFF" font-family="'Verdana'" font-size="12.5" lengthAdjust="spacing" textLength="144.2932" x="146.3542" y="200.9949">load_watchlist_context</text></g><!--entity SignalStage--><g class="entity" data-qualified-name="LangGraph .....SignalStage" data-source-line="24" id="ent0004"><rect fill="url(#gvyc2babin6651)" height="102.4333" rx="4.1667" ry="4.1667" style="stroke:#FFFFFF;stroke-width:1.0417;" width="231.0832" x="33.3333" y="324.2778"/><text fill="#FFFFFF" font-family="'Verdana'" font-size="12.5" lengthAdjust="spacing" textLength="75" x="54.1667" y="357.6782">&#25209;&#37327;&#20449;&#21495;&#38454;&#27573;</text><text fill="#FFFFFF" font-family="'Verdana'" font-size="12.5" lengthAdjust="spacing" textLength="189.4165" x="54.1667" y="372.8699">fetch_signal_snapshots_batch</text><text fill="#FFFFFF" font-family="'Verdana'" font-size="12.5" lengthAdjust="spacing" textLength="143.634" x="54.1667" y="388.0615">technical_signal_agent</text><text fill="#FFFFFF" font-family="'Verdana'" font-size="12.5" lengthAdjust="spacing" textLength="149.6704" x="54.1667" y="403.2532">timing_synthesis_agent</text></g><!--entity MarketStage--><g class="entity" data-qualified-name="LangGraph .....MarketStage" data-source-line="25" id="ent0005"><rect fill="url(#gvyc2babin6651)" height="72.05" rx="4.1667" ry="4.1667" style="stroke:#FFFFFF;stroke-width:1.0417;" width="181.5104" x="33.3333" y="526.3611"/><text fill="#FFFFFF" font-family="'Verdana'" font-size="12.5" lengthAdjust="spacing" textLength="75" x="54.1667" y="559.7616">&#24066;&#22330;&#35821;&#22659;&#38454;&#27573;</text><text fill="#FFFFFF" font-family="'Verdana'" font-size="12.5" lengthAdjust="spacing" textLength="139.8438" x="54.1667" y="574.9532">market_regime_agent</text></g><!--entity PortfolioStage--><g class="entity" data-qualified-name="LangGraph .....PortfolioStage" data-source-line="26" id="ent0006"><rect fill="url(#gvyc2babin6651)" height="87.2416" rx="4.1667" ry="4.1667" style="stroke:#FFFFFF;stroke-width:1.0417;" width="220.6584" x="33.3333" y="698.2361"/><text fill="#FFFFFF" font-family="'Verdana'" font-size="12.5" lengthAdjust="spacing" textLength="75" x="54.1667" y="731.6366">&#32452;&#21512;&#20915;&#31574;&#38454;&#27573;</text><text fill="#FFFFFF" font-family="'Verdana'" font-size="12.5" lengthAdjust="spacing" textLength="149.6033" x="54.1667" y="746.8282">watchlist_risk_manager</text><text fill="#FFFFFF" font-family="'Verdana'" font-size="12.5" lengthAdjust="spacing" textLength="178.9917" x="54.1667" y="762.0199">watchlist_portfolio_manager</text></g><!--entity PersistStage--><g class="entity" data-qualified-name="LangGraph .....PersistStage" data-source-line="27" id="ent0007"><rect fill="url(#gvyc2babin6651)" height="72.05" rx="4.1667" ry="4.1667" style="stroke:#FFFFFF;stroke-width:1.0417;" width="203.776" x="118.75" y="885.7361"/><text fill="#FFFFFF" font-family="'Verdana'" font-size="12.5" lengthAdjust="spacing" textLength="75" x="139.5833" y="919.1366">&#20135;&#29289;&#33853;&#24211;&#38454;&#27573;</text><text fill="#FFFFFF" font-family="'Verdana'" font-size="12.5" lengthAdjust="spacing" textLength="162.1094" x="139.5833" y="934.3282">persist_recommendations</text></g><!--link LoadContext to SignalStage--><g class="link" data-entity-1="ent0003" data-entity-2="ent0004" data-link-type="dependency" data-source-line="30" id="lnk8"><path d="M157.4271,224.6111 C147.2708,233.3507 138.1563,243.6632 132.2917,255.5278 C121.875,276.6215 122.3766,296.1631 127.8974,318.1944" fill="none" id="LoadContext-to-SignalStage" style="stroke:#FFFFFF;stroke-width:3.125;"/><polygon fill="#FFFFFF" points="129.4167,324.2569,131.1795,314.1503,128.1507,319.2048,123.0961,316.1759,129.4167,324.2569" style="stroke:#FFFFFF;stroke-width:3.125;"/><text fill="#FFFFFF" font-family="'Verdana'" font-size="12.5" lengthAdjust="spacing" textLength="138.1958" x="143.75" y="279.5532">targets / presetConfig</text></g><!--link SignalStage to MarketStage--><g class="link" data-entity-1="ent0004" data-entity-2="ent0005" data-link-type="dependency" data-source-line="31" id="lnk9"><path d="M142.1979,426.3923 C137.9271,457.9444 133.3579,491.7195 129.5454,519.9278" fill="none" id="SignalStage-to-MarketStage" style="stroke:#FFFFFF;stroke-width:3.125;"/><polygon fill="#FFFFFF" points="128.7083,526.1215,134.0931,517.389,129.4059,520.9601,125.8349,516.2729,128.7083,526.1215" style="stroke:#FFFFFF;stroke-width:3.125;"/><text fill="#FFFFFF" font-family="'Verdana'" font-size="12.5" lengthAdjust="spacing" textLength="33.6548" x="148.9583" y="481.6366">cards</text></g><!--link MarketStage to PortfolioStage--><g class="link" data-entity-1="ent0005" data-entity-2="ent0006" data-link-type="dependency" data-source-line="32" id="lnk10"><path d="M115.9479,598.6007 C112.5729,618.7569 110.3021,644.4444 114.5833,666.9861 C116.5417,677.2882 117.693,682.1515 121.4638,692.1098" fill="none" id="MarketStage-to-PortfolioStage" style="stroke:#FFFFFF;stroke-width:3.125;"/><polygon fill="#FFFFFF" points="123.6771,697.9548,124.2538,687.7118,121.8327,693.084,116.4605,690.6629,123.6771,697.9548" style="stroke:#FFFFFF;stroke-width:3.125;"/><text fill="#FFFFFF" font-family="'Verdana'" font-size="12.5" lengthAdjust="spacing" textLength="144.9341" x="126.0417" y="653.5116">marketContextAnalysis</text></g><!--link PortfolioStage to PersistStage--><g class="link" data-entity-1="ent0006" data-entity-2="ent0007" data-link-type="dependency" data-source-line="33" id="lnk11"><path d="M137.7396,785.8715 C136.5729,807.4028 138.0729,833.3298 147.9167,854.4861 C153.3229,866.1111 157.3338,872.2521 166.6463,881.2729" fill="none" id="PortfolioStage-to-PersistStage" style="stroke:#FFFFFF;stroke-width:3.125;"/><polygon fill="#FFFFFF" points="171.1354,885.6215,167.3007,876.1059,167.3945,881.9977,161.5026,882.0914,171.1354,885.6215" style="stroke:#FFFFFF;stroke-width:3.125;"/><text fill="#FFFFFF" font-family="'Verdana'" font-size="12.5" lengthAdjust="spacing" textLength="112.2131" x="159.375" y="841.0116">recommendations</text></g><!--link PersistStage to LoadContext--><g class="link" data-entity-1="ent0007" data-entity-2="ent0003" data-link-type="dependency" data-source-line="34" id="lnk12"><path d="M265.1042,885.6632 C273.7396,876.5173 281.6042,865.9548 286.4583,854.4861 C383.6458,624.6111 294.5625,542.6007 296.875,293.0278 C297.0313,276.3611 303.8854,270.6528 296.875,255.5278 C291.4167,243.7569 287.3107,237.5593 277.6649,228.653" fill="none" id="PersistStage-to-LoadContext" style="stroke:#FFFFFF;stroke-width:3.125;"/><polygon fill="#FFFFFF" points="273.0729,224.4132,277.1343,233.8343,276.8995,227.9464,282.7874,227.7117,273.0729,224.4132" style="stroke:#FFFFFF;stroke-width:3.125;"/><text fill="#FFFFFF" font-family="'Verdana'" font-size="12.5" lengthAdjust="spacing" textLength="117.4438" x="339.5833" y="567.5741">&#20379;&#21518;&#32493; run &#26597;&#35810;&#32467;&#26524;</text></g><?plantuml-src ZPFFRjD04CRlVeebd2lkFI2Le789KaIkaQp57ZkhsBjcTqE840Se2LGW6gbIGMe1jL7LSWWzy3zHmil4ZlCMhErQtPGcZM-U-URtpOp7DsGDV40-bi09DaITq01px2CR7Dpmv2QZiiWynj7DpVJH91kSi-QYP8bGM9GhOwkENRZ3k0ryaUW1M19Jrxj6LcH-m2XGkLnMWKSDe1OixJaNbOW3IV-h8SkOIsAH0A_QWrQmTBsM98-9R2s7vgfLI7S9zXcrLmEUYvTnArATpJKp9vB_6P983r1qUXX-V1-zwSGdlN1_h9M96hPPar0NETWJe6Mi_7jNP4iXU7ubXX5aLuKA9HMunt5GGs6dFTiwZP-_ZR_t2kYfWIxAKI4UxuRjuxZNZaUZAlKOjiqcbbRD8qAQbcePdiW2mWALLAgOlSyJekq_irSxax-7uSwlsOUVqTSVLUg0GfY2k1Hxfg0u43KcXVam8LSLmwfHOYMfJA4QfbB5YQ-6DKMBglzH4975K_TAAbHxT67UFVpz8ZmOn6Vzy6WhT_SnhuCqERZ41mroFurV0PaENuRTrs7dsxI_bqCkji29g9i-fggCw_60SUamZx0ycPgKy-WLFfF1oNJxIzmTXOFTt2S0Bb8NK48Vg8qbOLHah2oNaPuPXlODqDhQRNqhQ1r9p5sG0jr20GS1wjYeGrn35oL5sXPKaOMvBGmzbcZcXr2oRANdtXkArrAD6PTaQQNMiggxD9Knbqxq-aZhQ3BU3xllfiC-uWsAei_7yTdHTBWRVJhu1m00?></g></svg>