<?plantuml 1.2026.2?><svg xmlns="http://www.w3.org/2000/svg" xmlns:xlink="http://www.w3.org/1999/xlink" contentStyleType="text/css" data-diagram-type="ACTIVITY" height="1306.25px" preserveAspectRatio="none" style="width:481px;height:1306px;" version="1.1" viewBox="0 0 481 1306" width="481.25px" zoomAndPan="magnify"><title>&#20027;&#27969;&#31243;&#27963;&#21160;&#22270;</title><defs><linearGradient id="gws45t15v171d0" x1="50%" x2="50%" y1="0%" y2="100%"><stop offset="0%" stop-color="#FFFFFF"/><stop offset="100%" stop-color="#FFFFFF"/></linearGradient><filter height="300%" id="fws45t15v171d" width="300%" x="-1" y="-1"><feGaussianBlur result="blurOut" stdDeviation="2.0833"/><feColorMatrix in="blurOut" result="blurOut2" type="matrix" values="0 0 0 0 0 0 0 0 0 0 0 0 0 0 0 0 0 0 .4 0"/><feOffset dx="4.1667" dy="4.1667" in="blurOut2" result="blurOut3"/><feBlend in="SourceGraphic" in2="blurOut3" mode="normal"/></filter><linearGradient id="gws45t15v171d1" x1="50%" x2="50%" y1="0%" y2="100%"><stop offset="0%" stop-color="#4DABF5"/><stop offset="100%" stop-color="#2196F3"/></linearGradient></defs><g><g class="title" data-source-line="18"><rect fill="url(#gws45t15v171d0)" height="58.6528" rx="4.1667" ry="4.1667" style="stroke:#CCCCCC;stroke-width:1.0417;" width="158.3333" x="159.9935" y="20.8333"/><text fill="#FFFFFF" font-family="'Verdana'" font-size="20.8333" font-weight="bold" lengthAdjust="spacing" textLength="125" x="176.6602" y="58.4452">&#20027;&#27969;&#31243;&#27963;&#21160;&#22270;</text></g><ellipse cx="237.5977" cy="101.3611" fill="#9C27B0" filter="url(#fws45t15v171d)" rx="10.4167" ry="10.4167" style="stroke:#1A78C2;stroke-width:1.0417;"/><rect fill="url(#gws45t15v171d1)" filter="url(#fws45t15v171d)" height="48.525" rx="4.1667" ry="4.1667" style="stroke:#FFFFFF;stroke-width:1.0417;" width="156.8441" x="159.1756" y="132.6111"/><text fill="#FFFFFF" font-family="'Verdana'" font-size="12.5" lengthAdjust="spacing" textLength="123.5107" x="175.8423" y="161.8449">&#36827;&#20837; buildRiskPlan()</text><rect fill="url(#gws45t15v171d1)" filter="url(#fws45t15v171d)" height="48.525" rx="4.1667" ry="4.1667" style="stroke:#FFFFFF;stroke-width:1.0417;" width="265.2242" x="104.9856" y="201.9694"/><text fill="#FFFFFF" font-family="'Verdana'" font-size="12.5" lengthAdjust="spacing" textLength="231.8909" x="121.6522" y="231.2032">withDefaults() &#24402;&#19968;&#21270; riskPreferences</text><rect fill="url(#gws45t15v171d1)" filter="url(#fws45t15v171d)" height="48.525" rx="4.1667" ry="4.1667" style="stroke:#FFFFFF;stroke-width:1.0417;" width="267.7694" x="103.713" y="271.3277"/><text fill="#FFFFFF" font-family="'Verdana'" font-size="12.5" lengthAdjust="spacing" textLength="234.436" x="120.3796" y="300.5615">&#35745;&#31639; availableCashPct / concentration</text><rect fill="url(#gws45t15v171d1)" filter="url(#fws45t15v171d)" height="48.525" rx="4.1667" ry="4.1667" style="stroke:#FFFFFF;stroke-width:1.0417;" width="309.377" x="82.9091" y="340.686"/><text fill="#FFFFFF" font-family="'Verdana'" font-size="12.5" lengthAdjust="spacing" textLength="276.0437" x="99.5758" y="369.9198">&#27719;&#24635; sectorExposure -&gt; correlationWarnings</text><rect fill="url(#gws45t15v171d1)" filter="url(#fws45t15v171d)" height="48.525" rx="4.1667" ry="4.1667" style="stroke:#FFFFFF;stroke-width:1.0417;" width="265.7613" x="104.717" y="410.0444"/><text fill="#FFFFFF" font-family="'Verdana'" font-size="12.5" lengthAdjust="spacing" textLength="232.428" x="121.3837" y="439.2782">&#25353; market state &#35745;&#31639; regimeMultiplier</text><rect fill="url(#gws45t15v171d1)" filter="url(#fws45t15v171d)" height="48.525" rx="4.1667" ry="4.1667" style="stroke:#FFFFFF;stroke-width:1.0417;" width="452.2786" x="11.4583" y="479.4027"/><text fill="#FFFFFF" font-family="'Verdana'" font-size="12.5" lengthAdjust="spacing" textLength="418.9453" x="28.125" y="508.6365">&#25512;&#23548; portfolioRiskBudgetPct / maxSingleNamePct / defaultProbePct</text><rect fill="url(#gws45t15v171d1)" filter="url(#fws45t15v171d)" height="63.7166" rx="4.1667" ry="4.1667" style="stroke:#FFFFFF;stroke-width:1.0417;" width="142.7694" x="166.213" y="621.5485"/><text fill="#FFFFFF" font-family="'Verdana'" font-size="12.5" lengthAdjust="spacing" textLength="62.8784" x="182.8796" y="650.7823">&#23553;&#31105; ADD;</text><text fill="#FFFFFF" font-family="'Verdana'" font-size="12.5" lengthAdjust="spacing" textLength="109.436" x="182.8796" y="665.9739">&#24517;&#35201;&#26102;&#23553;&#31105; PROBE</text><polygon fill="url(#gws45t15v171d0)" filter="url(#fws45t15v171d)" points="192.1163,548.761,283.079,548.761,295.579,566.7735,283.079,584.786,192.1163,584.786,179.6163,566.7735,192.1163,548.761" style="stroke:#FFFFFF;stroke-width:1.0417;"/><text fill="#FFFFFF" font-family="'Verdana'" font-size="12.5" lengthAdjust="spacing" textLength="12.5" x="252.181" y="607.7698">&#26159;</text><text fill="#FFFFFF" font-family="'Verdana'" font-size="12.5" lengthAdjust="spacing" textLength="70.1294" x="202.533" y="571.7448">RISK_OFF?</text><polygon fill="url(#gws45t15v171d0)" filter="url(#fws45t15v171d)" points="237.5977,706.0984,250.0977,718.5984,237.5977,731.0984,225.0977,718.5984,237.5977,706.0984" style="stroke:#FFFFFF;stroke-width:1.0417;"/><rect fill="url(#gws45t15v171d1)" filter="url(#fws45t15v171d)" height="48.525" rx="4.1667" ry="4.1667" style="stroke:#FFFFFF;stroke-width:1.0417;" width="90.5355" x="192.3299" y="824.7192"/><text fill="#FFFFFF" font-family="'Verdana'" font-size="12.5" lengthAdjust="spacing" textLength="57.2021" x="208.9966" y="853.953">&#23553;&#31105; ADD</text><polygon fill="url(#gws45t15v171d0)" filter="url(#fws45t15v171d)" points="112.6882,751.9318,362.5071,751.9318,375.0071,769.9443,362.5071,787.9567,112.6882,787.9567,100.1882,769.9443,112.6882,751.9318" style="stroke:#FFFFFF;stroke-width:1.0417;"/><text fill="#FFFFFF" font-family="'Verdana'" font-size="12.5" lengthAdjust="spacing" textLength="12.5" x="252.181" y="810.9406">&#26159;</text><text fill="#FFFFFF" font-family="'Verdana'" font-size="12.5" lengthAdjust="spacing" textLength="228.9856" x="123.1049" y="774.9156">availableCashPct &lt; defaultProbePct?</text><polygon fill="url(#gws45t15v171d0)" filter="url(#fws45t15v171d)" points="237.5977,894.0776,250.0977,906.5776,237.5977,919.0776,225.0977,906.5776,237.5977,894.0776" style="stroke:#FFFFFF;stroke-width:1.0417;"/><rect fill="url(#gws45t15v171d1)" filter="url(#fws45t15v171d)" height="48.525" rx="4.1667" ry="4.1667" style="stroke:#FFFFFF;stroke-width:1.0417;" width="90.5355" x="192.3299" y="1012.6984"/><text fill="#FFFFFF" font-family="'Verdana'" font-size="12.5" lengthAdjust="spacing" textLength="57.2021" x="208.9966" y="1041.9322">&#23553;&#31105; ADD</text><polygon fill="url(#gws45t15v171d0)" filter="url(#fws45t15v171d)" points="109.0719,939.9109,366.1235,939.9109,378.6235,957.9234,366.1235,975.9359,109.0719,975.9359,96.5719,957.9234,109.0719,939.9109" style="stroke:#FFFFFF;stroke-width:1.0417;"/><text fill="#FFFFFF" font-family="'Verdana'" font-size="12.5" lengthAdjust="spacing" textLength="12.5" x="252.181" y="998.9197">&#26159;</text><text fill="#FFFFFF" font-family="'Verdana'" font-size="12.5" lengthAdjust="spacing" textLength="236.2183" x="119.4885" y="962.8947">&#25152;&#26377; timing cards &#37117;&#19981;&#26159; ADD/PROBE?</text><polygon fill="url(#gws45t15v171d0)" filter="url(#fws45t15v171d)" points="237.5977,1082.0567,250.0977,1094.5567,237.5977,1107.0567,225.0977,1094.5567,237.5977,1082.0567" style="stroke:#FFFFFF;stroke-width:1.0417;"/><rect fill="url(#gws45t15v171d1)" filter="url(#fws45t15v171d)" height="48.525" rx="4.1667" ry="4.1667" style="stroke:#FFFFFF;stroke-width:1.0417;" width="276.0335" x="99.5809" y="1127.89"/><text fill="#FFFFFF" font-family="'Verdana'" font-size="12.5" lengthAdjust="spacing" textLength="242.7002" x="116.2476" y="1157.1238">&#32452;&#35013; notes / warnings / blockedActions</text><rect fill="url(#gws45t15v171d1)" filter="url(#fws45t15v171d)" height="48.525" rx="4.1667" ry="4.1667" style="stroke:#FFFFFF;stroke-width:1.0417;" width="166.9576" x="154.1189" y="1197.2483"/><text fill="#FFFFFF" font-family="'Verdana'" font-size="12.5" lengthAdjust="spacing" textLength="133.6243" x="170.7855" y="1226.4821">&#36820;&#22238; PortfolioRiskPlan</text><ellipse cx="237.5977" cy="1278.065" fill="none" filter="url(#fws45t15v171d)" rx="11.4583" ry="11.4583" style="stroke:#1A78C2;stroke-width:1.0417;"/><ellipse cx="237.5977" cy="1278.065" fill="none" rx="6.25" ry="6.25" style="stroke:#1A78C2;stroke-width:1.0417;"/><line style="stroke:#FFFFFF;stroke-width:3.125;" x1="237.5977" x2="237.5977" y1="111.7778" y2="132.6111"/><polygon fill="#FFFFFF" points="233.431,122.1944,237.5977,132.6111,241.7643,122.1944,237.5977,126.3611" style="stroke:#FFFFFF;stroke-width:1.0417;"/><line style="stroke:#FFFFFF;stroke-width:3.125;" x1="237.5977" x2="237.5977" y1="181.1361" y2="201.9694"/><polygon fill="#FFFFFF" points="233.431,191.5527,237.5977,201.9694,241.7643,191.5527,237.5977,195.7194" style="stroke:#FFFFFF;stroke-width:1.0417;"/><line style="stroke:#FFFFFF;stroke-width:3.125;" x1="237.5977" x2="237.5977" y1="250.4944" y2="271.3277"/><polygon fill="#FFFFFF" points="233.431,260.9111,237.5977,271.3277,241.7643,260.9111,237.5977,265.0777" style="stroke:#FFFFFF;stroke-width:1.0417;"/><line style="stroke:#FFFFFF;stroke-width:3.125;" x1="237.5977" x2="237.5977" y1="319.8527" y2="340.686"/><polygon fill="#FFFFFF" points="233.431,330.2694,237.5977,340.686,241.7643,330.2694,237.5977,334.436" style="stroke:#FFFFFF;stroke-width:1.0417;"/><line style="stroke:#FFFFFF;stroke-width:3.125;" x1="237.5977" x2="237.5977" y1="389.211" y2="410.0444"/><polygon fill="#FFFFFF" points="233.431,399.6277,237.5977,410.0444,241.7643,399.6277,237.5977,403.7944" style="stroke:#FFFFFF;stroke-width:1.0417;"/><line style="stroke:#FFFFFF;stroke-width:3.125;" x1="237.5977" x2="237.5977" y1="458.5693" y2="479.4027"/><polygon fill="#FFFFFF" points="233.431,468.986,237.5977,479.4027,241.7643,468.986,237.5977,473.1527" style="stroke:#FFFFFF;stroke-width:1.0417;"/><line style="stroke:#FFFFFF;stroke-width:3.125;" x1="237.5977" x2="237.5977" y1="584.786" y2="621.5485"/><polygon fill="#FFFFFF" points="233.431,611.1318,237.5977,621.5485,241.7643,611.1318,237.5977,615.2985" style="stroke:#FFFFFF;stroke-width:1.0417;"/><line style="stroke:#FFFFFF;stroke-width:3.125;" x1="295.579" x2="319.399" y1="566.7735" y2="566.7735"/><polygon fill="#FFFFFF" points="315.2323,650.6505,319.399,661.0672,323.5657,650.6505,319.399,654.8172" style="stroke:#FFFFFF;stroke-width:3.125;"/><line style="stroke:#FFFFFF;stroke-width:3.125;" x1="319.399" x2="319.399" y1="566.7735" y2="718.5984"/><line style="stroke:#FFFFFF;stroke-width:3.125;" x1="319.399" x2="250.0977" y1="718.5984" y2="718.5984"/><polygon fill="#FFFFFF" points="260.5143,714.4318,250.0977,718.5984,260.5143,722.7651,256.3477,718.5984" style="stroke:#FFFFFF;stroke-width:1.0417;"/><line style="stroke:#FFFFFF;stroke-width:3.125;" x1="237.5977" x2="237.5977" y1="685.2651" y2="706.0984"/><polygon fill="#FFFFFF" points="233.431,695.6818,237.5977,706.0984,241.7643,695.6818,237.5977,699.8484" style="stroke:#FFFFFF;stroke-width:1.0417;"/><line style="stroke:#FFFFFF;stroke-width:3.125;" x1="237.5977" x2="237.5977" y1="527.9277" y2="548.761"/><polygon fill="#FFFFFF" points="233.431,538.3443,237.5977,548.761,241.7643,538.3443,237.5977,542.511" style="stroke:#FFFFFF;stroke-width:1.0417;"/><line style="stroke:#FFFFFF;stroke-width:3.125;" x1="237.5977" x2="237.5977" y1="787.9567" y2="824.7192"/><polygon fill="#FFFFFF" points="233.431,814.3026,237.5977,824.7192,241.7643,814.3026,237.5977,818.4692" style="stroke:#FFFFFF;stroke-width:1.0417;"/><line style="stroke:#FFFFFF;stroke-width:3.125;" x1="375.0071" x2="387.5071" y1="769.9443" y2="769.9443"/><polygon fill="#FFFFFF" points="383.3405,846.2255,387.5071,856.6422,391.6738,846.2255,387.5071,850.3922" style="stroke:#FFFFFF;stroke-width:3.125;"/><line style="stroke:#FFFFFF;stroke-width:3.125;" x1="387.5071" x2="387.5071" y1="769.9443" y2="906.5776"/><line style="stroke:#FFFFFF;stroke-width:3.125;" x1="387.5071" x2="250.0977" y1="906.5776" y2="906.5776"/><polygon fill="#FFFFFF" points="260.5143,902.4109,250.0977,906.5776,260.5143,910.7442,256.3477,906.5776" style="stroke:#FFFFFF;stroke-width:1.0417;"/><line style="stroke:#FFFFFF;stroke-width:3.125;" x1="237.5977" x2="237.5977" y1="873.2442" y2="894.0776"/><polygon fill="#FFFFFF" points="233.431,883.6609,237.5977,894.0776,241.7643,883.6609,237.5977,887.8276" style="stroke:#FFFFFF;stroke-width:1.0417;"/><line style="stroke:#FFFFFF;stroke-width:3.125;" x1="237.5977" x2="237.5977" y1="731.0984" y2="751.9318"/><polygon fill="#FFFFFF" points="233.431,741.5151,237.5977,751.9318,241.7643,741.5151,237.5977,745.6818" style="stroke:#FFFFFF;stroke-width:1.0417;"/><line style="stroke:#FFFFFF;stroke-width:3.125;" x1="237.5977" x2="237.5977" y1="975.9359" y2="1012.6984"/><polygon fill="#FFFFFF" points="233.431,1002.2817,237.5977,1012.6984,241.7643,1002.2817,237.5977,1006.4484" style="stroke:#FFFFFF;stroke-width:1.0417;"/><line style="stroke:#FFFFFF;stroke-width:3.125;" x1="378.6235" x2="391.1235" y1="957.9234" y2="957.9234"/><polygon fill="#FFFFFF" points="386.9568,1034.2046,391.1235,1044.6213,395.2901,1034.2046,391.1235,1038.3713" style="stroke:#FFFFFF;stroke-width:3.125;"/><line style="stroke:#FFFFFF;stroke-width:3.125;" x1="391.1235" x2="391.1235" y1="957.9234" y2="1094.5567"/><line style="stroke:#FFFFFF;stroke-width:3.125;" x1="391.1235" x2="250.0977" y1="1094.5567" y2="1094.5567"/><polygon fill="#FFFFFF" points="260.5143,1090.39,250.0977,1094.5567,260.5143,1098.7233,256.3477,1094.5567" style="stroke:#FFFFFF;stroke-width:1.0417;"/><line style="stroke:#FFFFFF;stroke-width:3.125;" x1="237.5977" x2="237.5977" y1="1061.2233" y2="1082.0567"/><polygon fill="#FFFFFF" points="233.431,1071.64,237.5977,1082.0567,241.7643,1071.64,237.5977,1075.8067" style="stroke:#FFFFFF;stroke-width:1.0417;"/><line style="stroke:#FFFFFF;stroke-width:3.125;" x1="237.5977" x2="237.5977" y1="919.0776" y2="939.9109"/><polygon fill="#FFFFFF" points="233.431,929.4942,237.5977,939.9109,241.7643,929.4942,237.5977,933.6609" style="stroke:#FFFFFF;stroke-width:1.0417;"/><line style="stroke:#FFFFFF;stroke-width:3.125;" x1="237.5977" x2="237.5977" y1="1107.0567" y2="1127.89"/><polygon fill="#FFFFFF" points="233.431,1117.4733,237.5977,1127.89,241.7643,1117.4733,237.5977,1121.64" style="stroke:#FFFFFF;stroke-width:1.0417;"/><line style="stroke:#FFFFFF;stroke-width:3.125;" x1="237.5977" x2="237.5977" y1="1176.415" y2="1197.2483"/><polygon fill="#FFFFFF" points="233.431,1186.8317,237.5977,1197.2483,241.7643,1186.8317,237.5977,1190.9983" style="stroke:#FFFFFF;stroke-width:1.0417;"/><line style="stroke:#FFFFFF;stroke-width:3.125;" x1="237.5977" x2="237.5977" y1="1245.7733" y2="1266.6066"/><polygon fill="#FFFFFF" points="233.431,1256.19,237.5977,1266.6066,241.7643,1256.19,237.5977,1260.3566" style="stroke:#FFFFFF;stroke-width:1.0417;"/><?plantuml-src ZPFFQnD15CVl-rSyyP8SfFT4b3PfGAnsIGvU19dilaqUsPrPPoTDlILeaDZgGSGA4K74abEhe1A8DVzCTXF_2sUI588bs-nfUFEPx_knttT3rJ5029X2ISoA6iH39ba0BdgiwQkIuAeWV27XPcd-hI3RKehMkiizuhZkpcPEWzLmHqWNvJgeZ8vYlEPVWnL440gENALZ5NpQHEvWQisNq1vvQEhVJD9cKf538TkqXfK7gUDr51sGUfOkUabjebGa5WZkRYQuXDDqAqhRvfgU3N9LGv7o4IR3KVApCnqS9Jz6yQj1tFzZHKeFnyhDnlsu-nMgJVBTCaKDssSyayrRkHQfUd5XpIYJXVZYxMJOZe_VWpIKH0-b6N6aqTdPv-dP2R03HZwh-bXWKTrs56o18pJ2bMIA1DTaylrbqXv1f1qdvEvXAAAcHBXrHuDIeZ_77Z79YTUCS7BSqmiZ6wWWCkt1CfF46WNuG9T6eKye3Vfc49__Xb18vGcVXEbbf-dMK2qg2TXXXOp97x805w7bujbIL4qaRv47cVAzolqd-wNItIpeXUMGIJwSPos0NFojCptjm7Qnc7_Cut5tTjf9JdujetPvVsStRo5toPlBN9d5xV_JfILO4KfwxUHZ3nG5kdfmc7GZ-FlyOZ9yhTyPU6kUUmErt7JqOlQb2rmeZ7JxhUMSzR7g2wU1hZ6auFC_EduNzp-1lJfDuuoyjeq8_m40?></g></svg>