<?plantuml 1.2026.2?><svg xmlns="http://www.w3.org/2000/svg" xmlns:xlink="http://www.w3.org/1999/xlink" contentStyleType="text/css" data-diagram-type="DESCRIPTION" height="678.125px" preserveAspectRatio="none" style="width:586px;height:678px;" version="1.1" viewBox="0 0 586 678" width="586.4583px" zoomAndPan="magnify"><title>&#26550;&#26500;&#24635;&#35272;&#22270;</title><defs><linearGradient id="g1w4s2phklgoiz0" x1="50%" x2="50%" y1="0%" y2="100%"><stop offset="0%" stop-color="#FFFFFF"/><stop offset="100%" stop-color="#FFFFFF"/></linearGradient><linearGradient id="g1w4s2phklgoiz1" x1="50%" x2="50%" y1="0%" y2="100%"><stop offset="0%" stop-color="#4DABF5"/><stop offset="100%" stop-color="#2196F3"/></linearGradient></defs><g><g class="title" data-source-line="18"><rect fill="url(#g1w4s2phklgoiz0)" height="58.6528" rx="4.1667" ry="4.1667" style="stroke:#CCCCCC;stroke-width:1.0417;" width="137.5" x="219.9921" y="20.8333"/><text fill="#FFFFFF" font-family="'Verdana'" font-size="20.8333" font-weight="bold" lengthAdjust="spacing" textLength="104.1667" x="236.6587" y="58.4452">&#26550;&#26500;&#24635;&#35272;&#22270;</text></g><!--entity Router--><g class="entity" data-qualified-name="Router" data-source-line="22" id="ent0002"><ellipse cx="266.6565" cy="105.5278" fill="url(#g1w4s2phklgoiz1)" rx="8.3333" ry="8.3333" style="stroke:#2196F3;stroke-width:1.0417;"/><path d="M266.6565,113.8611 L266.6565,141.9861 M253.1148,122.1944 L280.1982,122.1944 M266.6565,141.9861 L253.1148,157.6111 M266.6565,141.9861 L280.1982,157.6111" fill="none" style="stroke:#2196F3;stroke-width:1.0417;"/><text fill="#FFFFFF" font-family="'Verdana'" font-size="12.5" lengthAdjust="spacing" textLength="280.188" x="126.5625" y="182.6782">workflowRouter.startWatchlistTimingPipeline</text></g><!--entity Service--><g class="entity" data-qualified-name="Service" data-source-line="23" id="ent0003"><rect fill="url(#g1w4s2phklgoiz0)" height="56.8583" rx="4.1667" ry="4.1667" style="stroke:#FFFFFF;stroke-width:2.0833;" width="209.9345" x="161.4583" y="296.1528"/><text fill="#FFFFFF" font-family="'Verdana'" font-size="12.5" lengthAdjust="spacing" textLength="168.2678" x="182.2917" y="329.5532">WorkflowCommandService</text></g><!--entity Repository--><g class="entity" data-qualified-name="Repository" data-source-line="24" id="ent0004"><rect fill="url(#g1w4s2phklgoiz0)" height="56.8583" rx="4.1667" ry="4.1667" style="stroke:#FFFFFF;stroke-width:2.0833;" width="233.6772" x="17.7083" y="453.4444"/><text fill="#FFFFFF" font-family="'Verdana'" font-size="12.5" lengthAdjust="spacing" textLength="192.0105" x="38.5417" y="486.8449">PrismaWorkflowRunRepository</text></g><!--entity RuntimeStore--><g class="entity" data-qualified-name="RuntimeStore" data-source-line="25" id="ent0005"><rect fill="url(#g1w4s2phklgoiz0)" height="56.8583" rx="4.1667" ry="4.1667" style="stroke:#FFFFFF;stroke-width:2.0833;" width="220.164" x="288.0208" y="453.4444"/><text fill="#FFFFFF" font-family="'Verdana'" font-size="12.5" lengthAdjust="spacing" textLength="178.4973" x="308.8542" y="486.8449">RedisWorkflowRuntimeStore</text></g><!--entity Template--><g class="entity" data-qualified-name="Template" data-source-line="26" id="ent0006"><rect fill="url(#g1w4s2phklgoiz0)" height="56.8583" rx="4.1667" ry="4.1667" style="stroke:#FFFFFF;stroke-width:2.0833;" width="203.2389" x="32.8125" y="610.7361"/><text fill="#FFFFFF" font-family="'Verdana'" font-size="12.5" lengthAdjust="spacing" textLength="161.5723" x="53.6458" y="644.1366">Watchlist timing template</text></g><!--link Router to Service--><g class="link" data-entity-1="ent0002" data-entity-2="ent0003" data-link-type="dependency" data-source-line="28" id="lnk7"><path d="M133.8333,196.3819 C104.7083,214.8507 87.4583,237.9965 106.25,264.9028 C119.5,283.8715 133.7716,294.3953 155.2716,303.1245" fill="none" id="Router-to-Service" style="stroke:#FFFFFF;stroke-width:3.125;"/><polygon fill="#FFFFFF" points="161.0625,305.4757,153.9436,298.0883,156.2367,303.5164,150.8087,305.8095,161.0625,305.4757" style="stroke:#FFFFFF;stroke-width:3.125;"/><text fill="#FFFFFF" font-family="'Verdana'" font-size="12.5" lengthAdjust="spacing" textLength="250.531" x="117.7083" y="251.4282">startWatchlistTimingPipeline(command)</text></g><!--link Service to Router--><g class="link" data-entity-1="ent0003" data-entity-2="ent0002" data-link-type="dependency" data-source-line="32" id="lnk11"><path d="M350.5104,296.0486 C363.5729,288.0486 375.3646,277.8507 383.3333,264.9028 C398.7917,239.7882 388.0314,219.8371 363.7397,200.2433" fill="none" id="Service-to-Router" style="stroke:#FFFFFF;stroke-width:3.125;"/><polygon fill="#FFFFFF" points="358.875,196.3194,363.5561,205.4484,362.9289,199.5893,368.788,198.9621,358.875,196.3194" style="stroke:#FFFFFF;stroke-width:3.125;"/><text fill="#FFFFFF" font-family="'Verdana'" font-size="12.5" lengthAdjust="spacing" textLength="161.8591" x="401.0417" y="251.4282">runId / status / createdAt</text></g><!--link Service to Repository--><g class="link" data-entity-1="ent0003" data-entity-2="ent0004" data-link-type="dependency" data-source-line="29" id="lnk8"><path d="M187.6667,353.4653 C173.6563,361.5694 160.5313,371.8298 151.0417,384.6944 C136.5313,404.3715 133.1482,426.1428 132.8982,446.9032" fill="none" id="Service-to-Repository" style="stroke:#FFFFFF;stroke-width:3.125;"/><polygon fill="#FFFFFF" points="132.8229,453.1528,137.1022,443.8286,132.8856,447.9448,128.7694,443.7283,132.8229,453.1528" style="stroke:#FFFFFF;stroke-width:3.125;"/><text fill="#FFFFFF" font-family="'Verdana'" font-size="12.5" lengthAdjust="spacing" textLength="167.6147" x="162.5" y="408.7199">&#26597;&#24130;&#31561; / &#21462;&#27169;&#26495; / createRun</text></g><!--link Repository to Template--><g class="link" data-entity-1="ent0004" data-entity-2="ent0006" data-link-type="dependency" data-source-line="30" id="lnk9"><path d="M134.375,510.8819 C134.375,539.0486 134.375,576.1528 134.375,604.3194" fill="none" id="Repository-to-Template" style="stroke:#FFFFFF;stroke-width:3.125;"/><polygon fill="#FFFFFF" points="134.375,610.5694,138.5417,601.1944,134.375,605.3611,130.2083,601.1944,134.375,610.5694" style="stroke:#FFFFFF;stroke-width:3.125;"/><text fill="#FFFFFF" font-family="'Verdana'" font-size="12.5" lengthAdjust="spacing" textLength="260.6689" x="145.8333" y="566.0116">ensureWatchlistTimingPipelineTemplate()</text></g><!--link Service to RuntimeStore--><g class="link" data-entity-1="ent0003" data-entity-2="ent0005" data-link-type="dependency" data-source-line="31" id="lnk10"><path d="M313.4583,353.4653 C326.0104,362.3507 338.8854,372.9757 348.9583,384.6944 C366.4479,405.0382 377.3356,426.9309 385.6064,447.3996" fill="none" id="Service-to-RuntimeStore" style="stroke:#FFFFFF;stroke-width:3.125;"/><polygon fill="#FFFFFF" points="387.9479,453.1944,388.2988,442.9412,385.9967,448.3654,380.5724,446.0632,387.9479,453.1944" style="stroke:#FFFFFF;stroke-width:3.125;"/><text fill="#FFFFFF" font-family="'Verdana'" font-size="12.5" lengthAdjust="spacing" textLength="166.4307" x="385.4167" y="408.7199">&#21462;&#28040; / &#24674;&#22797; / &#21457;&#24067;&#20107;&#20214;&#26102;&#20351;&#29992;</text></g><?plantuml-src ZPBFRjGm4CRlUGgpNCgXSEy1gHHLGkfXbLJgsN9cTwsDxM1FkjeR_mv5224a10T44GZKNdfT0HNqPJOfZy5a4oykQDFDoOv_tpVVZ7q3Hw20AOvW9O_SMEgSMwvO2WDUPBXhDEwOp5XsStVn1SYsjMQowd1FQbXrrkTYp8TmpzWKx2ee1e5S3xDhi1sZSgD1OpUMmCC2j83Ep1xQamEeywzdsUSMfP0vNpT38EWShq1vA77QRUgfTPpkIwwCJjSpRE4ktmJfsLpJSutyxu4ICs3LyQmwVbOzElzzSbI-_nN8t8YdPYBra0ruvY0u4Vw-4voIXVMl98guGAhGcnWx7cHc4fk2tlHjXpJj0uvYb4c7-rAHQL_caD7zzXXthE6YfH7h7RGEzBGKrsa2zb2A1cxN8TstqYdkDN6XOyYDavHbslWljw4gXbIwG8HIGK9GcoduSIMPxuFXeX66eFAC9hnGxRURA6fwOfkRTtrYjiMw9h4XcbvlHPwljN-Zaxpw-BNy_kJox3cxmyfNRwlJJzM72reB2rIJ4aS1Ngjz7DA2TeM55RKzj_5FyM06P56Nd1rHlUhnv_BBoqM8r-Mtf_CVB-Rdi-hTRFxpulBDwLMBPWnRp1RwGKeI6W4MRXawtSO_?></g></svg>