<?plantuml 1.2026.2?><svg xmlns="http://www.w3.org/2000/svg" xmlns:xlink="http://www.w3.org/1999/xlink" contentStyleType="text/css" data-diagram-type="ACTIVITY" height="1263.5417px" preserveAspectRatio="none" style="width:393px;height:1263px;" version="1.1" viewBox="0 0 393 1263" width="393.75px" zoomAndPan="magnify"><title>&#20027;&#27969;&#31243;&#27963;&#21160;&#22270;</title><defs><linearGradient id="g1qttu27ednri70" x1="50%" x2="50%" y1="0%" y2="100%"><stop offset="0%" stop-color="#FFFFFF"/><stop offset="100%" stop-color="#FFFFFF"/></linearGradient><filter height="300%" id="f1qttu27ednri7" width="300%" x="-1" y="-1"><feGaussianBlur result="blurOut" stdDeviation="2.0833"/><feColorMatrix in="blurOut" result="blurOut2" type="matrix" values="0 0 0 0 0 0 0 0 0 0 0 0 0 0 0 0 0 0 .4 0"/><feOffset dx="4.1667" dy="4.1667" in="blurOut2" result="blurOut3"/><feBlend in="SourceGraphic" in2="blurOut3" mode="normal"/></filter><linearGradient id="g1qttu27ednri71" x1="50%" x2="50%" y1="0%" y2="100%"><stop offset="0%" stop-color="#4DABF5"/><stop offset="100%" stop-color="#2196F3"/></linearGradient></defs><g><g class="title" data-source-line="18"><rect fill="url(#g1qttu27ednri70)" height="58.6528" rx="4.1667" ry="4.1667" style="stroke:#CCCCCC;stroke-width:1.0417;" width="158.3333" x="116.3717" y="20.8333"/><text fill="#FFFFFF" font-family="'Verdana'" font-size="20.8333" font-weight="bold" lengthAdjust="spacing" textLength="125" x="133.0383" y="58.4452">&#20027;&#27969;&#31243;&#27963;&#21160;&#22270;</text></g><ellipse cx="193.9758" cy="101.3611" fill="#9C27B0" filter="url(#f1qttu27ednri7)" rx="10.4167" ry="10.4167" style="stroke:#1A78C2;stroke-width:1.0417;"/><rect fill="url(#g1qttu27ednri71)" filter="url(#f1qttu27ednri7)" height="48.525" rx="4.1667" ry="4.1667" style="stroke:#FFFFFF;stroke-width:1.0417;" width="251.6378" x="68.1569" y="132.6111"/><text fill="#FFFFFF" font-family="'Verdana'" font-size="12.5" lengthAdjust="spacing" textLength="218.3044" x="84.8236" y="161.8449">&#36827;&#20837; startWatchlistTimingPipeline()</text><rect fill="url(#g1qttu27ednri71)" filter="url(#f1qttu27ednri7)" height="48.525" rx="4.1667" ry="4.1667" style="stroke:#FFFFFF;stroke-width:1.0417;" width="365.035" x="11.4583" y="201.9694"/><text fill="#FFFFFF" font-family="'Verdana'" font-size="12.5" lengthAdjust="spacing" textLength="331.7017" x="28.125" y="231.2032">&#32452;&#35013; query / input / templateCode / idempotencyKey</text><rect fill="url(#g1qttu27ednri71)" filter="url(#f1qttu27ednri7)" height="48.525" rx="4.1667" ry="4.1667" style="stroke:#FFFFFF;stroke-width:1.0417;" width="161.6048" x="113.1734" y="271.3277"/><text fill="#FFFFFF" font-family="'Verdana'" font-size="12.5" lengthAdjust="spacing" textLength="128.2715" x="129.8401" y="300.5615">&#35843;&#29992; startWorkflow()</text><rect fill="url(#g1qttu27ednri71)" filter="url(#f1qttu27ednri7)" height="48.525" rx="4.1667" ry="4.1667" style="stroke:#FFFFFF;stroke-width:1.0417;" width="199.6908" x="94.1305" y="413.4735"/><text fill="#FFFFFF" font-family="'Verdana'" font-size="12.5" lengthAdjust="spacing" textLength="166.3574" x="110.7971" y="442.7073">&#30452;&#25509;&#36820;&#22238;&#24050;&#26377; runId / status</text><ellipse cx="193.9758" cy="494.2902" fill="none" filter="url(#f1qttu27ednri7)" rx="11.4583" ry="11.4583" style="stroke:#1A78C2;stroke-width:1.0417;"/><ellipse cx="193.9758" cy="494.2902" fill="none" rx="6.25" ry="6.25" style="stroke:#1A78C2;stroke-width:1.0417;"/><polygon fill="url(#g1qttu27ednri70)" filter="url(#f1qttu27ednri7)" points="69.4631,340.686,318.4886,340.686,330.9886,358.6985,318.4886,376.711,69.4631,376.711,56.9631,358.6985,69.4631,340.686" style="stroke:#FFFFFF;stroke-width:1.0417;"/><text fill="#FFFFFF" font-family="'Verdana'" font-size="12.5" lengthAdjust="spacing" textLength="12.5" x="208.5592" y="399.6948">&#26159;</text><text fill="#FFFFFF" font-family="'Verdana'" font-size="12.5" lengthAdjust="spacing" textLength="228.1921" x="79.8798" y="363.6698">&#24130;&#31561;&#38190;&#21629;&#20013;&#24050;&#26377; pending/running run?</text><rect fill="url(#g1qttu27ednri71)" filter="url(#f1qttu27ednri7)" height="48.525" rx="4.1667" ry="4.1667" style="stroke:#FFFFFF;stroke-width:1.0417;" width="191.7989" x="98.0764" y="549.4985"/><text fill="#FFFFFF" font-family="'Verdana'" font-size="12.5" lengthAdjust="spacing" textLength="158.4656" x="114.743" y="578.7323">&#25353; templateCode &#26597;&#35810;&#27169;&#26495;</text><rect fill="url(#g1qttu27ednri71)" filter="url(#f1qttu27ednri7)" height="48.525" rx="4.1667" ry="4.1667" style="stroke:#FFFFFF;stroke-width:1.0417;" width="294.0023" x="46.9747" y="691.6443"/><text fill="#FFFFFF" font-family="'Verdana'" font-size="12.5" lengthAdjust="spacing" textLength="260.6689" x="63.6414" y="720.8781">ensureWatchlistTimingPipelineTemplate()</text><polygon fill="url(#g1qttu27ednri70)" filter="url(#f1qttu27ednri7)" points="155.1503,618.8568,232.8013,618.8568,245.3013,636.8693,232.8013,654.8818,155.1503,654.8818,142.6503,636.8693,155.1503,618.8568" style="stroke:#FFFFFF;stroke-width:1.0417;"/><text fill="#FFFFFF" font-family="'Verdana'" font-size="12.5" lengthAdjust="spacing" textLength="12.5" x="208.5592" y="677.8656">&#26159;</text><text fill="#FFFFFF" font-family="'Verdana'" font-size="12.5" lengthAdjust="spacing" textLength="56.8176" x="165.567" y="641.8406">&#27169;&#26495;&#32570;&#22833;?</text><polygon fill="url(#g1qttu27ednri70)" filter="url(#f1qttu27ednri7)" points="193.9758,761.0026,206.4758,773.5026,193.9758,786.0026,181.4758,773.5026,193.9758,761.0026" style="stroke:#FFFFFF;stroke-width:1.0417;"/><rect fill="url(#g1qttu27ednri71)" filter="url(#f1qttu27ednri7)" height="48.525" rx="4.1667" ry="4.1667" style="stroke:#FFFFFF;stroke-width:1.0417;" width="220.931" x="83.5103" y="806.8359"/><text fill="#FFFFFF" font-family="'Verdana'" font-size="12.5" lengthAdjust="spacing" textLength="187.5977" x="100.177" y="836.0697">&#20174; graphConfig &#25552;&#21462; nodeKeys</text><rect fill="url(#g1qttu27ednri71)" filter="url(#f1qttu27ednri7)" height="48.525" rx="4.1667" ry="4.1667" style="stroke:#FFFFFF;stroke-width:1.0417;" width="200.765" x="93.5933" y="948.9817"/><text fill="#FFFFFF" font-family="'Verdana'" font-size="12.5" lengthAdjust="spacing" textLength="167.4316" x="110.26" y="978.2155">&#25243;&#20986; WorkflowDomainError</text><ellipse cx="193.9758" cy="1029.7984" fill="none" filter="url(#f1qttu27ednri7)" rx="11.4583" ry="11.4583" style="stroke:#1A78C2;stroke-width:1.0417;"/><ellipse cx="193.9758" cy="1029.7984" fill="none" rx="6.25" ry="6.25" style="stroke:#1A78C2;stroke-width:1.0417;"/><polygon fill="url(#g1qttu27ednri70)" filter="url(#f1qttu27ednri7)" points="135.0789,876.1943,252.8727,876.1943,265.3727,894.2067,252.8727,912.2192,135.0789,912.2192,122.5789,894.2067,135.0789,876.1943" style="stroke:#FFFFFF;stroke-width:1.0417;"/><text fill="#FFFFFF" font-family="'Verdana'" font-size="12.5" lengthAdjust="spacing" textLength="12.5" x="208.5592" y="935.203">&#26159;</text><text fill="#FFFFFF" font-family="'Verdana'" font-size="12.5" lengthAdjust="spacing" textLength="96.9604" x="145.4956" y="899.1781">nodeKeys &#20026;&#31354;?</text><rect fill="url(#g1qttu27ednri71)" filter="url(#f1qttu27ednri7)" height="48.525" rx="4.1667" ry="4.1667" style="stroke:#FFFFFF;stroke-width:1.0417;" width="176.2594" x="105.8462" y="1085.0067"/><text fill="#FFFFFF" font-family="'Verdana'" font-size="12.5" lengthAdjust="spacing" textLength="142.926" x="122.5128" y="1114.2405">repository.createRun()</text><rect fill="url(#g1qttu27ednri71)" filter="url(#f1qttu27ednri7)" height="48.525" rx="4.1667" ry="4.1667" style="stroke:#FFFFFF;stroke-width:1.0417;" width="224.587" x="81.6823" y="1154.365"/><text fill="#FFFFFF" font-family="'Verdana'" font-size="12.5" lengthAdjust="spacing" textLength="191.2537" x="98.349" y="1183.5988">&#36820;&#22238; runId / status / createdAt</text><ellipse cx="193.9758" cy="1235.1817" fill="none" filter="url(#f1qttu27ednri7)" rx="11.4583" ry="11.4583" style="stroke:#1A78C2;stroke-width:1.0417;"/><ellipse cx="193.9758" cy="1235.1817" fill="none" rx="6.25" ry="6.25" style="stroke:#1A78C2;stroke-width:1.0417;"/><line style="stroke:#FFFFFF;stroke-width:3.125;" x1="193.9758" x2="193.9758" y1="111.7778" y2="132.6111"/><polygon fill="#FFFFFF" points="189.8092,122.1944,193.9758,132.6111,198.1425,122.1944,193.9758,126.3611" style="stroke:#FFFFFF;stroke-width:1.0417;"/><line style="stroke:#FFFFFF;stroke-width:3.125;" x1="193.9758" x2="193.9758" y1="181.1361" y2="201.9694"/><polygon fill="#FFFFFF" points="189.8092,191.5527,193.9758,201.9694,198.1425,191.5527,193.9758,195.7194" style="stroke:#FFFFFF;stroke-width:1.0417;"/><line style="stroke:#FFFFFF;stroke-width:3.125;" x1="193.9758" x2="193.9758" y1="250.4944" y2="271.3277"/><polygon fill="#FFFFFF" points="189.8092,260.9111,193.9758,271.3277,198.1425,260.9111,193.9758,265.0777" style="stroke:#FFFFFF;stroke-width:1.0417;"/><line style="stroke:#FFFFFF;stroke-width:3.125;" x1="193.9758" x2="193.9758" y1="461.9985" y2="482.8318"/><polygon fill="#FFFFFF" points="189.8092,472.4152,193.9758,482.8318,198.1425,472.4152,193.9758,476.5818" style="stroke:#FFFFFF;stroke-width:1.0417;"/><line style="stroke:#FFFFFF;stroke-width:3.125;" x1="193.9758" x2="193.9758" y1="376.711" y2="413.4735"/><polygon fill="#FFFFFF" points="189.8092,403.0568,193.9758,413.4735,198.1425,403.0568,193.9758,407.2235" style="stroke:#FFFFFF;stroke-width:1.0417;"/><line style="stroke:#FFFFFF;stroke-width:3.125;" x1="330.9886" x2="343.4886" y1="358.6985" y2="358.6985"/><polygon fill="#FFFFFF" points="339.3219,451.1256,343.4886,461.5423,347.6552,451.1256,343.4886,455.2923" style="stroke:#FFFFFF;stroke-width:3.125;"/><line style="stroke:#FFFFFF;stroke-width:3.125;" x1="343.4886" x2="343.4886" y1="358.6985" y2="528.6652"/><line style="stroke:#FFFFFF;stroke-width:3.125;" x1="343.4886" x2="193.9758" y1="528.6652" y2="528.6652"/><line style="stroke:#FFFFFF;stroke-width:3.125;" x1="193.9758" x2="193.9758" y1="528.6652" y2="549.4985"/><polygon fill="#FFFFFF" points="189.8092,539.0818,193.9758,549.4985,198.1425,539.0818,193.9758,543.2485" style="stroke:#FFFFFF;stroke-width:1.0417;"/><line style="stroke:#FFFFFF;stroke-width:3.125;" x1="193.9758" x2="193.9758" y1="319.8527" y2="340.686"/><polygon fill="#FFFFFF" points="189.8092,330.2694,193.9758,340.686,198.1425,330.2694,193.9758,334.436" style="stroke:#FFFFFF;stroke-width:1.0417;"/><line style="stroke:#FFFFFF;stroke-width:3.125;" x1="193.9758" x2="193.9758" y1="654.8818" y2="691.6443"/><polygon fill="#FFFFFF" points="189.8092,681.2276,193.9758,691.6443,198.1425,681.2276,193.9758,685.3943" style="stroke:#FFFFFF;stroke-width:1.0417;"/><line style="stroke:#FFFFFF;stroke-width:3.125;" x1="245.3013" x2="351.3936" y1="636.8693" y2="636.8693"/><polygon fill="#FFFFFF" points="347.227,713.1505,351.3936,723.5672,355.5603,713.1505,351.3936,717.3172" style="stroke:#FFFFFF;stroke-width:3.125;"/><line style="stroke:#FFFFFF;stroke-width:3.125;" x1="351.3936" x2="351.3936" y1="636.8693" y2="773.5026"/><line style="stroke:#FFFFFF;stroke-width:3.125;" x1="351.3936" x2="206.4758" y1="773.5026" y2="773.5026"/><polygon fill="#FFFFFF" points="216.8925,769.3359,206.4758,773.5026,216.8925,777.6693,212.7258,773.5026" style="stroke:#FFFFFF;stroke-width:1.0417;"/><line style="stroke:#FFFFFF;stroke-width:3.125;" x1="193.9758" x2="193.9758" y1="740.1693" y2="761.0026"/><polygon fill="#FFFFFF" points="189.8092,750.5859,193.9758,761.0026,198.1425,750.5859,193.9758,754.7526" style="stroke:#FFFFFF;stroke-width:1.0417;"/><line style="stroke:#FFFFFF;stroke-width:3.125;" x1="193.9758" x2="193.9758" y1="598.0235" y2="618.8568"/><polygon fill="#FFFFFF" points="189.8092,608.4401,193.9758,618.8568,198.1425,608.4401,193.9758,612.6068" style="stroke:#FFFFFF;stroke-width:1.0417;"/><line style="stroke:#FFFFFF;stroke-width:3.125;" x1="193.9758" x2="193.9758" y1="786.0026" y2="806.8359"/><polygon fill="#FFFFFF" points="189.8092,796.4193,193.9758,806.8359,198.1425,796.4193,193.9758,800.5859" style="stroke:#FFFFFF;stroke-width:1.0417;"/><line style="stroke:#FFFFFF;stroke-width:3.125;" x1="193.9758" x2="193.9758" y1="997.5067" y2="1018.34"/><polygon fill="#FFFFFF" points="189.8092,1007.9234,193.9758,1018.34,198.1425,1007.9234,193.9758,1012.09" style="stroke:#FFFFFF;stroke-width:1.0417;"/><line style="stroke:#FFFFFF;stroke-width:3.125;" x1="193.9758" x2="193.9758" y1="912.2192" y2="948.9817"/><polygon fill="#FFFFFF" points="189.8092,938.5651,193.9758,948.9817,198.1425,938.5651,193.9758,942.7317" style="stroke:#FFFFFF;stroke-width:1.0417;"/><line style="stroke:#FFFFFF;stroke-width:3.125;" x1="265.3727" x2="304.775" y1="894.2067" y2="894.2067"/><polygon fill="#FFFFFF" points="300.6083,986.6338,304.775,997.0505,308.9417,986.6338,304.775,990.8005" style="stroke:#FFFFFF;stroke-width:3.125;"/><line style="stroke:#FFFFFF;stroke-width:3.125;" x1="304.775" x2="304.775" y1="894.2067" y2="1064.1734"/><line style="stroke:#FFFFFF;stroke-width:3.125;" x1="304.775" x2="193.9758" y1="1064.1734" y2="1064.1734"/><line style="stroke:#FFFFFF;stroke-width:3.125;" x1="193.9758" x2="193.9758" y1="1064.1734" y2="1085.0067"/><polygon fill="#FFFFFF" points="189.8092,1074.59,193.9758,1085.0067,198.1425,1074.59,193.9758,1078.7567" style="stroke:#FFFFFF;stroke-width:1.0417;"/><line style="stroke:#FFFFFF;stroke-width:3.125;" x1="193.9758" x2="193.9758" y1="855.3609" y2="876.1943"/><polygon fill="#FFFFFF" points="189.8092,865.7776,193.9758,876.1943,198.1425,865.7776,193.9758,869.9443" style="stroke:#FFFFFF;stroke-width:1.0417;"/><line style="stroke:#FFFFFF;stroke-width:3.125;" x1="193.9758" x2="193.9758" y1="1133.5317" y2="1154.365"/><polygon fill="#FFFFFF" points="189.8092,1143.9484,193.9758,1154.365,198.1425,1143.9484,193.9758,1148.115" style="stroke:#FFFFFF;stroke-width:1.0417;"/><line style="stroke:#FFFFFF;stroke-width:3.125;" x1="193.9758" x2="193.9758" y1="1202.89" y2="1223.7233"/><polygon fill="#FFFFFF" points="189.8092,1213.3067,193.9758,1223.7233,198.1425,1213.3067,193.9758,1217.4733" style="stroke:#FFFFFF;stroke-width:1.0417;"/><?plantuml-src ZLFBRjD05DtxAmQnIJPqdonGIQc4w29gAx4UsTV9AFQC6LzJPScZGYce1Ib2bSn3F2A5HIcW8ae2v6VYSVWBhkDOAaH9uysypfnpxhcUAzW47vZF4RJWLjWICk2Q-ym1bqSURYg9DUKfpQvkJhyBa7MjrTwYmoqXOT5PdTijte0RIZkW5u6smKOk6zubi9ho0oL1udBO3joDGDgmr7C1sX8kPFvNewnpZS8M0L_LmuKBI-ErKTmJs5vEMg1MOTeGt5VIMOrm1bx6kuFqsrnISmQPvq217h3n-T1ykv_sdvYpONBGJ-BVLeWKZbMPZE9alyUcgpiSxQOdGjmLlf2DkWZ0e-QKobMhaWuVJTxlCyfLjzaQ8zK8QKJm0u-4Qyg1RDkXjKBAldqRsdHjylbXsktFw9LkkPxQo_Y4oqh9ZmVfIUTFzrFo_DVu_2Jv_jMyxB00f4FYQpgIaaP6u_KoeySZMSaSdvOjnYffV6OEUvDHDubVpwuHx9P33aW9ex1Ag11LO6LahcLLpDFElrxDczxaz9tflpMlHhcTV9x-72GVlimfWWmZ3Gi2sfqHPuKLWkFX8Mje7ZHhIhgYmSpHi-Je1PEaJSc4kMIneluCqe-3ELLp42UF1wm8RaFvNCYRzB3qN84Q0XKALBfzpTP0PhOZEMrSdj9_-T0aHpdhMBKoehy0?></g></svg>