<?plantuml 1.2026.2?><svg xmlns="http://www.w3.org/2000/svg" xmlns:xlink="http://www.w3.org/1999/xlink" contentStyleType="text/css" data-diagram-type="ACTIVITY" height="601.0417px" preserveAspectRatio="none" style="width:310px;height:601px;" version="1.1" viewBox="0 0 310 601" width="310.4167px" zoomAndPan="magnify"><title>&#20027;&#27969;&#31243;&#27963;&#21160;&#22270;</title><defs><linearGradient id="gmaz6nrq4cd900" x1="50%" x2="50%" y1="0%" y2="100%"><stop offset="0%" stop-color="#FFFFFF"/><stop offset="100%" stop-color="#FFFFFF"/></linearGradient><filter height="300%" id="fmaz6nrq4cd90" width="300%" x="-1" y="-1"><feGaussianBlur result="blurOut" stdDeviation="2.0833"/><feColorMatrix in="blurOut" result="blurOut2" type="matrix" values="0 0 0 0 0 0 0 0 0 0 0 0 0 0 0 0 0 0 .4 0"/><feOffset dx="4.1667" dy="4.1667" in="blurOut2" result="blurOut3"/><feBlend in="SourceGraphic" in2="blurOut3" mode="normal"/></filter><linearGradient id="gmaz6nrq4cd901" x1="50%" x2="50%" y1="0%" y2="100%"><stop offset="0%" stop-color="#4DABF5"/><stop offset="100%" stop-color="#2196F3"/></linearGradient></defs><g><g class="title" data-source-line="18"><rect fill="url(#gmaz6nrq4cd900)" height="58.6528" rx="4.1667" ry="4.1667" style="stroke:#CCCCCC;stroke-width:1.0417;" width="158.3333" x="74.763" y="20.8333"/><text fill="#FFFFFF" font-family="'Verdana'" font-size="20.8333" font-weight="bold" lengthAdjust="spacing" textLength="125" x="91.4296" y="58.4452">&#20027;&#27969;&#31243;&#27963;&#21160;&#22270;</text></g><ellipse cx="152.3671" cy="101.3611" fill="#FFFFFF" filter="url(#fmaz6nrq4cd90)" rx="10.4167" ry="10.4167" style="stroke:#FFFFFF;stroke-width:1.0417;"/><rect fill="url(#gmaz6nrq4cd901)" filter="url(#fmaz6nrq4cd90)" height="48.525" rx="4.1667" ry="4.1667" style="stroke:#FFFFFF;stroke-width:1.0417;" width="159.1451" x="72.7946" y="132.6111"/><text fill="#FFFFFF" font-family="'Verdana'" font-size="12.5" lengthAdjust="spacing" textLength="125.8118" x="89.4613" y="161.8449">&#36827;&#20837;&#20837;&#21475; formatDate</text><rect fill="url(#gmaz6nrq4cd901)" filter="url(#fmaz6nrq4cd90)" height="48.525" rx="4.1667" ry="4.1667" style="stroke:#FFFFFF;stroke-width:1.0417;" width="133.3333" x="85.7005" y="201.9694"/><text fill="#FFFFFF" font-family="'Verdana'" font-size="12.5" lengthAdjust="spacing" textLength="100" x="102.3671" y="231.2032">&#20934;&#22791;&#36755;&#20837;&#19982;&#19978;&#19979;&#25991;</text><rect fill="url(#gmaz6nrq4cd901)" filter="url(#fmaz6nrq4cd90)" height="48.525" rx="4.1667" ry="4.1667" style="stroke:#FFFFFF;stroke-width:1.0417;" width="120.8333" x="91.9505" y="271.3277"/><text fill="#FFFFFF" font-family="'Verdana'" font-size="12.5" lengthAdjust="spacing" textLength="87.5" x="108.6171" y="300.5615">&#25191;&#34892;&#20027;&#27969;&#31243;&#32534;&#25490;</text><polygon fill="url(#gmaz6nrq4cd900)" filter="url(#fmaz6nrq4cd90)" points="88.5417,340.686,216.1926,340.686,228.6926,358.6985,216.1926,376.711,88.5417,376.711,76.0417,358.6985,88.5417,340.686" style="stroke:#FFFFFF;stroke-width:1.0417;"/><text fill="#FFFFFF" font-family="'Verdana'" font-size="12.5" lengthAdjust="spacing" textLength="106.8176" x="98.9583" y="363.6698">&#26159;&#21542;&#21629;&#20013;&#20851;&#38190;&#20998;&#25903;?</text><text fill="#FFFFFF" font-family="'Verdana'" font-size="12.5" lengthAdjust="spacing" textLength="12.5" x="53.125" y="345.6573">&#26159;</text><text fill="#FFFFFF" font-family="'Verdana'" font-size="12.5" lengthAdjust="spacing" textLength="12.5" x="239.1093" y="345.6573">&#21542;</text><rect fill="url(#gmaz6nrq4cd901)" filter="url(#fmaz6nrq4cd90)" height="48.525" rx="4.1667" ry="4.1667" style="stroke:#FFFFFF;stroke-width:1.0417;" width="108.3333" x="11.4583" y="387.1277"/><text fill="#FFFFFF" font-family="'Verdana'" font-size="12.5" lengthAdjust="spacing" textLength="75" x="28.125" y="416.3615">&#36827;&#20837;&#26465;&#20214;&#36335;&#24452;</text><rect fill="url(#gmaz6nrq4cd901)" filter="url(#fmaz6nrq4cd90)" height="48.525" rx="4.1667" ry="4.1667" style="stroke:#FFFFFF;stroke-width:1.0417;" width="108.3333" x="184.9426" y="387.1277"/><text fill="#FFFFFF" font-family="'Verdana'" font-size="12.5" lengthAdjust="spacing" textLength="75" x="201.6093" y="416.3615">&#32487;&#32493;&#20027;&#32447;&#36335;&#24452;</text><polygon fill="url(#gmaz6nrq4cd900)" filter="url(#fmaz6nrq4cd90)" points="152.3671,446.0693,164.8671,458.5693,152.3671,471.0693,139.8671,458.5693,152.3671,446.0693" style="stroke:#FFFFFF;stroke-width:1.0417;"/><rect fill="url(#gmaz6nrq4cd901)" filter="url(#fmaz6nrq4cd90)" height="48.525" rx="4.1667" ry="4.1667" style="stroke:#FFFFFF;stroke-width:1.0417;" width="120.8333" x="91.9505" y="491.9027"/><text fill="#FFFFFF" font-family="'Verdana'" font-size="12.5" lengthAdjust="spacing" textLength="87.5" x="108.6171" y="521.1365">&#27719;&#24635;&#36755;&#20986;&#24182;&#36820;&#22238;</text><ellipse cx="152.3671" cy="572.7193" fill="none" filter="url(#fmaz6nrq4cd90)" rx="11.4583" ry="11.4583" style="stroke:#FFFFFF;stroke-width:1.0417;"/><ellipse cx="152.3671" cy="572.7193" fill="none" rx="6.25" ry="6.25" style="stroke:#FFFFFF;stroke-width:1.0417;"/><line style="stroke:#FFFFFF;stroke-width:3.125;" x1="152.3671" x2="152.3671" y1="111.7778" y2="132.6111"/><polygon fill="#FFFFFF" points="148.2005,122.1944,152.3671,132.6111,156.5338,122.1944,152.3671,126.3611" style="stroke:#FFFFFF;stroke-width:1.0417;"/><line style="stroke:#FFFFFF;stroke-width:3.125;" x1="152.3671" x2="152.3671" y1="181.1361" y2="201.9694"/><polygon fill="#FFFFFF" points="148.2005,191.5527,152.3671,201.9694,156.5338,191.5527,152.3671,195.7194" style="stroke:#FFFFFF;stroke-width:1.0417;"/><line style="stroke:#FFFFFF;stroke-width:3.125;" x1="152.3671" x2="152.3671" y1="250.4944" y2="271.3277"/><polygon fill="#FFFFFF" points="148.2005,260.9111,152.3671,271.3277,156.5338,260.9111,152.3671,265.0777" style="stroke:#FFFFFF;stroke-width:1.0417;"/><line style="stroke:#FFFFFF;stroke-width:3.125;" x1="76.0417" x2="65.625" y1="358.6985" y2="358.6985"/><line style="stroke:#FFFFFF;stroke-width:3.125;" x1="65.625" x2="65.625" y1="358.6985" y2="387.1277"/><polygon fill="#FFFFFF" points="61.4583,376.711,65.625,387.1277,69.7917,376.711,65.625,380.8777" style="stroke:#FFFFFF;stroke-width:1.0417;"/><line style="stroke:#FFFFFF;stroke-width:3.125;" x1="228.6926" x2="239.1093" y1="358.6985" y2="358.6985"/><line style="stroke:#FFFFFF;stroke-width:3.125;" x1="239.1093" x2="239.1093" y1="358.6985" y2="387.1277"/><polygon fill="#FFFFFF" points="234.9426,376.711,239.1093,387.1277,243.276,376.711,239.1093,380.8777" style="stroke:#FFFFFF;stroke-width:1.0417;"/><line style="stroke:#FFFFFF;stroke-width:3.125;" x1="65.625" x2="65.625" y1="435.6527" y2="458.5693"/><line style="stroke:#FFFFFF;stroke-width:3.125;" x1="65.625" x2="139.8671" y1="458.5693" y2="458.5693"/><polygon fill="#FFFFFF" points="129.4505,454.4027,139.8671,458.5693,129.4505,462.736,133.6171,458.5693" style="stroke:#FFFFFF;stroke-width:1.0417;"/><line style="stroke:#FFFFFF;stroke-width:3.125;" x1="239.1093" x2="239.1093" y1="435.6527" y2="458.5693"/><line style="stroke:#FFFFFF;stroke-width:3.125;" x1="239.1093" x2="164.8671" y1="458.5693" y2="458.5693"/><polygon fill="#FFFFFF" points="175.2838,454.4027,164.8671,458.5693,175.2838,462.736,171.1171,458.5693" style="stroke:#FFFFFF;stroke-width:1.0417;"/><line style="stroke:#FFFFFF;stroke-width:3.125;" x1="152.3671" x2="152.3671" y1="319.8527" y2="340.686"/><polygon fill="#FFFFFF" points="148.2005,330.2694,152.3671,340.686,156.5338,330.2694,152.3671,334.436" style="stroke:#FFFFFF;stroke-width:1.0417;"/><line style="stroke:#FFFFFF;stroke-width:3.125;" x1="152.3671" x2="152.3671" y1="471.0693" y2="491.9027"/><polygon fill="#FFFFFF" points="148.2005,481.486,152.3671,491.9027,156.5338,481.486,152.3671,485.6527" style="stroke:#FFFFFF;stroke-width:1.0417;"/><line style="stroke:#FFFFFF;stroke-width:3.125;" x1="152.3671" x2="152.3671" y1="540.4277" y2="561.261"/><polygon fill="#FFFFFF" points="148.2005,550.8443,152.3671,561.261,156.5338,550.8443,152.3671,555.011" style="stroke:#FFFFFF;stroke-width:1.0417;"/><?plantuml-src ZPFDJW8n58NtynGrRl0LP64Kmue5aITeXWusphHOYiQT9i8e67y9CI6Q47zWWyIeE38ABpFjZ6zX8K1830DDT-Uxf-VUt2xnRMGXO46E68PQRWUJB6JG0cbamBp9uvJm63Kf0ylnuPb2rXcZ-xF412PebfQ4-WxCe0tAqeZDWhQGpY79c7Em6BMob232mx4KsiqZegFGp6CeWGqqoB-OPH8oZdMSXOjcc2e87Q_EyHxc1-6cOseHfqqCBKhIYncEu33V55ThCwVd0VBVWsDk8k0vhlmuyfjb-UwAKbFKUbgEg-5egq6_9WfFWtln00pAr7vkAgEejYhiedYqWzwD4Ztdt7DAdbEMLLj9yhGHrCycflvtLPvVHpLiW8YyROlBPt7rupajKNZxhRo8awAijDTMWFe0P0YiQ02C7fPtTS_j19zjqJkEQiZC8H1HzKF2Tnk-srAl-Dt-X21fRAW0hxOyT0VPxAxuwWJzYgZTHrLFDFi7?></g></svg>