<?plantuml 1.2026.2?><svg xmlns="http://www.w3.org/2000/svg" xmlns:xlink="http://www.w3.org/1999/xlink" contentStyleType="text/css" data-diagram-type="DESCRIPTION" height="520.8333px" preserveAspectRatio="none" style="width:3244px;height:520px;" version="1.1" viewBox="0 0 3244 520" width="3244.7917px" zoomAndPan="magnify"><title>&#26550;&#26500;&#24635;&#35272;&#22270;</title><defs><linearGradient id="gm1n13iqjy4490" x1="50%" x2="50%" y1="0%" y2="100%"><stop offset="0%" stop-color="#FFFFFF"/><stop offset="100%" stop-color="#FFFFFF"/></linearGradient><linearGradient id="gm1n13iqjy4491" x1="50%" x2="50%" y1="0%" y2="100%"><stop offset="0%" stop-color="#4DABF5"/><stop offset="100%" stop-color="#2196F3"/></linearGradient></defs><g><g class="title" data-source-line="18"><rect fill="url(#gm1n13iqjy4490)" height="58.6528" rx="4.1667" ry="4.1667" style="stroke:#CCCCCC;stroke-width:1.0417;" width="137.5" x="1549.0987" y="20.8333"/><text fill="#FFFFFF" font-family="'Verdana'" font-size="20.8333" font-weight="bold" lengthAdjust="spacing" textLength="104.1667" x="1565.7654" y="58.4452">&#26550;&#26500;&#24635;&#35272;&#22270;</text></g><!--entity Runner--><g class="entity" data-qualified-name="Runner" data-source-line="22" id="ent0002"><ellipse cx="1600.5208" cy="105.5278" fill="url(#gm1n13iqjy4491)" rx="8.3333" ry="8.3333" style="stroke:#2196F3;stroke-width:1.0417;"/><path d="M1600.5208,113.8611 L1600.5208,141.9861 M1586.9792,122.1944 L1614.0625,122.1944 M1600.5208,141.9861 L1586.9792,157.6111 M1600.5208,141.9861 L1614.0625,157.6111" fill="none" style="stroke:#2196F3;stroke-width:1.0417;"/><text fill="#FFFFFF" font-family="'Verdana'" font-size="12.5" lengthAdjust="spacing" textLength="75" x="1563.0208" y="182.6782">&#24037;&#20316;&#27969;&#25191;&#34892;&#22120;</text></g><!--entity Graph--><g class="entity" data-qualified-name="Graph" data-source-line="23" id="ent0003"><rect fill="url(#gm1n13iqjy4490)" height="56.8583" rx="4.1667" ry="4.1667" style="stroke:#FFFFFF;stroke-width:2.0833;" width="258.4147" x="1471.3542" y="296.1528"/><text fill="#FFFFFF" font-family="'Verdana'" font-size="12.5" lengthAdjust="spacing" textLength="216.748" x="1492.1875" y="329.5532">WatchlistTimingPipelineLangGraph</text></g><!--entity WatchListRepo--><g class="entity" data-qualified-name="WatchListRepo" data-source-line="24" id="ent0004"><rect fill="url(#gm1n13iqjy4490)" height="56.8583" rx="4.1667" ry="4.1667" style="stroke:#FFFFFF;stroke-width:2.0833;" width="211.8876" x="17.7083" y="453.4444"/><text fill="#FFFFFF" font-family="'Verdana'" font-size="12.5" lengthAdjust="spacing" textLength="170.2209" x="38.5417" y="486.8449">PrismaWatchListRepository</text></g><!--entity SnapshotRepo--><g class="entity" data-qualified-name="SnapshotRepo" data-source-line="25" id="ent0005"><rect fill="url(#gm1n13iqjy4490)" height="56.8583" rx="4.1667" ry="4.1667" style="stroke:#FFFFFF;stroke-width:2.0833;" width="261.3444" x="265.625" y="453.4444"/><text fill="#FFFFFF" font-family="'Verdana'" font-size="12.5" lengthAdjust="spacing" textLength="219.6777" x="286.4583" y="486.8449">PrismaPortfolioSnapshotRepository</text></g><!--entity PresetRepo--><g class="entity" data-qualified-name="PresetRepo" data-source-line="26" id="ent0006"><rect fill="url(#gm1n13iqjy4490)" height="56.8583" rx="4.1667" ry="4.1667" style="stroke:#FFFFFF;stroke-width:2.0833;" width="232.4687" x="563.5417" y="453.4444"/><text fill="#FFFFFF" font-family="'Verdana'" font-size="12.5" lengthAdjust="spacing" textLength="190.802" x="584.375" y="486.8449">PrismaTimingPresetRepository</text></g><!--entity TimingDataClient--><g class="entity" data-qualified-name="TimingDataClient" data-source-line="27" id="ent0007"><rect fill="url(#gm1n13iqjy4490)" height="56.8583" rx="4.1667" ry="4.1667" style="stroke:#FFFFFF;stroke-width:2.0833;" width="192.7958" x="832.2917" y="453.4444"/><text fill="#FFFFFF" font-family="'Verdana'" font-size="12.5" lengthAdjust="spacing" textLength="151.1292" x="853.125" y="486.8449">PythonTimingDataClient</text></g><!--entity AnalysisService--><g class="entity" data-qualified-name="AnalysisService" data-source-line="28" id="ent0008"><rect fill="url(#gm1n13iqjy4490)" height="56.8583" rx="4.1667" ry="4.1667" style="stroke:#FFFFFF;stroke-width:2.0833;" width="181.4433" x="1061.9792" y="453.4444"/><text fill="#FFFFFF" font-family="'Verdana'" font-size="12.5" lengthAdjust="spacing" textLength="139.7766" x="1082.8125" y="486.8449">TimingAnalysisService</text></g><!--entity MarketRepo--><g class="entity" data-qualified-name="MarketRepo" data-source-line="29" id="ent0009"><rect fill="url(#gm1n13iqjy4490)" height="56.8583" rx="4.1667" ry="4.1667" style="stroke:#FFFFFF;stroke-width:2.0833;" width="344.0165" x="1279.6875" y="453.4444"/><text fill="#FFFFFF" font-family="'Verdana'" font-size="12.5" lengthAdjust="spacing" textLength="302.3499" x="1300.5208" y="486.8449">PrismaTimingMarketContextSnapshotRepository</text></g><!--entity MarketRegimeService--><g class="entity" data-qualified-name="MarketRegimeService" data-source-line="30" id="ent0010"><rect fill="url(#gm1n13iqjy4490)" height="56.8583" rx="4.1667" ry="4.1667" style="stroke:#FFFFFF;stroke-width:2.0833;" width="177.8849" x="1660.4167" y="453.4444"/><text fill="#FFFFFF" font-family="'Verdana'" font-size="12.5" lengthAdjust="spacing" textLength="136.2183" x="1681.25" y="486.8449">MarketRegimeService</text></g><!--entity RiskManager--><g class="entity" data-qualified-name="RiskManager" data-source-line="31" id="ent0011"><rect fill="url(#gm1n13iqjy4490)" height="56.8583" rx="4.1667" ry="4.1667" style="stroke:#FFFFFF;stroke-width:2.0833;" width="225.352" x="1875.5208" y="453.4444"/><text fill="#FFFFFF" font-family="'Verdana'" font-size="12.5" lengthAdjust="spacing" textLength="183.6853" x="1896.3542" y="486.8449">WatchlistRiskManagerService</text></g><!--entity FeedbackService--><g class="entity" data-qualified-name="FeedbackService" data-source-line="32" id="ent0012"><rect fill="url(#gm1n13iqjy4490)" height="56.8583" rx="4.1667" ry="4.1667" style="stroke:#FFFFFF;stroke-width:2.0833;" width="189.268" x="2136.9792" y="453.4444"/><text fill="#FFFFFF" font-family="'Verdana'" font-size="12.5" lengthAdjust="spacing" textLength="147.6013" x="2157.8125" y="486.8449">TimingFeedbackService</text></g><!--entity PortfolioManager--><g class="entity" data-qualified-name="PortfolioManager" data-source-line="33" id="ent0013"><rect fill="url(#gm1n13iqjy4490)" height="56.8583" rx="4.1667" ry="4.1667" style="stroke:#FFFFFF;stroke-width:2.0833;" width="251.1332" x="2363.5417" y="453.4444"/><text fill="#FFFFFF" font-family="'Verdana'" font-size="12.5" lengthAdjust="spacing" textLength="209.4666" x="2384.375" y="486.8449">WatchlistPortfolioManagerService</text></g><!--entity RecommendationRepo--><g class="entity" data-qualified-name="RecommendationRepo" data-source-line="34" id="ent0014"><rect fill="url(#gm1n13iqjy4490)" height="56.8583" rx="4.1667" ry="4.1667" style="stroke:#FFFFFF;stroke-width:2.0833;" width="302.3234" x="2651.5625" y="453.4444"/><text fill="#FFFFFF" font-family="'Verdana'" font-size="12.5" lengthAdjust="spacing" textLength="260.6567" x="2672.3958" y="486.8449">PrismaTimingRecommendationRepository</text></g><!--entity ReviewService--><g class="entity" data-qualified-name="ReviewService" data-source-line="35" id="ent0015"><rect fill="url(#gm1n13iqjy4490)" height="56.8583" rx="4.1667" ry="4.1667" style="stroke:#FFFFFF;stroke-width:2.0833;" width="243.5099" x="2990.1042" y="453.4444"/><text fill="#FFFFFF" font-family="'Verdana'" font-size="12.5" lengthAdjust="spacing" textLength="201.8433" x="3010.9375" y="486.8449">TimingReviewSchedulingService</text></g><!--link Runner to Graph--><g class="link" data-entity-1="ent0002" data-entity-2="ent0003" data-link-type="dependency" data-source-line="37" id="lnk16"><path d="M1600.5208,196.3819 C1600.5208,228.4132 1600.5208,262.8194 1600.5208,289.4653" fill="none" id="Runner-to-Graph" style="stroke:#FFFFFF;stroke-width:3.125;"/><polygon fill="#FFFFFF" points="1600.5208,295.7153,1604.6875,286.3403,1600.5208,290.5069,1596.3542,286.3403,1600.5208,295.7153" style="stroke:#FFFFFF;stroke-width:3.125;"/><text fill="#FFFFFF" font-family="'Verdana'" font-size="12.5" lengthAdjust="spacing" textLength="113.0493" x="1611.9792" y="251.4282">&#25353;&#33410;&#28857;&#39034;&#24207;&#25191;&#34892; run</text></g><!--link Graph to WatchListRepo--><g class="link" data-entity-1="ent0003" data-entity-2="ent0004" data-link-type="dependency" data-source-line="38" id="lnk17"><path d="M1470.9375,327.8819 C1206.7917,332.7465 614.25,347.559 415.1042,384.6944 C335.6771,399.5069 253.9326,428.2445 195.6722,451.109" fill="none" id="Graph-to-WatchListRepo" style="stroke:#FFFFFF;stroke-width:3.125;"/><polygon fill="#FFFFFF" points="189.8542,453.3923,200.1034,453.846,194.7025,451.4896,197.059,446.0887,189.8542,453.3923" style="stroke:#FFFFFF;stroke-width:3.125;"/><text fill="#FFFFFF" font-family="'Verdana'" font-size="12.5" lengthAdjust="spacing" textLength="100" x="426.5625" y="408.7199">&#35835;&#21462;&#33258;&#36873;&#32929;&#19978;&#19979;&#25991;</text></g><!--link Graph to SnapshotRepo--><g class="link" data-entity-1="ent0003" data-entity-2="ent0005" data-link-type="dependency" data-source-line="39" id="lnk18"><path d="M1471.1042,329.9236 C1254.5938,337.4757 828.1875,355.5278 680.7292,384.6944 C603.5104,399.9653 524.2523,428.4288 467.4606,451.1059" fill="none" id="Graph-to-SnapshotRepo" style="stroke:#FFFFFF;stroke-width:3.125;"/><polygon fill="#FFFFFF" points="461.6563,453.4236,471.9079,453.8166,466.4932,451.4922,468.8177,446.0774,461.6563,453.4236" style="stroke:#FFFFFF;stroke-width:3.125;"/><text fill="#FFFFFF" font-family="'Verdana'" font-size="12.5" lengthAdjust="spacing" textLength="75" x="692.1875" y="408.7199">&#35835;&#21462;&#32452;&#21512;&#24555;&#29031;</text></g><!--link Graph to PresetRepo--><g class="link" data-entity-1="ent0003" data-entity-2="ent0006" data-link-type="dependency" data-source-line="40" id="lnk19"><path d="M1471.1875,330.9548 C1295.7708,338.8507 992.0208,356.1319 884.8958,384.6944 C827.4688,400.0069 771.8481,427.7224 731.4002,450.389" fill="none" id="Graph-to-PresetRepo" style="stroke:#FFFFFF;stroke-width:3.125;"/><polygon fill="#FFFFFF" points="725.9479,453.4444,736.1632,452.4962,730.4915,450.8983,732.0894,445.2265,725.9479,453.4444" style="stroke:#FFFFFF;stroke-width:3.125;"/><text fill="#FFFFFF" font-family="'Verdana'" font-size="12.5" lengthAdjust="spacing" textLength="75" x="896.3542" y="408.7199">&#35835;&#21462;&#25321;&#26102;&#39044;&#35774;</text></g><!--link Graph to TimingDataClient--><g class="link" data-entity-1="ent0003" data-entity-2="ent0007" data-link-type="dependency" data-source-line="41" id="lnk20"><path d="M1471.3438,331.5694 C1333.8125,339.1111 1126.0625,355.0173 1052.6042,384.6944 C1014.6979,400.0069 983.1482,426.1092 959.794,448.7029" fill="none" id="Graph-to-TimingDataClient" style="stroke:#FFFFFF;stroke-width:3.125;"/><polygon fill="#FFFFFF" points="955.3021,453.0486,964.9371,449.5247,959.0454,449.4272,959.1429,443.5354,955.3021,453.0486" style="stroke:#FFFFFF;stroke-width:3.125;"/><text fill="#FFFFFF" font-family="'Verdana'" font-size="12.5" lengthAdjust="spacing" textLength="139.4653" x="1064.0625" y="408.7199">&#25289;&#21462;&#25209;&#37327;&#20449;&#21495; / &#24066;&#22330;&#24555;&#29031;</text></g><!--link Graph to AnalysisService--><g class="link" data-entity-1="ent0003" data-entity-2="ent0008" data-link-type="dependency" data-source-line="42" id="lnk21"><path d="M1471,336.3819 C1411.7917,344.5486 1341.8438,359.0278 1282.8125,384.6944 C1244.3854,401.4028 1211.259,427.1512 1186.3631,449.2345" fill="none" id="Graph-to-AnalysisService" style="stroke:#FFFFFF;stroke-width:3.125;"/><polygon fill="#FFFFFF" points="1181.6875,453.3819,1191.4659,450.2779,1185.5839,449.9257,1185.936,444.0437,1181.6875,453.3819" style="stroke:#FFFFFF;stroke-width:3.125;"/><text fill="#FFFFFF" font-family="'Verdana'" font-size="12.5" lengthAdjust="spacing" textLength="194.9951" x="1294.2708" y="408.7199">&#29983;&#25104; assessment / timing cards</text></g><!--link Graph to MarketRepo--><g class="link" data-entity-1="ent0003" data-entity-2="ent0009" data-link-type="dependency" data-source-line="43" id="lnk22"><path d="M1573.8854,353.5903 C1546.8646,381.7569 1509.5785,420.6025 1482.5368,448.7692" fill="none" id="Graph-to-MarketRepo" style="stroke:#FFFFFF;stroke-width:3.125;"/><polygon fill="#FFFFFF" points="1478.2083,453.2778,1487.7067,449.4006,1481.8154,449.5206,1481.6953,443.6293,1478.2083,453.2778" style="stroke:#FFFFFF;stroke-width:3.125;"/><text fill="#FFFFFF" font-family="'Verdana'" font-size="12.5" lengthAdjust="spacing" textLength="112.5" x="1555.7292" y="408.7199">&#22797;&#29992;&#25110;&#32531;&#23384;&#24066;&#22330;&#35821;&#22659;</text></g><!--link Graph to MarketRegimeService--><g class="link" data-entity-1="ent0003" data-entity-2="ent0010" data-link-type="dependency" data-source-line="44" id="lnk23"><path d="M1649.5729,353.7153 C1662.9167,362.6111 1676.7708,373.1632 1688.0208,384.6944 C1707.8333,404.9965 1721.7269,427.1797 1732.7477,447.6693" fill="none" id="Graph-to-MarketRegimeService" style="stroke:#FFFFFF;stroke-width:3.125;"/><polygon fill="#FFFFFF" points="1735.7083,453.1736,1734.9369,442.9434,1733.2411,448.5867,1727.5979,446.8909,1735.7083,453.1736" style="stroke:#FFFFFF;stroke-width:3.125;"/><text fill="#FFFFFF" font-family="'Verdana'" font-size="12.5" lengthAdjust="spacing" textLength="75" x="1728.6458" y="408.7199">&#20998;&#26512;&#24066;&#22330;&#29366;&#24577;</text></g><!--link Graph to RiskManager--><g class="link" data-entity-1="ent0003" data-entity-2="ent0011" data-link-type="dependency" data-source-line="45" id="lnk24"><path d="M1729.2188,353.4653 C1760.6042,361.9236 1793.6875,372.3298 1823.4375,384.6944 C1868.0729,403.2465 1910.1104,428.543 1942.475,449.8138" fill="none" id="Graph-to-RiskManager" style="stroke:#FFFFFF;stroke-width:3.125;"/><polygon fill="#FFFFFF" points="1947.6979,453.2465,1942.1519,444.6155,1943.3454,450.3859,1937.575,451.5795,1947.6979,453.2465" style="stroke:#FFFFFF;stroke-width:3.125;"/><text fill="#FFFFFF" font-family="'Verdana'" font-size="12.5" lengthAdjust="spacing" textLength="78.4546" x="1905.7292" y="408.7199">&#29983;&#25104; riskPlan</text></g><!--link Graph to FeedbackService--><g class="link" data-entity-1="ent0003" data-entity-2="ent0012" data-link-type="dependency" data-source-line="46" id="lnk25"><path d="M1729.8021,336.2673 C1809.75,344.7778 1913.8958,359.6319 2003.6458,384.6944 C2065.1354,401.8611 2126.4237,428.8209 2171.7778,450.7167" fill="none" id="Graph-to-FeedbackService" style="stroke:#FFFFFF;stroke-width:3.125;"/><polygon fill="#FFFFFF" points="2177.4063,453.434,2170.7751,445.6058,2172.7159,451.1696,2167.1521,453.1104,2177.4063,453.434" style="stroke:#FFFFFF;stroke-width:3.125;"/><text fill="#FFFFFF" font-family="'Verdana'" font-size="12.5" lengthAdjust="spacing" textLength="134.5947" x="2118.2292" y="408.7199">&#35835;&#21462; feedbackContext</text></g><!--link Graph to PortfolioManager--><g class="link" data-entity-1="ent0003" data-entity-2="ent0013" data-link-type="dependency" data-source-line="47" id="lnk26"><path d="M1729.9583,332.0903 C1895.6563,340.9653 2173.1979,359.059 2272.3958,384.6944 C2332.3854,400.1944 2391.1887,427.8655 2434.0325,450.428" fill="none" id="Graph-to-PortfolioManager" style="stroke:#FFFFFF;stroke-width:3.125;"/><polygon fill="#FFFFFF" points="2439.5625,453.3403,2433.2089,445.2852,2434.9541,450.9134,2429.3259,452.6586,2439.5625,453.3403" style="stroke:#FFFFFF;stroke-width:3.125;"/><text fill="#FFFFFF" font-family="'Verdana'" font-size="12.5" lengthAdjust="spacing" textLength="75" x="2381.7708" y="408.7199">&#29983;&#25104;&#32452;&#21512;&#24314;&#35758;</text></g><!--link Graph to RecommendationRepo--><g class="link" data-entity-1="ent0003" data-entity-2="ent0014" data-link-type="dependency" data-source-line="48" id="lnk27"><path d="M1730,325.6736 C1901.9167,327.4653 2214.3542,337.7361 2476.5625,384.6944 C2564,400.3507 2655.4139,428.8665 2720.7681,451.3874" fill="none" id="Graph-to-RecommendationRepo" style="stroke:#FFFFFF;stroke-width:3.125;"/><polygon fill="#FFFFFF" points="2726.6771,453.4236,2719.1711,446.4299,2721.7529,451.7267,2716.4561,454.3086,2726.6771,453.4236" style="stroke:#FFFFFF;stroke-width:3.125;"/><text fill="#FFFFFF" font-family="'Verdana'" font-size="12.5" lengthAdjust="spacing" textLength="154.1077" x="2633.8542" y="408.7199">&#25345;&#20037;&#21270; recommendations</text></g><!--link Graph to ReviewService--><g class="link" data-entity-1="ent0003" data-entity-2="ent0015" data-link-type="dependency" data-source-line="49" id="lnk28"><path d="M1729.7917,327.9548 C1997.2188,333.0173 2603.2292,348.2257 2806.7708,384.6944 C2889.6354,399.5382 2975.4593,428.3675 3036.501,451.2217" fill="none" id="Graph-to-ReviewService" style="stroke:#FFFFFF;stroke-width:3.125;"/><polygon fill="#FFFFFF" points="3042.3542,453.4132,3035.0353,446.2238,3037.4765,451.587,3032.1134,454.0281,3042.3542,453.4132" style="stroke:#FFFFFF;stroke-width:3.125;"/><text fill="#FFFFFF" font-family="'Verdana'" font-size="12.5" lengthAdjust="spacing" textLength="112.5" x="2961.9792" y="408.7199">&#23433;&#25490;&#22797;&#30424;&#35760;&#24405;&#19982;&#25552;&#37266;</text></g><?plantuml-src ZPJFJnf15CVl_1LJUpQzzz34Qkm54m9DUfxk3Z1XTuRE35fkIlq1QiLOIsqqDfWssZPYBrM4glyCkop_HMTt-J7i0iA9lFVzlFVcpNVdYKWZ4m4J2iGmZF0C9bd8e0bqb8GvGonI8kQfGHbukkZz5CaSOtHbN3AA2HgNYq4j0rFe9MKwOkD4SQG9I5B68x9vQcOfGKHCbYNGknmY6feuSqyKnKdapZzToHXa0ciu2wUTGG4chbSJU1cB_EIYFTKqbHOmD2dHfolO5K-gcn3IDe-SsPM4QmWi30JiqslxTDrURJhdHUluNi5u6kfq1PCKI4A38oMZzUux8VAo1Ekv91A1cf0TPgoR7wsx4_llcbqwTwgxrjUB6G0vYES8GIpIruEPDr1eQGDpyHgRibCCPv4XBpqgqwyOpAOzpFkdKZ66kGazDYhPECfIZcNZl2SVYeUn66KYIGrC4mHcUPe6SJKSfhjpCiHH41m4Xx2yI5FYOmjGm7a3oyLvG32eOdvkZa0Zpp5F8BQCDUHHWTYu4PSWoo1vuqIWzsBCKNrDSE9UD8LDf3OU4HzvbN7CCqkGoCU5gRWI3Xzq4I7zhNoHL20G6zchVvaZ6WPpupOb7pbgceZeK61A0YiA9yF3nz4oHYi9BOtqd7HlQkZKVgvxX8Z_1O3PsHU-gy5pOE-MdEr2kt3RgJQiHjd_OW3BaOYlSBL3bfQCSzMqoXLdwrTdjUGKggtwTgk-OrUs54IzyZxHRgvR-qNhuNTxurpH3fpRLzexF-qlrvspTQTshoY3bdNdtocv-j9jPwlSUgXQvHlm35ZrWdNI23KAU5VIxSDlTd5VReeZpastuZCWl2P0Wqpd2Znmg-Iixn_RXnTsiTB-zycwFFBxELUNrjc74OXYMPSjRjgd-pxIthwsLzSKHB7fO3pfbapCWEgL1DpPNnn8TXFTJqzTSy2G_VhTQsasd5fD7INaFSykQwtR3MktuZwxIfeFWOhft0FNIlRUWRkouoEdziUw-zogxzdb_SxcmNy0?></g></svg>