<?plantuml 1.2026.2?><svg xmlns="http://www.w3.org/2000/svg" xmlns:xlink="http://www.w3.org/1999/xlink" contentStyleType="text/css" data-diagram-type="DESCRIPTION" height="480.2083px" preserveAspectRatio="none" style="width:1017px;height:480px;" version="1.1" viewBox="0 0 1017 480" width="1017.7083px" zoomAndPan="magnify"><title>&#26550;&#26500;&#24635;&#35272;&#22270;</title><defs><linearGradient id="g1l9hp94aoentm0" x1="50%" x2="50%" y1="0%" y2="100%"><stop offset="0%" stop-color="#FFFFFF"/><stop offset="100%" stop-color="#FFFFFF"/></linearGradient></defs><g><g class="title" data-source-line="18"><rect fill="url(#g1l9hp94aoentm0)" height="58.6528" rx="4.1667" ry="4.1667" style="stroke:#CCCCCC;stroke-width:1.0417;" width="137.5" x="435.6986" y="20.8333"/><text fill="#FFFFFF" font-family="'Verdana'" font-size="20.8333" font-weight="bold" lengthAdjust="spacing" textLength="104.1667" x="452.3652" y="58.4452">&#26550;&#26500;&#24635;&#35272;&#22270;</text></g><!--entity Graph--><g class="entity" data-qualified-name="Graph" data-source-line="22" id="ent0002"><rect fill="url(#g1l9hp94aoentm0)" height="56.8583" rx="4.1667" ry="4.1667" style="stroke:#FFFFFF;stroke-width:2.0833;" width="179.8319" x="50.0104" y="98.2361"/><text fill="#FFFFFF" font-family="'Verdana'" font-size="12.5" lengthAdjust="spacing" textLength="138.1653" x="70.8438" y="131.6366">WatchlistTimingGraph</text></g><!--entity Service--><g class="entity" data-qualified-name="Service" data-source-line="23" id="ent0003"><rect fill="url(#g1l9hp94aoentm0)" height="56.8583" rx="4.1667" ry="4.1667" style="stroke:#FFFFFF;stroke-width:2.0833;" width="324.0153" x="290.6354" y="255.5278"/><text fill="#FFFFFF" font-family="'Verdana'" font-size="12.5" lengthAdjust="spacing" textLength="282.3486" x="311.4688" y="288.9282">WatchlistRiskManagerService.buildRiskPlan()</text></g><!--entity Snapshot--><g class="entity" data-qualified-name="Snapshot" data-source-line="24" id="ent0004"><rect fill="url(#g1l9hp94aoentm0)" height="56.8583" rx="4.1667" ry="4.1667" style="stroke:#FFFFFF;stroke-width:2.0833;" width="152.415" x="376.5729" y="98.2361"/><text fill="#FFFFFF" font-family="'Verdana'" font-size="12.5" lengthAdjust="spacing" textLength="110.7483" x="397.4063" y="131.6366">portfolioSnapshot</text></g><!--entity Cards--><g class="entity" data-qualified-name="Cards" data-source-line="25" id="ent0005"><rect fill="url(#g1l9hp94aoentm0)" height="56.8583" rx="4.1667" ry="4.1667" style="stroke:#FFFFFF;stroke-width:2.0833;" width="117.1794" x="586.9896" y="98.2361"/><text fill="#FFFFFF" font-family="'Verdana'" font-size="12.5" lengthAdjust="spacing" textLength="75.5127" x="607.8229" y="131.6366">timingCards</text></g><!--entity Market--><g class="entity" data-qualified-name="Market" data-source-line="26" id="ent0006"><rect fill="url(#g1l9hp94aoentm0)" height="56.8583" rx="4.1667" ry="4.1667" style="stroke:#FFFFFF;stroke-width:2.0833;" width="186.6007" x="740.6354" y="98.2361"/><text fill="#FFFFFF" font-family="'Verdana'" font-size="12.5" lengthAdjust="spacing" textLength="144.9341" x="761.4688" y="131.6366">marketContextAnalysis</text></g><!--entity RiskPlan--><g class="entity" data-qualified-name="RiskPlan" data-source-line="27" id="ent0007"><rect fill="url(#g1l9hp94aoentm0)" height="56.8583" rx="4.1667" ry="4.1667" style="stroke:#FFFFFF;stroke-width:2.0833;" width="145.8964" x="379.6979" y="412.8194"/><text fill="#FFFFFF" font-family="'Verdana'" font-size="12.5" lengthAdjust="spacing" textLength="104.2297" x="400.5313" y="446.2199">PortfolioRiskPlan</text></g><!--link Graph to Service--><g class="link" data-entity-1="ent0002" data-entity-2="ent0003" data-link-type="dependency" data-source-line="29" id="lnk8"><path d="M60.0521,155.6007 C47.125,163.6423 35.4271,173.8611 27.6146,186.7778 C18.9792,201.0382 16.6667,211.7153 27.6146,224.2778 C61.8021,263.5278 179.0684,277.1943 284.1934,281.7568" fill="none" id="Graph-to-Service" style="stroke:#FFFFFF;stroke-width:3.125;"/><polygon fill="#FFFFFF" points="290.4375,282.0278,281.252,277.4585,285.2341,281.8019,280.8907,285.784,290.4375,282.0278" style="stroke:#FFFFFF;stroke-width:3.125;"/><text fill="#FFFFFF" font-family="'Verdana'" font-size="12.5" lengthAdjust="spacing" textLength="244.5007" x="39.0729" y="210.8032">&#20256;&#20837; snapshot / cards / market context</text></g><!--link Service to Graph--><g class="link" data-entity-1="ent0003" data-entity-2="ent0002" data-link-type="dependency" data-source-line="34" id="lnk13"><path d="M413.3229,255.4653 C382.9063,234.8194 339.2292,206.8403 298.4479,186.7778 C275.0313,175.2569 254.6146,166.7928 230.3021,157.8345" fill="none" id="Service-to-Graph" style="stroke:#FFFFFF;stroke-width:3.125;"/><polygon fill="#FFFFFF" points="224.4375,155.6736,231.7937,162.8246,229.3246,157.4743,234.6749,155.0052,224.4375,155.6736" style="stroke:#FFFFFF;stroke-width:3.125;"/><text fill="#FFFFFF" font-family="'Verdana'" font-size="12.5" lengthAdjust="spacing" textLength="49.0601" x="374.4896" y="210.8032">riskPlan</text></g><!--link Snapshot to Service--><g class="link" data-entity-1="ent0004" data-entity-2="ent0003" data-link-type="dependency" data-source-line="30" id="lnk9"><path d="M450.8333,155.7569 C450.2813,165.559 449.7604,176.6528 449.4896,186.7778 C449.0417,203.434 449.0417,207.6215 449.4896,224.2778 C449.7604,234.4028 449.9298,239.2564 450.4819,249.0585" fill="none" id="Snapshot-to-Service" style="stroke:#FFFFFF;stroke-width:3.125;"/><polygon fill="#FFFFFF" points="450.8333,255.2986,454.4662,245.7041,450.5404,250.0985,446.1461,246.1727,450.8333,255.2986" style="stroke:#FFFFFF;stroke-width:3.125;"/><text fill="#FFFFFF" font-family="'Verdana'" font-size="12.5" lengthAdjust="spacing" textLength="128.9307" x="460.9479" y="210.8032">&#39118;&#38505;&#20559;&#22909; / &#29616;&#37329; / &#25345;&#20179;</text></g><!--link Cards to Service--><g class="link" data-entity-1="ent0005" data-entity-2="ent0003" data-link-type="dependency" data-source-line="31" id="lnk10"><path d="M639.8021,155.7778 C634.25,177.0694 623.7188,205.8194 604.6979,224.2778 C591.2917,237.2882 580.358,244.8787 563.0976,252.8787" fill="none" id="Cards-to-Service" style="stroke:#FFFFFF;stroke-width:3.125;"/><polygon fill="#FFFFFF" points="557.4271,255.5069,567.685,255.3449,562.1525,253.3167,564.1807,247.7842,557.4271,255.5069" style="stroke:#FFFFFF;stroke-width:3.125;"/><text fill="#FFFFFF" font-family="'Verdana'" font-size="12.5" lengthAdjust="spacing" textLength="75" x="639.0729" y="210.8032">&#24403;&#21069;&#21160;&#20316;&#20542;&#21521;</text></g><!--link Market to Service--><g class="link" data-entity-1="ent0006" data-entity-2="ent0003" data-link-type="dependency" data-source-line="32" id="lnk11"><path d="M812.6979,155.5486 C794.2813,177.6007 765.6146,207.4861 733.8646,224.2778 C697.4792,243.5173 661.4532,255.1577 621.0365,263.8765" fill="none" id="Market-to-Service" style="stroke:#FFFFFF;stroke-width:3.125;"/><polygon fill="#FFFFFF" points="614.9271,265.1944,624.9699,267.2905,620.0183,264.0961,623.2126,259.1445,614.9271,265.1944" style="stroke:#FFFFFF;stroke-width:3.125;"/><text fill="#FFFFFF" font-family="'Verdana'" font-size="12.5" lengthAdjust="spacing" textLength="201.0742" x="793.2396" y="210.8032">regime / constraints / transition</text></g><!--link Service to RiskPlan--><g class="link" data-entity-1="ent0003" data-entity-2="ent0007" data-link-type="dependency" data-source-line="33" id="lnk12"><path d="M452.6146,312.9653 C452.6146,341.1319 452.6146,378.2361 452.6146,406.4028" fill="none" id="Service-to-RiskPlan" style="stroke:#FFFFFF;stroke-width:3.125;"/><polygon fill="#FFFFFF" points="452.6146,412.6528,456.7813,403.2778,452.6146,407.4444,448.4479,403.2778,452.6146,412.6528" style="stroke:#FFFFFF;stroke-width:3.125;"/><text fill="#FFFFFF" font-family="'Verdana'" font-size="12.5" lengthAdjust="spacing" textLength="271.4172" x="464.0729" y="368.0949">budget / blockedActions / warnings / notes</text></g><?plantuml-src ZPJFRjD04CRlVegbNE1GUkU0L8BAfPMY1edpn9uu8wztpUwa8RTM0l57KAXwGg0A2LN0ZHENaZvD7CXRiDvuaGaaZI-UtVdDjz-CLxx6VSnHvC1e22ARaIh0G2uIxC50yevMtD9I6t5znpyDPDiOFLoMt2M5ot9jY3D8yQus2Pfbq3x632gLLs0jdHTQeUBLM0SV3L35kD9pW7QfXvN_zIJRO9XYAc1T3us2bUEDcGw8Hwj50xMEqZs2NAjaFS4QNgNRONTjhkYvGlxLO6A9OdhsVNhsP7fuyUlpy_BzPQFCzY7HGrAfw86qsCZ4uNjtUEGaJBWbKVGd51iFWUE-9CiFA7SYzmqK_Gq1LlZel-G-sMmFbBkMfeFcW6AyrHsGJAhzjWHruwONg7DDYK8Rxcb9kgEWi7tDSx1UD4dsRbfW4kiP7pM174o6RbIAyJ5lAv0ZItDqpsUQR3iS6nnwBYoYoBSgDZVl1C_YjfZy-5W-FHUszYQsH5nPSE_voMww_kWek5-edtqwdhtxMXwzAS_7hkZdyRVPinCNJ5yTJIvE8z_FGaavFYrVl2vVVfcCFvI7b-NRasZUom9dC2Nt8zggB5WsG8ehNovIbfYqYW9RrOKsNM5taAHOjTALEiumgUwlat0RGp3ApRiAbMQqVodCn-FEhPL-0m00?></g></svg>