<?plantuml 1.2026.2?><svg xmlns="http://www.w3.org/2000/svg" xmlns:xlink="http://www.w3.org/1999/xlink" contentStyleType="text/css" data-diagram-type="DESCRIPTION" height="480.2083px" preserveAspectRatio="none" style="width:601px;height:480px;" version="1.1" viewBox="0 0 601 480" width="601.0417px" zoomAndPan="magnify"><title>&#20381;&#36182;&#32844;&#36131;&#22270;</title><defs><linearGradient id="g1viyxlv0frdoj0" x1="50%" x2="50%" y1="0%" y2="100%"><stop offset="0%" stop-color="#FFFFFF"/><stop offset="100%" stop-color="#FFFFFF"/></linearGradient></defs><g><g class="title" data-source-line="18"><rect fill="url(#g1viyxlv0frdoj0)" height="58.6528" rx="4.1667" ry="4.1667" style="stroke:#CCCCCC;stroke-width:1.0417;" width="137.5" x="227.0833" y="20.8333"/><text fill="#FFFFFF" font-family="'Verdana'" font-size="20.8333" font-weight="bold" lengthAdjust="spacing" textLength="104.1667" x="243.75" y="58.4452">&#20381;&#36182;&#32844;&#36131;&#22270;</text></g><!--entity entry--><g class="entity" data-qualified-name="entry" data-source-line="22" id="ent0002"><rect fill="url(#g1viyxlv0frdoj0)" height="56.8583" rx="4.1667" ry="4.1667" style="stroke:#FFFFFF;stroke-width:2.0833;" width="120.9574" x="300" y="98.2361"/><text fill="#FFFFFF" font-family="'Verdana'" font-size="12.5" lengthAdjust="spacing" textLength="79.2908" x="320.8333" y="131.6366">&#20027;&#20837;&#21475; clamp</text></g><!--entity validate--><g class="entity" data-qualified-name="validate" data-source-line="23" id="ent0003"><rect fill="url(#g1viyxlv0frdoj0)" height="56.8583" rx="4.1667" ry="4.1667" style="stroke:#FFFFFF;stroke-width:2.0833;" width="116.6667" x="17.7083" y="255.5278"/><text fill="#FFFFFF" font-family="'Verdana'" font-size="12.5" lengthAdjust="spacing" textLength="75" x="38.5417" y="288.9282">&#36755;&#20837;&#26657;&#39564;&#20381;&#36182;</text></g><!--entity orchestrate--><g class="entity" data-qualified-name="orchestrate" data-source-line="24" id="ent0004"><rect fill="url(#g1viyxlv0frdoj0)" height="56.8583" rx="4.1667" ry="4.1667" style="stroke:#FFFFFF;stroke-width:2.0833;" width="116.6667" x="170.8333" y="255.5278"/><text fill="#FFFFFF" font-family="'Verdana'" font-size="12.5" lengthAdjust="spacing" textLength="75" x="191.6667" y="288.9282">&#27969;&#31243;&#32534;&#25490;&#20381;&#36182;</text></g><!--entity state--><g class="entity" data-qualified-name="state" data-source-line="25" id="ent0005"><rect fill="url(#g1viyxlv0frdoj0)" height="56.8583" rx="4.1667" ry="4.1667" style="stroke:#FFFFFF;stroke-width:2.0833;" width="116.6667" x="244.7917" y="412.8194"/><text fill="#FFFFFF" font-family="'Verdana'" font-size="12.5" lengthAdjust="spacing" textLength="75" x="265.625" y="446.2199">&#29366;&#24577;&#35760;&#24405;&#20381;&#36182;</text></g><!--entity output--><g class="entity" data-qualified-name="output" data-source-line="26" id="ent0006"><rect fill="url(#g1viyxlv0frdoj0)" height="56.8583" rx="4.1667" ry="4.1667" style="stroke:#FFFFFF;stroke-width:2.0833;" width="116.6667" x="472.9167" y="255.5278"/><text fill="#FFFFFF" font-family="'Verdana'" font-size="12.5" lengthAdjust="spacing" textLength="75" x="493.75" y="288.9282">&#36755;&#20986;&#32452;&#35013;&#20381;&#36182;</text></g><!--link entry to validate--><g class="link" data-entity-1="ent0002" data-entity-2="ent0003" data-link-type="dependency" data-source-line="28" id="lnk7"><path d="M299.6771,134.9028 C255.7083,142.2673 196.4583,157.1319 152.0833,186.7778 C125.8542,204.2986 107.8074,228.4384 94.4845,250.178" fill="none" id="entry-to-validate" style="stroke:#FFFFFF;stroke-width:3.125;"/><polygon fill="#FFFFFF" points="91.2188,255.5069,99.67,249.6907,93.9402,251.0662,92.5648,245.3364,91.2188,255.5069" style="stroke:#FFFFFF;stroke-width:3.125;"/><text fill="#FFFFFF" font-family="'Verdana'" font-size="12.5" lengthAdjust="spacing" textLength="50" x="163.5417" y="210.8032">&#26657;&#39564;&#36755;&#20837;</text></g><!--link entry to orchestrate--><g class="link" data-entity-1="ent0002" data-entity-2="ent0004" data-link-type="dependency" data-source-line="29" id="lnk8"><path d="M299.8021,147.5798 C280.5417,156.6423 260.8958,169.3715 247.9167,186.7778 C233.25,206.4548 229.3914,228.2405 228.6101,248.9905" fill="none" id="entry-to-orchestrate" style="stroke:#FFFFFF;stroke-width:3.125;"/><polygon fill="#FFFFFF" points="228.375,255.2361,232.8914,246.0245,228.571,250.0314,224.564,245.711,228.375,255.2361" style="stroke:#FFFFFF;stroke-width:3.125;"/><text fill="#FFFFFF" font-family="'Verdana'" font-size="12.5" lengthAdjust="spacing" textLength="62.5" x="259.375" y="210.8032">&#35302;&#21457;&#20027;&#27969;&#31243;</text></g><!--link entry to state--><g class="link" data-entity-1="ent0002" data-entity-2="ent0005" data-link-type="dependency" data-source-line="30" id="lnk9"><path d="M361.7917,155.7257 C363.3021,203.2465 362.7396,302.6007 337.5,381.5694 C334.0729,392.2778 331.6956,397.7961 325.9873,407.2232" fill="none" id="entry-to-state" style="stroke:#FFFFFF;stroke-width:3.125;"/><polygon fill="#FFFFFF" points="322.75,412.5694,331.1701,406.7082,325.4477,408.1142,324.0418,402.3918,322.75,412.5694" style="stroke:#FFFFFF;stroke-width:3.125;"/><text fill="#FFFFFF" font-family="'Verdana'" font-size="12.5" lengthAdjust="spacing" textLength="50" x="370.8333" y="289.4491">&#35760;&#24405;&#29366;&#24577;</text></g><!--link entry to output--><g class="link" data-entity-1="ent0002" data-entity-2="ent0006" data-link-type="dependency" data-source-line="31" id="lnk10"><path d="M371.8125,155.6423 C381.5313,176.5694 397.1771,204.9132 417.7083,224.2778 C433.4583,239.1319 448.0589,248.4666 467.0589,257.727" fill="none" id="entry-to-output" style="stroke:#FFFFFF;stroke-width:3.125;"/><polygon fill="#FFFFFF" points="472.6771,260.4653,466.0753,252.6124,467.9952,258.1834,462.4242,260.1033,472.6771,260.4653" style="stroke:#FFFFFF;stroke-width:3.125;"/><text fill="#FFFFFF" font-family="'Verdana'" font-size="12.5" lengthAdjust="spacing" textLength="50" x="429.1667" y="210.8032">&#32452;&#35013;&#36755;&#20986;</text></g><!--link output to entry--><g class="link" data-entity-1="ent0006" data-entity-2="ent0002" data-link-type="dependency" data-source-line="33" id="lnk12"><path d="M526.7083,255.1007 C521.9792,233.9965 512.6563,205.5798 494.7917,186.7778 C475.0521,166.0069 452.612,154.2028 427.0391,145.1715" fill="none" id="output-to-entry" style="stroke:#FFFFFF;stroke-width:3.125;"/><polygon fill="#FFFFFF" points="421.1458,143.0903,428.5983,150.141,426.0569,144.8246,431.3733,142.2833,421.1458,143.0903" style="stroke:#FFFFFF;stroke-width:3.125;"/><text fill="#FFFFFF" font-family="'Verdana'" font-size="12.5" lengthAdjust="spacing" textLength="50" x="527.0833" y="210.8032">&#36820;&#22238;&#32467;&#26524;</text></g><!--link orchestrate to state--><g class="link" data-entity-1="ent0004" data-entity-2="ent0005" data-link-type="dependency" data-source-line="32" id="lnk11"><path d="M235.7188,313.1215 C240.9479,332.8715 249.25,359.6215 260.4167,381.5694 C265.8542,392.2569 269.4058,398.1062 276.4163,407.5333" fill="none" id="orchestrate-to-state" style="stroke:#FFFFFF;stroke-width:3.125;"/><polygon fill="#FFFFFF" points="280.1458,412.5486,277.895,402.5393,277.0379,408.3692,271.208,407.5121,280.1458,412.5486" style="stroke:#FFFFFF;stroke-width:3.125;"/><text fill="#FFFFFF" font-family="'Verdana'" font-size="12.5" lengthAdjust="spacing" textLength="50" x="271.875" y="368.0949">&#21516;&#27493;&#36827;&#24230;</text></g><?plantuml-src ZP9DIyCm683l_HLndlq37WITUF8WxXU4Djk2RLBJjvFT72Y23h_rCXLb-86WU70YJhS_Op_y5wRDEi9aTJqLtYTFdgQPWYfn278m446nuQrHvcA17MIHClPjME8CYjpc0aqlfO-6p0l1DyODboaZusOhs5p35RB0XKN4E6YLc81PnVu7AtB7vOmmoCTAPDqdp2IvpHcqJCiawPzCkO85K9EwUD86RK7kyPf0QnJg-TACciIqIB73cJMPS03dUKiWhyq_tvmWVnr0mIRektSPTyxZHZD-RGUjdhRCgsABRr1MGMLiUqIRcDd_Ba5TAaHsImnZ-8eAt-_TOFisE6WZqyQEMq3OGtA9gEjGt3kHK7Xzy_FOL2KfLyCsjMIqZeQTHlIm5tsUX_l76ig5MIKUY14wsdqBDnlnyqlmTQRH7enmIS3EHzJTYjlRkjK7rmV3I8FHpCpSC0dD8fMhqZL2Av5GV7yN71p9Gr3T6fSs94GQfq9rJRgrdAie5MZeSbqI73R3fzkutme-xep1qcIkV7AJ_cdGkegw9-7LnIy0?></g></svg>