<?plantuml 1.2026.2?><svg xmlns="http://www.w3.org/2000/svg" xmlns:xlink="http://www.w3.org/1999/xlink" contentStyleType="text/css" data-diagram-type="ACTIVITY" height="1383.3333px" preserveAspectRatio="none" style="width:347px;height:1383px;" version="1.1" viewBox="0 0 347 1383" width="347.9167px" zoomAndPan="magnify"><title>&#20998;&#25903;&#21028;&#23450;&#22270;</title><defs><linearGradient id="gplah8clt31x90" x1="50%" x2="50%" y1="0%" y2="100%"><stop offset="0%" stop-color="#FFFFFF"/><stop offset="100%" stop-color="#FFFFFF"/></linearGradient><filter height="300%" id="fplah8clt31x9" width="300%" x="-1" y="-1"><feGaussianBlur result="blurOut" stdDeviation="2.0833"/><feColorMatrix in="blurOut" result="blurOut2" type="matrix" values="0 0 0 0 0 0 0 0 0 0 0 0 0 0 0 0 0 0 .4 0"/><feOffset dx="4.1667" dy="4.1667" in="blurOut2" result="blurOut3"/><feBlend in="SourceGraphic" in2="blurOut3" mode="normal"/></filter><linearGradient id="gplah8clt31x91" x1="50%" x2="50%" y1="0%" y2="100%"><stop offset="0%" stop-color="#4DABF5"/><stop offset="100%" stop-color="#2196F3"/></linearGradient></defs><g><g class="title" data-source-line="18"><rect fill="url(#gplah8clt31x90)" height="58.6528" rx="4.1667" ry="4.1667" style="stroke:#CCCCCC;stroke-width:1.0417;" width="137.5" x="103.8137" y="20.8333"/><text fill="#FFFFFF" font-family="'Verdana'" font-size="20.8333" font-weight="bold" lengthAdjust="spacing" textLength="104.1667" x="120.4803" y="58.4452">&#20998;&#25903;&#21028;&#23450;&#22270;</text></g><ellipse cx="161.1053" cy="101.3611" fill="#9C27B0" filter="url(#fplah8clt31x9)" rx="10.4167" ry="10.4167" style="stroke:#1A78C2;stroke-width:1.0417;"/><rect fill="url(#gplah8clt31x91)" filter="url(#fplah8clt31x9)" height="48.525" rx="4.1667" ry="4.1667" style="stroke:#FFFFFF;stroke-width:1.0417;" width="193.8314" x="64.1897" y="132.6111"/><text fill="#FFFFFF" font-family="'Verdana'" font-size="12.5" lengthAdjust="spacing" textLength="160.498" x="80.8563" y="161.8449">startWorkflow(command)</text><rect fill="url(#gplah8clt31x91)" filter="url(#fplah8clt31x9)" height="48.525" rx="4.1667" ry="4.1667" style="stroke:#FFFFFF;stroke-width:1.0417;" width="137.1175" x="92.5466" y="347.5444"/><text fill="#FFFFFF" font-family="'Verdana'" font-size="12.5" lengthAdjust="spacing" textLength="103.7842" x="109.2133" y="376.7782">&#36820;&#22238; existing run</text><ellipse cx="161.1053" cy="428.361" fill="none" filter="url(#fplah8clt31x9)" rx="11.4583" ry="11.4583" style="stroke:#1A78C2;stroke-width:1.0417;"/><ellipse cx="161.1053" cy="428.361" fill="none" rx="6.25" ry="6.25" style="stroke:#1A78C2;stroke-width:1.0417;"/><polygon fill="url(#gplah8clt31x90)" filter="url(#fplah8clt31x9)" points="67.8426,274.7569,254.3681,274.7569,266.8681,292.7694,254.3681,310.7819,67.8426,310.7819,55.3426,292.7694,67.8426,274.7569" style="stroke:#FFFFFF;stroke-width:1.0417;"/><text fill="#FFFFFF" font-family="'Verdana'" font-size="12.5" lengthAdjust="spacing" textLength="12.5" x="175.6887" y="333.7657">&#26159;</text><text fill="#FFFFFF" font-family="'Verdana'" font-size="12.5" lengthAdjust="spacing" textLength="165.6921" x="78.2593" y="297.7407">&#24050;&#26377; pending/running run?</text><polygon fill="url(#gplah8clt31x90)" filter="url(#fplah8clt31x9)" points="80.6356,201.9694,241.5751,201.9694,254.0751,219.9819,241.5751,237.9944,80.6356,237.9944,68.1356,219.9819,80.6356,201.9694" style="stroke:#FFFFFF;stroke-width:1.0417;"/><text fill="#FFFFFF" font-family="'Verdana'" font-size="12.5" lengthAdjust="spacing" textLength="12.5" x="175.6887" y="260.9782">&#26159;</text><text fill="#FFFFFF" font-family="'Verdana'" font-size="12.5" lengthAdjust="spacing" textLength="140.1062" x="91.0522" y="224.9532">&#25658;&#24102; idempotencyKey?</text><polygon fill="url(#gplah8clt31x90)" filter="url(#fplah8clt31x9)" points="161.1053,483.5693,173.6053,496.0693,161.1053,508.5693,148.6053,496.0693,161.1053,483.5693" style="stroke:#FFFFFF;stroke-width:1.0417;"/><rect fill="url(#gplah8clt31x91)" filter="url(#fplah8clt31x9)" height="48.525" rx="4.1667" ry="4.1667" style="stroke:#FFFFFF;stroke-width:1.0417;" width="204.2989" x="58.9559" y="529.4027"/><text fill="#FFFFFF" font-family="'Verdana'" font-size="12.5" lengthAdjust="spacing" textLength="170.9656" x="75.6226" y="558.6365">&#35835;&#21462; templateCode &#23545;&#24212;&#27169;&#26495;</text><rect fill="url(#gplah8clt31x91)" filter="url(#fplah8clt31x9)" height="48.525" rx="4.1667" ry="4.1667" style="stroke:#FFFFFF;stroke-width:1.0417;" width="278.9571" x="21.6268" y="671.5485"/><text fill="#FFFFFF" font-family="'Verdana'" font-size="12.5" lengthAdjust="spacing" textLength="245.6238" x="38.2935" y="700.7823">&#25353; templateCode &#35843; ensure*Template()</text><polygon fill="url(#gplah8clt31x90)" filter="url(#fplah8clt31x9)" points="116.0299,598.761,206.1808,598.761,218.6808,616.7735,206.1808,634.786,116.0299,634.786,103.5299,616.7735,116.0299,598.761" style="stroke:#FFFFFF;stroke-width:1.0417;"/><text fill="#FFFFFF" font-family="'Verdana'" font-size="12.5" lengthAdjust="spacing" textLength="12.5" x="175.6887" y="657.7698">&#26159;</text><text fill="#FFFFFF" font-family="'Verdana'" font-size="12.5" lengthAdjust="spacing" textLength="69.3176" x="126.4465" y="621.7448">&#27169;&#26495;&#19981;&#23384;&#22312;?</text><polygon fill="url(#gplah8clt31x90)" filter="url(#fplah8clt31x9)" points="161.1053,740.9068,173.6053,753.4068,161.1053,765.9068,148.6053,753.4068,161.1053,740.9068" style="stroke:#FFFFFF;stroke-width:1.0417;"/><rect fill="url(#gplah8clt31x91)" filter="url(#fplah8clt31x9)" height="48.525" rx="4.1667" ry="4.1667" style="stroke:#FFFFFF;stroke-width:1.0417;" width="299.294" x="11.4583" y="859.5276"/><text fill="#FFFFFF" font-family="'Verdana'" font-size="12.5" lengthAdjust="spacing" textLength="265.9607" x="28.125" y="888.7614">&#25243;&#20986; WORKFLOW_TEMPLATE_NOT_FOUND</text><ellipse cx="161.1053" cy="940.3442" fill="none" filter="url(#fplah8clt31x9)" rx="11.4583" ry="11.4583" style="stroke:#1A78C2;stroke-width:1.0417;"/><ellipse cx="161.1053" cy="940.3442" fill="none" rx="6.25" ry="6.25" style="stroke:#1A78C2;stroke-width:1.0417;"/><polygon fill="url(#gplah8clt31x90)" filter="url(#fplah8clt31x9)" points="109.7799,786.7401,212.4308,786.7401,224.9308,804.7526,212.4308,822.7651,109.7799,822.7651,97.2799,804.7526,109.7799,786.7401" style="stroke:#FFFFFF;stroke-width:1.0417;"/><text fill="#FFFFFF" font-family="'Verdana'" font-size="12.5" lengthAdjust="spacing" textLength="12.5" x="175.6887" y="845.7489">&#26159;</text><text fill="#FFFFFF" font-family="'Verdana'" font-size="12.5" lengthAdjust="spacing" textLength="81.8176" x="120.1965" y="809.7239">&#20173;&#28982;&#27809;&#26377;&#27169;&#26495;?</text><rect fill="url(#gplah8clt31x91)" filter="url(#fplah8clt31x9)" height="48.525" rx="4.1667" ry="4.1667" style="stroke:#FFFFFF;stroke-width:1.0417;" width="123.4762" x="99.3673" y="995.5526"/><text fill="#FFFFFF" font-family="'Verdana'" font-size="12.5" lengthAdjust="spacing" textLength="90.1428" x="116.0339" y="1024.7864">&#25552;&#21462; nodeKeys</text><rect fill="url(#gplah8clt31x91)" filter="url(#fplah8clt31x9)" height="48.525" rx="4.1667" ry="4.1667" style="stroke:#FFFFFF;stroke-width:1.0417;" width="195.8333" x="63.1887" y="1137.6984"/><text fill="#FFFFFF" font-family="'Verdana'" font-size="12.5" lengthAdjust="spacing" textLength="162.5" x="79.8553" y="1166.9322">&#25243;&#20986;&#24037;&#20316;&#27969;&#27169;&#26495;&#32570;&#23569;&#33410;&#28857;&#37197;&#32622;</text><ellipse cx="161.1053" cy="1218.515" fill="none" filter="url(#fplah8clt31x9)" rx="11.4583" ry="11.4583" style="stroke:#1A78C2;stroke-width:1.0417;"/><ellipse cx="161.1053" cy="1218.515" fill="none" rx="6.25" ry="6.25" style="stroke:#1A78C2;stroke-width:1.0417;"/><polygon fill="url(#gplah8clt31x90)" filter="url(#fplah8clt31x9)" points="102.2085,1064.9109,220.0022,1064.9109,232.5022,1082.9234,220.0022,1100.9359,102.2085,1100.9359,89.7085,1082.9234,102.2085,1064.9109" style="stroke:#FFFFFF;stroke-width:1.0417;"/><text fill="#FFFFFF" font-family="'Verdana'" font-size="12.5" lengthAdjust="spacing" textLength="12.5" x="175.6887" y="1123.9197">&#26159;</text><text fill="#FFFFFF" font-family="'Verdana'" font-size="12.5" lengthAdjust="spacing" textLength="96.9604" x="112.6251" y="1087.8947">nodeKeys &#20026;&#31354;?</text><rect fill="url(#gplah8clt31x91)" filter="url(#fplah8clt31x9)" height="48.525" rx="4.1667" ry="4.1667" style="stroke:#FFFFFF;stroke-width:1.0417;" width="108.37" x="106.9204" y="1273.7233"/><text fill="#FFFFFF" font-family="'Verdana'" font-size="12.5" lengthAdjust="spacing" textLength="75.0366" x="123.587" y="1302.9572">createRun()</text><ellipse cx="161.1053" cy="1354.54" fill="none" filter="url(#fplah8clt31x9)" rx="11.4583" ry="11.4583" style="stroke:#1A78C2;stroke-width:1.0417;"/><ellipse cx="161.1053" cy="1354.54" fill="none" rx="6.25" ry="6.25" style="stroke:#1A78C2;stroke-width:1.0417;"/><line style="stroke:#FFFFFF;stroke-width:3.125;" x1="161.1053" x2="161.1053" y1="111.7778" y2="132.6111"/><polygon fill="#FFFFFF" points="156.9387,122.1944,161.1053,132.6111,165.272,122.1944,161.1053,126.3611" style="stroke:#FFFFFF;stroke-width:1.0417;"/><line style="stroke:#FFFFFF;stroke-width:3.125;" x1="161.1053" x2="161.1053" y1="396.0693" y2="416.9027"/><polygon fill="#FFFFFF" points="156.9387,406.486,161.1053,416.9027,165.272,406.486,161.1053,410.6527" style="stroke:#FFFFFF;stroke-width:1.0417;"/><line style="stroke:#FFFFFF;stroke-width:3.125;" x1="161.1053" x2="161.1053" y1="310.7819" y2="347.5444"/><polygon fill="#FFFFFF" points="156.9387,337.1277,161.1053,347.5444,165.272,337.1277,161.1053,341.2944" style="stroke:#FFFFFF;stroke-width:1.0417;"/><line style="stroke:#FFFFFF;stroke-width:3.125;" x1="266.8681" x2="279.3681" y1="292.7694" y2="292.7694"/><polygon fill="#FFFFFF" points="275.2014,385.1964,279.3681,395.6131,283.5347,385.1964,279.3681,389.3631" style="stroke:#FFFFFF;stroke-width:3.125;"/><line style="stroke:#FFFFFF;stroke-width:3.125;" x1="279.3681" x2="279.3681" y1="292.7694" y2="462.736"/><line style="stroke:#FFFFFF;stroke-width:3.125;" x1="279.3681" x2="161.1053" y1="462.736" y2="462.736"/><line style="stroke:#FFFFFF;stroke-width:3.125;" x1="161.1053" x2="161.1053" y1="462.736" y2="483.5693"/><polygon fill="#FFFFFF" points="156.9387,473.1527,161.1053,483.5693,165.272,473.1527,161.1053,477.3193" style="stroke:#FFFFFF;stroke-width:1.0417;"/><line style="stroke:#FFFFFF;stroke-width:3.125;" x1="161.1053" x2="161.1053" y1="237.9944" y2="274.7569"/><polygon fill="#FFFFFF" points="156.9387,264.3402,161.1053,274.7569,165.272,264.3402,161.1053,268.5069" style="stroke:#FFFFFF;stroke-width:1.0417;"/><line style="stroke:#FFFFFF;stroke-width:3.125;" x1="254.0751" x2="289.7847" y1="219.9819" y2="219.9819"/><polygon fill="#FFFFFF" points="285.6181,383.8506,289.7847,394.2673,293.9514,383.8506,289.7847,388.0173" style="stroke:#FFFFFF;stroke-width:3.125;"/><line style="stroke:#FFFFFF;stroke-width:3.125;" x1="289.7847" x2="289.7847" y1="219.9819" y2="496.0693"/><line style="stroke:#FFFFFF;stroke-width:3.125;" x1="289.7847" x2="173.6053" y1="496.0693" y2="496.0693"/><polygon fill="#FFFFFF" points="184.022,491.9027,173.6053,496.0693,184.022,500.236,179.8553,496.0693" style="stroke:#FFFFFF;stroke-width:1.0417;"/><line style="stroke:#FFFFFF;stroke-width:3.125;" x1="161.1053" x2="161.1053" y1="181.1361" y2="201.9694"/><polygon fill="#FFFFFF" points="156.9387,191.5527,161.1053,201.9694,165.272,191.5527,161.1053,195.7194" style="stroke:#FFFFFF;stroke-width:1.0417;"/><line style="stroke:#FFFFFF;stroke-width:3.125;" x1="161.1053" x2="161.1053" y1="508.5693" y2="529.4027"/><polygon fill="#FFFFFF" points="156.9387,518.986,161.1053,529.4027,165.272,518.986,161.1053,523.1527" style="stroke:#FFFFFF;stroke-width:1.0417;"/><line style="stroke:#FFFFFF;stroke-width:3.125;" x1="161.1053" x2="161.1053" y1="634.786" y2="671.5485"/><polygon fill="#FFFFFF" points="156.9387,661.1318,161.1053,671.5485,165.272,661.1318,161.1053,665.2985" style="stroke:#FFFFFF;stroke-width:1.0417;"/><line style="stroke:#FFFFFF;stroke-width:3.125;" x1="218.6808" x2="311.0006" y1="616.7735" y2="616.7735"/><polygon fill="#FFFFFF" points="306.8339,693.0547,311.0006,703.4714,315.1672,693.0547,311.0006,697.2214" style="stroke:#FFFFFF;stroke-width:3.125;"/><line style="stroke:#FFFFFF;stroke-width:3.125;" x1="311.0006" x2="311.0006" y1="616.7735" y2="753.4068"/><line style="stroke:#FFFFFF;stroke-width:3.125;" x1="311.0006" x2="173.6053" y1="753.4068" y2="753.4068"/><polygon fill="#FFFFFF" points="184.022,749.2401,173.6053,753.4068,184.022,757.5734,179.8553,753.4068" style="stroke:#FFFFFF;stroke-width:1.0417;"/><line style="stroke:#FFFFFF;stroke-width:3.125;" x1="161.1053" x2="161.1053" y1="720.0734" y2="740.9068"/><polygon fill="#FFFFFF" points="156.9387,730.4901,161.1053,740.9068,165.272,730.4901,161.1053,734.6568" style="stroke:#FFFFFF;stroke-width:1.0417;"/><line style="stroke:#FFFFFF;stroke-width:3.125;" x1="161.1053" x2="161.1053" y1="577.9277" y2="598.761"/><polygon fill="#FFFFFF" points="156.9387,588.3443,161.1053,598.761,165.272,588.3443,161.1053,592.511" style="stroke:#FFFFFF;stroke-width:1.0417;"/><line style="stroke:#FFFFFF;stroke-width:3.125;" x1="161.1053" x2="161.1053" y1="908.0526" y2="928.8859"/><polygon fill="#FFFFFF" points="156.9387,918.4692,161.1053,928.8859,165.272,918.4692,161.1053,922.6359" style="stroke:#FFFFFF;stroke-width:1.0417;"/><line style="stroke:#FFFFFF;stroke-width:3.125;" x1="161.1053" x2="161.1053" y1="822.7651" y2="859.5276"/><polygon fill="#FFFFFF" points="156.9387,849.1109,161.1053,859.5276,165.272,849.1109,161.1053,853.2776" style="stroke:#FFFFFF;stroke-width:1.0417;"/><line style="stroke:#FFFFFF;stroke-width:3.125;" x1="224.9308" x2="321.169" y1="804.7526" y2="804.7526"/><polygon fill="#FFFFFF" points="317.0024,897.1797,321.169,907.5963,325.3357,897.1797,321.169,901.3463" style="stroke:#FFFFFF;stroke-width:3.125;"/><line style="stroke:#FFFFFF;stroke-width:3.125;" x1="321.169" x2="321.169" y1="804.7526" y2="974.7192"/><line style="stroke:#FFFFFF;stroke-width:3.125;" x1="321.169" x2="161.1053" y1="974.7192" y2="974.7192"/><line style="stroke:#FFFFFF;stroke-width:3.125;" x1="161.1053" x2="161.1053" y1="974.7192" y2="995.5526"/><polygon fill="#FFFFFF" points="156.9387,985.1359,161.1053,995.5526,165.272,985.1359,161.1053,989.3026" style="stroke:#FFFFFF;stroke-width:1.0417;"/><line style="stroke:#FFFFFF;stroke-width:3.125;" x1="161.1053" x2="161.1053" y1="765.9068" y2="786.7401"/><polygon fill="#FFFFFF" points="156.9387,776.3234,161.1053,786.7401,165.272,776.3234,161.1053,780.4901" style="stroke:#FFFFFF;stroke-width:1.0417;"/><line style="stroke:#FFFFFF;stroke-width:3.125;" x1="161.1053" x2="161.1053" y1="1186.2233" y2="1207.0567"/><polygon fill="#FFFFFF" points="156.9387,1196.64,161.1053,1207.0567,165.272,1196.64,161.1053,1200.8067" style="stroke:#FFFFFF;stroke-width:1.0417;"/><line style="stroke:#FFFFFF;stroke-width:3.125;" x1="161.1053" x2="161.1053" y1="1100.9359" y2="1137.6984"/><polygon fill="#FFFFFF" points="156.9387,1127.2817,161.1053,1137.6984,165.272,1127.2817,161.1053,1131.4484" style="stroke:#FFFFFF;stroke-width:1.0417;"/><line style="stroke:#FFFFFF;stroke-width:3.125;" x1="232.5022" x2="269.4387" y1="1082.9234" y2="1082.9234"/><polygon fill="#FFFFFF" points="265.272,1175.3504,269.4387,1185.7671,273.6053,1175.3504,269.4387,1179.5171" style="stroke:#FFFFFF;stroke-width:3.125;"/><line style="stroke:#FFFFFF;stroke-width:3.125;" x1="269.4387" x2="269.4387" y1="1082.9234" y2="1252.89"/><line style="stroke:#FFFFFF;stroke-width:3.125;" x1="269.4387" x2="161.1053" y1="1252.89" y2="1252.89"/><line style="stroke:#FFFFFF;stroke-width:3.125;" x1="161.1053" x2="161.1053" y1="1252.89" y2="1273.7233"/><polygon fill="#FFFFFF" points="156.9387,1263.3067,161.1053,1273.7233,165.272,1263.3067,161.1053,1267.4733" style="stroke:#FFFFFF;stroke-width:1.0417;"/><line style="stroke:#FFFFFF;stroke-width:3.125;" x1="161.1053" x2="161.1053" y1="1044.0776" y2="1064.9109"/><polygon fill="#FFFFFF" points="156.9387,1054.4942,161.1053,1064.9109,165.272,1054.4942,161.1053,1058.6609" style="stroke:#FFFFFF;stroke-width:1.0417;"/><line style="stroke:#FFFFFF;stroke-width:3.125;" x1="161.1053" x2="161.1053" y1="1322.2483" y2="1343.0817"/><polygon fill="#FFFFFF" points="156.9387,1332.665,161.1053,1343.0817,165.272,1332.665,161.1053,1336.8317" style="stroke:#FFFFFF;stroke-width:1.0417;"/><?plantuml-src ZPBDJjj058NtVegfkacwOHyM5GraGo1HI9LbDBAlqr7i6NSyBisoz0zG8wWKLOYabP3QYYuW2Aabc59U9cEdRz6nuqYKA2PUUCQ-nzyzvteUY6TW0xAn04wmvZO9TJ37DZB0n9ub2eoAFBCOHmyByNLBiiGvsvnLB18Aisfbh3Tn0vumRW2V9Qg0BZ1jMFV8yins60KgqcKRyDm3gaEgvuceI4o8_C-7B6CkY4uSFA-7Mn-aZbSNv0KHhNJeH3KFQPbWcr5ZFc0YJkDk27LixiaSIQOPWWWBaDn-5tJwSlkhF3sKtJ-QAzHaj5oyr1XlcXRRpEZCjZ4rieiQCL4csFVbu3iY1gZVBjGqMwlGUfn5wXXJLJtePpM48g6yE0zwEyW1QX3QME0UfMf5QhshHYWtkkd8xXS4Buah4jLYN745SzGcWfZQ-AxbHlqhkVS92MN1Kkdop51H-fVIxmJ7Hy7dcyHfl1yEslBaGFQExtRD1Hzs_aUCpbwhHgx7uL4rUPzHgPEk4N9urGxV_0hEZrIoCNwQkjkLxtrKArLM2yLIhLvTMIiNbwehzVLIjLueFLrVZeB5iIPnWhtzA0vL7jGitR7xoHCQ3lpmXp-ZZxpuDhpk1JzVZTs4ltrvzd6qknLkNVvzsmwlJwUQwHnKhef7esXHvHy0?></g></svg>