<?plantuml 1.2026.2?><svg xmlns="http://www.w3.org/2000/svg" xmlns:xlink="http://www.w3.org/1999/xlink" contentStyleType="text/css" data-diagram-type="ACTIVITY" height="1133.3333px" preserveAspectRatio="none" style="width:406px;height:1133px;" version="1.1" viewBox="0 0 406 1133" width="406.25px" zoomAndPan="magnify"><title>&#20998;&#25903;&#21028;&#23450;&#22270;</title><defs><linearGradient id="g1tgbv9lpf3tr00" x1="50%" x2="50%" y1="0%" y2="100%"><stop offset="0%" stop-color="#FFFFFF"/><stop offset="100%" stop-color="#FFFFFF"/></linearGradient><filter height="300%" id="f1tgbv9lpf3tr0" width="300%" x="-1" y="-1"><feGaussianBlur result="blurOut" stdDeviation="2.0833"/><feColorMatrix in="blurOut" result="blurOut2" type="matrix" values="0 0 0 0 0 0 0 0 0 0 0 0 0 0 0 0 0 0 .4 0"/><feOffset dx="4.1667" dy="4.1667" in="blurOut2" result="blurOut3"/><feBlend in="SourceGraphic" in2="blurOut3" mode="normal"/></filter><linearGradient id="g1tgbv9lpf3tr01" x1="50%" x2="50%" y1="0%" y2="100%"><stop offset="0%" stop-color="#4DABF5"/><stop offset="100%" stop-color="#2196F3"/></linearGradient></defs><g><g class="title" data-source-line="18"><rect fill="url(#g1tgbv9lpf3tr00)" height="58.6528" rx="4.1667" ry="4.1667" style="stroke:#CCCCCC;stroke-width:1.0417;" width="137.5" x="133.194" y="20.8333"/><text fill="#FFFFFF" font-family="'Verdana'" font-size="20.8333" font-weight="bold" lengthAdjust="spacing" textLength="104.1667" x="149.8606" y="58.4452">&#20998;&#25903;&#21028;&#23450;&#22270;</text></g><ellipse cx="194.1315" cy="101.3611" fill="#9C27B0" filter="url(#f1tgbv9lpf3tr0)" rx="10.4167" ry="10.4167" style="stroke:#1A78C2;stroke-width:1.0417;"/><rect fill="url(#g1tgbv9lpf3tr01)" filter="url(#f1tgbv9lpf3tr0)" height="48.525" rx="4.1667" ry="4.1667" style="stroke:#FFFFFF;stroke-width:1.0417;" width="142.6656" x="122.7987" y="132.6111"/><text fill="#FFFFFF" font-family="'Verdana'" font-size="12.5" lengthAdjust="spacing" textLength="109.3323" x="139.4653" y="161.8449">&#35835;&#21462; observations</text><rect fill="url(#g1tgbv9lpf3tr01)" filter="url(#f1tgbv9lpf3tr0)" height="48.525" rx="4.1667" ry="4.1667" style="stroke:#FFFFFF;stroke-width:1.0417;" width="191.5059" x="98.3785" y="274.7569"/><text fill="#FFFFFF" font-family="'Verdana'" font-size="12.5" lengthAdjust="spacing" textLength="158.1726" x="115.0452" y="303.9907">&#28165;&#31354; pending suggestions</text><ellipse cx="194.1315" cy="355.5735" fill="none" filter="url(#f1tgbv9lpf3tr0)" rx="11.4583" ry="11.4583" style="stroke:#1A78C2;stroke-width:1.0417;"/><ellipse cx="194.1315" cy="355.5735" fill="none" rx="6.25" ry="6.25" style="stroke:#1A78C2;stroke-width:1.0417;"/><polygon fill="url(#g1tgbv9lpf3tr00)" filter="url(#f1tgbv9lpf3tr0)" points="52.5777,201.9694,335.6852,201.9694,348.1852,219.9819,335.6852,237.9944,52.5777,237.9944,40.0777,219.9819,52.5777,201.9694" style="stroke:#FFFFFF;stroke-width:1.0417;"/><text fill="#FFFFFF" font-family="'Verdana'" font-size="12.5" lengthAdjust="spacing" textLength="12.5" x="208.7148" y="260.9782">&#26159;</text><text fill="#FFFFFF" font-family="'Verdana'" font-size="12.5" lengthAdjust="spacing" textLength="262.2742" x="62.9944" y="224.9532">observations.length &lt; minimumSamples?</text><rect fill="url(#g1tgbv9lpf3tr01)" filter="url(#f1tgbv9lpf3tr0)" height="48.525" rx="4.1667" ry="4.1667" style="stroke:#FFFFFF;stroke-width:1.0417;" width="258.1441" x="65.0594" y="556.3568"/><text fill="#FFFFFF" font-family="'Verdana'" font-size="12.5" lengthAdjust="spacing" textLength="224.8108" x="81.7261" y="585.5906">&#29983;&#25104; SIGNAL_ENGINE_WEIGHT &#24314;&#35758;</text><polygon fill="url(#g1tgbv9lpf3tr00)" filter="url(#f1tgbv9lpf3tr0)" points="49.9135,483.5693,338.3494,483.5693,350.8494,501.5818,338.3494,519.5943,49.9135,519.5943,37.4135,501.5818,49.9135,483.5693" style="stroke:#FFFFFF;stroke-width:1.0417;"/><text fill="#FFFFFF" font-family="'Verdana'" font-size="12.5" lengthAdjust="spacing" textLength="12.5" x="208.7148" y="542.5781">&#26159;</text><text fill="#FFFFFF" font-family="'Verdana'" font-size="12.5" lengthAdjust="spacing" textLength="267.6025" x="60.3302" y="506.5531">successRateDiff &#19982; avgReturnDiff &#22343;&#36807;&#38408;&#20540;?</text><polygon fill="url(#g1tgbv9lpf3tr00)" filter="url(#f1tgbv9lpf3tr0)" points="194.1315,625.7151,206.6315,638.2151,194.1315,650.7151,181.6315,638.2151,194.1315,625.7151" style="stroke:#FFFFFF;stroke-width:1.0417;"/><polygon fill="url(#g1tgbv9lpf3tr00)" filter="url(#f1tgbv9lpf3tr0)" points="33.3333,410.7819,354.9296,410.7819,367.4296,428.7944,354.9296,446.8068,33.3333,446.8068,20.8333,428.7944,33.3333,410.7819" style="stroke:#FFFFFF;stroke-width:1.0417;"/><text fill="#FFFFFF" font-family="'Verdana'" font-size="12.5" lengthAdjust="spacing" textLength="12.5" x="208.7148" y="469.7906">&#26159;</text><text fill="#FFFFFF" font-family="'Verdana'" font-size="12.5" lengthAdjust="spacing" textLength="300.7629" x="43.75" y="433.7657">positiveBucket / negativeBucket &#26679;&#26412;&#25968;&#37117; &gt;= 4?</text><polygon fill="url(#g1tgbv9lpf3tr00)" filter="url(#f1tgbv9lpf3tr0)" points="194.1315,671.5485,206.6315,684.0485,194.1315,696.5485,181.6315,684.0485,194.1315,671.5485" style="stroke:#FFFFFF;stroke-width:1.0417;"/><rect fill="url(#g1tgbv9lpf3tr01)" filter="url(#f1tgbv9lpf3tr0)" height="48.525" rx="4.1667" ry="4.1667" style="stroke:#FFFFFF;stroke-width:1.0417;" width="212.1724" x="88.0452" y="790.1693"/><text fill="#FFFFFF" font-family="'Verdana'" font-size="12.5" lengthAdjust="spacing" textLength="178.8391" x="104.7119" y="819.4031">&#29983;&#25104; CONTEXT_WEIGHT &#24314;&#35758;</text><polygon fill="url(#g1tgbv9lpf3tr00)" filter="url(#f1tgbv9lpf3tr0)" points="56.2337,717.3818,332.0292,717.3818,344.5292,735.3943,332.0292,753.4068,56.2337,753.4068,43.7337,735.3943,56.2337,717.3818" style="stroke:#FFFFFF;stroke-width:1.0417;"/><text fill="#FFFFFF" font-family="'Verdana'" font-size="12.5" lengthAdjust="spacing" textLength="12.5" x="208.7148" y="776.3906">&#26159;</text><text fill="#FFFFFF" font-family="'Verdana'" font-size="12.5" lengthAdjust="spacing" textLength="254.9622" x="66.6504" y="740.3656">&#26576;&#20010; market state bucket &#36275;&#22815;&#22823;&#19988;&#26368;&#26174;&#33879;?</text><polygon fill="url(#g1tgbv9lpf3tr00)" filter="url(#f1tgbv9lpf3tr0)" points="194.1315,859.5276,206.6315,872.0276,194.1315,884.5276,181.6315,872.0276,194.1315,859.5276" style="stroke:#FFFFFF;stroke-width:1.0417;"/><rect fill="url(#g1tgbv9lpf3tr01)" filter="url(#f1tgbv9lpf3tr0)" height="48.525" rx="4.1667" ry="4.1667" style="stroke:#FFFFFF;stroke-width:1.0417;" width="227.5533" x="80.3548" y="978.1484"/><text fill="#FFFFFF" font-family="'Verdana'" font-size="12.5" lengthAdjust="spacing" textLength="194.22" x="97.0215" y="1007.3822">&#29983;&#25104; ACTION_THRESHOLD &#24314;&#35758;</text><polygon fill="url(#g1tgbv9lpf3tr00)" filter="url(#f1tgbv9lpf3tr0)" points="64.3972,905.3609,323.8658,905.3609,336.3658,923.3734,323.8658,941.3859,64.3972,941.3859,51.8972,923.3734,64.3972,905.3609" style="stroke:#FFFFFF;stroke-width:1.0417;"/><text fill="#FFFFFF" font-family="'Verdana'" font-size="12.5" lengthAdjust="spacing" textLength="12.5" x="208.7148" y="964.3697">&#26159;</text><text fill="#FFFFFF" font-family="'Verdana'" font-size="12.5" lengthAdjust="spacing" textLength="238.6353" x="74.8138" y="928.3447">bullishActions &#26679;&#26412; &gt;= 4 &#19988;&#24046;&#20540;&#36807;&#38408;&#20540;?</text><polygon fill="url(#g1tgbv9lpf3tr00)" filter="url(#f1tgbv9lpf3tr0)" points="194.1315,1047.5067,206.6315,1060.0067,194.1315,1072.5067,181.6315,1060.0067,194.1315,1047.5067" style="stroke:#FFFFFF;stroke-width:1.0417;"/><ellipse cx="194.1315" cy="1104.7984" fill="none" filter="url(#f1tgbv9lpf3tr0)" rx="11.4583" ry="11.4583" style="stroke:#1A78C2;stroke-width:1.0417;"/><ellipse cx="194.1315" cy="1104.7984" fill="none" rx="6.25" ry="6.25" style="stroke:#1A78C2;stroke-width:1.0417;"/><line style="stroke:#FFFFFF;stroke-width:3.125;" x1="194.1315" x2="194.1315" y1="111.7778" y2="132.6111"/><polygon fill="#FFFFFF" points="189.9648,122.1944,194.1315,132.6111,198.2981,122.1944,194.1315,126.3611" style="stroke:#FFFFFF;stroke-width:1.0417;"/><line style="stroke:#FFFFFF;stroke-width:3.125;" x1="194.1315" x2="194.1315" y1="323.2819" y2="344.1152"/><polygon fill="#FFFFFF" points="189.9648,333.6985,194.1315,344.1152,198.2981,333.6985,194.1315,337.8652" style="stroke:#FFFFFF;stroke-width:1.0417;"/><line style="stroke:#FFFFFF;stroke-width:3.125;" x1="194.1315" x2="194.1315" y1="237.9944" y2="274.7569"/><polygon fill="#FFFFFF" points="189.9648,264.3402,194.1315,274.7569,198.2981,264.3402,194.1315,268.5069" style="stroke:#FFFFFF;stroke-width:1.0417;"/><line style="stroke:#FFFFFF;stroke-width:3.125;" x1="348.1852" x2="360.6852" y1="219.9819" y2="219.9819"/><polygon fill="#FFFFFF" points="356.5186,312.409,360.6852,322.8256,364.8519,312.409,360.6852,316.5756" style="stroke:#FFFFFF;stroke-width:3.125;"/><line style="stroke:#FFFFFF;stroke-width:3.125;" x1="360.6852" x2="360.6852" y1="219.9819" y2="389.9485"/><line style="stroke:#FFFFFF;stroke-width:3.125;" x1="360.6852" x2="194.1315" y1="389.9485" y2="389.9485"/><line style="stroke:#FFFFFF;stroke-width:3.125;" x1="194.1315" x2="194.1315" y1="389.9485" y2="410.7819"/><polygon fill="#FFFFFF" points="189.9648,400.3652,194.1315,410.7819,198.2981,400.3652,194.1315,404.5319" style="stroke:#FFFFFF;stroke-width:1.0417;"/><line style="stroke:#FFFFFF;stroke-width:3.125;" x1="194.1315" x2="194.1315" y1="181.1361" y2="201.9694"/><polygon fill="#FFFFFF" points="189.9648,191.5527,194.1315,201.9694,198.2981,191.5527,194.1315,195.7194" style="stroke:#FFFFFF;stroke-width:1.0417;"/><line style="stroke:#FFFFFF;stroke-width:3.125;" x1="194.1315" x2="194.1315" y1="519.5943" y2="556.3568"/><polygon fill="#FFFFFF" points="189.9648,545.9401,194.1315,556.3568,198.2981,545.9401,194.1315,550.1068" style="stroke:#FFFFFF;stroke-width:1.0417;"/><line style="stroke:#FFFFFF;stroke-width:3.125;" x1="350.8494" x2="363.3494" y1="501.5818" y2="501.5818"/><polygon fill="#FFFFFF" points="359.1827,577.8631,363.3494,588.2797,367.5161,577.8631,363.3494,582.0297" style="stroke:#FFFFFF;stroke-width:3.125;"/><line style="stroke:#FFFFFF;stroke-width:3.125;" x1="363.3494" x2="363.3494" y1="501.5818" y2="638.2151"/><line style="stroke:#FFFFFF;stroke-width:3.125;" x1="363.3494" x2="206.6315" y1="638.2151" y2="638.2151"/><polygon fill="#FFFFFF" points="217.0481,634.0485,206.6315,638.2151,217.0481,642.3818,212.8815,638.2151" style="stroke:#FFFFFF;stroke-width:1.0417;"/><line style="stroke:#FFFFFF;stroke-width:3.125;" x1="194.1315" x2="194.1315" y1="604.8818" y2="625.7151"/><polygon fill="#FFFFFF" points="189.9648,615.2985,194.1315,625.7151,198.2981,615.2985,194.1315,619.4651" style="stroke:#FFFFFF;stroke-width:1.0417;"/><line style="stroke:#FFFFFF;stroke-width:3.125;" x1="194.1315" x2="194.1315" y1="446.8068" y2="483.5693"/><polygon fill="#FFFFFF" points="189.9648,473.1527,194.1315,483.5693,198.2981,473.1527,194.1315,477.3193" style="stroke:#FFFFFF;stroke-width:1.0417;"/><line style="stroke:#FFFFFF;stroke-width:3.125;" x1="367.4296" x2="379.9296" y1="428.7944" y2="428.7944"/><polygon fill="#FFFFFF" points="375.7629,582.7672,379.9296,593.1839,384.0963,582.7672,379.9296,586.9339" style="stroke:#FFFFFF;stroke-width:3.125;"/><line style="stroke:#FFFFFF;stroke-width:3.125;" x1="379.9296" x2="379.9296" y1="428.7944" y2="684.0485"/><line style="stroke:#FFFFFF;stroke-width:3.125;" x1="379.9296" x2="206.6315" y1="684.0485" y2="684.0485"/><polygon fill="#FFFFFF" points="217.0481,679.8818,206.6315,684.0485,217.0481,688.2151,212.8815,684.0485" style="stroke:#FFFFFF;stroke-width:1.0417;"/><line style="stroke:#FFFFFF;stroke-width:3.125;" x1="194.1315" x2="194.1315" y1="650.7151" y2="671.5485"/><polygon fill="#FFFFFF" points="189.9648,661.1318,194.1315,671.5485,198.2981,661.1318,194.1315,665.2985" style="stroke:#FFFFFF;stroke-width:1.0417;"/><line style="stroke:#FFFFFF;stroke-width:3.125;" x1="194.1315" x2="194.1315" y1="753.4068" y2="790.1693"/><polygon fill="#FFFFFF" points="189.9648,779.7526,194.1315,790.1693,198.2981,779.7526,194.1315,783.9193" style="stroke:#FFFFFF;stroke-width:1.0417;"/><line style="stroke:#FFFFFF;stroke-width:3.125;" x1="344.5292" x2="357.0292" y1="735.3943" y2="735.3943"/><polygon fill="#FFFFFF" points="352.8625,811.6755,357.0292,822.0922,361.1959,811.6755,357.0292,815.8422" style="stroke:#FFFFFF;stroke-width:3.125;"/><line style="stroke:#FFFFFF;stroke-width:3.125;" x1="357.0292" x2="357.0292" y1="735.3943" y2="872.0276"/><line style="stroke:#FFFFFF;stroke-width:3.125;" x1="357.0292" x2="206.6315" y1="872.0276" y2="872.0276"/><polygon fill="#FFFFFF" points="217.0481,867.8609,206.6315,872.0276,217.0481,876.1943,212.8815,872.0276" style="stroke:#FFFFFF;stroke-width:1.0417;"/><line style="stroke:#FFFFFF;stroke-width:3.125;" x1="194.1315" x2="194.1315" y1="838.6943" y2="859.5276"/><polygon fill="#FFFFFF" points="189.9648,849.1109,194.1315,859.5276,198.2981,849.1109,194.1315,853.2776" style="stroke:#FFFFFF;stroke-width:1.0417;"/><line style="stroke:#FFFFFF;stroke-width:3.125;" x1="194.1315" x2="194.1315" y1="696.5485" y2="717.3818"/><polygon fill="#FFFFFF" points="189.9648,706.9651,194.1315,717.3818,198.2981,706.9651,194.1315,711.1318" style="stroke:#FFFFFF;stroke-width:1.0417;"/><line style="stroke:#FFFFFF;stroke-width:3.125;" x1="194.1315" x2="194.1315" y1="941.3859" y2="978.1484"/><polygon fill="#FFFFFF" points="189.9648,967.7317,194.1315,978.1484,198.2981,967.7317,194.1315,971.8984" style="stroke:#FFFFFF;stroke-width:1.0417;"/><line style="stroke:#FFFFFF;stroke-width:3.125;" x1="336.3658" x2="348.8658" y1="923.3734" y2="923.3734"/><polygon fill="#FFFFFF" points="344.6991,999.6546,348.8658,1010.0713,353.0324,999.6546,348.8658,1003.8213" style="stroke:#FFFFFF;stroke-width:3.125;"/><line style="stroke:#FFFFFF;stroke-width:3.125;" x1="348.8658" x2="348.8658" y1="923.3734" y2="1060.0067"/><line style="stroke:#FFFFFF;stroke-width:3.125;" x1="348.8658" x2="206.6315" y1="1060.0067" y2="1060.0067"/><polygon fill="#FFFFFF" points="217.0481,1055.84,206.6315,1060.0067,217.0481,1064.1734,212.8815,1060.0067" style="stroke:#FFFFFF;stroke-width:1.0417;"/><line style="stroke:#FFFFFF;stroke-width:3.125;" x1="194.1315" x2="194.1315" y1="1026.6734" y2="1047.5067"/><polygon fill="#FFFFFF" points="189.9648,1037.09,194.1315,1047.5067,198.2981,1037.09,194.1315,1041.2567" style="stroke:#FFFFFF;stroke-width:1.0417;"/><line style="stroke:#FFFFFF;stroke-width:3.125;" x1="194.1315" x2="194.1315" y1="884.5276" y2="905.3609"/><polygon fill="#FFFFFF" points="189.9648,894.9443,194.1315,905.3609,198.2981,894.9443,194.1315,899.1109" style="stroke:#FFFFFF;stroke-width:1.0417;"/><line style="stroke:#FFFFFF;stroke-width:3.125;" x1="194.1315" x2="194.1315" y1="1072.5067" y2="1093.34"/><polygon fill="#FFFFFF" points="189.9648,1082.9234,194.1315,1093.34,198.2981,1082.9234,194.1315,1087.09" style="stroke:#FFFFFF;stroke-width:1.0417;"/><?plantuml-src ZLDFQnf15B_lftYbb-JIN7fA_s7Kg20QL6XlCgvlry7TcUtChAMtG6dZAKt1DjAcs8DGMeeM2eqaRVfbd8tv5jqr2ej1unxV--tltxwzenhe8hX4eQ34a4tAF2A82tMqYE-eNSvKaZjSmDtTwHE398JWBvOjyvJXijqUCPl4nXqkwYYMWKfeAi9ivnPOahiUPyZKQbWPd_l8J5pfUGxAKmiZ_-jHxX6Xg4azigw7s0ihwpKLRL7rSZNf7BKEKueIbxFwUeGpy2hUiWhFvfRC4UGcXwBAGT3jDq5dgDjzFVYeFrqOKeND6DkJuRb--m5uJQ9e4KKvamyCQi56V7BFGMQh1Zm4bpBg-cwPk9w3yiacX2VDO2Fe3ZSDWErWzFhosnbuoEgKsI1zsqOv8mMGYdj6jBACgOJ79GtpuuvlDb715Z2qIMmGV3aDJdu4xtzUlVeBZn_1_KMzY4JwfebIbiBeAMfPC1uT0cdP9LI-ODE9_dmm-NTmrMth_J-B3A7doqulQ1z1EPSf9FBLT26JAwIhJzEvJBO2-lniCXX4tgzjnym7lQFnw7luCul8geogXzgrxydlNxhVq_slur4dEDaFkXUJTyStkfhf9ek5IlfPPL4nfbJp7OVAHdGhOP6pLgPzX64x-dGGvbeQS2wJI5PonKAraYsbozbYFhKW57sQ_m00?></g></svg>