<?plantuml 1.2026.2?><svg xmlns="http://www.w3.org/2000/svg" xmlns:xlink="http://www.w3.org/1999/xlink" contentStyleType="text/css" data-diagram-type="STATE" height="750px" preserveAspectRatio="none" style="width:647px;height:750px;" version="1.1" viewBox="0 0 647 750" width="647.9167px" zoomAndPan="magnify"><title>&#29366;&#24577;&#22270;</title><defs><linearGradient id="g1pxv4eslsw9eu0" x1="50%" x2="50%" y1="0%" y2="100%"><stop offset="0%" stop-color="#FFFFFF"/><stop offset="100%" stop-color="#FFFFFF"/></linearGradient><filter height="300%" id="f1pxv4eslsw9eu" width="300%" x="-1" y="-1"><feGaussianBlur result="blurOut" stdDeviation="2.0833"/><feColorMatrix in="blurOut" result="blurOut2" type="matrix" values="0 0 0 0 0 0 0 0 0 0 0 0 0 0 0 0 0 0 .4 0"/><feOffset dx="4.1667" dy="4.1667" in="blurOut2" result="blurOut3"/><feBlend in="SourceGraphic" in2="blurOut3" mode="normal"/></filter><linearGradient id="g1pxv4eslsw9eu1" x1="50%" x2="50%" y1="0%" y2="100%"><stop offset="0%" stop-color="#4DABF5"/><stop offset="100%" stop-color="#2196F3"/></linearGradient></defs><g><g class="title" data-source-line="18"><rect fill="url(#g1pxv4eslsw9eu0)" height="58.6528" rx="4.1667" ry="4.1667" style="stroke:#CCCCCC;stroke-width:1.0417;" width="95.8333" x="271.4115" y="20.8333"/><text fill="#FFFFFF" font-family="'Verdana'" font-size="20.8333" font-weight="bold" lengthAdjust="spacing" textLength="62.5" x="288.0781" y="58.4452">&#29366;&#24577;&#22270;</text></g><g class="start_entity" data-qualified-name=".start." data-source-line="19" id="ent0002"><ellipse cx="338.6563" cy="107.6111" fill="#9C27B0" filter="url(#f1pxv4eslsw9eu)" rx="10.4167" ry="10.4167" style="stroke:#1A78C2;stroke-width:1.0417;"/></g><g class="entity" data-qualified-name="PENDING" id="ent0003"><rect fill="url(#g1pxv4eslsw9eu1)" filter="url(#f1pxv4eslsw9eu)" height="76.4257" rx="4.1667" ry="4.1667" style="stroke:#FFFFFF;stroke-width:1.0417;" width="95.5007" x="290.7396" y="218.0278"/><line style="stroke:#FFFFFF;stroke-width:1.0417;" x1="290.7396" x2="386.2403" y1="263.2034" y2="263.2034"/><text fill="#FFFFFF" font-family="'Verdana'" font-size="11.4583" lengthAdjust="spacing" textLength="53.834" x="311.5729" y="245.1726">PENDING</text></g><g class="entity" data-qualified-name="RUNNING" id="ent0005"><rect fill="url(#g1pxv4eslsw9eu1)" filter="url(#f1pxv4eslsw9eu)" height="76.4257" rx="4.1667" ry="4.1667" style="stroke:#FFFFFF;stroke-width:1.0417;" width="97.4421" x="289.6979" y="394.0694"/><line style="stroke:#FFFFFF;stroke-width:1.0417;" x1="289.6979" x2="387.14" y1="439.2451" y2="439.2451"/><text fill="#FFFFFF" font-family="'Verdana'" font-size="11.4583" lengthAdjust="spacing" textLength="55.7755" x="310.5313" y="421.2143">RUNNING</text></g><g class="entity" data-qualified-name="PAUSED" id="ent0007"><rect fill="url(#g1pxv4eslsw9eu1)" filter="url(#f1pxv4eslsw9eu)" height="76.4257" rx="4.1667" ry="4.1667" style="stroke:#FFFFFF;stroke-width:1.0417;" width="88.7029" x="87.0938" y="570.1111"/><line style="stroke:#FFFFFF;stroke-width:1.0417;" x1="87.0938" x2="175.7967" y1="615.2868" y2="615.2868"/><text fill="#FFFFFF" font-family="'Verdana'" font-size="11.4583" lengthAdjust="spacing" textLength="47.0362" x="107.9271" y="597.256">PAUSED</text></g><g class="entity" data-qualified-name="CANCELLED" id="ent0010"><rect fill="url(#g1pxv4eslsw9eu1)" filter="url(#f1pxv4eslsw9eu)" height="76.4257" rx="4.1667" ry="4.1667" style="stroke:#FFFFFF;stroke-width:1.0417;" width="110.1481" x="400.1146" y="570.1111"/><line style="stroke:#FFFFFF;stroke-width:1.0417;" x1="400.1146" x2="510.2627" y1="615.2868" y2="615.2868"/><text fill="#FFFFFF" font-family="'Verdana'" font-size="11.4583" lengthAdjust="spacing" textLength="68.4814" x="420.9479" y="597.256">CANCELLED</text></g><g class="end_entity" data-qualified-name=".end." data-source-line="24" id="ent0012"><ellipse cx="518.8646" cy="721.1528" fill="none" filter="url(#f1pxv4eslsw9eu)" rx="11.4583" ry="11.4583" style="stroke:#9C27B0;stroke-width:1.0417;"/><ellipse cx="518.8646" cy="721.1528" fill="none" rx="6.25" ry="6.25" style="stroke:#9C27B0;stroke-width:1.0417;"/></g><!--link *start* to PENDING--><g class="link" data-entity-1="ent0002" data-entity-2="ent0003" data-link-type="dependency" data-source-line="19" id="lnk4"><path d="M338.6563,118.2569 C338.6563,138.1007 338.6563,178.2882 338.6563,211.5382" fill="none" id="*start*-to-PENDING" style="stroke:#FFFFFF;stroke-width:3.125;"/><polygon fill="#FFFFFF" points="338.6563,217.7882,342.8229,208.4132,338.6563,212.5798,334.4896,208.4132,338.6563,217.7882" style="stroke:#FFFFFF;stroke-width:3.125;"/><text fill="#FFFFFF" font-family="'Verdana'" font-size="12.5" lengthAdjust="spacing" textLength="75.0366" x="350.1146" y="173.3032">createRun()</text></g><!--link PENDING to RUNNING--><g class="link" data-entity-1="ent0003" data-entity-2="ent0005" data-link-type="dependency" data-source-line="20" id="lnk6"><path d="M338.6563,294.4132 C338.6563,323.7569 338.6563,358.2048 338.6563,387.5382" fill="none" id="PENDING-to-RUNNING" style="stroke:#FFFFFF;stroke-width:3.125;"/><polygon fill="#FFFFFF" points="338.6563,393.7882,342.8229,384.4132,338.6563,388.5798,334.4896,384.4132,338.6563,393.7882" style="stroke:#FFFFFF;stroke-width:3.125;"/><text fill="#FFFFFF" font-family="'Verdana'" font-size="12.5" lengthAdjust="spacing" textLength="131.8237" x="350.1146" y="349.3449">workflow runner &#21551;&#21160;</text></g><!--link RUNNING to PAUSED--><g class="link" data-entity-1="ent0005" data-entity-2="ent0007" data-link-type="dependency" data-source-line="21" id="lnk8"><path d="M289.5104,437.0798 C212.8542,444.3715 70.3958,462.8611 39.6979,501.3611 C16.6667,530.2361 48.0126,558.761 81.5751,579.886" fill="none" id="RUNNING-to-PAUSED" style="stroke:#FFFFFF;stroke-width:3.125;"/><polygon fill="#FFFFFF" points="86.8646,583.2153,81.1499,574.695,82.4567,580.4408,76.7109,581.7476,86.8646,583.2153" style="stroke:#FFFFFF;stroke-width:3.125;"/><text fill="#FFFFFF" font-family="'Verdana'" font-size="12.5" lengthAdjust="spacing" textLength="112.5" x="51.1563" y="525.3866">&#20154;&#24037;&#23457;&#25209;&#25110;&#20013;&#26029;&#31561;&#24453;</text></g><!--link PAUSED to RUNNING--><g class="link" data-entity-1="ent0007" data-entity-2="ent0005" data-link-type="dependency" data-source-line="22" id="lnk9"><path d="M157.3229,570.0278 C175.9688,544.0486 199.9688,512.1319 212.6146,501.3611 C235.5208,481.8298 259.2977,468.2109 283.9435,456.4401" fill="none" id="PAUSED-to-RUNNING" style="stroke:#FFFFFF;stroke-width:3.125;"/><polygon fill="#FFFFFF" points="289.5833,453.7465,279.3279,454.027,284.8835,455.9911,282.9194,461.5467,289.5833,453.7465" style="stroke:#FFFFFF;stroke-width:3.125;"/><text fill="#FFFFFF" font-family="'Verdana'" font-size="12.5" lengthAdjust="spacing" textLength="174.7742" x="224.0729" y="525.3866">approveScreeningInsights()</text></g><!--link RUNNING to CANCELLED--><g class="link" data-entity-1="ent0005" data-entity-2="ent0010" data-link-type="dependency" data-source-line="23" id="lnk11"><path d="M387.8333,468.5486 C398.8125,478.2257 409.625,489.3819 417.8229,501.3611 C431.8958,521.934 439.6131,542.3453 445.4673,563.6266" fill="none" id="RUNNING-to-CANCELLED" style="stroke:#FFFFFF;stroke-width:3.125;"/><polygon fill="#FFFFFF" points="447.125,569.6528,448.6559,559.5084,445.7436,564.631,440.621,561.7187,447.125,569.6528" style="stroke:#FFFFFF;stroke-width:3.125;"/><text fill="#FFFFFF" font-family="'Verdana'" font-size="12.5" lengthAdjust="spacing" textLength="75.1831" x="448.0313" y="525.3866">cancelRun()</text></g><!--link RUNNING to *end*--><g class="link" data-entity-1="ent0005" data-entity-2="ent0012" data-link-type="dependency" data-source-line="24" id="lnk13"><path d="M388.0521,434.2153 C436.4167,438.2257 507.7604,452.684 542.8229,501.3611 C591.0417,568.3298 543.7019,672.4645 526.8373,705.1103" fill="none" id="RUNNING-to-*end*" style="stroke:#FFFFFF;stroke-width:3.125;"/><polygon fill="#FFFFFF" points="523.9688,710.6632,531.9735,704.2463,526.3592,706.0358,524.5697,700.4216,523.9688,710.6632" style="stroke:#FFFFFF;stroke-width:3.125;"/><text fill="#FFFFFF" font-family="'Verdana'" font-size="12.5" lengthAdjust="spacing" textLength="50" x="574.0729" y="613.4074">&#27491;&#24120;&#23436;&#25104;</text></g><!--link CANCELLED to *end*--><g class="link" data-entity-1="ent0010" data-entity-2="ent0012" data-link-type="dependency" data-source-line="25" id="lnk14"><path d="M476.6563,646.4236 C489.7813,669.3403 502.4681,691.4889 510.4994,705.5201" fill="none" id="CANCELLED-to-*end*" style="stroke:#FFFFFF;stroke-width:3.125;"/><polygon fill="#FFFFFF" points="513.6042,710.9444,512.5632,700.7381,511.0169,706.4242,505.3308,704.8778,513.6042,710.9444" style="stroke:#FFFFFF;stroke-width:3.125;"/></g><?plantuml-src ZP8nJy905CVtVeepBch25s0mmGA6f6a83PDnk1oFSg6zgySLugQ32H079XOdOqnS2fiY0v-6Ar_35cYiCPJUUE_tVlT_TtSYE-02Sh44GR7MwrBcOO5Tr88szXrPvKpgtE42dLQtAuMKXE23GqM3CZXKgsFInJPSST42SGXg096OsSuHJEUknnamcOrPSES38v2PEO4CseOuVpvb7Gj92VLmtWofXiph9PBsgRpFbYPK7bEPOfUpLZxX7ixoMZBwDaTcZf7_3acb0sWp_WmV7jNBIhkvk4M5mYMgLynopRn6HKG4H9qDdvsTQybkJ3IQfhaZ1bnqsmuV8E4p1WAfoLoDFxG4sEfAJQjIZjZrSgc-tjNiDHnzXyFfUX64qs0JZDJgITj3V-NOymJlWnN504QPNMCzQdTaBqgJFa0lcNh5CBPd41ozhRDBd6RYsOee3DxKOg5cp-5melssxO4V?></g></svg>